/* XPM */
static char *_611adb83fed4c3cd16db1bcdee9ffcezaPBKrRFStdcejsz[] = {
/* columns rows colors chars-per-pixel */
"128 128 45 1 ",
"  c #000001",
". c #2B230F",
"X c #3B2F17",
"o c #232323",
"O c #2F2F2F",
"+ c gray23",
"@ c #430001",
"# c #4B0001",
"$ c #570001",
"% c #6F0001",
"& c #770001",
"* c #43331B",
"= c #4B3B1B",
"- c #573F1F",
"; c #5F4323",
": c #6F4B27",
"> c #774F2B",
", c #434343",
"< c #4B4B4B",
"1 c gray34",
"2 c #676767",
"3 c gray45",
"4 c gray50",
"5 c #830001",
"6 c #8F0001",
"7 c #A70001",
"8 c #B30001",
"9 c #BF0001",
"0 c #CB0001",
"q c #E30001",
"w c #83532F",
"e c #8B5B33",
"r c #935F37",
"t c #9F633B",
"y c #A3673F",
"u c #AB6B43",
"i c #B77347",
"p c #BF7B4B",
"a c #CB7F4F",
"s c #D38353",
"d c #DF8B57",
"f c #EB8F5B",
"g c #980088",
"h c #9B9B9B",
"j c #B7B7B7",
/* pixels */
"gggggggggggggggggggggggggggggggggggggggggggggggggggggggggggggggggggggggggggggggggggggggggggggggggggggggggggggggggggggggggggggggg",
"gggggggggggggggggggggggggggggggggggggggggggggggggggggggggggggggggggggggggggggggggggggggggggggggggggggggggggggggggggggggggggggggg",
"gggggggggggggggggggggggggggggggggggggggggggggggggggggggggggggggggggggggggggggggggggggggggggggggggggggggggggggggggggggggggggggggg",
"gggggggggggggggggggggggggggggggggggggggggggggggggggggggggggggggggggggggggggggggggggggggggggggggggggggggggggggggggggggggggggggggg",
"gggggggggggggggggggggggggggggggggggggggggggggggggggggggggggggggggggggggggggggggggggggggggggggggggggggggggggggggggggggggggggggggg",
"gggggggggggggggggggggggggggggggggggggggggggggggggggggggggggggggggggggggggggggggggggggggggggggggggggggggggggggggggggggggggggggggg",
"gggggggggggggggggggggggggggggggggggggggggggggggggggggggggggggggggggggggggggggggggggggggggggggggggggggggggggggggggggggggggggggggg",
"gggggggggggggggggggggggggggggggggggggggggggggggggggggggggggggggggggggggggggggggggggggggggggggggggggggggggggggggggggggggggggggggg",
"gggggggggggggggggggggggggggggggggggggggggggggggggggggggggggggggggggggggggggggggggggggggggggggggggggggggggggggggggggggggggggggggg",
"gggggggggggggggggggggggggggggggggggggggggggggggggggggggggggggggggggggggggggggggggggggggggggggggggggggggggggggggggggggggggggggggg",
"gggggggggggggggggggggggggggggggggggggggggggggggggggggggggggggggggggggggggggggggggggggggggggggggggggggggggggggggggggggggggggggggg",
"gggggggggggggggggggggggggggggggggggggggggggggggggggggggggggggggggggggggggggggggggggggggggggggggggggggggggggggggggggggggggggggggg",
"gggggggggggggggggggggggggggggggggggggggggggggggggggggggggggggggggggggggggggggggggggggggggggggggggggggggggggggggggggggggggggggggg",
"gggggggggggggggggggggggggggggggggggggggggggggggggggggggggggggggggggggggggggggggggggggggggggggggggggggggggggggggggggggggggggggggg",
"gggggggggggggggggggggggggggggggggggggggggggggggggggggggggggggggggggggggggggggggggggggggggggggggggggggggggggggggggggggggggggggggg",
"gggggggggggggggggggggggggggggggggggggggggggggggggggggggggggggggggggggggggggggggggggggggggggggggggggggggggggggggggggggggggggggggg",
"gggggggggggggggggggggggggggggggggggggggggggggggggggggggggggggggggggggggggggggggggggggggggggggggggggggggggggggggggggggggggggggggg",
"gggggggggggggggggggggggggggggggggggggggggggggggggggggggggggggggggggggggggggggggggggggggggggggggggggggggggggggggggggggggggggggggg",
"gggggggggggggggggggggggggggggggggggggggggggggggggggggggggggggggggggggggggggggggggggggggggggggggggggggggggggggggggggggggggggggggg",
"gggggggggggggggggggggggggggggggggggggggggggggggggggggggggggggggggggggggggggggggggggggggggggggggggggggggggggggggggggggggggggggggg",
"gggggggggggggggggggggggggggggggggggggggggggggggggggggggggggggggggggggggggggggggggggggggggggggggggggggggggggggggggggggggggggggggg",
"gggggggggggggggggggggggggggggggggggggggggggggggggggggggggggggggggggggggggggggggggggggggggggggggggggggggggggggggggggggggggggggggg",
"gggggggggggggggggggggggggggggggggggggggggggggggggggggggggggggggggggggggggggggggggggggggggggggggggggggggggggggggggggggggggggggggg",
"gggggggggggggggggggggggggggggggggggggggggggggggggggggggggggggggggggggggggggggggggggggggggggggggggggggggggggggggggggggggggggggggg",
"gggggggggggggggggggggggggggggggggggggggggggggggggggggggggggggggggggggggggggggggggggggggggggggggggggggggggggggggggggggggggggggggg",
"gggggggggggggggggggggggggggggggggggggggggggggggggggggggggggggggggggggggggggggggggggggggggggggggggggggggggggggggggggggggggggggggg",
"gggggggggggggggggggggggggggggggggggggggggggggggggggggggggggggggggggggggggggggggggggggggggggggggggggggggggggggggggggggggggggggggg",
"gggggggggggggggggggggggggggggggggggggggggggggggggggggggggggggggggggggggggggggggggggggggggggggggggggggggggggggggggggggggggggggggg",
"gggggggggggggggggggggggggggggggggggggggggggggggggggggggggggggggggggggggggggggggggggggggggggggggggggggggggggggggggggggggggggggggg",
"gggggggggggggggggggggggggggggggggggggggggggggggggggggggggggggggggggggggggggggggggggggggggggggggggggggggggggggggggggggggggggggggg",
"gggggggggggggggggggggggggggggggggggggggggggggggggggggggggggggggggggggggggggggggggggggggggggggggggggggggggggggggggggggggggggggggg",
"gggggggggggggggggggggggggggggggggggggggggggggggggggggggggggggggggggggggggggggggggggggggggggggggggggggggggggggggggggggggggggggggg",
"gggggggggggggggggggggggggggggggggggggggggggggggggggggggggggggggggggggggggggggggggggggggggggggggggggggggggggggggggggggggggggggggg",
"gggggggggggggggggggggggggggggggggggggggggggggggggggggggggggggggggggggggggggggggggggggggggggggggggggggggggggggggggggggggggggggggg",
"gggggggggggggggggggggggggggggggggggggggggggggggggggggggggggggggggggggggggggggggggggggggggggggggggggggggggggggggggggggggggggggggg",
"gggggggggggggggggggggggggggggggggggggggggggggggggggggggggggggggggggggggggggggggggggggggggggggggggggggggggggggggggggggggggggggggg",
"gggggggggggggggggggggggggggggggggggggggggggggggggggggggggggggggggggggggggggggggggggggggggggggggggggggggggggggggggggggggggggggggg",
"gggggggggggggggggggggggggggggggggggggggggggggggggggggggggggggggggggggggggggggggggggggggggggggggggggggggggggggggggggggggggggggggg",
"gggggggggggggggggggggggggggggggggggggggggggggggggggggggggggggggggggggggggggggggggggggggggggggggggggggggggggggggggggggggggggggggg",
"gggggggggggggggggggggggggggggggggggggggggggggggggggggggggggggggggggggggggggggggggggggggggggggggggggggggggggggggggggggggggggggggg",
"gggggggggggggggggggggggggggggggggggggggggggggggggggggggggggggggggggggggggggggggggggggggggggggggggggggggggggggggggggggggggggggggg",
"gggggggggggggggggggggggggggggggggggggggggggggggggggggggggggggggggggggggggggggggggggggggggggggggggggggggggggggggggggggggggggggggg",
"gggggggggggggggggggggggggggggggggggggggggggggggggggggggggggggggggggggggggggggggggggggggggggggggggggggggggggggggggggggggggggggggg",
"gggggggggggggggggggggggggggggggggggggggggggggggggggggggggggggggggggggggggggggggggggggggggggggggggggggggggggggggggggggggggggggggg",
"gggggggggggggggggggggggggggggggggggggggggggggggggggggggggggggggggggggggggggggggggggggggggggggggggggggggggggggggggggggggggggggggg",
"gggggggggggggggggggggggggggggggggggggggggggggggggggggggggggggggggggggggggggggggggggggggggggggggggggggggggggggggggggggggggggggggg",
"gggggggggggggggggggggggggggggggggggggggggggggggggggggggggggggggggggggggggggggggggggggggggggggggggggggggggggggggggggggggggggggggg",
"gggggggggggggggggggggggggggggggggggggggggggggggggggggggggggggggggggggggggggggggggggggggggggggggggggggggggggggggggggggggggggggggg",
"gggggggggggggggggggggggggggggggggggggggggggggggggggggggggggggggggggggggggggggggggggggggggggggggggggggggggggggggggggggggggggggggg",
"gggggggggggggggggggggggggggggggggggggggggggggggggggggggggggggggggggggggggggggggggggggggggggggggggggggggggggggggggggggggggggggggg",
"ggggggggggggggggggggggggggggu<wwgggggggggggggggguuwggggggggggggggggggggggggggggggggggggggggggggggggggggggggggggggggggggggggggggg",
"gggggggggggggggggggggggggggg=+<wwgggggggggggggguu>=ggggggggggggggggggggggggggggggggggggggggggggggggggggggggggggggggggggggggggggg",
"gggggggggggggggggggggggggggg=X+<wwgggggggggggguu==gggggggggggggggggggggggggggggggggggggggggggggggggggggggggggggggggggggggggggggg",
"ggggggggggggggggggggggggggggg=X+<wwggggggggguuu+==gggggggggggggggggggggggggggggggggggggggggggggggggggggggggggggggggggggggggggggg",
"ggggggggggggggggggggggggggggg==X++<wwwggggwwww+O==gggggggggggggggggggggggggggggggggggggggggggggggggggggggggggggggggggggggggggggg",
"gggggggggggggggggggggggggggggg=XX+OOwwwwwwww++O+=ggggggggggggggggggggggggggggggggggggggggggggggggggggggggggggggggggggggggggggggg",
"gggggggggggggggggggggggggggggg==X<+OOOOOOO++OOO+=ggggggggggggggggggggggggggg77gggggggggggggggggggggggggggggggggggggggggggggggggg",
"gggggggggggggggggggggggggggggg**+<<++oO+<11<+OOO=ggggggggggggggggggggggggggg77gggggggggggggggggggggggggggggggggggggggggggggggggg",
"ggggggggggggggggggggggggggggg+++<131<ooo++1<O<OO+ggggggggggggggggggggggggggggggggggggggggggggggggggggggggggggggggggggggggggggggg",
"ggggggggggggggggggggggggggggg++<<<%81<o+<<<OooooOggggggggggggggggggggggggggggggggggggggggggggggggggggggggggggggggggggggggggggggg",
"gggggggggggggggggggggggggggggwt1<  %14OO+O    o<Oggggggggggggggg0ggggggggggggggggggggggggggggggggggggggggggggggggggggggggggggggg",
"gggggggggggggggggggggggggggggwt1e   ooo+1<o   o<+Oggggggggqggggggggggggggggggggggggggggggggggggggggggggggggggggggggggggggggggggg",
"ggggggggggggggggggggggggggggwwteiXX-tir1122+++23<ogggggggggggggggggggggggggggggggggggggggggggggggggggggggggggggggggggggggggggggg",
"ggggggggggggggggggggggggggggwweirXwaar3oO233+2331oOggggggggggggggggggggggggggggggggggggggggggggggggggggggggggggggggggggggggggggg",
"ggggggggggggggggggggggggggggwwetwwai13+o <<<O<2+ooOgggggggggggggq9gggggggggggggggggggggggggggggggggggggggggggggggggggggggggggggg",
"ggggggggggggggggggggggggggggw>et>ti11+  j  OOo+2 oOggggggggggggg96gggggggggggggggggggggggggggggggggggggggggggggggggggggggggggggg",
"ggggggggggggggggggggggggggggw>wt>te1O  +3<4jj4<3oO--g7gggggggggggg7ggggggggggggggggggggggggggggggggggggggggggggggggggggggggggggg",
"ggggggggggggggggggggggggggggg>wewi11  ++14&&& 41o-*-gggggggggggggggggggggggggggggggggggggggggggggggggggggggggggggggggggggggggggg",
"ggggggggggggggggggggggggggggg>>w>a1+ $$$6$$$ o+1-*.-gggggggggg6ggggggggggggggggggggggggggggggggggggggggggggggggggggggggggggggggg",
"gggggggggggggggggggggggggggggw>>>a1+ 3$07&&$7oh+*.-Ogggg7ggggggggggggggggggggggggggggggggggggggggggggggggggggggggggggggggggggggg",
"gggggggggggggggggggggggggggggge>>u1+o2h100&774j+*.O9OOgggggggggggggggggggggggggggggggggggggggggggggggggggggggggggggggggggggggggg",
"gggggggggggggggggggggggggggggge>>e1++<4102hh42o+:*OOOOOOgggggggggggggggggggggggggggggggggggggggggggggggggggggggggggggggggggggggg",
"ggggggggggggggggggggggggggggggew>w1+++o        <:0OO6O6OOOgggggggggggggggggggggggggggggggggggggggggggggggggggggggggggggggggggggg",
"ggggggggggggggggggggggggggggggew>w1<++o       <<::OOOOOOOOOOgggggggggggggggggggggggggggggggggggggggggggggggggggggggggggggggggggg",
"ggggggggggggggggggggggggggggggge>w1<++o   oO+<wwr:&&6@OO0O6OOOgggggggggggggggggggggggggggggggggggggggggggggggggggggggggggggggggg",
"ggggggggggggggggggggggggggggggge>ww1<<+OOOO++1:::&@#%#@++OOOOOOOgggggggggggggggggggggggggggggggggggggggggggggggggggggggggggggggg",
"gggggggggggggggggggggggggggggggge>w11<<++<<+<1::::0&@%6@6+++OOOOOOOggggggggggggggggggggggggggggggggggggggggggggggggggggggggggggg",
"gggggggggggggggggggggggggggggggge>w111<<1<+<1116:&%%6%$@+6+++++OOOOOOOOggggggggggggggggggggggggggggggggggggggggggggggggggggggggg",
"ggggggggggggggggggggggggggggggggge>w111<<+<11111:&@65$@7+++0++++++OOOOOOOOgggggggggggggggggggggggggggggggggggggggggggggggggggggg",
"ggggggggggggggggggggggggggggggggge>w1111<<11eiiy:7&6657:<<+++++++++++OOOOOOOOggggggggggggggggggggggggggggggggggggggggggggggggggg",
"gggggggggggggggggggggggggggggggggge>w111111essiiuw:677;:11<<++++++++++++++OOOOOOgggggggggggggggggggggggggggggggggggggggggggggggg",
"gggggggggggggggggggggggggggggggggge>w11111esfaiiuuwwwww61111<<++++++++++++++++OOOOgggggggggggggggggggggggggggggggggggggggggggggg",
"ggggggggggggggggggggggggggggggggggge>w11esdfsiiuuu6uuuuuuu2211<<<+++++++++++++<11<++gggggggggggggggggggggggggggggggggggggggggggg",
"ggggggggggggggggggggggggggggggg6gggg>>tiadfsiiuuuuurruuuuu221111<<<<++++++++<111uutt>>gggggggggggggggggggggggggggggggggggggggggg",
"gggggggggggggggggggggggggggggggffffffffffssiiuuuuur>;>ttuuuuuuuu21111<<<<<<122uuuuuuuue>gggggggggggggggggggggggggggggggggggggggg",
"gggggggggggggggggggggggggggggaasddspppiiiiiiuuuuur>;-;tttuuuuuuuuuu2111111122uuuuuuuuutt>ggggggggggggggggggggggggggggggggggggggg",
"ggggggggggggggggggggggggggggaaaasspiiiuuuuuuuuuure:-<<11etttuuuuuuuuuuuuuuuuuuuuuuuuuuuuteeggggggggggggggggggggggggggggggggggggg",
"gggggggggggggggggggggggggggguiiiiiiiiiuuuuuuuuree:-<<<111etttttuuuuuuuuuuuuuuuuuuuuuuuuuttee>ggggggggggggggggggggggggggggggggggg",
"ggggggggggggggggggggggggapuuyuiiiiurwweeeeeeeeee::<<<<1111etttttttuuuuuuuuuuuuuuuuuuuuuuuuuteegggggggggggggggggggggggggggggggggg",
"ggggggggggggggggggggggapuuuutyuiiitew:>::::::::::<<<<<<11111eettttttuuuuuuuuuuuuuuyyyyyyyyyutt>>gggggggggggggggggggggggggggggggg",
"ggggggggggggggggggggapuuywwwwtyuiie:++++++,,,,,,,,<<<<<<111111weeetttttuuuuuuuuuuuyyyyttttyyytee>:gggggggggggggggggggggggggggggg",
"gggggggggggggggggggapuywwwww:wtttte-++++gg,,,,,,,,,<<<<<<<11111111weetttttuuuuuuuuyyyyrrrrtttteew>:ggggggggggggggggggggggggggggg",
"ggggggggggggggggggapywww<<<<<: +e -ggg6ggggg++,,,,,,<<<<<<<<<<1111111111weeeuuuuuuyyyyytrr:weeeeew>:gggggggggggggggggggggggggggg",
"gggggggggggggggggapywww<<<<<<<+ :+-ggg66gggggg++,,,,,,,<<<<<<<<<<<11111111wweruuuuyyyyyyrr;;:weeee>>=ggggggggggggggggggggggggggg",
"ggggggggggggggggpiy= =<<++++++ggggggggggggg&gggg++++,,,,,,,,<<<<<<<<<<<<<<1>>rttuuyyyyyyyrw;;;:wee>>:***gggggggggggggggggggggggg",
"ggggggggggggggggpuw= <<++ggggggggggggggggg&6ggggggg+++++++,,,,,,,,<<<<<<<<1>wertuuyyyyyyyrrw:;;;:w>::;==**.ggggggggggggggggggggg",
"gggggggggggggggguuw><<o ggggggggggggggggggggggggggggg+++++++++++++++OOOO++<1wttuuuuuyyyyyyrr>g;;;;;;;;;;--*. ggggggggggggggggggg",
"gggggggggggggggg+uw<+  gggggggggggggggggggggggggggggggggg+++++++++++OOOOO+<1wrtuuuuuyyyyyyrrw>g;;;;;;;;;--*.   ggggggggggggggggg",
"gggggggggggggggg +++++gggggggggggggggggggggggggggggggggggggggg------++OOOO<11wrtuuuuuuyyyyyrr>gggg********X.   ggggggggggggggggg",
"gggggggggggggggggggggggggggggggggggggg&6gggggggggggggggggggggggg----++++OO+<11wwtuuuuuyyyyyyrr>ggggg........  gggggggggggggggggg",
"ggggggggggggggggggggggggggggggggggggggggggggggggggggggggggggggggg-----++++++<111wrtuuuuuuuyytr>ggggggg      gggggggggggggggggggg",
"ggggggggggggggggggggggggggggggg6ggggggggg&ggggggggggggggggggggggggg-----++++O<111errttuuuuyyttw>gggggggggggggggggggggggggggggggg",
"ggggggggggggggggggggggggggggggggggggggggggggggggggggggggggggggggggggg-----++++<11111errtuuuutte>gggggggggggggggggggggggggggggggg",
"gggggggggggggggggggggggggggggggggggggggggggggggggggggggggggggggggggggggg-----+++<111111errtutte>gggggggggggggggggggggggggggggggg",
"gggggggggggggggggggggggggggggggggg6ggggggggggggggggggggggggggggggggggggggg------+OOOgg11>>wutte>gggggggggggggggggggggggggggggggg",
"gggggggggggggggggggggggggggggggggggggggggggggggggggggggggggggggggggggggggg------+OOggggg>weutte>gggggggggggggggggggggggggggggggg",
"gggggggggggggggggggggggggggggggggggggggggggggggggggggggggggggggggggggggg>>;--++++Oggggggwweutte>gggggggggggggggggggggggggggggggg",
"ggggggggggggggggggggggggggggggggggggggggggggggggggggggggggggggggggggggg>-;;+++++Ogggggggwwtutte>gggggggggggggggggggggggggggggggg",
"ggggggggggggggggggggggggggggggggggggggggggggggggggggggggggggggggggggg:>;-++++++Oggggggggwrtttte>gggggggggggggggggggggggggggggggg",
"gggggggggggggggggggggggggggggggggggggggggggggggggggggggggggggggggggg>:;-++++++Ogggggggggertttte>gggggggggggggggggggggggggggggggg",
"gggggggggggggggggggggggggggggggggggggggggggggggggggggggggggggggggg>>:;-++++++Oggggggggggertttte>gggggggggggggggggggggggggggggggg",
"gggggggggggggggggggggggggggggggggggggggggggggggggggggggggggggggg>>>:;--+++++ggggggggggggertttte>gggggggggggggggggggggggggggggggg",
"ggggggggggggggggggggggggggggggggggggggggggggggggggggggggggggggg>>>:;------ggggggggggggggertttte>gggggggggggggggggggggggggggggggg",
"ggggggggggggggggggggggggggggggggggggggggggggggggggggggggggggg >>>:;-----ggggggggggggggggertttte>>ggggggggggggggggggggggggggggggg",
"ggggggggggggggggggggggggggggggggggggggggggggggggggggggggggggg --------ggggggggggggggggggerrrrrrww>gggggggggggggggggggggggggggggg",
"gggggggggggggggggggggggggggggggggggggggggggggggggggggggggggggg-  ---gggggggggggggggggggg>w>rrrrrew>ggggggggggggggggggggggggggggg",
"ggggggggggggggggggggggggggggggggggggggggggggggggggggggggggggggggggggggggggggggggggggggggg===;>>wrew>gggggggggggggggggggggggggggg",
"ggggggggggggggggggggggggggggggggggggggggggggggggggggggggggggggggggggggggggggggggggggggggggX*=;;>wre>gggggggggggggggggggggggggggg",
"gggggggggggggggggggggggggggggggggggggggggggggggggggggggggggggggggggggggggggggggggggggggggggX*=-;:weggggggggggggggggggggggggggggg",
"ggggggggggggggggggggggggggggggggggggggggggggggggggggggggggggggggggggggggggggggggggggggggggggX = :>gggggggggggggggggggggggggggggg",
"gggggggggggggggggggggggggggggggggggggggggggggggggggggggggggggggggggggggggggggggggggggggggggggggggggggggggggggggggggggggggggggggg",
"gggggggggggggggggggggggggggggggggggggggggggggggggggggggggggggggggggggggggggggggggggggggggggggggggggggggggggggggggggggggggggggggg",
"gggggggggggggggggggggggggggggggggggggggggggggggggggggggggggggggggggggggggggggggggggggggggggggggggggggggggggggggggggggggggggggggg",
"gggggggggggggggggggggggggggggggggggggggggggggggggggggggggggggggggggggggggggggggggggggggggggggggggggggggggggggggggggggggggggggggg",
"gggggggggggggggggggggggggggggggggggggggggggggggggggggggggggggggggggggggggggggggggggggggggggggggggggggggggggggggggggggggggggggggg",
"gggggggggggggggggggggggggggggggggggggggggggggggggggggggggggggggggggggggggggggggggggggggggggggggggggggggggggggggggggggggggggggggg",
"gggggggggggggggggggggggggggggggggggggggggggggggggggggggggggggggggggggggggggggggggggggggggggggggggggggggggggggggggggggggggggggggg",
"gggggggggggggggggggggggggggggggggggggggggggggggggggggggggggggggggggggggggggggggggggggggggggggggggggggggggggggggggggggggggggggggg"
};
