/* XPM */
static char *_91aa846d52e452ca2288993e6473544WK2bGNbLT6Rm5ANn[] = {
/* columns rows colors chars-per-pixel */
"128 128 31 1 ",
"  c #000001",
". c #3B2F17",
"X c #232323",
"o c #2F2F2F",
"O c #373737",
"+ c gray23",
"@ c #43331B",
"# c #4B3B1B",
"$ c #573F1F",
"% c #5F4323",
"& c #6F4B27",
"* c #774F2B",
"= c #434343",
"- c #4B4B4B",
"; c gray34",
": c #676767",
"> c gray45",
", c gray50",
"< c #830001",
"1 c #83532F",
"2 c #8B5B33",
"3 c #935F37",
"4 c #9F633B",
"5 c #A3673F",
"6 c #AB6B43",
"7 c #B77347",
"8 c #BF7B4B",
"9 c #CB7F4F",
"0 c #980088",
"q c gray56",
"w c #9B9B9B",
/* pixels */
"00000000000000000000000000000000000000000000000000000000000000000000000000000000000000000000000000000000000000000000000000000000",
"00000000000000000000000000000000000000000000000000000000000000000000000000000000000000000000000000000000000000000000000000000000",
"00000000000000000000000000000000000000000000000000000000000000000000000000000000000000000000000000000000000000000000000000000000",
"00000000000000000000000000000000000000000000000000000000000000000000000000000000000000000000000000000000000000000000000000000000",
"00000000000000000000000000000000000000000000000000000000000000000000000000000000000000000000000000000000000000000000000000000000",
"00000000000000000000000000000000000000000000000000000000000000000000000000000000000000000000000000000000000000000000000000000000",
"00000000000000000000000000000000000000000000000000000000000000000000000000000000000000000000000000000000000000000000000000000000",
"00000000000000000000000000000000000000000000000000000000000000000000000000000000000000000000000000000000000000000000000000000000",
"00000000000000000000000000000000000000000000000000000000000000000000000000000000000000000000000000000000000000000000000000000000",
"00000000000000000000000000000000000000000000000000000000000000000000000000000000000000000000000000000000000000000000000000000000",
"00000000000000000000000000000000000000000000000000000000000000000000000000000000000000000000000000000000000000000000000000000000",
"00000000000000000000000000000000000000000000000000000000000000000000000000000000000000000000000000000000000000000000000000000000",
"00000000000000000000000000000000000000000000000000000000000000000000000000000000000000000000000000000000000000000000000000000000",
"00000000000000000000000000000000000000000000000000000000000000000000000000000000000000000000000000000000000000000000000000000000",
"00000000000000000000000000000000000000000000000000000000000000000000000000000000000000000000000000000000000000000000000000000000",
"00000000000000000000000000000000000000000000000000000000000000000000000000000000000000000000000000000000000000000000000000000000",
"00000000000000000000000000000000000000000000000000000000000000000000000000000000000000000000000000000000000000000000000000000000",
"00000000000000000000000000000000000000000000000000000000000000000000000000000000000000000000000000000000000000000000000000000000",
"00000000000000000000000000000000000000000000000000000000000000000000000000000000000000000000000000000000000000000000000000000000",
"00000000000000000000000000000000000000000000000000000000000000000000000000000000000000000000000000000000000000000000000000000000",
"00000000000000000000000000000000000000000000000000000000000000000000000000000000000000000000000000000000000000000000000000000000",
"00000000000000000000000000000000000000000000000000000000000000000000000000000000000000000000000000000000000000000000000000000000",
"00000000000000000000000000000000000000000000000000000000000000000000000000000000000000000000000000000000000000000000000000000000",
"00000000000000000000000000000000000000000000000000000000000000000000000000000000000000000000000000000000000000000000000000000000",
"00000000000000000000000000000000000000000000000000000000000000000000000000000000000000000000000000000000000000000000000000000000",
"00000000000000000000000000000000000000000000000000000000000000000000000000000000000000000000000000000000000000000000000000000000",
"00000000000000000000000000000000000000000000000000000000000000000000000000000000000000000000000000000000000000000000000000000000",
"00000000000000000000000000000000000000000000000000000000000000000000000000000000000000000000000000000000000000000000000000000000",
"00000000000000000000000000000000000000000000000000000000000000000000000000000000000000000000000000000000000000000000000000000000",
"00000000000000000000000000000000000000000000000000000000000000000000000000000000000000000000000000000000000000000000000000000000",
"00000000000000000000000000000000000000000000000000000000000000000000000000000000000000000000000000000000000000000000000000000000",
"00000000000000000000000000000000000000000000000000000000000000000000000000000000000000000000000000000000000000000000000000000000",
"00000000000000000000000000000000000000000000000000000000000000000000000000000000000000000000000000000000000000000000000000000000",
"00000000000000000000000000000000000000000000000000000000000000000000000000000000000000000000000000000000000000000000000000000000",
"00000000000000000000000000000000000000000000000000000000000000000000000000000000000000000000000000000000000000000000000000000000",
"00000000000000000000000000000000000000000000000000000000000000000000000000000000000000000000000000000000000000000000000000000000",
"00000000000000000000000000000000000000000000000000000000000000000000000000000000000000000000000000000000000000000000000000000000",
"00000000000000000000000000000000000000000000000000000000000000000000000000000000000000000000000000000000000000000000000000000000",
"00000000000000000000000000000000000000000000000000000000000000000000000000000000000000000000000000000000000000000000000000000000",
"00000000000000000000000000000000000000000000000000000000000000000000000000000000000000000000000000000000000000000000000000000000",
"00000000000000000000000000000000000000000000000000000000000000000000000000000000000000000000000000000000000000000000000000000000",
"00000000000000000000000000000000000000000000000000000000000000000000000000000000000000000000000000000000000000000000000000000000",
"00000000000000000000000000000000000000000000000000000000000000000000000000000000000000000000000000000000000000000000000000000000",
"00000000000000000000000000000000000000000000000000000000000000000000000000000000000000000000000000000000000000000000000000000000",
"00000000000000000000000000000000000000000000000000000000000000000000000000000000000000000000000000000000000000000000000000000000",
"00000000000000000000000000000000000000000000000000000000000000000000000000000000000000000000000000000000000000000000000000000000",
"00000000000000000000000000000000000000000000000000000000000000000000000000000000000000000000000000000000000000000000000000000000",
"00000000000000000000000000000000000000000000000000000000000000000000000000000000000000000000000000000000000000000000000000000000",
"00000000000000000000000000000000000000000000000000000000000000000000000000000000000000000000000000000000000000000000000000000000",
"00000000000000000000000000000000000000000000000000000000000000000000000000000000000000000000000000000000000000000000000000000000",
"00000000000000000000000000000000000000000000000000000000000000000000000000000000000000000000000000000000000000000000000000000000",
"00000000000000000000000000000000000000000000000000000000000000000000000000000000000000000000000000000000000000000000000000000000",
"00000000000000000000000000000000000000000000000000000000000000000000000000000000000000000000000000000000000000000000000000000000",
"00000000000000000000000000000000000000000000000000000000000000000000000000000000000000000000000000000000000000000000000000000000",
"00000000000000000000000000000000000000000000000000000000000000000000000000000000000000000000000000000000000000000000000000000000",
"00000000000000000000000000000000000000000000000000000000000000000000000000000000000000000000000000000000000000000000000000000000",
"00000000000000000000000000000000000000000000000000000000000000000000000000000000000000000000000000000000000000000000000000000000",
"00000000000000000000000000000000000000000000000000000000000000000000000000000000000000000000000000000000000000000000000000000000",
"00000000000000000000000000000000000000000000000000000000000000000000000000000000000000000000000000000000000000000000000000000000",
"00000000000000000000000000000000000000000000000000000000000000000000000000000000000000000000000000000000000000000000000000000000",
"00000000000000000000000000000000000000000000000000000000000000000000000000000000000000000000000000000000000000000000000000000000",
"00000000000000000000000000000000000000000000000000000000000000000000000000000000000000000000000000000000000000000000000000000000",
"00000000000000000000000000000000000000000000000000001100000000000000000000110000000000000000000000000000000000000000000000000000",
"000000000000000000000000000000000000000000000000000011300000000000000000031#0000000000000000000000000000000000000000000000000000",
"0000000000000000000000000000000000000000000000000000#1630000000000000000361+0000000000000000000000000000000000000000000000000000",
"0000000000000000000000000000000000000000000000000000oX16300000000000000361Xo0000000000000000000000000000000000000000000000000000",
"0000000000000000000000000000000000000000000000000000ooX163000000000000361Xoo0000000000000000000000000000000000000000000000000000",
"0000000000000000000000000000000000000000000000000000o$oX166&00000000&661Xo$o0000000000000000000000000000000000000000000000000000",
"00000000000000000000000000000000000000000000000000000o$++*1&+$****$+&1*#o$o00000000000000000000000000000000000000000000000000000",
"00000000000000000000000000000000000000000000000000000Xo++++;--+$$+-;-++++oX00000000000000000000000000000000000000000000000000000",
"000000000000000000000000000000000000000000000000000000X+-+oo+;----;+oo+-+X000000000000000000000000000000000000000000000000000000",
"000000000000000000000000000000000000000000000000000000+-;;-ooo----ooo-;;-+000000000000000000000000000000000000000000000000000000",
"000000000000000000000000000000000000000000000000000000+-;;::;++--++;::;;-+000000000000000000000000000000000000000000000000000000",
"000000000000000000000000000000000000000000000000000000++-++-:;-;;-;:-++-++000000000000000000000000000000000000000000000000000000",
"000000000000000000000000000000000000000000000000000000-*+  o->:--:>-o  +&-000000000000000000000000000000000000000000000000000000",
"000000000000000000000000000000000000000000000000000000*5+ <;o;:;;:;o;< +5&000000000000000000000000000000000000000000000000000000",
"000000000000000000000000000000000000000000000000000000186$$-;:>qq>:;-$1681000000000000000000000000000000000000000000000000000000",
"000000000000000000000000000000000000000000000000000000&64&->>+XXXX+>>-&46&000000000000000000000000000000000000000000000000000000",
"000000000000000000000000000000000000000000000000000000&31;X+;-    -;+X;13&000000000000000000000000000000000000000000000000000000",
"000000000000000000000000000000000000000000000000000000&2&-X- ;X  X; -X-&2&000000000000000000000000000000000000000000000000000000",
"000000000000000000000000000000000000000000000000000000&1&+o;w ++++ w;o+&1&000000000000000000000000000000000000000000000000000000",
"000000000000000000000000000000000000000000000000000000&1&++o:o>qq>X:o+o&1*000000000000000000000000000000000000000000000000000000",
"000000000000000000000000000000000000000000000000000000&1&+XXXo++++ooXXo&1*000000000000000000000000000000000000000000000000000000",
"00000000000000000000000000000000000000000000000000000011&+o  o;>>;o  oo*1*000000000000000000000000000000000000000000000000000000",
"0000000000000000000000000000000000000000000000000000003&1-+X        X+$*1*&00000000000000000000000000000000000000000000000000000",
"0000000000000000000000000000000000000000000000000000015&&*-+oXXXXXXo++*&**100000000000000000000000000000000000000000000000000000",
"00000000000000000000000000000000000000000000000000000151&&;--+ooooo+-+&%*1200000000000000000000000000000000000000000000000000000",
"000000000000000000000000000000000000000000000000000015431&%---+++++--+%$*34&0000000000000000000000000000000000000000000000000000",
"0000000000000000000000000000000000000000000000000000156631&+-;;--;;-+-$$175&0000000000000000000000000000000000000000000000000000",
"00000000000000000000000000000000000000000000000000015777331;+-;;:;-+--$*4861%000000000000000000000000000000000000000000000000000",
"00000000000000000000000000000000000000000000000000015779731;;--;--+--;*47972%000000000000000000000000000000000000000000000000000",
"00000000000000000000000000000000000000000000000000015799753:::;-;;;;::247972&%00000000000000000000000000000000000000000000000000",
"00000000000000000000000000000000000000000000000000135799763::>,,qq,,>:;36775*%00000000000000000000000000000000000000000000000000",
"00000000000000000000000000000000000000000000000000135677753::>,qwwq,>:-;36651%00000000000000000000000000000000000000000000000000",
"0000000000000000000000000000000000000000000000000013454443::::>,qq,>::--;4431$00000000000000000000000000000000000000000000000000",
"0000000000000000000000000000000000000000000000000015454443;::::>,,>:::;-;3431$00000000000000000000000000000000000000000000000000",
"0000000000000000000000000000000000000000000000000015546663;::::>>>>:::;--4321$00000000000000000000000000000000000000000000000000",
"0000000000000000000000000000000000000000000000000015556333;;::::>>:::;-+-4321$00000000000000000000000000000000000000000000000000",
"00000000000000000000000000000000000000000000000000135663;;;;;:::>>::;;-X-3321$00000000000000000000000000000000000000000000000000",
"000000000000000000000000000000000000000000000000001356631=-;;;;:::;;;;+X*3321$00000000000000000000000000000000000000000000000000",
"00000000000000000000000000000000000000000000000000&1555631=-;;;;;;;;;-X-1321*$00000000000000000000000000000000000000000000000000",
"00000000000000000000000000000000000000000000000000&1356533%=-;;;;;;;;+X-2321*$00000000000000000000000000000000000000000000000000",
"00000000000000000000000000000000000000000000000000&1335652&$========+X-*3321*$00000000000000000000000000000000000000000000000000",
"00000000000000000000000000000000000000000000000000%&133552*$========oX*13311*$00000000000000000000000000000000000000000000000000",
"00000000000000000000000000000000000000000000000000%%133311*%ooOOOOOOXo1111&&&$00000000000000000000000000000000000000000000000000",
"000000000000000000000000000000000000000000000000000%*1311**%ooOOOOOOXo14441&%$00000000000000000000000000000000000000000000000000",
"000000000000000000000000000000000000000000000000000%**14421&$oooooooo*678741%%00000000000000000000000000000000000000000000000000",
"0000000000000000000000000000000000000000000000000000%*476421$$ooooooo4788841%%00000000000000000000000000000000000000000000000000",
"0000000000000000000000000000000000000000000000000000@%476441%%oooo@@*688874*%%00000000000000000000000000000000000000000000000000",
"0000000000000000000000000000000000000000000000000000@@467442*%oooo@@4788761*$%00000000000000000000000000000000000000000000000000",
"0000000000000000000000000000000000000000000000000000@@*47644*%-o..@1688764*$$000000000000000000000000000000000000000000000000000",
"0000000000000000000000000000000000000000000000000000#@$46744*%--..16887641#@0000000000000000000000000000000000000000000000000000",
"0000000000000000000000000000000000000000000000000000$@@*4643****..6888641$@%0000000000000000000000000000000000000000000000000000",
"0000000000000000000000000000000000000000000000000000%#@@2432****..688741*@$%0000000000000000000000000000000000000000000000000000",
"0000000000000000000000000000000000000000000000000000&$@@*******%0034441*%@$%0000000000000000000000000000000000000000000000000000",
"0000000000000000000000000000000000000000000000000000&$#@$*****%00023331*$@$%0000000000000000000000000000000000000000000000000000",
"0000000000000000000000000000000000000000000000000000&$#@@@%%%0000012221*$@$%0000000000000000000000000000000000000000000000000000",
"00000000000000000000000000000000000000000000000000001%%#@@00000000011**%$@$%0000000000000000000000000000000000000000000000000000",
"00000000000000000000000000000000000000000000000000001&%#@@00000000000000@@$%0000000000000000000000000000000000000000000000000000",
"00000000000000000000000000000000000000000000000000001&%$@000000000000000@@#%0000000000000000000000000000000000000000000000000000",
"000000000000000000000000000000000000000000000000000**&*%0000000000000000@#%%&000000000000000000000000000000000000000000000000000",
"000000000000000000000000000000000000000000000000003331&*0000000000000000@%&1**00000000000000000000000000000000000000000000000000",
"000000000000000000000000000000000000000000000000001111%%0000000000000000%111&&00000000000000000000000000000000000000000000000000",
"000000000000000000000000000000000000000000000000001111%%0000000000000000%%%%&&00000000000000000000000000000000000000000000000000",
"00000000000000000000000000000000000000000000000000000000000000000000000000000000000000000000000000000000000000000000000000000000",
"00000000000000000000000000000000000000000000000000000000000000000000000000000000000000000000000000000000000000000000000000000000",
"00000000000000000000000000000000000000000000000000000000000000000000000000000000000000000000000000000000000000000000000000000000",
"00000000000000000000000000000000000000000000000000000000000000000000000000000000000000000000000000000000000000000000000000000000"
};
