/* XPM */
static char *e8afbdef5c9a430cdf62b65509e3f760qVa9kVeBjpiHua5I[] = {
/* columns rows colors chars-per-pixel */
"128 128 30 1 ",
"  c #000001",
". c #2B230F",
"X c #3B2F17",
"o c #232323",
"O c #2F2F2F",
"+ c gray23",
"@ c #43331B",
"# c #4B3B1B",
"$ c #573F1F",
"% c #5F4323",
"& c #6F4B27",
"* c #774F2B",
"= c #434343",
"- c #4B4B4B",
"; c gray34",
": c #676767",
"> c gray45",
", c #830001",
"< c #83532F",
"1 c #8B5B33",
"2 c #935F37",
"3 c #9F633B",
"4 c #A3673F",
"5 c #AB6B43",
"6 c #B77347",
"7 c #BF7B4B",
"8 c #CB7F4F",
"9 c #980088",
"0 c gray56",
"q c #9B9B9B",
/* pixels */
"99999999999999999999999999999999999999999999999999999999999999999999999999999999999999999999999999999999999999999999999999999999",
"99999999999999999999999999999999999999999999999999999999999999999999999999999999999999999999999999999999999999999999999999999999",
"99999999999999999999999999999999999999999999999999999999999999999999999999999999999999999999999999999999999999999999999999999999",
"99999999999999999999999999999999999999999999999999999999999999999999999999999999999999999999999999999999999999999999999999999999",
"99999999999999999999999999999999999999999999999999999999999999999999999999999999999999999999999999999999999999999999999999999999",
"99999999999999999999999999999999999999999999999999999999999999999999999999999999999999999999999999999999999999999999999999999999",
"99999999999999999999999999999999999999999999999999999999999999999999999999999999999999999999999999999999999999999999999999999999",
"99999999999999999999999999999999999999999999999999999999999999999999999999999999999999999999999999999999999999999999999999999999",
"99999999999999999999999999999999999999999999999999999999999999999999999999999999999999999999999999999999999999999999999999999999",
"99999999999999999999999999999999999999999999999999999999999999999999999999999999999999999999999999999999999999999999999999999999",
"99999999999999999999999999999999999999999999999999999999999999999999999999999999999999999999999999999999999999999999999999999999",
"99999999999999999999999999999999999999999999999999999999999999999999999999999999999999999999999999999999999999999999999999999999",
"99999999999999999999999999999999999999999999999999999999999999999999999999999999999999999999999999999999999999999999999999999999",
"99999999999999999999999999999999999999999999999999999999999999999999999999999999999999999999999999999999999999999999999999999999",
"99999999999999999999999999999999999999999999999999999999999999999999999999999999999999999999999999999999999999999999999999999999",
"99999999999999999999999999999999999999999999999999999999999999999999999999999999999999999999999999999999999999999999999999999999",
"99999999999999999999999999999999999999999999999999999999999999999999999999999999999999999999999999999999999999999999999999999999",
"99999999999999999999999999999999999999999999999999999999999999999999999999999999999999999999999999999999999999999999999999999999",
"99999999999999999999999999999999999999999999999999999999999999999999999999999999999999999999999999999999999999999999999999999999",
"99999999999999999999999999999999999999999999999999999999999999999999999999999999999999999999999999999999999999999999999999999999",
"99999999999999999999999999999999999999999999999999999999999999999999999999999999999999999999999999999999999999999999999999999999",
"99999999999999999999999999999999999999999999999999999999999999999999999999999999999999999999999999999999999999999999999999999999",
"99999999999999999999999999999999999999999999999999999999999999999999999999999999999999999999999999999999999999999999999999999999",
"99999999999999999999999999999999999999999999999999999999999999999999999999999999999999999999999999999999999999999999999999999999",
"99999999999999999999999999999999999999999999999999999999999999999999999999999999999999999999999999999999999999999999999999999999",
"99999999999999999999999999999999999999999999999999999999999999999999999999999999999999999999999999999999999999999999999999999999",
"99999999999999999999999999999999999999999999999999999999999999999999999999999999999999999999999999999999999999999999999999999999",
"99999999999999999999999999999999999999999999999999999999999999999999999999999999999999999999999999999999999999999999999999999999",
"99999999999999999999999999999999999999999999999999999999999999999999999999999999999999999999999999999999999999999999999999999999",
"99999999999999999999999999999999999999999999999999999999999999999999999999999999999999999999999999999999999999999999999999999999",
"99999999999999999999999999999999999999999999999999999999999999999999999999999999999999999999999999999999999999999999999999999999",
"99999999999999999999999999999999999999999999999999999999999999999999999999999999999999999999999999999999999999999999999999999999",
"99999999999999999999999999999999999999999999999999999999999999999999999999999999999999999999999999999999999999999999999999999999",
"99999999999999999999999999999999999999999999999999999999999999999999999999999999999999999999999999999999999999999999999999999999",
"99999999999999999999999999999999999999999999999999999999999999999999999999999999999999999999999999999999999999999999999999999999",
"99999999999999999999999999999999999999999999999999999999999999999999999999999999999999999999999999999999999999999999999999999999",
"99999999999999999999999999999999999999999999999999999999999999999999999999999999999999999999999999999999999999999999999999999999",
"99999999999999999999999999999999999999999999999999999999999999999999999999999999999999999999999999999999999999999999999999999999",
"99999999999999999999999999999999999999999999999999999999999999999999999999999999999999999999999999999999999999999999999999999999",
"99999999999999999999999999999999999999999999999999999999999999999999999999999999999999999999999999999999999999999999999999999999",
"99999999999999999999999999999999999999999999999999999999999999999999999999999999999999999999999999999999999999999999999999999999",
"99999999999999999999999999999999999999999999999999999999999999999999999999999999999999999999999999999999999999999999999999999999",
"99999999999999999999999999999999999999999999999999999999999999999999999999999999999999999999999999999999999999999999999999999999",
"99999999999999999999999999999999999999999999999999999999999999999999999999999999999999999999999999999999999999999999999999999999",
"99999999999999999999999999999999999999999999999999999999999999999999999999999999999999999999999999999999999999999999999999999999",
"99999999999999999999999999999999999999999999999999999999999999999999999999999999999999999999999999999999999999999999999999999999",
"99999999999999999999999999999999999999999999999999999999999999999999999999999999999999999999999999999999999999999999999999999999",
"99999999999999999999999999999999999999999999999999999999999999999999999999999999999999999999999999999999999999999999999999999999",
"99999999999999999999999999999999999999999999999999999999999999999999999999999999999999999999999999999999999999999999999999999999",
"99999999999999999999999999999999999999999999999999999999999999999999999999999999999999999999999999999999999999999999999999999999",
"99999999999999999999999999999999999999999999999999999999999999999999999999999999999999999999999999999999999999999999999999999999",
"99999999999999999999999999999999999999999999999999999999999999999999999999999999999999999999999999999999999999999999999999999999",
"99999999999999999999999999999999999999999999999999999999999999999999999999999999999999999999999999999999999999999999999999999999",
"99999999999999999999999999999999999999999999999999999999999999999999999999999999999999999999999999999999999999999999999999999999",
"99999999999999999999999999999999999999999999999999999999999999999999999999999999999999999999999999999999999999999999999999999999",
"99999999999999999999999999999999999999999999999999999999999999999999999999999999999999999999999999999999999999999999999999999999",
"99999999999999999999999999999999999999999999999999999999999999999999999999999999999999999999999999999999999999999999999999999999",
"99999999999999999999999999999999999999999999999999999999999999999999999999999999999999999999999999999999999999999999999999999999",
"99999999999999999999999999999999999999999999999999999999999999999999999999999999999999999999999999999999999999999999999999999999",
"99999999999999999999999999999999999999999999999999999999999999999999999999999999999999999999999999999999999999999999999999999999",
"99999999999999999999999999999999999999999999999999999999999999999999999999999999999999999999999999999999999999999999999999999999",
"99999999999999999999999999999999999999999999999999999999999999999999999999999999999999999999999999999999999999999999999999999999",
"99999999999999999999999999999999999999999999999999999999999999999999999999999999999999999999999999999999999999999999999999999999",
"99999999999999999999999999999999999999999999999999999999999999999999999999999999999999999999999999999999999999999999999999999999",
"99999999999999999999999999999999999999999999999999999999999999999999999999999999999999999999999999999999999999999999999999999999",
"99999999999999999999999999999999999999999999999999999999999999999999999999999999999999999999999999999999999999999999999999999999",
"99999999999999999999999999999999999999999999999999999<<99999999999999999999<<999999999999999999999999999999999999999999999999999",
"99999999999999999999999999999999999999999999999999999<<29999999999999999992<#999999999999999999999999999999999999999999999999999",
"99999999999999999999999999999999999999999999999999999#<52999999999999999925<+999999999999999999999999999999999999999999999999999",
"99999999999999999999999999999999999999999999999999999Oo<529999999999999925<oO999999999999999999999999999999999999999999999999999",
"99999999999999999999999999999999999999999999999999999OOo<5299999999999925<oOO999999999999999999999999999999999999999999999999999",
"99999999999999999999999999999999999999999999999999999O$Oo<55&99999999&55<oO$O999999999999999999999999999999999999999999999999999",
"999999999999999999999999999999999999999999999999999999O$++*<&+$****$+&<*#O$O9999999999999999999999999999999999999999999999999999",
"999999999999999999999999999999999999999999999999999999oO++++;--+$$+-;-++++Oo9999999999999999999999999999999999999999999999999999",
"9999999999999999999999999999999999999999999999999999999o+-+OO+;----;+OO+-+o99999999999999999999999999999999999999999999999999999",
"9999999999999999999999999999999999999999999999999999999+-;;-OOO----OOO-;;-+99999999999999999999999999999999999999999999999999999",
"9999999999999999999999999999999999999999999999999999999+-;;::;++--++;::;;-+99999999999999999999999999999999999999999999999999999",
"9999999999999999999999999999999999999999999999999999999++-++-:;-;;-;:-++-++99999999999999999999999999999999999999999999999999999",
"9999999999999999999999999999999999999999999999999999999-*+  O->:--:>-O  +&-99999999999999999999999999999999999999999999999999999",
"9999999999999999999999999999999999999999999999999999999*4+ ,;O;:;;:;O;, +4&99999999999999999999999999999999999999999999999999999",
"9999999999999999999999999999999999999999999999999999999<75$$-;:>00>:;-$<57<99999999999999999999999999999999999999999999999999999",
"9999999999999999999999999999999999999999999999999999999&53&->>+oooo+>>-&35&99999999999999999999999999999999999999999999999999999",
"9999999999999999999999999999999999999999999999999999999&2<;o+;-    -;+o;<2&99999999999999999999999999999999999999999999999999999",
"9999999999999999999999999999999999999999999999999999999&1&-o- ;o  o; -o-&1&99999999999999999999999999999999999999999999999999999",
"9999999999999999999999999999999999999999999999999999999&<&+O;q ++++ q;O+&<&99999999999999999999999999999999999999999999999999999",
"9999999999999999999999999999999999999999999999999999999&<&++O:O>00>o:O+O&<*99999999999999999999999999999999999999999999999999999",
"9999999999999999999999999999999999999999999999999999999&<&-OooO++++OOooO&<*99999999999999999999999999999999999999999999999999999",
"9999999999999999999999999999999999999999999999999999999<<&+-O O;>>;O  OO*<*99999999999999999999999999999999999999999999999999999",
"9999999999999999999999999999999999999999999999999999999&<15<-o      o+-132*&9999999999999999999999999999999999999999999999999999",
"999999999999999999999999999999999999999999999999999999<&<<55<;OoooO++-:352*<9999999999999999999999999999999999999999999999999999",
"9999999999999999999999999999999999999999999999999999994<<<155;;-----;:>5<<119999999999999999999999999999999999999999999999999999",
"999999999999999999999999999999999999999999999999999994422<<22>>;;;;;:>:<&<33&999999999999999999999999999999999999999999999999999",
"9999999999999999999999999999999999999999999999999999486542<<2:>>:;;:>::&&1642&99999999999999999999999999999999999999999999999999",
"999999999999999999999999999999999999999999999999999<8657552<2;;:::>>:;;&<5732199999999999999999999999999999999999999999999999999",
"9999999999999999999999999999999999999999999999999994845865522;;;;:::;;:<56622199999999999999999999999999999999999999999999999999",
"99999999999999999999999999999999999999999999999999<863587655:::;;;;;;::2554<1*99999999999999999999999999999999999999999999999999",
"999999999999999999999999999999999999999999999999994843576775:::::;;::::2333<*&99999999999999999999999999999999999999999999999999",
"99999999999999999999999999999999999999999999999999763355555:::::::::::;111<<&&99999999999999999999999999999999999999999999999999",
"9999999999999999999999999999999999999999999999999<66335555:;::::::::::;11<&&&&$9999999999999999999999999999999999999999999999999",
"9999999999999999999999999999999999999999999999999<46335555:;;:::::::::;11<&&&%$9999999999999999999999999999999999999999999999999",
"999999999999999999999999999999999999999999999999<<46<25553;-;;:::::::;;11<&&&#%%999999999999999999999999999999999999999999999999",
"999999999999999999999999999999999999999999999999<<24<25553;-;;;;;;;;;;;11<&&%X%%999999999999999999999999999999999999999999999999",
"999999999999999999999999999999999999999999999999<<24<15532;+----------111<&&$X%%999999999999999999999999999999999999999999999999",
"999999999999999999999999999999999999999999999999<<22<<5531;+----------11<<&%#X%%999999999999999999999999999999999999999999999999",
"999999999999999999999999999999999999999999999999&<22<&3321;O==========11<<&%@@%%999999999999999999999999999999999999999999999999",
"999999999999999999999999999999999999999999999999&<12<&3311;O==========11<<%$X@%%999999999999999999999999999999999999999999999999",
"999999999999999999999999999999999999999999999999%&<1&%2111*#+++++++++-11<&$#X@$$999999999999999999999999999999999999999999999999",
"999999999999999999999999999999999999999999999999%&*<&%<111*#+++++++++-11<&$@@#$9999999999999999999999999999999999999999999999999",
"9999999999999999999999999999999999999999999999999%&*&%<111*#OOOOOOOOO-11*&$X@##9999999999999999999999999999999999999999999999999",
"9999999999999999999999999999999999999999999999999%%&&%<111*#OOooooooo-11*&#X@##9999999999999999999999999999999999999999999999999",
"99999999999999999999999999999999999999999999999999%%%%*111*%OO9999999-**&%#X@$99999999999999999999999999999999999999999999999999",
"99999999999999999999999999999999999999999999999999%%%%*111*%OO999999-&&&&$X@#$99999999999999999999999999999999999999999999999999",
"9999999999999999999999999999999999999999999999999999%%&111*%OO99999-&%$@XXX#$999999999999999999999999999999999999999999999999999",
"9999999999999999999999999999999999999999999999999999%%$&11*%OO9999-&%$@XX.@$9999999999999999999999999999999999999999999999999999",
"999999999999999999999999999999999999999999999999999999X#%&*%OO9999%@@@...X$99999999999999999999999999999999999999999999999999999",
"999999999999999999999999999999999999999999999999999999XX##%$OO9999#@...XX#999999999999999999999999999999999999999999999999999999",
"9999999999999999999999999999999999999999999999999999999.X#$$OO999999XXX@#$999999999999999999999999999999999999999999999999999999",
"99999999999999999999999999999999999999999999999999999999..@#OO999999XX@#$$999999999999999999999999999999999999999999999999999999",
"99999999999999999999999999999999999999999999999999999999&&&&++999999@@#$##999999999999999999999999999999999999999999999999999999",
"99999999999999999999999999999999999999999999999999999999%&&&++999999$$$$##999999999999999999999999999999999999999999999999999999",
"99999999999999999999999999999999999999999999999999999999$%%%$$999999&&&&##999999999999999999999999999999999999999999999999999999",
"999999999999999999999999999999999999999999999999999999999$$$$99999999&&&#9999999999999999999999999999999999999999999999999999999",
"99999999999999999999999999999999999999999999999999999999999999999999999999999999999999999999999999999999999999999999999999999999",
"99999999999999999999999999999999999999999999999999999999999999999999999999999999999999999999999999999999999999999999999999999999",
"99999999999999999999999999999999999999999999999999999999999999999999999999999999999999999999999999999999999999999999999999999999",
"99999999999999999999999999999999999999999999999999999999999999999999999999999999999999999999999999999999999999999999999999999999",
"99999999999999999999999999999999999999999999999999999999999999999999999999999999999999999999999999999999999999999999999999999999",
"99999999999999999999999999999999999999999999999999999999999999999999999999999999999999999999999999999999999999999999999999999999"
};
