/* XPM */
static char *_73296827e2944c59a3da0233b20c2b23okmkvnmvXas3DDr[] = {
/* columns rows colors chars-per-pixel */
"128 128 30 1 ",
"  c #000001",
". c #232323",
"X c #2F2F2F",
"o c gray23",
"O c #43331B",
"+ c #4B3B1B",
"@ c #573F1F",
"# c #5F4323",
"$ c #6F4B27",
"% c #774F2B",
"& c #434343",
"* c #4B4B4B",
"= c gray34",
"- c #676767",
"; c gray45",
": c #7B7B7B",
"> c gray50",
", c #9B0001",
"< c #83532F",
"1 c #8B5B33",
"2 c #935F37",
"3 c #9F633B",
"4 c #A3673F",
"5 c #AB6B43",
"6 c #B77347",
"7 c #BF7B4B",
"8 c #CB7F4F",
"9 c #980088",
"0 c gray56",
"q c #9B9B9B",
/* pixels */
"99999999999999999999999999999999999999999999999999999999999999999999999999999999999999999999999999999999999999999999999999999999",
"99999999999999999999999999999999999999999999999999999999999999999999999999999999999999999999999999999999999999999999999999999999",
"99999999999999999999999999999999999999999999999999999999999999999999999999999999999999999999999999999999999999999999999999999999",
"99999999999999999999999999999999999999999999999999999999999999999999999999999999999999999999999999999999999999999999999999999999",
"99999999999999999999999999999999999999999999999999999999999999999999999999999999999999999999999999999999999999999999999999999999",
"99999999999999999999999999999999999999999999999999999999999999999999999999999999999999999999999999999999999999999999999999999999",
"99999999999999999999999999999999999999999999999999999999999999999999999999999999999999999999999999999999999999999999999999999999",
"99999999999999999999999999999999999999999999999999999999999999999999999999999999999999999999999999999999999999999999999999999999",
"99999999999999999999999999999999999999999999999999999999999999999999999999999999999999999999999999999999999999999999999999999999",
"99999999999999999999999999999999999999999999999999999999999999999999999999999999999999999999999999999999999999999999999999999999",
"99999999999999999999999999999999999999999999999999999999999999999999999999999999999999999999999999999999999999999999999999999999",
"99999999999999999999999999999999999999999999999999999999999999999999999999999999999999999999999999999999999999999999999999999999",
"99999999999999999999999999999999999999999999999999999999999999999999999999999999999999999999999999999999999999999999999999999999",
"99999999999999999999999999999999999999999999999999999999999999999999999999999999999999999999999999999999999999999999999999999999",
"99999999999999999999999999999999999999999999999999999999999999999999999999999999999999999999999999999999999999999999999999999999",
"99999999999999999999999999999999999999999999999999999999999999999999999999999999999999999999999999999999999999999999999999999999",
"99999999999999999999999999999999999999999999999999999999999999999999999999999999999999999999999999999999999999999999999999999999",
"99999999999999999999999999999999999999999999999999999999999999999999999999999999999999999999999999999999999999999999999999999999",
"99999999999999999999999999999999999999999999999999999999999999999999999999999999999999999999999999999999999999999999999999999999",
"99999999999999999999999999999999999999999999999999999999999999999999999999999999999999999999999999999999999999999999999999999999",
"99999999999999999999999999999999999999999999999999999999999999999999999999999999999999999999999999999999999999999999999999999999",
"99999999999999999999999999999999999999999999999999999999999999999999999999999999999999999999999999999999999999999999999999999999",
"99999999999999999999999999999999999999999999999999999999999999999999999999999999999999999999999999999999999999999999999999999999",
"99999999999999999999999999999999999999999999999999999999999999999999999999999999999999999999999999999999999999999999999999999999",
"99999999999999999999999999999999999999999999999999999999999999999999999999999999999999999999999999999999999999999999999999999999",
"99999999999999999999999999999999999999999999999999999999999999999999999999999999999999999999999999999999999999999999999999999999",
"99999999999999999999999999999999999999999999999999999999999999999999999999999999999999999999999999999999999999999999999999999999",
"99999999999999999999999999999999999999999999999999999999999999999999999999999999999999999999999999999999999999999999999999999999",
"99999999999999999999999999999999999999999999999999999999999999999999999999999999999999999999999999999999999999999999999999999999",
"99999999999999999999999999999999999999999999999999999999999999999999999999999999999999999999999999999999999999999999999999999999",
"99999999999999999999999999999999999999999999999999999999999999999999999999999999999999999999999999999999999999999999999999999999",
"99999999999999999999999999999999999999999999999999999999999999999999999999999999999999999999999999999999999999999999999999999999",
"99999999999999999999999999999999999999999999999999999999999999999999999999999999999999999999999999999999999999999999999999999999",
"99999999999999999999999999999999999999999999999999999999999999999999999999999999999999999999999999999999999999999999999999999999",
"99999999999999999999999999999999999999999999999999999999999999999999999999999999999999999999999999999999999999999999999999999999",
"99999999999999999999999999999999999999999999999999999999999999999999999999999999999999999999999999999999999999999999999999999999",
"99999999999999999999999999999999999999999999999999999999999999999999999999999999999999999999999999999999999999999999999999999999",
"99999999999999999999999999999999999999999999999999999999999999999999999999999999999999999999999999999999999999999999999999999999",
"99999999999999999999999999999999999999999999999999999999999999999999999999999999999999999999999999999999999999999999999999999999",
"99999999999999999999999999999999999999999999999999999999999999999999999999999999999999999999999999999999999999999999999999999999",
"99999999999999999999999999999999999999999999999999999999999999999999999999999999999999999999999999999999999999999999999999999999",
"99999999999999999999999999999999999999999999999999999999999999999999999999999999999999999999999999999999999999999999999999999999",
"99999999999999999999999999999999999999999999999999999999999999999999999999999999999999999999999999999999999999999999999999999999",
"99999999999999999999999999999999999999999999999999999999999999999999999999999999999999999999999999999999999999999999999999999999",
"99999999999999999999999999999999999999999999999999999999999999999999999999999999999999999999999999999999999999999999999999999999",
"99999999999999999999999999999999999999999999999999999999999999999999999999999999999999999999999999999999999999999999999999999999",
"99999999999999999999999999999999999999999999999999999999999999999999999999999999999999999999999999999999999999999999999999999999",
"99999999999999999999999999999999999999999999999999999999999999999999999999999999999999999999999999999999999999999999999999999999",
"99999999999999999999999999999999999999999999999999999999999999999999999999999999999999999999999999999999999999999999999999999999",
"99999999999999999999999999999999999999999999999999999999999999999999999999999999999999999999999999999999999999999999999999999999",
"99999999999999999999999999999999999999999999999999999999999999999999999999999999999999999999999999999999999999999999999999999999",
"99999999999999999999999999999999999999999999999999999999999999999999999999999999999999999999999999999999999999999999999999999999",
"99999999999999999999999999999999999999999999999999999999999999999999999999999999999999999999999999999999999999999999999999999999",
"99999999999999999999999999999999999999999999999999999999999999999999999999999999999999999999999999999999999999999999999999999999",
"99999999999999999999999999999999999999999999999999999999999999999999999999999999999999999999999999999999999999999999999999999999",
"99999999999999999999999999999999999999999999999999999999999999999999999999999999999999999999999999999999999999999999999999999999",
"99999999999999999999999999999999999999999999999999999999999999999999999999999999999999999999999999999999999999999999999999999999",
"99999999999999999999999999999999999999999999999999999999999999999999999999999999999999999999999999999999999999999999999999999999",
"99999999999999999999999999999999999999999999999999999999999999999999999999999999999999999999999999999999999999999999999999999999",
"99999999999999999999999999999999999999999999999999999999999999999999999999999999999999999999999999999999999999999999999999999999",
"99999999999999999999999999999999999999999999999999999999999999999999999999999999999999999999999999999999999999999999999999999999",
"99999999999999999999999999999999999999999999999999999999999999999999999999999999999999999999999999999999999999999999999999999999",
"9999999999999999999999999999999999999999999999999999<<99999999999999999999<<9999999999999999999999999999999999999999999999999999",
"9999999999999999999999999999999999999999999999999999@<29999999999999999992<+9999999999999999999999999999999999999999999999999999",
"9999999999999999999999999999999999999999999999999999+@52999999999999999925@o9999999999999999999999999999999999999999999999999999",
"9999999999999999999999999999999999999999999999999999X.@531999999999999135@.X9999999999999999999999999999999999999999999999999999",
"9999999999999999999999999999999999999999999999999999XX.@251$99999999$152@.XX9999999999999999999999999999999999999999999999999999",
"9999999999999999999999999999999999999999999999999999X@X.o%<$%%%%%%%%$<%+.X@X9999999999999999999999999999999999999999999999999999",
"99999999999999999999999999999999999999999999999999999X@o*oo===****==*o*oX@X99999999999999999999999999999999999999999999999999999",
"99999999999999999999999999999999999999999999999999999.Xo**oXooooooooXo**oX.99999999999999999999999999999999999999999999999999999",
"999999999999999999999999999999999999999999999999999999.o==*oXXooooXXo*==o.999999999999999999999999999999999999999999999999999999",
"999999999999999999999999999999999999999999999999999999o*==--=o*oo*o=--==*o999999999999999999999999999999999999999999999999999999",
"999999999999999999999999999999999999999999999999999999o**oo*-=*==*=-*oo**o999999999999999999999999999999999999999999999999999999",
"999999999999999999999999999999999999999999999999999999ooo  XX;-**-;XX  ooo999999999999999999999999999999999999999999999999999999",
"999999999999999999999999999999999999999999999999999999o%o ,=--X..X=-=, o$o999999999999999999999999999999999999999999999999999999",
"999999999999999999999999999999999999999999999999999999%45@oo*o    o*oo<54$999999999999999999999999999999999999999999999999999999",
"999999999999999999999999999999999999999999999999999999<73$o .=.  .=. o$37<999999999999999999999999999999999999999999999999999999",
"999999999999999999999999999999999999999999999999999999$5<=o q oooo q o=<5$999999999999999999999999999999999999999999999999999999",
"999999999999999999999999999999999999999999999999999999$2$*XX-X;00;.-XX*$2$999999999999999999999999999999999999999999999999999999",
"999999999999999999999999999999999999999999999999999999$1$oo..XooooXX.oo$1$999999999999999999999999999999999999999999999999999999",
"999999999999999999999999999999999999999999999999999999$<$o..*X=;;=X*..X$<$999999999999999999999999999999999999999999999999999999",
"999999999999999999999999999999999999999999999999999999$<$oX.  oooo  .XX$<%999999999999999999999999999999999999999999999999999999",
"999999999999999999999999999999999999999999999999999999$<1<oX.      .XX#13<999999999999999999999999999999999999999999999999999999",
"999999999999999999999999999999999999999999999999999999$<15<oX.    .Xo*132%$99999999999999999999999999999999999999999999999999999",
"99999999999999999999999999999999999999999999999999999<$<<55<oooooooo*-352%$99999999999999999999999999999999999999999999999999999",
"99999999999999999999999999999999999999999999999999999<<<<155==*****=-;5<<1$99999999999999999999999999999999999999999999999999999",
"99999999999999999999999999999999999999999999999999999<22<<22;;=====-;-<$<31$9999999999999999999999999999999999999999999999999999",
"9999999999999999999999999999999999999999999999999999<<542<<2-;;-==-;--$$16319999999999999999999999999999999999999999999999999999",
"9999999999999999999999999999999999999999999999999999<57552<2==---;;-==$<5763%999999999999999999999999999999999999999999999999999",
"999999999999999999999999999999999999999999999999999<58865522====---==-<54674%999999999999999999999999999999999999999999999999999",
"999999999999999999999999999999999999999999999999999<78876555--======--223454%999999999999999999999999999999999999999999999999999",
"99999999999999999999999999999999999999999999999999<67876655-;;--==-;;-223324<%99999999999999999999999999999999999999999999999999",
"99999999999999999999999999999999999999999999999999<66765553-;;>>00>>;--33322<%99999999999999999999999999999999999999999999999999",
"99999999999999999999999999999999999999999999999999<65655553--;>>00>>---33322<%99999999999999999999999999999999999999999999999999",
"99999999999999999999999999999999999999999999999999<4455555----;>>>>;---33322<%99999999999999999999999999999999999999999999999999",
"99999999999999999999999999999999999999999999999999<4445555-----;>:;----=3322<$99999999999999999999999999999999999999999999999999",
"99999999999999999999999999999999999999999999999999<44455==------;;----==5522%$99999999999999999999999999999999999999999999999999",
"99999999999999999999999999999999999999999999999999<44455==*=---------==*5522%$99999999999999999999999999999999999999999999999999",
"99999999999999999999999999999999999999999999999999<26655$$o*===----==**%5533$$99999999999999999999999999999999999999999999999999",
"99999999999999999999999999999999999999999999999999<26655<%$o**=====**&%15533$#99999999999999999999999999999999999999999999999999",
"99999999999999999999999999999999999999999999999999<26666<%$@o*******&*135533$#99999999999999999999999999999999999999999999999999",
"99999999999999999999999999999999999999999999999999<266662<$@o&&***&&o1335533$#99999999999999999999999999999999999999999999999999",
"999999999999999999999999999999999999999999999999999<66662<$@oo&&&&&&o3556633$999999999999999999999999999999999999999999999999999",
"999999999999999999999999999999999999999999999999999<66662<%@oo&&&&&&o3556633$999999999999999999999999999999999999999999999999999",
"999999999999999999999999999999999999999999999999999<667732<#++oooooo%3557743$999999999999999999999999999999999999999999999999999",
"999999999999999999999999999999999999999999999999999<667732<#++oooooo%3567753$999999999999999999999999999999999999999999999999999",
"9999999999999999999999999999999999999999999999999999667732<$OOOOXXOO%36677559999999999999999999999999999999999999999999999999999",
"9999999999999999999999999999999999999999999999999999667732<$OXXXXXXO%36677659999999999999999999999999999999999999999999999999999",
"9999999999999999999999999999999999999999999999999999667732<%99999999%36677759999999999999999999999999999999999999999999999999999",
"9999999999999999999999999999999999999999999999999999367733<%99999999136777759999999999999999999999999999999999999999999999999999",
"99999999999999999999999999999999999999999999999999992666551%99999999256777759999999999999999999999999999999999999999999999999999",
"9999999999999999999999999999999999999999999999999999<366551%99999999256777529999999999999999999999999999999999999999999999999999",
"9999999999999999999999999999999999999999999999999999$135331$99999999%266664%9999999999999999999999999999999999999999999999999999",
"9999999999999999999999999999999999999999999999999999+$<233$+99999999#%<22<%#9999999999999999999999999999999999999999999999999999",
"99999999999999999999999999999999999999999999999999991@#####+99999999########9999999999999999999999999999999999999999999999999999",
"999999999999999999999999999999999999999999999999999911@###@O999999999######%9999999999999999999999999999999999999999999999999999",
"99999999999999999999999999999999999999999999999999992222##+O9999999999<<<<%%9999999999999999999999999999999999999999999999999999",
"9999999999999999999999999999999999999999999999999999#222++OO9999999999<<<<%%9999999999999999999999999999999999999999999999999999",
"9999999999999999999999999999999999999999999999999999#@+++O+99999999999####$$9999999999999999999999999999999999999999999999999999",
"99999999999999999999999999999999999999999999999999999#@+O+9999999999999###$99999999999999999999999999999999999999999999999999999",
"99999999999999999999999999999999999999999999999999999999999999999999999999999999999999999999999999999999999999999999999999999999",
"99999999999999999999999999999999999999999999999999999999999999999999999999999999999999999999999999999999999999999999999999999999",
"99999999999999999999999999999999999999999999999999999999999999999999999999999999999999999999999999999999999999999999999999999999",
"99999999999999999999999999999999999999999999999999999999999999999999999999999999999999999999999999999999999999999999999999999999",
"99999999999999999999999999999999999999999999999999999999999999999999999999999999999999999999999999999999999999999999999999999999",
"99999999999999999999999999999999999999999999999999999999999999999999999999999999999999999999999999999999999999999999999999999999",
"99999999999999999999999999999999999999999999999999999999999999999999999999999999999999999999999999999999999999999999999999999999",
"99999999999999999999999999999999999999999999999999999999999999999999999999999999999999999999999999999999999999999999999999999999"
};
