/* XPM */
static char *_23a15bf86284b9dde76fb4d6971ff56S6WEBXvV3bpT5LjA[] = {
/* columns rows colors chars-per-pixel */
"128 128 28 1 ",
"  c #000001",
". c #232323",
"X c #2F2F2F",
"o c gray23",
"O c #4B3B1B",
"+ c #573F1F",
"@ c #5F4323",
"# c #6F4B27",
"$ c #774F2B",
"% c #434343",
"& c #4B4B4B",
"* c gray34",
"= c #676767",
"- c gray45",
"; c gray50",
": c #830001",
"> c #83532F",
", c #8B5B33",
"< c #935F37",
"1 c #9F633B",
"2 c #A3673F",
"3 c #AB6B43",
"4 c #B77347",
"5 c #BF7B4B",
"6 c #CB7F4F",
"7 c #980088",
"8 c gray56",
"9 c #9B9B9B",
/* pixels */
"77777777777777777777777777777777777777777777777777777777777777777777777777777777777777777777777777777777777777777777777777777777",
"77777777777777777777777777777777777777777777777777777777777777777777777777777777777777777777777777777777777777777777777777777777",
"77777777777777777777777777777777777777777777777777777777777777777777777777777777777777777777777777777777777777777777777777777777",
"77777777777777777777777777777777777777777777777777777777777777777777777777777777777777777777777777777777777777777777777777777777",
"77777777777777777777777777777777777777777777777777777777777777777777777777777777777777777777777777777777777777777777777777777777",
"77777777777777777777777777777777777777777777777777777777777777777777777777777777777777777777777777777777777777777777777777777777",
"77777777777777777777777777777777777777777777777777777777777777777777777777777777777777777777777777777777777777777777777777777777",
"77777777777777777777777777777777777777777777777777777777777777777777777777777777777777777777777777777777777777777777777777777777",
"77777777777777777777777777777777777777777777777777777777777777777777777777777777777777777777777777777777777777777777777777777777",
"77777777777777777777777777777777777777777777777777777777777777777777777777777777777777777777777777777777777777777777777777777777",
"77777777777777777777777777777777777777777777777777777777777777777777777777777777777777777777777777777777777777777777777777777777",
"77777777777777777777777777777777777777777777777777777777777777777777777777777777777777777777777777777777777777777777777777777777",
"77777777777777777777777777777777777777777777777777777777777777777777777777777777777777777777777777777777777777777777777777777777",
"77777777777777777777777777777777777777777777777777777777777777777777777777777777777777777777777777777777777777777777777777777777",
"77777777777777777777777777777777777777777777777777777777777777777777777777777777777777777777777777777777777777777777777777777777",
"77777777777777777777777777777777777777777777777777777777777777777777777777777777777777777777777777777777777777777777777777777777",
"77777777777777777777777777777777777777777777777777777777777777777777777777777777777777777777777777777777777777777777777777777777",
"77777777777777777777777777777777777777777777777777777777777777777777777777777777777777777777777777777777777777777777777777777777",
"77777777777777777777777777777777777777777777777777777777777777777777777777777777777777777777777777777777777777777777777777777777",
"77777777777777777777777777777777777777777777777777777777777777777777777777777777777777777777777777777777777777777777777777777777",
"77777777777777777777777777777777777777777777777777777777777777777777777777777777777777777777777777777777777777777777777777777777",
"77777777777777777777777777777777777777777777777777777777777777777777777777777777777777777777777777777777777777777777777777777777",
"77777777777777777777777777777777777777777777777777777777777777777777777777777777777777777777777777777777777777777777777777777777",
"77777777777777777777777777777777777777777777777777777777777777777777777777777777777777777777777777777777777777777777777777777777",
"77777777777777777777777777777777777777777777777777777777777777777777777777777777777777777777777777777777777777777777777777777777",
"77777777777777777777777777777777777777777777777777777777777777777777777777777777777777777777777777777777777777777777777777777777",
"77777777777777777777777777777777777777777777777777777777777777777777777777777777777777777777777777777777777777777777777777777777",
"77777777777777777777777777777777777777777777777777777777777777777777777777777777777777777777777777777777777777777777777777777777",
"77777777777777777777777777777777777777777777777777777777777777777777777777777777777777777777777777777777777777777777777777777777",
"77777777777777777777777777777777777777777777777777777777777777777777777777777777777777777777777777777777777777777777777777777777",
"77777777777777777777777777777777777777777777777777777777777777777777777777777777777777777777777777777777777777777777777777777777",
"77777777777777777777777777777777777777777777777777777777777777777777777777777777777777777777777777777777777777777777777777777777",
"77777777777777777777777777777777777777777777777777777777777777777777777777777777777777777777777777777777777777777777777777777777",
"77777777777777777777777777777777777777777777777777777777777777777777777777777777777777777777777777777777777777777777777777777777",
"77777777777777777777777777777777777777777777777777777777777777777777777777777777777777777777777777777777777777777777777777777777",
"77777777777777777777777777777777777777777777777777777777777777777777777777777777777777777777777777777777777777777777777777777777",
"77777777777777777777777777777777777777777777777777777777777777777777777777777777777777777777777777777777777777777777777777777777",
"77777777777777777777777777777777777777777777777777777777777777777777777777777777777777777777777777777777777777777777777777777777",
"77777777777777777777777777777777777777777777777777777777777777777777777777777777777777777777777777777777777777777777777777777777",
"77777777777777777777777777777777777777777777777777777777777777777777777777777777777777777777777777777777777777777777777777777777",
"77777777777777777777777777777777777777777777777777777777777777777777777777777777777777777777777777777777777777777777777777777777",
"77777777777777777777777777777777777777777777777777777777777777777777777777777777777777777777777777777777777777777777777777777777",
"77777777777777777777777777777777777777777777777777777777777777777777777777777777777777777777777777777777777777777777777777777777",
"77777777777777777777777777777777777777777777777777777777777777777777777777777777777777777777777777777777777777777777777777777777",
"77777777777777777777777777777777777777777777777777777777777777777777777777777777777777777777777777777777777777777777777777777777",
"77777777777777777777777777777777777777777777777777777777777777777777777777777777777777777777777777777777777777777777777777777777",
"77777777777777777777777777777777777777777777777777777777777777777777777777777777777777777777777777777777777777777777777777777777",
"77777777777777777777777777777777777777777777777777777777777777777777777777777777777777777777777777777777777777777777777777777777",
"77777777777777777777777777777777777777777777777777777777777777777777777777777777777777777777777777777777777777777777777777777777",
"77777777777777777777777777777777777777777777777777777777777777777777777777777777777777777777777777777777777777777777777777777777",
"77777777777777777777777777777777777777777777777777777777777777777777777777777777777777777777777777777777777777777777777777777777",
"77777777777777777777777777777777777777777777777777777777777777777777777777777777777777777777777777777777777777777777777777777777",
"77777777777777777777777777777777777777777777777777777777777777777777777777777777777777777777777777777777777777777777777777777777",
"77777777777777777777777777777777777777777777777777777777777777777777777777777777777777777777777777777777777777777777777777777777",
"77777777777777777777777777777777777777777777777777777777777777777777777777777777777777777777777777777777777777777777777777777777",
"77777777777777777777777777777777777777777777777777777777777777777777777777777777777777777777777777777777777777777777777777777777",
"77777777777777777777777777777777777777777777777777777777777777777777777777777777777777777777777777777777777777777777777777777777",
"77777777777777777777777777777777777777777777777777777777777777777777777777777777777777777777777777777777777777777777777777777777",
"77777777777777777777777777777777777777777777777777777777777777777777777777777777777777777777777777777777777777777777777777777777",
"77777777777777777777777777777777777777777777777777777777777777777777777777777777777777777777777777777777777777777777777777777777",
"77777777777777777777777777777777777777777777777777777777777777777777777777777777777777777777777777777777777777777777777777777777",
"77777777777777777777777777777777777777777777777777777777777777777777777777777777777777777777777777777777777777777777777777777777",
"77777777777777777777777777777777777777777777777777777777777777777777777777777777777777777777777777777777777777777777777777777777",
"77777777777777777777777777777777777777777777777777777777777777777777777777777777777777777777777777777777777777777777777777777777",
"77777777777777777777777777777777777777777777777777777777777777777777777777777777777777777777777777777777777777777777777777777777",
"77777777777777777777777777777777777777777777777777777777777777777777777777777777777777777777777777777777777777777777777777777777",
"77777777777777777777777777777777777777777777777777777777777777777777777777777777777777777777777777777777777777777777777777777777",
"77777777777777777777777777777777777777777777777777777777777777777777777777777777777777777777777777777777777777777777777777777777",
"7777777777777777777777777777777777777777777777777777>>77777777777777777777>>7777777777777777777777777777777777777777777777777777",
"7777777777777777777777777777777777777777777777777777>>57777777777777777775>O7777777777777777777777777777777777777777777777777777",
"7777777777777777777777777777777777777777777777777777O>35777777777777777753>o7777777777777777777777777777777777777777777777777777",
"7777777777777777777777777777777777777777777777777777X.>357777777777777753>.X7777777777777777777777777777777777777777777777777777",
"7777777777777777777777777777777777777777777777777777X+.>3577777777777753>.+X7777777777777777777777777777777777777777777777777777",
"7777777777777777777777777777777777777777777777777777X+X.>33,77777777,33>.X+X7777777777777777777777777777777777777777777777777777",
"77777777777777777777777777777777777777777777777777777X+oo$>,22$$$$22,>$OX+X77777777777777777777777777777777777777777777777777777",
"77777777777777777777777777777777777777777777777777777.Xoooo*&&o++o&*&ooooX.77777777777777777777777777777777777777777777777777777",
"777777777777777777777777777777777777777777777777777777.o&oXXo*&&&&*oXXo&o.777777777777777777777777777777777777777777777777777777",
"777777777777777777777777777777777777777777777777777777o&**&XXX&&&&XXX&**&o777777777777777777777777777777777777777777777777777777",
"777777777777777777777777777777777777777777777777777777o&**==*oo&&oo*==**&o777777777777777777777777777777777777777777777777777777",
"777777777777777777777777777777777777777777777777777777oo&oo&=*&**&*=&oo&oo777777777777777777777777777777777777777777777777777777",
"777777777777777777777777777777777777777777777777777777&$o  X&-=&&=-&X  o#&777777777777777777777777777777777777777777777777777777",
"777777777777777777777777777777777777777777777777777777$2o :*X*=**=*X*: o2#777777777777777777777777777777777777777777777777777777",
"777777777777777777777777777777777777777777777777777777>53++&*=-88-=*&+>35>777777777777777777777777777777777777777777777777777777",
"777777777777777777777777777777777777777777777777777777#351+=-*&88&*-=+153#777777777777777777777777777777777777777777777777777777",
"777777777777777777777777777777777777777777777777777777#1>#*--o....o--*#<1#777777777777777777777777777777777777777777777777777777",
"777777777777777777777777777777777777777777777777777777#,#*&o*&    &*o&*>,#777777777777777777777777777777777777777777777777777777",
"777777777777777777777777777777777777777777777777777777#>#&.& *.  .* &.&#>#777777777777777777777777777777777777777777777777777777",
"777777777777777777777777777777777777777777777777777777#>#oX*9 XooX 9*Xo#>$777777777777777777777777777777777777777777777777777777",
"777777777777777777777777777777777777777777777777777777#<$ooX=X-88-.=XoX#<$777777777777777777777777777777777777777777777777777777",
"777777777777777777777777777777777777777777777777777777><>o...XooooXX..X$1$777777777777777777777777777777777777777777777777777777",
"777777777777777777777777777777777777777777777777777777<#,oX  X*--*X  XX>1$#77777777777777777777777777777777777777777777777777777",
"77777777777777777777777777777777777777777777777777777>2#>&o.        .&+>$$>77777777777777777777777777777777777777777777777777777",
"77777777777777777777777777777777777777777777777777777>2>##&oX.    .X&o$$+>2>7777777777777777777777777777777777777777777777777777",
"7777777777777777777777777777777777777777777777777777>244>##oooooooo&o&#+$<6<7777777777777777777777777777777777777777777777777777",
"7777777777777777777777777777777777777777777777777777,1454<>*o&*==*&o&&@#<54<#777777777777777777777777777777777777777777777777777",
"777777777777777777777777777777777777777777777777777>,14453>**o&*&&o&&**<6421#777777777777777777777777777777777777777777777777777",
"777777777777777777777777777777777777777777777777777>114445<===*&****==-652,2##77777777777777777777777777777777777777777777777777",
"77777777777777777777777777777777777777777777777777>$114444<;--;;88;;;;*63,,<$#77777777777777777777777777777777777777777777777777",
"77777777777777777777777777777777777777777777777777>$114342=-;-;89999;-*3<,>,$#77777777777777777777777777777777777777777777777777",
"77777777777777777777777777777777777777777777777777>$12333<===--;88;--=*1<,>>$#77777777777777777777777777777777777777777777777777",
"77777777777777777777777777777777777777777777777777>$<2333<*===--;;--==*<,$>$#@77777777777777777777777777777777777777777777777777",
"77777777777777777777777777777777777777777777777777>#><133<*====----==**<,#$$@@77777777777777777777777777777777777777777777777777",
"77777777777777777777777777777777777777777777777777$@$,133<**====--==**,<>###+@77777777777777777777777777777777777777777777777777",
"77777777777777777777777777777777777777777777777777$@#><13<****=====***,,>$#@+@77777777777777777777777777777777777777777777777777",
"777777777777777777777777777777777777777777777777777$+$3<3<************,,,>#O@777777777777777777777777777777777777777777777777777",
"777777777777777777777777777777777777777777777777777$+,333<*&********&*,,>>@O@777777777777777777777777777777777777777777777777777",
"7777777777777777777777777777777777777777777777777777$,3133*&*&&&&&&*&*,,$$O+@777777777777777777777777777777777777777777777777777",
"7777777777777777777777777777777777777777777777777777$>1,13*o*&&&&&&&o*,>#$O@7777777777777777777777777777777777777777777777777777",
"77777777777777777777777777777777777777777777777777777$1><3*oo&%%%%&oo*>$@>@@7777777777777777777777777777777777777777777777777777",
"77777777777777777777777777777777777777777777777777777$1><1*oXo%%%%oXo*$#@>@77777777777777777777777777777777777777777777777777777",
"77777777777777777777777777777777777777777777777777777$4,<1*oXooooooXo*$##>@77777777777777777777777777777777777777777777777777777",
"77777777777777777777777777777777777777777777777777777741<1*o.XooooX.o*>#>>@77777777777777777777777777777777777777777777777777777",
"7777777777777777777777777777777777777777777777777777774531*%..XXXX..%*,,>$777777777777777777777777777777777777777777777777777777",
"7777777777777777777777777777777777777777777777777777774531*%X......X%*,,>$777777777777777777777777777777777777777777777777777777",
"7777777777777777777777777777777777777777777777777777772131*%X777777X%*1<,$777777777777777777777777777777777777777777777777777777",
"777777777777777777777777777777777777777777777777777777122<*%77777777%*11,$777777777777777777777777777777777777777777777777777777",
"7777777777777777777777777777777777777777777777777777771<<,&%77777777%&>>>$777777777777777777777777777777777777777777777777777777",
"77777777777777777777777777777777777777777777777777777711>>%%77777777%%,>#$777777777777777777777777777777777777777777777777777777",
"777777777777777777777777777777777777777777777777777777111>%%77777777%%,>#$777777777777777777777777777777777777777777777777777777",
"7777777777777777777777777777777777777777777777777777773331&%77777777%&1<>$777777777777777777777777777777777777777777777777777777",
"7777777777777777777777777777777777777777777777777777773431*%77777777%*1<>$777777777777777777777777777777777777777777777777777777",
"7777777777777777777777777777777777777777777777777777774431*%77777777%*13>$777777777777777777777777777777777777777777777777777777",
"7777777777777777777777777777777777777777777777777777774453*%77777777%*13>$777777777777777777777777777777777777777777777777777777",
"7777777777777777777777777777777777777777777777777777774565*%77777777%*363$777777777777777777777777777777777777777777777777777777",
"7777777777777777777777777777777777777777777777777777$$36661>@@7777@@,3666<@@7777777777777777777777777777777777777777777777777777",
"7777777777777777777777777777777777777777777777777777$,,,,>>$$@7777@>,,,,,,>@7777777777777777777777777777777777777777777777777777",
"7777777777777777777777777777777777777777777777777777$,<3,3,$$@7777@><33,3<>@7777777777777777777777777777777777777777777777777777",
"7777777777777777777777777777777777777777777777777777@$<3,3<$@@7777@@<33,3<@@7777777777777777777777777777777777777777777777777777"
};
