/* XPM */
static char *ffb359c76cab4eafb9c883f78d27fdbblKXKWbS50xZmJZ9K[] = {
/* columns rows colors chars-per-pixel */
"128 128 38 1 ",
"  c None",
". c #373701",
"X c gray23",
"o c #434301",
"O c #4F4F01",
"+ c #5F5F01",
"@ c #6B6B01",
"# c #777701",
"$ c #004343",
"% c #005B5B",
"& c #006F6F",
"* c #007373",
"= c #007777",
"- c #007B7B",
"; c #007F7F",
": c #4B4B4B",
"> c gray34",
", c #878701",
"< c #939301",
"1 c #9F9F01",
"2 c #AFAF01",
"3 c #BBBB01",
"4 c #C7C701",
"5 c #D7D701",
"6 c #E3E301",
"7 c #EFEF01",
"8 c #FFFF01",
"9 c #008787",
"0 c #008F8F",
"q c #009B9B",
"w c #00A7A7",
"e c #23B3B3",
"r c #23B7B7",
"t c #4BC3C3",
"y c #77CBCB",
"u c #9FDFDF",
"i c #BBEBEB",
"p c #DBF7F7",
/* pixels */
"                                                                                                   XXXXXXXXXXXXXXXXXXXXXXXXXXXXX",
"                                                                                                   XXXXXXXXXXXXXXXXXXXXXXXXXXXXX",
"                                                                                                   XX&&&&&&&&&&&&&&&&&&&&&&&&&&&",
"                                                                                                   XX===========================",
"                                                                                                   XX---------------------------",
"                                                                                                   XX99999999999;et9999999999999",
"                                                                                                   XX9999999999;=0q999999999999;",
"                                                                                                   XXqqqqqqqqq0;=&;qqqqqqqqqqq0;",
"                                                                                                   XXwwwwwwwww0;;;0wwwwwwwwwww0;",
"                                                                                                   XXwwwwwwwwwq000qwwwwwwwwwwwq0",
"                                                                                                   XXeeeeeeeeeq&%%%%%%%%%%%%%%%%",
"                                                                                                   XXeeeeeeeeetq&%%%%%%%%%%%%%%%",
"                                                                                                   XXeeeeeeeeett0;;;;;;;;;;;;;;;",
"                                                                                                   XXeeeeeeeeettwwqwwqqq00099999",
"                                                                                                   XXeeewupeeettwwwwqqqqqq009999",
"                                                                                                   XXeee0rueeettwqqqq0000009999;",
"                                                                                                   XXeew;0qeeettwqqqq00099999;;;",
"                                                                                                   XXewwq0weeettwqqqq0q00999;99;",
"                                                                                                   XXeewwweeeettqqq000009999;9;;",
"                                                                                                   XXeeeeeeeeettqq00099999;;;;;;",
"                                                                                                   XXeeeeeeeeettq00q09999;99;;;-",
"                                                                                                   XXeeeeeeeeett00000999999;;;--",
"                                                                                                   XXeeeeeeeeettq0909999;;;-;---",
"                                                                                                   XXeeeeeeeeettq09999;9;;;----=",
"                                                                                                   XXeeeeeeeeett00999;99;;;-----",
"                                                                                                   XXeeeeeeeeett09999;9;;;;----*",
"                                                                                                   XXeeeeeeeeett999;;;;;;---==*=",
"                                                                                                   XXeeeeeeeeett99;99-;;----=-==",
"                                                                                                   XXeeeeeeeeett9999;-;;----=***",
"                                                                                                   XXeeeeeeeeett9;;;;----=-*=***",
"                                                                                                   XXeeewupeeett9;;;;---==*==***",
"                                                                                                   XXeee0rueeett9;;;;-----*=****",
"                                                                                                   XXeew;0qeeett;;;-----******==",
"                                                                                                   XXewwq0weeett;;---==*==***==*",
"                                                                                                   XXeewwweeeett;;---=-==******=",
"                                                                                                   XXeeeeeeeeett-----=*****=*===",
"                                                                                                   XXeeeeeeeeett--==*=****==*===",
"                                                                                                   XXeeeeeeeeett-==-==****=*====",
"                                                                                                   XXeeeeeeeeett---*******====-=",
"                                                                                                   XXeeeeeeeeett-******======---",
"                                                                                                   XXeeeeeeeeett*==****=*====---",
"                                                                                                   XXeeeeeeeeett*=*****======---",
"                                                                                                   XXeeeeeeeeett****=*====------",
"                                                                                                   XXeeeeeeeeeyy***==*====----;-",
"                                                                                                   XXeeeeeeeeeyy*****=====------",
"                                                                                                   XXeeeeeeeeeyy***====-=----;;;",
"                                                                                                   XXeeewupeeeyy======-----;-;;;",
"                                                                                                   XXeee0rueeeuu=*=====---;--;;;",
"                                                                                                   XXeew;0qeeeuu======----;-;;;;",
"                                                                                                   XXewwq0weeeii===-----;;;;;;99",
"                                                                                                   XXeewwweeeeii===----;--;;;99;",
"                                                                                                   XXeeeeeeeeeii===------;;;;;;9",
"                                                                                                   XXeeeeeeeeeii-=----;;;;;9;999",
"                                                                                                   XXeeeeeeeeeii----;-;;;;99;990",
"                                                                                                   XXeeeeeeeeeii---;--;;;;9;9909",
"                                                                                                   XXeeeeeeeeeii---;-;;;;;999909",
"                                                                                                   XXeeeeeeeeeii-;;;;;;999999000",
"                                                                                                   XXeeeeeeeeeii;--;;;99;9909000",
"                                                                                                   XXeeeeeeeeeii;-;;;,5777630000",
"                                                                                                   XXeeeeeeeeeii;;;;=,2788830000",
"                                                                                                   XXeeeeeeeeeii;;;=%+<4784,00q0",
"                                                                                                   XXeeeeeeeeeii;;=%$o+4683#0000",
"                                                                                                   XXeeewupeeeii;==%$$.468300qqq",
"                                                                                                   XXeee0rueeeii;=*%%%.4672qqqqq",
"                                                                                                   XXeew;0qeeeii;=***9.467300qqq",
"                                                                                                   XXewwq0weeeuu;=**90.46730qqqq",
"                                                                                                   XXeewwweeeeuu;=*900.4672qqqww",
"                                                                                                   XXeeeeeeeewee;=9000.4672qqwww",
"                                                                                                   XXeeeeeeewqww;=900q.4672qwqqw",
"                                                                                                   XXeeeeeewqqww;=0000.4672wwwew",
"                                                                                                   XXeeeeeewqqww;=00q0.4662wwwwe",
"                                                                                                   XXeeeeeewqqww;=0q0q.4552qwwee",
"                                                                                                   XXeeeeeewq0ww;=0q0q.4441wwwee",
"                                                                                                   XXeeeeeewq0ww;=qqqq.3331weeee",
"                                                                                                   XXeeeeeewq0ww;=0qqw.1221eeere",
"                                                                                                   XXeeeeeewq0ww;=qqqw.<111weeee",
"                                                                                                   XXeeeeeewq0ww;=qqww.<<<<eeeer",
"                                                                                                   XXeeeeeewq0ww;=qwww.<<<<rerrr",
"                                                                                                   XXeeewupwq0ww;=qww@+,,,,#errr",
"                                                                                                   XXeee0ruwq0ww;=qw*o+####+rrrr",
"                                                                                                   XXeew;0qwq0ww;=q*%oO+@@+orrtt",
"                                                                                                   XXewwq0wwq0ww;=*%%$ooooo-rttr",
"                                                                                                   XXeewwwewq0ww;=*%%$$$%00rrrrt",
"                                                                                                   XXeeeeeewq0ww;=**%%%*0rrtrttt",
"                                                                                                   XXeeeeeewq0ww;=;;*&-0rrttrttt",
"                                                                                                   XXeeeeeewq0ww;=-==;0rrrrrtttt",
"                                                                                                   XXeeeeeewq0ww;;-=;0rrrrttttyt",
"                                                                                                   XXeeeeeewq0ww;;-;qrrttttttyyy",
"                                                                                                   XXeeeeeewqqww;;0qrrrtrtttttyy",
"                                                                                                   XXeeeeeewqqee;0qrrrrttttttyyy",
"                                                                                                   XXeeeeeeewqeeqqrrtrttttyyyyyu",
"                                                                                                   XXeeeeeeeeqyywrrttrttttyyyyuy",
"                                                                                                   XXeeeeeeeeeyyrrrrrtttttyyyyyy",
"                                                                                                   XXeeeeeeeeeiirrrttttytyyyyuuu",
"                                                                                                   XXeeewupeeeiittttttyyyyyuyuuu",
"                                                                                                   XXeee0rueeeiitrtttttyyyuyyuuu",
"                                                                                                   XXeew;0qeeeiittttttyyyyuyuuuu",
"                                                                                                   XXewwq0weeeiitttyyyyyuuuuuuii",
"                                                                                                   XXeewwweeeeiitttyyyyuyyuuuiiu",
"                                                                                                   XXeeeeeeeeeiitttyyyyyyuuuuuui",
"                                                                                                   XXeeeeeeeeeiiyyyyyyuuuuuiuiii",
"                                                                                                   XXeeeeeeeeeiiyyyyuyuuuuiiuiii",
"                                                                                                   XXeeeeeeeeeiiyyyyyyuuuuiuiiii",
"                                                                                                   XXeeeeeeeeeiiyyyuuuuuuuiiiiiu",
"                                                                                                   XXeeeeeeeeeiiyuuuuuuiiiiiiiuu",
"                                                                                                   XXeeeeeeeeeiiuyyuuuuiuiiiiiiu",
"                                                                                                   XXeeeeeeeeeiiuyuuuuuiiiiiuuuu",
"                                                                                                   XXeeeeeeeeeiiuuuuiuiiiiiuuuuy",
"                                                                                                   XXeeeeeeeeeiiuuuiiuiiiiiiuuuy",
"                                                                                                   XXeeeeeeeeeiiuuuuuiiiuuuuuyyy",
"                                                                                                   XXeeewupeetiiuuuiiiiiuuuuyuyy",
"                                                                                                   XXeee0rpettiiiiiiiiiiiiuuyyyy",
"                                                                                                   XXeew;0qttyppiuiiiiuuuuuyyyyt",
"                                                                                                   XXewwq0ttyyppiiiiiuuuyyuyytyt",
"                                                                                                   XXeewwttyyyppiiiiiuiuuuyytyyt",
"                                                                                                   XXeeettyyyypppiiuuuuuuuuuuuuu",
"                                                                                                   XXeettyyyyypppiuuuuuuuuuuuuuu",
"                                                                                                   XXettyyyyyyyyyytteeeeeeeeeeee",
"                                                                                                   XXttyyyyyyyyyytteeeeeeeeeeeee",
"                                                                                                   XXtyyyyyyyyyytteeeeeeeeeeeeee",
"                                                                                                   XXyyyyyyyyyyttupeeeeeeeeeeeee",
"                                                                                                   XXyyyyyyyyytt0rueeeeeeeeeeeee",
"                                                                                                   XXyyyyyyyyttw;0qeeeeeeeeeeeew",
"                                                                                                   XXyyyyyyyttwwq0weeeeeeeeeeeww",
"                                                                                                   ::yyyyyytteewwweeeeeeeeeeeeew",
"                                                                                                   ::yyyyytteeeeeeeeeeeeeeeeeeee",
"                                                                                                   >>>>>>>>>>>>>>>>>>>>>>>>>>>>>",
"                                                                                                   >>>>>>>>>>>>>>>>>>>>>>>>>>>>>"
};
