/* XPM */
static char *_82d4ba4ef4c4bb696f55ff64577f129[] = {
/* columns rows colors chars-per-pixel */
"128 128 42 1 ",
"  c #000001",
". c #010001",
"X c gray12",
"o c #232323",
"O c #2F2F2F",
"+ c gray20",
"@ c #373737",
"# c gray23",
"$ c #004343",
"% c #005B5B",
"& c #006F6F",
"* c #007373",
"= c #007777",
"- c #434343",
"; c #4B4B4B",
": c gray34",
"> c #5B5B5B",
", c #676767",
"< c gray45",
"1 c #7B7B7B",
"2 c gray50",
"3 c #008787",
"4 c #008F8F",
"5 c #009F9F",
"6 c #00ABAB",
"7 c #00B7B7",
"8 c #00CFCF",
"9 c #00E7E7",
"0 c cyan",
"q c #23FFFF",
"w c #43FFFF",
"e c #7FFFFB",
"r c gray56",
"t c #9B9B9B",
"y c gray67",
"u c #B7B7B7",
"i c #BBFFFF",
"p c #C3C3C3",
"a c LightGray",
"s c #DFDFDF",
"d c #DBFFFF",
"f c #EFEFEF",
/* pixels */
"oooooooooooooooooooooooooooooooooooooooooooooooooooooooooooooooooooooooooooooooooooooooooooooooooooooooooooooooooooooooooooooooo",
"o@#########@#@@@@@@@@OO@OOOOOOOOoOOooooooooOOOOOOOOOO@O@@@@@@@@@#@###########------------------------;-;;;;;;;;;:;::::::::::::-o",
"o@OOO@-----######@@@@@@OOOOOOOOOOOooooooOOOOOOOOOOO@@@@@@######-----------;;;;;;;;;;;:;::::::::::::::::::,,,,,,,,,,,,,,,,,1111:o",
"o-@-@###-;----#####@#@@@@O@OOOOooooooooOOoOOOO@@@@#@@###--#--;-;;;;:;;::::::::,:,,,,,,,,,,,,,,111111111122122t2tttttttttttyty11o",
"o#@@##;--;--#-####@#;###OOOOOoOooooooooooOOOOO####;#;;;;;;:::::,,,,<,<<<<<22222222rrrrrttttttyyyyyuuuuuuuupppppaaaasasssssfffy1o",
"o#@##@#;;--#--#####;#####OOOoOOooooooOoOOOO######;;;;;:;::::,,,,,,<<<<<2<2222rrrrrrrttrtytyyyyuyyuuuuupuppppaaaaaasssssfsffffy1o",
"o###;;;--:-;:;;;;;####O#OOOOoOooooooOOoOOO#####;#;;;;::;::,,,,,,<,<<<<22<22r2rrrrrrrttrtttyyyyyuyuuuuppuppaaaaaasassssffsffffy1o",
"o##;@;:::;;;;;;######OOOOOooooooooooOoOOOOO######;;;;;;::,::,,,,,,<<<<<<22r22rrrrtttytttttyuyyyyyuuuuuuppappaaaaaassssssfffffy1o",
"o##;;:::;::;;;,<rrr<#OOOOoOOooooooooOOOO#O####,<rrr<;::::,:,,,,<<<<<<<2222r2rrr<rryuyyyyytyuyyuuuuuuuppppapaaaytyppfssffffffft1o",
"o##-::::::;;;,,2rtyt<OOOOoOooooooOOOOOO#####;,,2rtyt<::,,,,,,<<<<<<22222rrrrr,,2ryuyuuyyyyyyuuuuuupppppaaaaaat,rtpsffaffffffsy1o",
"o@--:::;;;;;#:;,rypy<OOOoooooooooOoOOOO######:;,rypy<:,::,,,<,,<<<<2<22r22r2,:;,ruautuyyuyyuyuuuuupuppappaaat:,2rpsffaffffffsy,o",
"o@;::;:;;;;#O;#,2tyt,OoOoooooooooOOOOOO####O#;#,2tyt,:::,,,,<,<<<<<2222r2rr,;;;,2tut2uyyyyyuyuuuuuppppppaaau2;,,rtpspfffffssst,o",
"o#-::::;;;;#o#O;,22<:OOOooooooOoOOOO#######OO#O;,22<:,,,,,<<<<<<2<2222rrrr2,###;,22<:uyyyyuuuuupuppppaaaaasy,#:,,22tpffffsffst,o",
"o@-:;;;;;;;OoO#O;:,:#ooooooooOOoOOOO####;##OO##O;:,::,,,,<,,<<<22<22r2rrrr2,####;:,:<uyyuyuuuuppuppapaaaasay,:#:,,,:pffffffsst,o",
"o@#;;;;;###OooO#;:;#oooooooooooOOOOO########OO#;,:;::,,,,,,<<<<<<22r22rrrr2:###;;#;:yyyyyyuuuuuuppappaaaaaay2,:;##:pffffssssst,o",
"o@-:;;;;#;##oooooooOOooooooooOOOO#O####;;;;##OOOO#;:,,,,<<<<<2<2222r22rrrr2,;####:<yyyyuuuuuuuppppapaaaasssayrr22rufffsfssssat,o",
"o@-;;;;;#####ooooOoOooooooOOOOOO#####;#;;;;;####;:,,,,<,<<<<22<22rrrrrrtttt2,:;:<tuuyuyuuuupppppaaaaaasassssaaaaaafffsffssssat,o",
"o@#;;#;####OOOOOOoooooooooOoOOOOO###;##;;;;:;::,::,,,<,,<<<<2<22r22rrrtrrttr2222tyyyuyyuuuupuppappaaasaassssfsfffffffsfsssssat,o",
"o@#;##;####OOOOoOoooooooooOOOOOO####;#;;;;;::::::,,,,<,<<<<<2222r2rrrrrrrttttttyyyyyuyuuuuuppppppaaaasasssssfffffffssssssaaaat,o",
"o@#;;;#####OOOOOOooooooOoOOOO#####;;;;;;::::::,,,,,<<<<<<222222rrrrrtrttttyyyyyyuyuuuuuuppppppaaaaassssssfffffffffsffsssaasaat,o",
"o@#;####O#OOOOooooooooOOoOOOO####;##;;;::;::,:,,,,<,,<<<22<22r2rrrrtrrtttttttyyyyuyyuuuppuppapaaaasaasssffsfffffffsfssssssaaat,o",
"oO@####OOOOOoOooooooooooOOOOO######;;;;;;:::::,,,,,,<<<<<<2222222rrrrrttttttyyyyyyuuuuuuupppppaaaaaassssssfffffffsssssasaaaap2:o",
"oO######OOOoOOooooooOoOOOO#O####;;;;;:;::::,,,,,,<<<<<2<2222rrrrrrrttrtytyytyuyyuuuuupuppppaaaaaasssssfsfffffffsfssssaasaaappt:o",
"oO@####OOOOoOooooooOOoOOO#####;#;;;;::;:#################################################aaaaaasassssffsfffffffffssssssaaaaaa2:o",
"oO@#OOOOOooooooooooOoOOOOO###;##;;;;:;:::;##;;;;;;;;;;;;;;;;;;;;;;;;;;;;;;;;;;;;;;;;;;;#yppaaaaaassssfsfffffffsssssssaaaapapp2:o",
"oO@#OOOOoOOooooooooOOOO#O####;#;;;;;::::,<<::::::::::>>>>,>,,,,,<<<<<<22<2r22r2rrrrr2<tyapaaaasssssssfffffffssssssaaaaaappapp1:o",
"oO@#OOOOOOoooooooOOOOO#####;;;;;;::::::,,,pa<<<<<<222222rrrrrtrrttttttyyyyyuuuuuuppppsfaaaaassssssfffffffffsffssssasaaaaaappu2:o",
"oO@OOOOooooooooOOOOOOO####;##;;;::;::,:,,,,fat<<<<2<22r2rr2rttrttttyttyuyyuyuuuuppupsfpaaaasaassssfsfffffffsfsssssaaaaaappppu2:o",
"oOOOOoOooooooooOoOOOOO####;#;;;;;;:::::,,,,<fat<<<222222rrrrrrtrrttyytyyyyuyuuuuuupsfppaaaasasssssffffffffsssssasaaaapppppuuu1:o",
"oOOOoOOooooooooOOOOO#####;;;;;:;::::,,,,,,<<<fat<2222rrrrrrrrttttttyyyyyyuuuuupuppsfaaaaaasssssfsfffffffsfssssaasaaaapappuppu1:o",
"oOOOoOooooooOoOOOO#####;#;;;;::;::,,,,,,,,<<<<fat22r2rrrrttttttyytyyuyyuyuuuuppupsfaaaaasasssfffffffffffffssssssaaaaappppppuu1:o",
"oOoooooooooOOoOOOO#######;;;;;;::,<<<<<<<<<<<<<fayr22rrrrrrttttttttyyyyyyuuuuuupsfppaaaaaasssffffffffffsssssssaaaapappppuuuuu1:o",
"ooOOoooooooooOOOOO#####;;;;;;::::,<rrr22<<<<<<22fay22rrrrrrtttttyyyyyyuuuuuuuppsfapaaaasssy<rryafffffsfssssaaaaaappappupuuuuy1:o",
"ooOooooooOoOOOO#O####;;;;;:::::,,,2rtyt22<<22222rfayrrttttttyyyyyuuyuuuuuuppppsfaaaaassssy,2rpspafffsffssssasaaaaaappuppuuuuy1:o",
"ooooooooOOoOOO#####;#;;;;;:;::,::;,rypy22<<2<22r22fautrrttrtttyyyyyuyyuuuupupsfppaaasaasp:;,ruaatfffsfsssssaaaaaappppupuuuuuy1:o",
"ooooooooOoOOOOO###;##;;;;:::::::;#,2tyt,2<<222222rrfaurrttttttyyyyyuyuuuuuppsfppaaaasasst:#,2tyy,ffsssssaaaaaapppppuuuuuuuyyy1:o",
"ooooooooOOOO#O####;#;;;;;::::,,;#O;,22<:2<2222rrrrrtfauttyyyyyyuyyuuuuupuppsfaaaaassssspr::;,22<<sffsssaasaaaapappuppuuuyyuyy1:o",
"oooooOOOOOO#####;;;;;;:::::::,:;##O;:,::2<22r2rrrrtrrfauttttyyyyuyuuuuppupsfpaaaasaassspt:<:;:,:rffssssssaaaaappppppuuuuuuyuy1:o",
"ooooOOoOOOO####;;;;;;::;::,:,,:;#O###;:<<22r2222rrtrrtfauttyyyyyyuuuuuuupsfppaaaaaasssspt,:<<,:rsssssasaaaappppppuuuuuyuyyyyy,;o",
"ooooooOOOOO####;:,<,::;:::::,,:;;#OO#:<2222r2rrrrrttrtyfaptyuyyuuuuuuuppsfapaaaasssssfappt<::,ufssssaasaaappappupupppuyuyyyty,;o",
"ooOoOOOO######;<rrr<,:::::,,,,:::;;::,<22rrrrrrtrrttttttfapyyuyuuuuppppsfaaaaasassssffasppppypffssssasaaaaaappt<rryyppuyuuyyt1:o",
"oOOoOOO######;:<rtyt<:::##:,,<,,:::,<<22r22rrrttrrtttyttyfpauyyuuuupupsfppaaasaassssfsffssssasfsssssaat,,appp,,2ryuyyapyyyytt,;o",
"oOoOOOOO######;,rypy<:::##O:,,,<<<<<2222r2rrrrrrtttttyttyufsayuuuuuppsfppaaaasasssssffffffsssssssaaaatOOOappr:;,ruautapyttttt,;o",
"oOOOO#O#####O##,2tyt,::::<#O><<<<<22222rrrrrtrrttttttyyyyyufsauuppppsfaaaaassssssfffffffffsffsssaasat;OOOppu;;#,2tut,apyttyyt,;o",
"oOOO#####;;#O#O;,22<:::,ty:#O><<22222r2rr2rttrtttyyttyuyyuyufsappupsfpaaaasaasssffsfffffffsfssssssat;;:;Oppt##O;,22<:puyttttt,;o",
"oOOO####;######O;:,::::,yu,:#O><2<22222rrrrrrtrrtttytyyyyyyuufsaupsfppaaaaaassssssfffffffsssssasaat;,<,;Opur###O;:,:<pyytttrt,;o",
"oOOO####;#;##OO#;#;::,,,pu,,:#O>22222rrrrrrrttttttyyyyyyuuuuupfsasfaaaaaasssssfsfffffffsfssssaasat;,2r,;Optr;#;###;:uyyttttrr,;o",
"oO@####;;;;;##OOO#;,,,,<pu<<,:#O,22rrrrrttttttyytyyuuyuyuuuuppufsfaaaaasassssffsfffffffffssssssat;,ryy<:Optr,;#;;#:yyytttttrr,;o",
"oO@##;#;;;;;;####;,,,,<,pu<<2,:#O<2rrrrrrrttttttttyyyuyyuuuupuppfppaaaaaassssfsfffffffsssssssaat;,rypy<:Ouyr2,::,<tyyttttttrr,;o",
"oO@####;;;;;;;;;::,,,,,,pu<<<<,:#O,rrrrtrrtttttyyyyyyuuuuuuuppppapaaaasssssssfffffffssssssaaaat;,ryppy<:Ouutt222ryyyttttrrtrr,;o",
"oO@#;;;;;;;::::,:,,,,<<<pu2<222,:#O<rrrttttyyyyyuuyuuuuuuppppppaaaaassssssfffffffffsffssssasat;,ryppuy<:Ouuyyyyyyyyttrttrrtrr,;o",
"oO##;;;;:::::,,,,,,<,<<<pu2<22rr,:#O1rrttttttyyyyyuyyuuuppuppapaaaasaassssfsfffffffsfsssssaat;,rypppuy<:Ouuyyuyyyytytrttrrrrr,;o",
"o@@#;;;;:;::,::,,,<,,<<<pu<22r22r<:#O<rtttyttyyyyyuyuuuuuupppppaaaasasssssffffffffsssssasaat;,ryppuuuy<:Ouyyyyyttttttrrrrr222:-o",
"o@@;;;;;:::::: oo#<,<<<<pu222r2rrr<:#O<tttyyyyuyyuuuuupuppppaaaaaasssssfsfffffffsfssssaasat;,ryppuppuy<:Ouyyyytttttttrrtrrrr2,-o",
"o@#;;::::::,, o;:#;<<<22pu22rrrrrtr<:#O1ttyyyyyuyuuuuppuppaaaaaasassssffsfffffffffssssssat;,rypppppuuy<:Oyuuyyyyyttttrtrrrrr2:-o",
"o@#;::;::,:,  #::;#;<22<pur2rrrrttrt2:#O1tyuyyyyuuuuuuuppappaaaaaassssssfffffffsssssssaat;,rypppuuuuuy<:Oyyyytttttrrrrrrr2r22:-o",
"o@#;;;:::::O  oo#;#;<<<2pu22rrrrrrttt2:#O1yyyyyuuuuuuppppap333334444566ffffffsfssssaaaat;,ryppupuuuuyy<:Oytytttrttrrrrrr22r22:-o",
"o@-;::::,,OO o  o;#,<222pur2rrrrrttttt2:#O2yyuuuuupppppaaat%%357890qqd6fffffsffssssasat;,ryppuppuuuuyy<:Oyytyyttttttr2rrrr22<:-o",
"o@-;::,,,#OOOo  o;#<<22rpur2rttttttyyty2:#Oryuuuuupuppappar%$%%%%*589i5fffffsfsssssaat;,rypppupuuuuuyy<:Oyttttttrrrrr2rr2222<:-o",
"o@#::,,,;##OOo  o;#<22r2purrrrrttrtttytyr:#O2uuuupppppppaar%$%%%*5898e4fffssssssaaaat;,ryppuuuuuuyyyyy<:Ottttttrrrrrr22222<<<:-o",
"o@-::,,:;;##;o  o##<22r2purrrrrtttttyyyyyr:#Oruuuppppaaaaar%$%%&   87w4ffsffsssaasat;,ryppuppuuuyyuyyu<:Oyytttrttrrrr2r22<22<:-o",
"o@-:,,::;;;:<o  o##22rrrputrttttyyyyyuuyuur:#Otppppppaaaasr%$%%3$$ 7304ffffssssssat;,rypppppuuuuuuyyyy<:Ottttrrtrrrrr222222<<:-o",
"o@;:,,::;:,<<o  oO#22rrrpurrtttttttyyyyuyyur:#Orppapaaaaaar%$%%7 $ 3394fsssssasaat;,rypppuuuuuyuyyuyty<:Otrtrrrrrr2r2222<<<<<;-o",
"o@-:,,:::,<<<o  oO#2222rpurrttttttyyyyyuuuuur:#Oppppaaaassr%$%%8   3*84fssssaasat;,ryppupuuuuuyuyyuytt<:Otrrttr2r22r22<2<<<<,;-o",
"o#;,,,::<<<<<o  oO#2rrrrputrtytyyyyuyyuuuuupur>#saaaaaaassr%$%*9   *%74fssssasaat;rypppppuuuuyuyyyyytt<:Otrrtrrrrrr22<22<<<<,:#o",
"o#;;,,::<<<22o  oO#2rrtrputrtttyyyyyuyuuuuppuuttaaaaasasssr%$*3q $ %%53sssssaaaapsapppuuuuuuuyyuytyyty<:Otrrrrr2r2222<2<<<<<,;#o",
"o#;,,,::<<<<<o  oO#rrrtrputttttyuyyyyyuuuuuuppuppaaaaaasssr%$37q%% %%5=ssaaaaaappafsuuuuuuyyyyyyyttttt<:Otrrrr22r22<<<<<<,,,,;#o",
"o#;,,,::<<<22o  oO#rrrttputtyytyuyyuuuuuuuppsfapaaaassssssr%$78iw75%%5=saasaaaapappsspuuuuyuyyyyytttrt<:Otrrrr2r22<22<<<,,<,,;#o",
"o#;<<,::22222o. oO#rrrttppttyyyyyuuuuuuppppsfaaaaassssssfft%$89873*%%5=sssaaaaappppufsuuuuyyuyyyyyytrt<:Orrrrr2222<2<<<<<<,,,;#o",
"o-:,<,::2<222o..oO#rrrttppttyuyyuyuuuuupupsfppaaasaassssfsy%$9873*%%%5=saaaappppppuuussuuyyyyyttttttrr<:Or2222222<<<<<,<,,,,:-@o",
"o#;<<,::2222,o..oO#,trttppytyyyyuyuuuuuppsfppaaaasasssssffy%$$$$$$$$$%=saaappappupuuuussuyyyytttttttrr<:Or22r22<2<<<<,,<,,,::;@o",
"o#:<<,::222r#o..o###ttttppyyyyyuuuuupuppsfaaaaassssssfsfffu%%%%%%%%%%%%aaaaaapppppuuuuussyuyyyyytttttt<:Orrr22222<<<<<<,,,,,,-@o",
"o-:<<,::222r#o..o#O#tyytppuyyuyuuuuppupsfpaaaasaasssffsfffpuyyyttttrrtaaapappppuuuuuuuyyssyytttttrrrrr<:Or2222<<<<<<<,,,,:,::-@o",
"o-:<<,::222#o#ooOO#<ttttppyyyyyuuuuuupsfppaaaaaassssssffffffssssssaaaaaappappuuuuuuyyyyyyssyttrttrrrrr<:Or22<<<<<<,,,,,,::,::#@o",
"o-:<<,::22:#oo####<tttyyppyyuuuuuuuppsfapaaaasssssfsfffffffsffssssasaaaaaappuppuuuuyuyyuyyssyttttttr2r<:O22<22<<<<,<,,,,,,::;-@o",
"o-:<<,::2,;#OOO#;<yytyyuppuyuuuuppppsfaaaaasassssffsfffffffsfsssssaaaaaappppupuuuuuyyyyyyttssytrrrrr2r<:O22<2<<<<<,,,,,,::::;-@o",
"o-:2<,::::;;##;trtttytyyppyyuuuupupsfppaaasaassssfsfffffffsssssasaaaapppppuuuuuuyuyyyyttytttspyrrrrr22<:O2<<<<<,<,,,,:::::;;;#@o",
"o-:2<,:::::;;:ttttttyyyyppyuuuuuppsfppaaaasasssssfffffffsfssssaasaaaapappuppuuuyyuyyuyttyttttapyrrrr2r<:O2<<<<,,<,,,,:,::;::;#@o",
"o-:2<,::::::,ttyyyyyyuyuppuuuppppsfaaaaassssssffffffffffffssssssaaaaappppppuuuuuuyyyyyttttttrrspyrrr22<:O2<<<<<<,,,,,::::::;;#@o",
"o-:2<,,:::,<ttttttyyyyuyppuuppppsfpaaaasaasssffsfffffffsssssssaaaapappppuuuuuyuyyuytyytttrttrrrapyr222<:O<<<<<,,,,,,,:::;;;;;@@o",
"o;:22<<<<2rttt2<rryyyyyuppuuuupsfppaaaaaassssssffffffsfssssaaaat2tpappupuuuuuyuyyuyttttttrrtrr2rppy22<<:O<<,,,,<rrr2<:::;;;;#@@o",
"o-:rrrrrttrty,,2ryuyyuuupppuppsfaaaaaasssssfsfffffffsffssssasat,,#tppuppuuuuyuyyyyyttttttrrtrrrrrapy<2<:O<<,<,,2rtyt2<::;;;;##Oo",
"o;,rrtrrttrt2:;,ruautuuupppupsfaaaaasassssffsfffffffsfsssssaat,22:#tpupuuuuuyyuytyytyttttrrrrrrr22ppy2<:O<<,::;,rypy<2:;;;;;#@Oo",
"o;,rrtrrtttt;;#,2tut,uuuppupsfppaaaaaassssfsfffffffsssssaaaat,tyu2:#ruuuuyyyyyyyttttttrrrrrrr22222<ptr<:O,,,O;#,2tyt,<:;;####@Oo",
"o;,rrttttttro#O;,22<:uuupppsfapaaaasssssssfffffffsfssssaasat,tpapp2:#ruuyyuyyyyytttrttrrtrrrr2r22<22rr,,O<,;O#O;,22<::;;##;##@Oo",
"o;,rrtttttt<o##O;:,:<uppppsfaaaaassssssffffffffffffssssssat,tappppp2:#ruuuyuyyyyyytrttrtrrrrr222222<<r,;O,:#OO##;:,:;;#;;;###@Oo",
"o;,rttttytt<#o####;:uppuppspaaaaaaaassssssffffffsssssssaat,tpppppuuu2:#ryyyyyttttttrrrrrr22r2222<<<<<,rOO,;#OOO#::#####;####OOOo",
"o;,trrttyyr<;#oooo<uuuuppsppaaaaasssy<ryyaffffsfssssaaaat,tpappupuuuu2:#2yyttttttttrrtrrr22r22<2<<<<,,<::,;#OOOOOOO#;######OOOOo",
"o;,tttttyytr<:##:<upuppppaaaaaassssy,2ryppaffsffssssasat,taapppppuuuuy2:#ryytyyttttttrrrr,<rrr<2<<<<,<,,:,;#OOOOOO#;;#######OOOo",
"o;,tyytyyuyrrrrrruppuppaaaaaasasasp:;,ruaupffsfsssssaat,tappppuuuuuuuyy2:#2tttttrrrrrrr2,,2rtyt<<<<<,,,,:,:;##OO##;;;####O#OOOOo",
"o;,tttttyyyyytyuuuuuppappaaaaaassst;#,2tuttfsssssaaaat,tppppuuuuuuyyyyyy2:#1trrtrrrrrr2>:;,rypy<<,,,,,,::,::;;#;;;######OOOOOooo",
"o;,ttyyyyyyuuuuuuuppppapaaaassssspr#O;,22<tsfsssaasat,tpappuppuuuuyuyyuyt2:#1ttrttr2rr,#;#,2tyt,,,<,,,,:,::;::;;;;#;####OOOOoOOo",
"o:1yyyuuyuuuuuupppppaaaaaasssssssar:#O;<,:tfssssssat,tappppppuuuuuyyyyyytt2:#1rrtrr2r<>O#O;,22<:<<,,,,,::::;:;;;;;######OOOOoOoo",
"o;,yyyyyuyyuuuupuppappaaasaasssssay2:###,tssssasaat,tpppppuuuuuyuyyyyttyttt2:#<rrrr22,>O##O;:,::,,,,::::::;;;;;#;####OOOOOOooooo",
"o;,yyyyyuyuuuuuppppppaaaasasssssfapyrrrtuasssaasat,tpappupuuuuyyuyyyyttytttr2:#<rr22r,;OO####;:<,,,::,::;:;;;;##;####OOOOoOooooo",
"o:1yuyyuuuuupuppppaaaaassssssfsffsaaaaaaaasssasat,taapppppuuuuyuyuuyyttttttrr2:#<rrr2,;#OOOOO:<,,,,,,:::::;;;;;;#####OOOOOOooooo",
"o:1yyuyuuuuppuppapaaaasaasssffsfffssssaaassssaat,tappppuuuuuuuyyyyyyttttrttrrr2:#<222,:;#OOO:,,,,:,::::;;;;;;;####O#OOOOoooooooo",
"o:1yyyuuuuuuuppappaaaaaassssssffffffsssssssaaat,tpappuuuuuuyyyyyytttttttrrtrr222:#,2<<,::;:,,,,,::,::;;;;;;######OOOOOoOoooooooo",
"o:1yuuuuuuuppppapaaaasssssfsffffffffsffsssaaat,tpappuppuuuuyuyyuyttyytttrrtrrrr2<:#>22<<<<,<,,,,,,::;::;;;;#;#####OOOoOOoooooooo",
"o:1yuuuupppppaaaaaasassssffsfffffffsfssssssat,tappppupuuuuuyyyyyyttttttrrrrrrrr22,:#,<<<<<,,,,,,::::;:;;;;;######OOOOoOooooooOoo",
"o:1yuuuupuppappaaasaassssfsfffffffsssssasaat,tpppppuuuuuyuyyyytyytttrtrrrrrr222222,:#><,<,,,,:::::;;;;;;#;####OOOOOoooooooooOOoo",
"o:1uuuuuppppppaaaasasssssfffffffsfssssaasat,tpappupuuuuuyuyyuyttytttrrttr2rr2r22<2<,:#:,<,,,,:,::;::;;;##;####OOOOoOOoooooooOoOo",
"o:1uuppppppaaaaassssssffffffffffffssssssat,taapppppuuuuuuyyyyyttttttrrtrrrrr222222<<,:#>,,,,,::::::;;;;;;#####OOOOOOooooooooOOOo",
"o:1uppuppapaaaasaasssffsfffffffsssssssaat,tapppppppppppuupuuuuuuuuuuyyyyytyttttttttttt:#,,:,::::;;;;;#;####O#OOOOooooooooOOOOOOo",
"o:1uuupppppaaaaaassssssffffffssssssaaaaa<tyupasssssssssssssssssssaasaaaappapppppppuputr2,::,::;:;;;;##;###OOOOOoOooooooooOoOOOOo",
"o:2uppppaaaaaasssssfsfffffffsffssssasaaaaaappuppuuuuyuyyyyytttrttrrtrrrr2r22<22<<<<,<,,,,,,::;::;;;;#;#####OOOoOOooooooooOOOOOOo",
"o:2uppaaaaaasassssffsfffffffsfsssssaaaaaappppupuuuuuyyuyyyytytrttrrrrrrr2222<2<<<<<,,,,,,::::;:;;;;;####O#OOOOoOooooooOoOOOO#@Oo",
"o:1ppappaaaaaassssfsfffffffsssssasaaaapppppuuuuuuuuyyyyyttttttrrrrr22222222<<<<<,,,,,,:::::;;;;;;######OOOOOoooooooooOOoOOOO#@Oo",
"o:2ppapaaaasssssssfffffffsfssssaasaaaapappuppuuuyyuyyyytttttttrrtrrrr2r22<2<<<<,,<,,,,:,::;::;;;##;####OOOOoOOoooooooooOOOOO#@Oo",
"o:2paaaaassssssffffffffffffssssssaaaaappppppuuuuuuyuuyyyyyttttrtrrrrr222222<<<<<<,,,,,::::::;;;;;;#####OOOOoOooooooooOOOO#O##@Oo",
"o:tpaaaasaassssfsfffffffsssssssaaaapappppuuuuuyuyyyyyytttttrrrrrrr2r2222<<<<<<<,,,,::::::;;;;;#;####OOOOOOooooooooOOOOOO######Oo",
"o:2paaaasaaaaassssssffsfssssaaaaaappappupuuuuyyuyyytytttrttrrrrrr22r22<2<<<<,,,,,,::,::;:;;;;##;###OOOOOoOooooooooOoOOOOO###;@Oo",
"o,taaaasssasssy<ryupsfffssssasaaaaaappuppuuuuyt<rrrrtyyttttttr2rrrr22<22<<<<,<,<rrr<:::::;;;;#;#####OOOOOOoooo+-:,:#OOOO####;@@o",
"o,taasassssssy,2ryuupffsssssaaaaaappppupuuuuu,,2ryuyrttttrrrrr2rr2222<2<<<<<,,,2rtyt<:;;;;;;;####O#OOOOooooooO#->,<>######;;;#@o",
"o,taaaasssasp:;,ruauufsssaaaaaapppppuuuuuuyyr:;,ruau<tttrrrrrr22222<<<<<<,,,,:;,rypy<;;;;;######OOOOOoooooooXOo#>12<:-###;##;#@o",
"o,tasssssssst;#,2tuttfssaasaaaapappuppuuuyyu;;#,2tut,ttrttrrrr2r22<22<<<,,<,:;#,2tyt,:;;;;#;####OOOOoOOooooXooo#;,1,;-#####;;#@o",
"o,tssssssssft#O;,22<:sssssaaaaappppppuuuuuuro#O;,22<:trrtrrrrr222222<<<<<<,,##O;,22<:;;;;;######OOOOoOoooooXoo o##>:-###;;;;;-@o",
"o,tassssssfft:#O::,:tfasaaaappppppuuuuuyuyy,o##O;:,:<rrrrrr2r2222<<<<<,<,,,;OO#O;:,::;;#;####OOOOOOooooooooooXo  oO-++;#;;;;:-@o",
"o,tsssssffffut:###;tssasaaappappupuuuuuyuyr:#o####;:rttr2r22r22<2<<<<,,<,,:#XXO###;:;;##;####OOOOoOooooooooooooO#Oo++###;;;;:#@o",
"o,tssfsfffffauttttussssaaaaaapppppuuuuyuyyr,;#ooo#<rrtrrrrrr22<22<<<<,<,,,;#OOXXXX#;;;#;#####OOOOOOoooooooooooooooO##;#;;;;;:-@o",
"o,tsffsfffffffppppfsssaaapappppuuuuuuuyyuyt<,;#;:2trrrrr2r2222<2<<<<<,,,,:;;#OOO#;;;;;####O#OOOOooooooooOOOOoooooO#;;;;;;::::-@o",
"o,tsssfffffffsaaasssssaappappuuuuuuyyyyyyytr<<<2rrtrrrr22r22<<<<<<,,,,,,::;;;;;;;;;######OOOOOoOoooooooOOoOOOOOOO#;##;;;::;::;@o",
"o,ysfffffffffssssssssaaapappuppuuuuyuyyyyytttrttrrtrrrr2r22<22<<<,,<,,,,:,:;;;;;;;;#;####OOOOoOOoooooooooOOOOO####;#;;;;;;:::-@o",
"o1ysffffffffssssssssaaaappppupuuuuuyyuyyyyyytrttrtrrrrr2222<2<<<<<<,,,,,::::;:;;;;;######OOOOoOooooooOoOOOO######;;;;;:;::::,;#o",
"o1tfffffffsssssasaaaappppppuuuuuuuyyyyyttttttrrrrrr2222222<<<<<,<,,,,::::::;;;;;#;####OOOOOOooooooooOOoOOO#####;#;;;;::;::,,,;#o",
"o1yyyyyytytttttttttt22t221211111111111,,,,,,,,,,,,,::,::::::::;;:;;;--;--#-####@@#@@@@OOOOoOooooooooOoOOOOO@@@@@@######--;--;;#o",
"o111111111,,,,,,,,,,,,:::::::::::::::::::;;;;;;;;;;;;-----------######@@@@@@@@@@@OOOOOOOOOOOooooooooOOOOOOOOOO@@@@@@@@@@@#@####o",
"oooooooooooooooooooooooooooooooooooooooooooooooooooooooooooooooooooooooooooooooooooooooooooooooooooooooooooooooooooooooooooooooo"
};
