/* XPM */
static char *f73af4decfcf4c4e9f2fa621301e746dk5Iug9eLn9n3jd4b[] = {
/* columns rows colors chars-per-pixel */
"128 128 54 1 ",
"  c None",
". c #000001",
"X c #373701",
"o c #232323",
"O c #2F2F2F",
"+ c gray23",
"@ c #434301",
"# c #4F4F01",
"$ c #5F5F01",
"% c #6B6B01",
"& c #777701",
"* c #004343",
"= c #005B5B",
"- c #006F6F",
"; c #007373",
": c #007777",
"> c #007B7B",
", c #007F7F",
"< c #4B4B4B",
"1 c gray34",
"2 c #676767",
"3 c gray45",
"4 c gray50",
"5 c #878701",
"6 c #939301",
"7 c #9F9F01",
"8 c #AFAF01",
"9 c #BBBB01",
"0 c #C7C701",
"q c #D7D701",
"w c #E3E301",
"e c #EFEF01",
"r c #FFFF01",
"t c #FFFF57",
"y c #008787",
"u c #008F8F",
"i c #009B9B",
"p c #009F9F",
"a c #00A7A7",
"s c #23B3B3",
"d c #23B7B7",
"f c #4BC3C3",
"g c #77CBCB",
"h c gray56",
"j c #9B9B9B",
"k c gray67",
"l c #B7B7B7",
"z c #9FDFDF",
"x c #BBEBEB",
"c c #C3C3C3",
"v c LightGray",
"b c #DFDFDF",
"n c #DBF7F7",
"m c #EFEFEF",
/* pixels */
"                        ++++++++++++++++++++++++++++++++++++++++++++++++++++++++++++++++++++++++++++++++++++++++++++++++++++++++",
"                        ++++++++++++++++++++++++++++++++++++++++++++++++++++++++++++++++++++++++++++++++++++++++++++++++++++++++",
"                        ++------------------------------------------------------------------------------------------------------",
"                        ++::::::::::::::::::::::::::::::::::::::::::::::::::::::::::::::::::::::::::::::::::::::::::::::::::::::",
"                        ++>>>>>>>>>>>>>>>>>>>>>>>>>>>>>>>>>>>>>>>>>>>>>>>>>>>>>>>>>>>>>>>>>>>>>>>>>>>>>>>>>>>>>>>>>>>>>>>>>>>>>>",
"                        ++yyyyyyyyyyy,sfyyyyyyyyyyyyy,sfyyyyyyyyyyyyy,sfyyyyyyyyyyyyyysfyyyyyyyyyyyyy,sfyyyyyyyyyyyyy,sfyyyyyyyy",
"                        ++yyyyyyyyyy,:uiyyyyyyyyyyyy,:uayyyyyyyyyyyy,:uayyyyyyyyyyyyy>uayyyyyyyyyyyy,:uayyyyyyyyyyyy,:uayyyyyyyy",
"                        ++iiiiiiiiiu,:-,iiiiiiiiiiiu,:-,iiiiiiiiiiiu,:-,iiiiiiiiiiiiu>yyiiiiiiiiiiiu,:-,iiiiiiiiiiiu,:-,iiiiiiii",
"                        ++aaaaaaaaau,,,uaaaaaaaaaaau,,,uiaaaaaaaaaau,,,uaaaaaaaaaaauuyyuaaaaaaaaaaau,,,uaaaaaaaaaaau,,,uaaaaaaaa",
"                        ++aaaaaaaaaiuuuiaaaaaaaaaaaiuuuiiaaaaaaaaaaiuuuiaaaaaaaaaaaiuuuiaaaaaaaaaaaiuuuiaaaaaaaaaaaiuuuiaaaaaaaa",
"                        ++sssssssssi-===========================================================================================",
"                        ++sssssssssfi-==========================================================================================",
"                        ++sssssssssffu,,,,,,,,,,,,,,,,,,,,,;,;;;;;;;;;;;;;;;;;;;;;,,,,,,,,,,,,,,,,,,,,,,,,,,,,uuuuuuuuuiiiiiisss",
"                        ++sssssssssffaaiaaiiiuuuyyyyy,y,,,,>>>::;::;;;::;::::>>>>,>>,,,yy,yyuyuuuuiuuiiiaaiassssdssdddffdffffggg",
"                        ++sssaznsssffaaaaiiiiiiuuyyyyyy,,,,>>>:>;:;;;;;;:::::>>>>,>,,,,,,yyyyyuuuuiuiiiiaaaaaassssddddddfffffggg",
"                        ++sssudzsssffaiiiiuuuuuuyyyy,,,,,>>>:>:;;;;;:;::::>>>>>>,,,,,y,yyyyuuuuuuiiiiiaiaaassssssdddfdffffgggggg",
"                        ++ssa,uisssffaiiiiuuuyyyyy,,,>,,>>>::;:;;;;::;:::>>>>>,>,,,,yy,yyuuuuuuiuiiiiaaiassssdsddddffdfffgggggzg",
"                        ++saaiuasssffaiiiiuiuuyyy,yy,,,,>>>:>;:;;;;;;:::::>>>>>>,,,,,,yyuyyuuuuuuiiiiaaaasassssddddfdfffffgggggg",
"                        ++ssaaassssffiiiuuuuuyyyy,y,,,>>>>>:;;;;;;;::::>:>>>>,,,,,,,yyyyuyuuuuiiiiiaiaaassasssdddddffffgfggggzzz",
"                        ++sssssssssffiiuuuyyyyy,,,,,,>>>::;:;;;;::::::>>>>>,,,,,,yyyyyuuuuuuiiiiiiaaasssssddddddffffffgggggzzzzz",
"                        ++sssssssssffiuuiuyyyy,yy,,,>>>::>::;;;;;;:::::>>>,>>,,,,y,yyuyyuuuiuuiiiiaaaasassssddddfdffffggggzggzzz",
"                        ++sssssssssffuuuuuyyyyyy,,,>>>>>>;;;;;;;::::::>>>>,>,,,,,yyyyyyuuuuiuiiiiiaaassssssdddddffffffggggzgzzzz",
"                        ++sssssssssffiuyuyyyy,,,>,>>>:>;;;;;;::::::>>>>>,,,,,,y,yyyyuuuuuiiiiiiaaaasasssdddddfdffffggggggzzzzzxz",
"                        ++sssssssssffiuyyyy,y,,,>>>>::;::;;;;:;:::::>>>,>>,,,yy,yyuyuuuuiuuiiiaaaaasassssdddffdffffggggzgzzzzxxz",
"                        ++sssssssssffuuyyy,yy,,,>>>>>>;:;;;;;::::::>>>>>>,,,,,,yyuyyuuuuuuiiiaiiaassasssddddddfffffggggggzzzzzzx",
"                        ++sssssssssffuyyyy,y,,,,>>>>;;;;;;:;::::>>>>>,,,,,,y,yyyyuyuuuuiiiiiaaasaasssdddddddffffgfggggzzzzzzzxxx",
"                        ++sssssssssffyyy,,,,,,>>>::;::;;;::;::::>>>>,>>,,,yy,yyuuuuuuiuiiiiaaaaassssssdddffffffgggggzgzzzzxxxxxx",
"                        ++sssssssssffyy,yy>,,>>>>:>::;;;;;;:::::>>>>>>,,,,y,yyuyyuuuiuuiiiiaiaasssdssddddfdfffffgggzggzzzzxzxxxx",
"                        ++sssssssssffyyyy,>,,>>>>:;;;;;:;::::>:>>>>,,,,,y,yyyyuyuuuuiuiiiiaaaaasssdsdddddffffffggggzgzzzzzxxxxxz",
"                        ++sssssssssffy,,,,>>>>:>;:;;;;::;:::>>>>>,>,,,,yy,yyyuuuuuiiiiiiaaaaassssssdddfdffffgggggzzzzzzxxxxxxxzz",
"                        ++sssaznsssffy,,,,>>>::;::;;;;:;:::::>>>,>>,,,,y,yyuyuuuuiuuiiiaaiassssdssdddffdffffggggzggzzzxxzxxxxxxz",
"                        ++sssudzsssffy,,,,>>>>>;:;;;;;::::>:>>>>,>,,,,,yyyyuyuuuuiuiiiiaaaaaassssddddddfffffggggggzzzzzzxxxzzzzz",
"                        ++ssa,uisssff,,,>>>>>;;;;;;::::::>>>>>,,,,,,yyyyyyuuuuuuiiiiiaiaaassssssdddfdffffgfggggzzzzzxzxxxxxzzzzg",
"                        ++saaiuasssff,,>>>::;::;;;::;::::>>>>,>>,,,yy,yyuyuuuuiuiiiiaaiassssdsddddffdfffgggggzgzzzzxxzxxxxxxzzzg",
"                        ++ssaaassssff,,>>>:>::;;;;;;:::::>>>>,>,,,,,,yyyyyuuuuiuiiiiaaaasassssddddfdfffffgggzggzzzzxzxxxxzzzzggg",
"                        ++sssssssssff>>>>>:;;;;;:;::::>>>>>>,,,,,y,yyyyuuuuuuiiiiiaiaaassasssdddddffffgfggggzgzzzzzxxxxxzzzggzgg",
"                        ++sssssssssff>>::;:;;;;::;:::>>>>>,>,,,,yy,yyuuuuuuiuiiiiaaasssssddddddffffffgggggzzzzzzxxxxxxxxxxzzzggg",
"                        ++sssssssssff>::>::;;;;:;:::::>>>>>>,,,,,,yyuyyuuuuuuiiiiiiaasassssdddffdffffggggzggzzzxxzxxxzzzzzzggggf",
"                        ++sssssssssff>>>;;;;;;;::::>:>>>>,,,,,,,yyyyuyuuuuiiiiiiaaaaasssssddddddfffffggggzgzzzzzzxxxxzzzggzggfff",
"                        ++sssssssssff>;;;;;;::::::>>>>>,,,,,,yyyyyuuuuuuiiiiiiaaaaassssdddddfdffffggggggzzzzzxzxxxxxxzxzgzggfggf",
"                        ++sssssssssff;::;;;;:;::::>>>>,>>,,,,y,yyuyyuuuiuuiiiaaiasssadssdddffdfffgggggzgzzzzxxzxxxxzzzzzggggfgff",
"                        ++sssssssssff;:;;;;;::::::>>>>,>,,,,,yyyyyyuuuuiuiiiiaaaaaassdsddddddfffffggggggzzzzzzxxxxzxzggggggfffff",
"                        ++sssssssssff;;;;:;::::>>>>>>,,,,,y,yyyyuuuuuiiiiiiaiaaassssssdddddffffgfggggzzzzzzzxxxxxzzxzgzggfgffffd",
"                        ++sssssssssgg;;;::;::::>>>>,>,,,,yy,yyuyuuuuiuuiiiaaiassssdsddddffffffgggggzzzzzzxxxxxxxzzzzzzgggggffffd",
"                        ++sssssssssgg;;;;;:::::>>>>>>,,,,,,yyuyyuuuuuuiiiiaaaasassssddddddfffffgggzggzzzzxzxxxxzxzgzggggfffffffd",
"                        ++sssssssssgg;;;::::>:>>>>,,,,,,,yyyyuyuuuuiiiiiaiaaassasssdddddffffffggggzgzzzzzxxxxxzzxzgzggffffffdddd",
"                        ++sssaznsssgg::::::>>>>>,>,,,,yyyyyuuuuuuiuiiiiaaisssssddddddffffffgggggzzzzzzxzxxxxxzzzzzzggfggffffdfdd",
"                        ++sssudzssszz:;:::::>>>,>>,,,,y,yyuyyuuuiuuiiiiaaaasassssddddfdfffffgggzggzzzxxzxxxxxxzzzggggfgfffffdddd",
"                        ++ssa,uissszz::::::>>>>,>,,,,,yyyyyyuuuuiuiiiiiaaassssssdddddffffffggggggzzzzzzxxxzzzzzggggffffffddddsss",
"                        ++saaiuasssxx:::>>>>>,,,,,,yyyyyyuuuuuiiiiiiaaaasassddddddfdffffgggggzzzzzzxzxxxxxzzzzgzggfggfffdddsddss",
"                        ++ssaaassssxx:::>>>>,>>,,,yy,yyuyuuuuiuuiiiaaaaasassssdddffdffffggggzggzzzxxzxxxxxxxzzggggggffffffddddss",
"                        ++sssssssssxx:::>>>>>>,,,,,,yyyyyuuuuuuiiiaiiaassasssddddddfffffggggggzzzzxzxxxxzzzzzggggfffffdfdddssssa",
"                        ++sssssssssxx>:>>>>,,,,,y,yyyyuuuuuuiiiiiaaasaasssdddddfdffffgfggggzzzzzxzxxxxxzzzggzggfgffffddfsddsssaa",
"                        ++sssssssssxx>>>>,>,,,,yy,yyuuuuuuiuiiiiaaaaassssssdddffdfffgggggzgzzzzxxzxxxxxxxzzzggfggffffdfddddssssa",
"                        ++sssssssssxx>>>,>>,,,,y,yyuyy134hjjjjjjjjjjjjjjjjddddfdfffffgggzggzzzzxzxxxxzzzzzggggfgffffddddssssasaa",
"                        ++sssssssssxx>>>,>,,,,,yyyyuy:O122222222222222222jddddffffgfggggzgzzzzzxxxxxzzzggzggffffffdddsddsssaaaaa",
"                        ++sssssssssxx>,,,,,,yyyyyyuuu:O122222222222222222jdffffffgggggzzzzzzxxxxxxxzzzzgzggfggfffddfdsddssssaaai",
"                        ++sssssssssxx,>>,,,yy,yyuyuuu:O12<4222222222<4222jffdffffggggzggzzzxxzxxxxxxzgzggggfgffffffddssssssaaaai",
"                        ++sssssssssxx,>,,,5qeeew9uuuu:O121<2222222211<222jddfffffggggzgzzzzzzxxxzzzzzgzgggfffffdfdsddsssaaaaaiii",
"                        ++sssssssssxx,,,,:58errr9uuuu:O122222222222222222jffffggggggzzzzzxzxxxxxzzzzgzggfgffffddfdsdssssaaaaiaai",
"                        ++sssssssssxx,,,:=$60er05uuiu:O122222222222222222jfffgggggzgzzzzxxzxxxxxxzzzggggfgffffdddddsssssaaaaaaii",
"                        ++sssssssssxx,,:=*@$0wr9&uuuu:O122222222222222222jffffggggggzzzzzzxxxxzzzzgggggfffffffdsddsssasaaaaiiiii",
"                        ++sssaznsssxx,::=**X0wr9uuiii:O122222222222222222jfgfggggzzzzzzzxxxxxzzzggzggfgffffddddsdsssaaaaaiaiiiiu",
"                        ++sssudzsssxx,:;===X0we8iiiii:O122222222222222222jgggggzzzzzzxxxxxxxxxxzzzgggggffffffdddsssssaaaiaaiiiuu",
"                        ++ssa,uisssxx,:;;;yX0we9uuiii:O122222222222222222kggggzggzzzzxzxxxzzzzzzggggffffffddddsdssasaaaaiaiiiiiu",
"                        ++saaiuassszz,:;;yuX0we9uiiii:O122222222222222222kggggzgzzzzzxxxxxzzzggzggffffffdddsddsssaaaaaiiiiiuuuuu",
"                        ++ssaaasssszz,:;yuuX0we8iiiaa;O12222@57780wr22222kgggzzzzzxzxxxxxxzxzzzggfggffffdfdsddsssaaaaiaaiiiuuuuy",
"                        ++ssssssssass,:yuuuX0we8iiaaa;O12221@&780wrt22233lgzgzzzzxxzxxxxzzzzzggggfgfffffdddssssasaaaaiaiiiiiiuuy",
"                        ++sssssssaiaa,:yuuiX0we8iaiia;O1221<@$<...7t22234lgggzzzzzzxxxxzzzgggggffffffdfdsddsssaaaaaaiiiiiuuuuuyy",
"                        ++ssssssaiiaa,:uuuuX0we8aaasa;O1221<@$<OO.7r22244czzzzzzzxxxxxzzxzgzggfggfffddfdsddsssaaaaiaiiiiuuuyyyyy",
"                        ++ssssssaiiaa,:uuiuX0ww8aaaas;O1221+@$1OO.7r2234hczzzzxxxxxxxzzzzzggggggffffdddddsssssaaaaiaiuiiiiuuyyy,",
"                        ++ssssssaiiaa,:uiuiX0qq8iaass;O1221+@$2OO.7w223hjvzzzzxzxxxxzxzgzggggfffffdfdsddsssaaaaaaiiiiiuuuuuyyyy,",
"                        ++ssssssaiuaa,:uiuiX0007aaass;O1221O@$4<<O7w234jkvzzzzxxxxxzzxzgzggfgffffddfdsdsssaaaaaiaiiiiuuuyyyyy,,,",
"                        ++ssssssaiuaa,:iiiiX9997assss;O122<O@$h42<7023hklvzxxxxxxxzzzzzzggfggffffdfdddsssssaaaaaaiiiuuuuyyyy,yy,",
"                        ++ssssssaiuaa,:uiiaX7887sssds;O122<o@$$%&56824hklvxxzxxxxxxzzzggggfgfffffddddsssasaaaaiiiiiiiuyuyyyy,y,,",
"                        ++ssssssaiuaa,:iiiaX6777assss;O122<o@@@@@@@@24jklvzzxxxzzzzzggggffffffddddsssssaaaaaiiiiuuuuuuyyyyy,,,,,",
"                        ++ssssssaiuaa,:iiaaX6666ssssd;O122<oooO++<1234jklvxxxxxzzzzgzggfggfffddddddsssssaaaiaaiiiuuuuyyyy,y,,,,>",
"                        ++ssssssaiuaa,:iaaaX6666dsddd;O122<<<<1122233hjklbxxxxxxzzzggggggffffffddddssssaaaaiaiiiiiuuuyyyy,y,,,>>",
"                        ++sssaznaiuaa,:iaa%$5555&sddd;O12222222222234hjllmxxxzzzzgggggfffffdfdddssssaaaaaiiiiiiuuuuyyyyy,,,,>,>>",
"                        ++sssudzaiuaa,:ia;@$&&&&$dddd;O12222222222344hklcmxxzzzggzggfgffffddfsddssssaaaaiaaiiiuuuyyyyy,y,,,,>>>:",
"                        ++ssa,uiaiuaa,:i;=@#$%%$@ddff;O1222222222334hjlccmxxxxzzzgggggffffdfddddssssaaaaaaiiiiiiuuyyyyyy,,,,>>>:",
"                        ++saaiuaaiuaa,:;==*@@@@@>dffd;O122222222334hjkllcmzzzzzggggffffffddddssssasaaaaiiiiuuuuuuyyyy,,,,,>>>:>:",
"                        ++ssaaasaiuaa,:;==***=uuddddf;O12222222334hjklkklbzzggzggffffffdddsddsssaaaaaiaiiiiuuuyyyyy,,,>,,>>>::>:",
"                        ++ssssssaiuaa,:;;===;uddfdfff;O1222222334hjklkjjkvxzgzggfggffffdfdsddssssaaaiaaiiiiuiuuyyy,yy,,,,>>>:>::",
"                        ++ssssssaiuaa,:,,;->uddffdfff;O12<422334hjkljvhhjczzggggfgfffffdddssssssaaaaiaiiiuuuuuyyyy,y,,,>>>>>::::",
"                        ++ssssssaiuaa,:>::,udddddffff;O121<2334hjklk3244hcgggggfffffdfdsddsssaaaaaiiiiiiuuuyyyyy,,,,,,>>>::::::;",
"                        ++ssssssaiuaa,,>:,uddddffffgf;O1222334hjklkjh4444czggfgffffddfdsddsssaaaaiaaiuiuuiuyyyy,yy,,,>>>::>::;:;",
"                        ++ssssssaiuaa,,>,iddffffffggg;OOOOOOOOOOOOOOOOOO2cgggggffffdddddsssssaaaaaaiiiuuuuuyyyyyy,,,>>>>>>:::::;",
"                        ++ssssssaiiaa,,uidddfdfffffgg;;;;;;;;;;;;;;;;yypggggfffffffdsddsssaaaaaaiiiiiuiuyuyyyy,,,>,>>>:>::::;;;;",
"                        ++ssssssaiiss,uiddddffffffggggzgzzzzzxxxxxzzxzggggffffffddddsdsssaaaaaiaiiiiuuiuyyyy,y,,,>>>>::>::;;;;;:",
"                        ++sssssssaissiiddfdffffgggggzzzzzzxzxxxxxzzzzzzggfggffffdfdddsssssaaaaaaiiiuuuuuyyy,yy,,,>>>>>>::;::;;;;",
"                        ++ssssssssiggaddffdffffggggzggzzzxxzxxxxxxzzzggggfgfffffdddddssasaaaaiiiiiiiuuuyyyy,y,,,,>>>>::::;:;;;;:",
"                        ++sssssssssggdddddfffffggggggzzzzzzxxxzzzzzggggffffffddddsssssaaaaaiiiiuuuuuuyyyy,,,,,,>>>:::::;;;;;;:::",
"                        ++sssssssssxxdddffffgfggggzzzzzxzxxxxxzzzzgzggfggfffdddsddssssaaaaiaaiiiuuuuyyyy,yy>,,>>>>:>::;::;;;;::>",
"                        ++sssaznsssxxffffffgggggzgzzzzxxzxxxxxxxzzggggggffffffddddssssaaaaiaiiiiiuuuyyyyyy,>,,>>>>::::::;;;;::>;",
"                        ++sssudzsssxxfdfffffgggzggzzzzxzxxxxzzzzzggggfffffdfdddssssaaaaaaiiiiiuuuuyyyyy,,,,>>>>:>::::;;;;;::::;;",
"                        ++ssa,uisssxxffffffggggzgzzzzzxxxxxzzzggzggfgffffddfsddsssaaaaaiaiiiiuuuyyyyy,y,,,,>>>::>::;:;;;;::::;;>",
"                        ++saaiuasssxxfffgggggzzzzzzxxxxxxxxxxzzzggfggffffdfddddssssaaaaaaiuiiiiuuyyyyyy,,,,>>>>>::;::;;;;::>;;>>",
"                        ++ssaaassssxxfffggggzggzzzxxzxxxzzzzzzggggfgffffddddssssasaaaaiiiiuuuuuuyyyy,,,,,>>>>>::::;:;;;;:::;;>>>",
"                        ++sssssssssxxfffggggggzzzzzzxxxxzzzggzggffffffdddsddsssaaaaaiiiiiiuuuyyyyy,,,>,,>>>:::::;;;;;;::::;;>>,,",
"                        ++sssssssssxxggggggzzzzzxzxxxxxxzxzgzggfggfffddfdsddssssaaaiaaiiiiuiuyyyy,yy,,,,>>>:>::;::;;;;::>;;>>>,,",
"                        ++sssssssssxxggggzgzzzzxxzxxxxzzzzzggggfgffffffddssssssaaaaiaiiiuuuuuyyyy,y,,,>>>>>::::::;;;;::>;;>>>>,,",
"                        ++sssssssssxxggggggzzzzxzxxxxzxzggggggfffffdfdsddsssaaaaaiiiiiiuiuyyyyyy,,,,,>>>::::::;;;;;::::;;>>>,>,,",
"                        ++sssssssssxxgggzzzzzzzxxxxxzzxzgzggfgffffddfdsdssssaaaaiaaiuiuuiuyyyy,y,,,,>>>::>::;:;;;::::>;;>>>,,,yy",
"                        ++sssssssssxxgzzzzzzxxxxxxxzzzzzzgggggffffdddddsssssaaaaaaiiiuuuuuyyyyyy,,,>>>>>>:::::;;;;::>;;>>>,,,yy,",
"                        ++sssssssssxxzggzzzzxzxxxxxxzgzggggfffffffdsddsssasaaaaiiiiiuiuyuyyyy,,,>,,>>:>::::;;;;;::::;;>>>,,,,,,y",
"                        ++sssssssssxxzgzzzzzxxxxxzzzzgzggffffffddddsdsssaaaaaiaiiiiuuiuyyyy,,,,,>>>>::>::;;;;;;::::;;>>>,,,y,yyy",
"                        ++sssssssssxxzzzzxzxxxxxzzzzgzggfggffffdfdddsssssaaaiaaiiiuuuuuyyy,yy,,,>>>>:>::;::;;;;::>;;>>,,,,yy,yyy",
"                        ++sssssssssxxzzzxxzxxxxxxzzzggggfgfffffdddddssasaaaaiaiiiiiuuuyyyy,y,,,,>>>>::::;:;;;:::>;;>>>,,>,,,yyyy",
"                        ++sssssssssxxzzzzzxxxzzzzzgggggfffffddddsssssaaaaaiiiiiuuuuuyyyy,,,,,,>>>::::::;;;;;::::;;>>>,,,,,yyyyuu",
"                        ++sssaznssfxxzzzxxxxxzzzzgzggfgffffdddsddssssaaaaiaaiiiuuuuyyyy,yy>,,>>>::>::;:;;;;;::>;;>>,,,,yyyyyyuui",
"                        ++sssudnsffxxxxxxxxxxxxzzggggggffffffddddssssaaaaiaiiiiiiuuyyyyyy,>,,>>>>>:::::;;;-::>;;>>>,,,,y,yyyyyuu",
"                        ++ssa,uiffgnnxzxxxxzzzzzggggfffffffdddssssaaaaaaiiiiiuuuuuyyyy,,,,>>>>:>::::;;;;--:::;;>>,>,,,,yyyyyuuuu",
"                        ++saaiuffggnnxxxxxzzzggzggfgffffdddsddsssaaaaaiaiiiiuuuyyyyy,y,,,,>>>::>::;;;;;;-::>;;>>>,,,y,yyyyuuuiii",
"                        ++ssaaffgggnnxxxxxzxzzzggfggffffdfdsddssssaaaaaaiuiiiiuuyyy,yy,,,,>>>>>::;::;;;-:::;;>>>,,,,y,yyyyuuuuii",
"                        ++sssffggggnnnxxzzzzzzzzzzzzzzzzzzzzzzzzzzzzzzzzzzzzzgggggggffffffggggggggggggfdssdfgggggggggggggggggggg",
"                        ++ssffgggggnnnxzzzzzzzzzzzzzzzzzzzzzzzzzzzzzzzzzzzzzzgggggggffffffggggggggggggfdssdfgggggggggggggggggggg",
"                        ++sffggggggggggffsssssssssssssssssssssssssssssssssssssaaiiuuuuuuuuuuuiiaassssssaiassssssssssssssssssssss",
"                        ++ffggggggggggffsssssssssssssssssssssssssssssssssssssaaiiuuuuuuuuuuuiiaassssssaiasssssssssssssssssssssss",
"                        ++fggggggggggffsssssssssssssssssssssssssssssssssssssaaiiuuuuuuuuuuuiiaassssssaiassssssssssssssssssssssss",
"                        ++ggggggggggffznsssssssssssssaznsssssssssssssaznsssaaiiuuuuyy,sfuuiiaassssssaiznsssssssssssssaznssssssss",
"                        ++gggggggggffudzsssssssssssssudzsssssssssssssudzssaaiiuuuuuy,:iauiiaassssssaiudzsssssssssssssudzssssssss",
"                        ++ggggggggffa,uissssssssssssa,uissssssssssssa,uisaaiiuuuuuuu,:-,iiaassssssaia,uissssssssssssa,uissssssss",
"                        ++gggggggffaaiuasssssssssssaaiuasssssssssssaaiuaaaiiuuuuuuuu,,,uiaassssssaiaaiuasssssssssssaaiuassssssss",
"                        <<ggggggffssaaasssssssssssssaaasssssssssssssaaaaaiiuuuuuuuuuuuuiaassssssaiaaaaasssssssssssssaaasssssssss",
"                        <<gggggffsssssssssssssssssssssssssssssssssssssaaiiuuuuuuuuuuuiiaassssssaiaasssssssssssssssssssssssssssss",
"                        11111111111111111111111111111111111111111111111111111111111111111111111111111111111111111111111111111111",
"                        11111111111111111111111111111111111111111111111111111111111111111111111111111111111111111111111111111111"
};
