/* XPM */
static char *fb882e5f4fce4dd2d9cfc44d2f6ccfcadHKFrFmlc4ImkQC7[] = {
/* columns rows colors chars-per-pixel */
"128 128 54 1 ",
"  c None",
". c #000001",
"X c #373701",
"o c #232323",
"O c #2F2F2F",
"+ c gray23",
"@ c #434301",
"# c #4F4F01",
"$ c #5F5F01",
"% c #6B6B01",
"& c #777701",
"* c #004343",
"= c #005B5B",
"- c #006F6F",
"; c #007373",
": c #007777",
"> c #007B7B",
", c #007F7F",
"< c #4B4B4B",
"1 c gray34",
"2 c #676767",
"3 c gray45",
"4 c gray50",
"5 c #878701",
"6 c #939301",
"7 c #9F9F01",
"8 c #AFAF01",
"9 c #BBBB01",
"0 c #C7C701",
"q c #D7D701",
"w c #E3E301",
"e c #EFEF01",
"r c #FFFF01",
"t c #FFFF57",
"y c #008787",
"u c #008F8F",
"i c #009B9B",
"p c #009F9F",
"a c #00A7A7",
"s c #23B3B3",
"d c #23B7B7",
"f c #4BC3C3",
"g c #77CBCB",
"h c gray56",
"j c #9B9B9B",
"k c gray67",
"l c #B7B7B7",
"z c #9FDFDF",
"x c #BBEBEB",
"c c #C3C3C3",
"v c LightGray",
"b c #DFDFDF",
"n c #DBF7F7",
"m c #EFEFEF",
/* pixels */
"                                                                           +++++++++++++++++++++++++++++++++++++++++++++++++++++",
"                                                                           +++++++++++++++++++++++++++++++++++++++++++++++++++++",
"                                                                           ++---------------------------------------------------",
"                                                                           ++:::::::::::::::::::::::::::::::::::::::::::::::::::",
"                                                                           ++>>>>>>>>>>>>>>>>>>>>>>>>>>>>>>>>>>>>>>>>>>>>>>>>>>>",
"                                                                           ++yyyyyyyyyyy,sfyyyyyyyyyyyyy,sfyyyyyyyyyyyyy,sfyyyyy",
"                                                                           ++yyyyyyyyyy,:uiyyyyyyyyyyyy,:uayyyyyyyyyyyy,:uayyyyy",
"                                                                           ++iiiiiiiiiu,:-,iiiiiiiiiiiu,:-,iiiiiiiiiiiu,:-,iiiii",
"                                                                           ++aaaaaaaaau,,,uaaaaaaaaaaau,,,uiaaaaaaaaaau,,,uaaaaa",
"                                                                           ++aaaaaaaaaiuuuiaaaaaaaaaaaiuuuiiaaaaaaaaaaiuuuiaaaaa",
"                                                                           ++sssssssssi-========================================",
"                                                                           ++sssssssssfi-=======================================",
"                                                                           ++sssssssssffu,,,,,,,,,,,,,,,,,,,,,;,;;;;;;;;;;;;;;;;",
"                                                                           ++sssssssssffaaiaaiiiuuuyyyyy,y,,,,>>>::;::;;;::;::::",
"                                                                           ++sssaznsssffaaaaiiiiiiuuyyyyyy,,,,>>>:>;:;;;;;;:::::",
"                                                                           ++sssudzsssffaiiiiuuuuuuyyyy,,,,,>>>:>:;;;;;:;::::>>>",
"                                                                           ++ssa,uisssffaiiiiuuuyyyyy,,,>,,>>>::;:;;;;::;:::>>>>",
"                                                                           ++saaiuasssffaiiiiuiuuyyy,yy,,,,>>>:>;:;;;;;;:::::>>>",
"                                                                           ++ssaaassssffiiiuuuuuyyyy,y,,,>>>>>:;;;;;;;::::>:>>>>",
"                                                                           ++sssssssssffiiuuuyyyyy,,,,,,>>>::;:;;;;::::::>>>>>,,",
"                                                                           ++sssssssssffiuuiuyyyy,yy,,,>>>::>::;;;;;;:::::>>>,>>",
"                                                                           ++sssssssssffuuuuuyyyyyy,,,>>>>>>;;;;;;;::::::>>>>,>,",
"                                                                           ++sssssssssffiuyuyyyy,,,>,>>>:>;;;;;;::::::>>>>>,,,,,",
"                                                                           ++sssssssssffiuyyyy,y,,,>>>>::;::;;;;:;:::::>>>,>>,,,",
"                                                                           ++sssssssssffuuyyy,yy,,,>>>>>>;:;;;;;::::::>>>>>>,,,,",
"                                                                           ++sssssssssffuyyyy,y,,,,>>>>;;;;;;:;::::>>>>>,,,,,,y,",
"                                                                           ++sssssssssffyyy,,,,,,>>>::;::;;;::;::::>>>>,>>,,,yy,",
"                                                                           ++sssssssssffyy,yy>,,>>>>:>::;;;;;;:::::>>>>>>,,,,y,y",
"                                                                           ++sssssssssffyyyy,>,,>>>>:;;;;;:;::::>:>>>>,,,,,y,yyy",
"                                                                           ++sssssssssffy,,,,>>>>:>;:;;;;::;:::>>>>>,>,,,,yy,yyy",
"                                                                           ++sssaznsssffy,,,,>>>::;::;;;;:;:::::>>>,>>,,,,y,yyuy",
"                                                                           ++sssudzsssffy,,,,>>>>>;:;;;;;::::>:>>>>,>,,,,,yyyyuy",
"                                                                           ++ssa,uisssff,,,>>>>>;;;;;;::::::>>>>>,,,,,,yyyyyyuuu",
"                                                                           ++saaiuasssff,,>>>::;::;;;::;::::>>>>,>>,,,yy,yyuyuuu",
"                                                                           ++ssaaassssff,,>>>:>::;;;;;;:::::>>>>,>,,,,,,yyyyyuuu",
"                                                                           ++sssssssssff>>>>>:;;;;;:;::::>>>>>>,,,,,y,yyyyuuuuuu",
"                                                                           ++sssssssssff>>::;:;;;;::;:::>>>>>,>,,,,yy,yyuuuuuuiu",
"                                                                           ++sssssssssff>::>::;;;;:;:::::>>>>>>,,,,,,yyuyyuuuuuu",
"                                                                           ++sssssssssff>>>;;;;;;;::::>:>>>>,,,,,,,yyyyuyuuuuiii",
"                                                                           ++sssssssssff>;;;;;;::::::>>>>>,,,,,,yyyyyuuuuuuiiiii",
"                                                                           ++sssssssssff;::;;;;:;::::>>>>,>>,,,,y,yyuyyuuuiuuiii",
"                                                                           ++sssssssssff;:;;;;;::::::>>>>,>,,,,,yyyyyyuuuuiuiiii",
"                                                                           ++sssssssssff;;;;:;::::>>>>>>,,,,,y,yyyyuuuuuiiiiiiai",
"                                                                           ++sssssssssgg;;;::;::::>>>>,>,,,,yy,yyuyuuuuiuuiiiaai",
"                                                                           ++sssssssssgg;;;;;:::::>>>>>>,,,,,,yyuyyuuuuuuiiiiaaa",
"                                                                           ++sssssssssgg;;;::::>:>>>>,,,,,,,yyyyuyuuuuiiiiiaiaaa",
"                                                                           ++sssaznsssgg::::::>>>>>,>,,,,yyyyyuuuuuuiuiiiiaaisss",
"                                                                           ++sssudzssszz:;:::::>>>,>>,,,,y,yyuyyuuuiuuiiiiaaaasa",
"                                                                           ++ssa,uissszz::::::>>>>,>,,,,,yyyyyyuuuuiuiiiiiaaasss",
"                                                                           ++saaiuasssxx:::>>>>>,,,,,,yyyyyyuuuuuiiiiiiaaaasassd",
"                                                                           ++ssaaassssxx:::>>>>,>>,,,yy,yyuyuuuuiuuiiiaaaaasasss",
"                                                                           ++sssssssssxx:::>>>>>>,,,,,,yyyyyuuuuuuiiiaiiaassasss",
"                                                                           ++sssssssssxx>:>>>>,,,,,y,yyyyuuuuuuiiiiiaaasaasssddd",
"                                                                           ++sssssssssxx>>>>,>,,,,yy,yyuuuuuuiuiiiiaaaaassssssdd",
"                                                                           ++sssssssssxx>>>,>>,,,,y,yyuyy134hjjjjjjjjjjjjjjjjddd",
"                                                                           ++sssssssssxx>>>,>,,,,,yyyyuy:O122222222222222222jddd",
"                                                                           ++sssssssssxx>,,,,,,yyyyyyuuu:O122222222222222222jdff",
"                                                                           ++sssssssssxx,>>,,,yy,yyuyuuu:O12<4222222222<4222jffd",
"                                                                           ++sssssssssxx,>,,,5qeeew9uuuu:O121<2222222211<222jddf",
"                                                                           ++sssssssssxx,,,,:58errr9uuuu:O122222222222222222jfff",
"                                                                           ++sssssssssxx,,,:=$60er05uuiu:O122222222222222222jfff",
"                                                                           ++sssssssssxx,,:=*@$0wr9&uuuu:O122222222222222222jfff",
"                                                                           ++sssaznsssxx,::=**X0wr9uuiii:O122222222222222222jfgf",
"                                                                           ++sssudzsssxx,:;===X0we8iiiii:O122222222222222222jggg",
"                                                                           ++ssa,uisssxx,:;;;yX0we9uuiii:O122222222222222222kggg",
"                                                                           ++saaiuassszz,:;;yuX0we9uiiii:O122222222222222222kggg",
"                                                                           ++ssaaasssszz,:;yuuX0we8iiiaa;O12222@57780wr22222kggg",
"                                                                           ++ssssssssass,:yuuuX0we8iiaaa;O12221@&780wrt22233lgzg",
"                                                                           ++sssssssaiaa,:yuuiX0we8iaiia;O1221<@$<...7t22234lggg",
"                                                                           ++ssssssaiiaa,:uuuuX0we8aaasa;O1221<@$<OO.7r22244czzz",
"                                                                           ++ssssssaiiaa,:uuiuX0ww8aaaas;O1221+@$1OO.7r2234hczzz",
"                                                                           ++ssssssaiiaa,:uiuiX0qq8iaass;O1221+@$2OO.7w223hjvzzz",
"                                                                           ++ssssssaiuaa,:uiuiX0007aaass;O1221O@$4<<O7w234jkvzzz",
"                                                                           ++ssssssaiuaa,:iiiiX9997assss;O122<O@$h42<7023hklvzxx",
"                                                                           ++ssssssaiuaa,:uiiaX7887sssds;O122<o@$$%&56824hklvxxz",
"                                                                           ++ssssssaiuaa,:iiiaX6777assss;O122<o@@@@@@@@24jklvzzx",
"                                                                           ++ssssssaiuaa,:iiaaX6666ssssd;O122<oooO++<1234jklvxxx",
"                                                                           ++ssssssaiuaa,:iaaaX6666dsddd;O122<<<<1122233hjklbxxx",
"                                                                           ++sssaznaiuaa,:iaa%$5555&sddd;O12222222222234hjllmxxx",
"                                                                           ++sssudzaiuaa,:ia;@$&&&&$dddd;O12222222222344hklcmxxz",
"                                                                           ++ssa,uiaiuaa,:i;=@#$%%$@ddff;O1222222222334hjlccmxxx",
"                                                                           ++saaiuaaiuaa,:;==*@@@@@>dffd;O122222222334hjkllcmzzz",
"                                                                           ++ssaaasaiuaa,:;==***=uuddddf;O12222222334hjklkklbzzg",
"                                                                           ++ssssssaiuaa,:;;===;uddfdfff;O1222222334hjklkjjkvxzg",
"                                                                           ++ssssssaiuaa,:,,;->uddffdfff;O12<422334hjkljvhhjczzg",
"                                                                           ++ssssssaiuaa,:>::,udddddffff;O121<2334hjklk3244hcggg",
"                                                                           ++ssssssaiuaa,,>:,uddddffffgf;O1222334hjklkjh4444czgg",
"                                                                           ++ssssssaiuaa,,>,iddffffffggg;OOOOOOOOOOOOOOOOOO2cggg",
"                                                                           ++ssssssaiiaa,,uidddfdfffffgg;;;;;;;;;;;;;;;;yypggggf",
"                                                                           ++ssssssaiiss,uiddddffffffggggzgzzzzzxxxxxzzxzggggfff",
"                                                                           ++sssssssaissiiddfdffffgggggzzzzzzxzxxxxxzzzzzzggfggf",
"                                                                           ++ssssssssiggaddffdffffggggzggzzzxxzxxxxxxzzzggggfgff",
"                                                                           ++sssssssssggdddddfffffggggggzzzzzzxxxzzzzzggggffffff",
"                                                                           ++sssssssssxxdddffffgfggggzzzzzxzxxxxxzzzzgzggfggfffd",
"                                                                           ++sssaznsssxxffffffgggggzgzzzzxxzxxxxxxxzzggggggfffff",
"                                                                           ++sssudzsssxxfdfffffgggzggzzzzxzxxxxzzzzzggggfffffdfd",
"                                                                           ++ssa,uisssxxffffffggggzgzzzzzxxxxxzzzggzggfgffffddfs",
"                                                                           ++saaiuasssxxfffgggggzzzzzzxxxxxxxxxxzzzggfggffffdfdd",
"                                                                           ++ssaaassssxxfffggggzggzzzxxzxxxzzzzzzggggfgffffdddds",
"                                                                           ++sssssssssxxfffggggggzzzzzzxxxxzzzggzggffffffdddsdds",
"                                                                           ++sssssssssxxggggggzzzzzxzxxxxxxzxzgzggfggfffddfdsdds",
"                                                                           ++sssssssssxxggggzgzzzzxxzxxxxzzzzzggggfgffffffddssss",
"                                                                           ++sssssssssxxggggggzzzzxzxxxxzxzggggggfffffdfdsddsssa",
"                                                                           ++sssssssssxxgggzzzzzzzxxxxxzzxzgzggfgffffddfdsdssssa",
"                                                                           ++sssssssssxxgzzzzzzxxxxxxxzzzzzzgggggffffdddddsssssa",
"                                                                           ++sssssssssxxzggzzzzxzxxxxxxzgzggggfffffffdsddsssasaa",
"                                                                           ++sssssssssxxzgzzzzzxxxxxzzzzgzggffffffddddsdsssaaaaa",
"                                                                           ++sssssssssxxzzzzxzxxxxxzzzzgzggfggffffdfdddsssssaaai",
"                                                                           ++sssssssssxxzzzxxzxxxxxxzzzggggfgfffffdddddssasaaaai",
"                                                                           ++sssssssssxxzzzzzxxxzzzzzgggggfffffddddsssssaaaaaiii",
"                                                                           ++sssaznssfxxzzzxxxxxzzzzgzggfgffffdddsddssssaaaaiaai",
"                                                                           ++sssudnsffxxxxxxxxxxxxzzggggggffffffddddssssaaaaiaii",
"                                                                           ++ssa,uiffgnnxzxxxxzzzzzggggfffffffdddssssaaaaaaiiiii",
"                                                                           ++saaiuffggnnxxxxxzzzggzggfgffffdddsddsssaaaaaiaiiiiu",
"                                                                           ++ssaaffgggnnxxxxxzxzzzggfggffffdfdsddssssaaaaaaiuiii",
"                                                                           ++sssffggggnnnxxzzzzzzzzzzzzzzzzzzzzzzzzzzzzzzzzzzzzz",
"                                                                           ++ssffgggggnnnxzzzzzzzzzzzzzzzzzzzzzzzzzzzzzzzzzzzzzz",
"                                                                           ++sffggggggggggffssssssssssssssssssssssssssssssssssss",
"                                                                           ++ffggggggggggffsssssssssssssssssssssssssssssssssssss",
"                                                                           ++fggggggggggffsssssssssssssssssssssssssssssssssssssa",
"                                                                           ++ggggggggggffznsssssssssssssaznsssssssssssssaznsssaa",
"                                                                           ++gggggggggffudzsssssssssssssudzsssssssssssssudzssaai",
"                                                                           ++ggggggggffa,uissssssssssssa,uissssssssssssa,uisaaii",
"                                                                           ++gggggggffaaiuasssssssssssaaiuasssssssssssaaiuaaaiiu",
"                                                                           <<ggggggffssaaasssssssssssssaaasssssssssssssaaaaaiiuu",
"                                                                           <<gggggffsssssssssssssssssssssssssssssssssssssaaiiuuu",
"                                                                           11111111111111111111111111111111111111111111111111111",
"                                                                           11111111111111111111111111111111111111111111111111111"
};
