/* XPM */
static char *_8746962a81d4807d444c52ac54ee58ciCZrD3mF0Uxyr0Do[] = {
/* columns rows colors chars-per-pixel */
"128 128 45 1 ",
"  c None",
". c #373701",
"X c #232323",
"o c #2F2F2F",
"O c gray23",
"+ c #434301",
"@ c #4F4F01",
"# c #5F5F01",
"$ c #6B6B01",
"% c #777701",
"& c #004343",
"* c #005B5B",
"= c #006F6F",
"- c #007373",
"; c #007777",
": c #007B7B",
"> c #007F7F",
", c #4B4B4B",
"< c gray34",
"1 c #676767",
"2 c gray45",
"3 c gray50",
"4 c #878701",
"5 c #939301",
"6 c #9F9F01",
"7 c #AFAF01",
"8 c #BBBB01",
"9 c #C7C701",
"0 c #D7D701",
"q c #E3E301",
"w c #EFEF01",
"e c #FFFF01",
"r c #008787",
"t c #008F8F",
"y c #009B9B",
"u c #00A7A7",
"i c #23B3B3",
"p c #23B7B7",
"a c #4BC3C3",
"s c #77CBCB",
"d c gray56",
"f c #9B9B9B",
"g c #9FDFDF",
"h c #BBEBEB",
"j c #DBF7F7",
/* pixels */
"                                                                                         OOOOOOOOOOOOOOOOOOOOOOOOOOOOOOOOOOOOOOO",
"                                                                                         OOOOOOOOOOOOOOOOOOOOOOOOOOOOOOOOOOOOOOO",
"                                                                                         OO=====================================",
"                                                                                         OO;;;;;;;;;;;;;;;;;;;;;;;;;;;;;;;;;;;;;",
"                                                                                         OO:::::::::::::::::::::::::::::::::::::",
"                                                                                         OOrrrrrrrrrrr>iarrrrrrrrrrrrr>iarrrrrrr",
"                                                                                         OOrrrrrrrrrr>;tyrrrrrrrrrrrr>;turrrrrrr",
"                                                                                         OOyyyyyyyyyt>;=>yyyyyyyyyyyt>;=>yyyyyyy",
"                                                                                         OOuuuuuuuuut>>>tuuuuuuuuuuut>>>tyuuuuuu",
"                                                                                         OOuuuuuuuuuytttyuuuuuuuuuuuytttyyuuuuuu",
"                                                                                         OOiiiiiiiiiy=**************************",
"                                                                                         OOiiiiiiiiiay=*************************",
"                                                                                         OOiiiiiiiiiaat>>>>>>>>>>>>>>>>>>>>>->--",
"                                                                                         OOiiiiiiiiiaauuyuuyyytttrrrrr>r>>>>:::;",
"                                                                                         OOiiiugjiiiaauuuuyyyyyyttrrrrrr>>>>:::;",
"                                                                                         OOiiitpgiiiaauyyyyttttttrrrr>>>>>:::;:;",
"                                                                                         OOiiu>tyiiiaauyyyytttrrrrr>>>:>>:::;;-;",
"                                                                                         OOiuuytuiiiaauyyyytyttrrr>rr>>>>:::;:-;",
"                                                                                         OOiiuuuiiiiaayyytttttrrrr>r>>>:::::;---",
"                                                                                         OOiiiiiiiiiaayytttrrrrr>>>>>>:::;;-;---",
"                                                                                         OOiiiiiiiiiaayttytrrrr>rr>>>:::;;:;;---",
"                                                                                         OOiiiiiiiiiaatttttrrrrrr>>>::::::------",
"                                                                                         OOiiiiiiiiiaaytrtrrrr>>>:>:::;:------;;",
"                                                                                         OOiiiiiiiiiaaytrrrr>r>>>::::;;-;;----;-",
"                                                                                         OOiiiiiiiiiaattrrr>rr>>>::::::-;-----;;",
"                                                                                         OOiiiiiiiiiaatrrrr>r>>>>::::------;-;;;",
"                                                                                         OOiiiiiiiiiaarrr>>>>>>:::;;-;;---;;-;;;",
"                                                                                         OOiiiiiiiiiaarr>rr:>>::::;:;;------;;;;",
"                                                                                         OOiiiiiiiiiaarrrr>:>>::::;-----;-;;;;:;",
"                                                                                         OOiiiiiiiiiaar>>>>::::;:-;----;;-;;;:::",
"                                                                                         OOiiiugjiiiaar>>>>:::;;-;;----;-;;;;;::",
"                                                                                         OOiiitpgiiiaar>>>>:::::-;-----;;;;:;:::",
"                                                                                         OOiiu>tyiiiaa>>>:::::------;;;;;;:::::>",
"                                                                                         OOiuuytuiiiaa>>:::;;-;;---;;-;;;;::::>:",
"                                                                                         OOiiuuuiiiiaa>>:::;:;;------;;;;;::::>:",
"                                                                                         OOiiiiiiiiiaa:::::;-----;-;;;;::::::>>>",
"                                                                                         OOiiiiiiiiiaa::;;-;----;;-;;;:::::>:>>>",
"                                                                                         OOiiiiiiiiiaa:;;:;;----;-;;;;;::::::>>>",
"                                                                                         OOiiiiiiiiiaa:::-------;;;;:;::::>>>>>>",
"                                                                                         OOiiiiiiiiiaa:------;;;;;;:::::>>>>>>rr",
"                                                                                         OOiiiiiiiiiaa-;;----;-;;;;::::>::>>>>r>",
"                                                                                         OOiiiiiiiiiaa-;-----;;;;;;::::>:>>>>>rr",
"                                                                                         OOiiiiiiiiiaa----;-;;;;::::::>>>>>r>rrr",
"                                                                                         OOiiiiiiiiiss---;;-;;;;::::>:>>>>rr>rrt",
"                                                                                         OOiiiiiiiiiss-----;;;;;::::::>>>>>>rrtr",
"                                                                                         OOiiiiiiiiiss---;;;;:;::::>>>>>>>rrrrtr",
"                                                                                         OOiiiugjiiiss;;;;;;:::::>:>>>>rrrrrtttt",
"                                                                                         OOiiitpgiiigg;-;;;;;:::>::>>>>r>rrtrrtt",
"                                                                                         OOiiu>tyiiigg;;;;;;::::>:>>>>>rrrrrrttt",
"                                                                                         OOiuuytuiiihh;;;:::::>>>>>>rrrrrrttttty",
"                                                                                         OOiiuuuiiiihh;;;::::>::>>>rr>rrtrttttyt",
"                                                                                         OOiiiiiiiiihh;;;::::::>>>>>>rrrrrtttttt",
"                                                                                         OOiiiiiiiiihh:;::::>>>>>r>rrrrttttttyyy",
"                                                                                         OOiiiiiiiiihh::::>:>>>>rr>rrttttttytyyy",
"                                                                                         OOiiiiiiiiihh:::>::>>>>r>rrtrr<23dfffff",
"                                                                                         OOiiiiiiiiihh:::>:>>>>>rrrrtr;o<1111111",
"                                                                                         OOiiiiiiiiihh:>>>>>>rrrrrrttt;o<1111111",
"                                                                                         OOiiiiiiiiihh>::>>>rr>rrtrttt;o<1,31111",
"                                                                                         OOiiiiiiiiihh>:>>>40wwwq8tttt;o<1<,1111",
"                                                                                         OOiiiiiiiiihh>>>>;47weee8tttt;o<1111111",
"                                                                                         OOiiiiiiiiihh>>>;*#59we94ttyt;o<1111111",
"                                                                                         OOiiiiiiiiihh>>;*&+#9qe8%tttt;o<1111111",
"                                                                                         OOiiiugjiiihh>;;*&&.9qe8ttyyy;o<1111111",
"                                                                                         OOiiitpgiiihh>;-***.9qw7yyyyy;o<1111111",
"                                                                                         OOiiu>tyiiihh>;---r.9qw8ttyyy;o<1111111",
"                                                                                         OOiuuytuiiigg>;--rt.9qw8tyyyy;o<1111111",
"                                                                                         OOiiuuuiiiigg>;-rtt.9qw7yyyuu-o<1111+46",
"                                                                                         OOiiiiiiiiuii>;rttt.9qw7yyuuu-o<111<+%6",
"                                                                                         OOiiiiiiiuyuu>;rtty.9qw7yuyyu-o<11<,+#,",
"                                                                                         OOiiiiiiuyyuu>;tttt.9qw7uuuiu-o<11<,+#,",
"                                                                                         OOiiiiiiuyyuu>;ttyt.9qq7uuuui-o<11<O+#<",
"                                                                                         OOiiiiiiuyyuu>;tyty.9007yuuii-o<11<O+#1",
"                                                                                         OOiiiiiiuytuu>;tyty.9996uuuii-o<11<o+#3",
"                                                                                         OOiiiiiiuytuu>;yyyy.8886uiiii-o<11,o+#d",
"                                                                                         OOiiiiiiuytuu>;tyyu.6776iiipi-o<11,X+##",
"                                                                                         OOiiiiiiuytuu>;yyyu.5666uiiii-o<11,X+++",
"                                                                                         OOiiiiiiuytuu>;yyuu.5555iiiip-o<11,XXXo",
"                                                                                         OOiiiiiiuytuu>;yuuu.5555pippp-o<11,,,,<",
"                                                                                         OOiiiugjuytuu>;yuu$#4444%ippp-o<1111111",
"                                                                                         OOiiitpguytuu>;yu-+#%%%%#pppp-o<1111111",
"                                                                                         OOiiu>tyuytuu>;y-*+@#$$#+ppaa-o<1111111",
"                                                                                         OOiuuytuuytuu>;-**&+++++:paap-o<1111111",
"                                                                                         OOiiuuuiuytuu>;-**&&&*ttppppa-o<1111111",
"                                                                                         OOiiiiiiuytuu>;--***-tppapaaa-o<1111112",
"                                                                                         OOiiiiiiuytuu>;>>-=:tppaapaaa-o<1,31122",
"                                                                                         OOiiiiiiuytuu>;:;;>tpppppaaaa-o<1<,1223",
"                                                                                         OOiiiiiiuytuu>>:;>tppppaaaasa-o<111223d",
"                                                                                         OOiiiiiiuytuu>>:>yppaaaaaasss-ooooooooo",
"                                                                                         OOiiiiiiuyyuu>>typppapaaaaass----------",
"                                                                                         OOiiiiiiuyyii>typpppaaaaaassssgsggggghh",
"                                                                                         OOiiiiiiiuyiiyyppapaaaasssssgggggghghhh",
"                                                                                         OOiiiiiiiiyssuppaapaaaassssgssggghhghhh",
"                                                                                         OOiiiiiiiiisspppppaaaaassssssgggggghhhg",
"                                                                                         OOiiiiiiiiihhpppaaaasassssggggghghhhhhg",
"                                                                                         OOiiiugjiiihhaaaaaasssssgsgggghhghhhhhh",
"                                                                                         OOiiitpgiiihhapaaaaasssgssgggghghhhhggg",
"                                                                                         OOiiu>tyiiihhaaaaaassssgsggggghhhhhgggs",
"                                                                                         OOiuuytuiiihhaaasssssgggggghhhhhhhhhhgg",
"                                                                                         OOiiuuuiiiihhaaassssgssggghhghhhggggggs",
"                                                                                         OOiiiiiiiiihhaaassssssgggggghhhhgggssgs",
"                                                                                         OOiiiiiiiiihhssssssggggghghhhhhhghgsgss",
"                                                                                         OOiiiiiiiiihhssssgsgggghhghhhhgggggssss",
"                                                                                         OOiiiiiiiiihhssssssgggghghhhhghgssssssa",
"                                                                                         OOiiiiiiiiihhsssggggggghhhhhgghgsgssasa",
"                                                                                         OOiiiiiiiiihhsgggggghhhhhhhggggggsssssa",
"                                                                                         OOiiiiiiiiihhgssgggghghhhhhhgsgssssaaaa",
"                                                                                         OOiiiiiiiiihhgsggggghhhhhggggsgssaaaaaa",
"                                                                                         OOiiiiiiiiihhgggghghhhhhggggsgssassaaaa",
"                                                                                         OOiiiiiiiiihhggghhghhhhhhgggssssasaaaaa",
"                                                                                         OOiiiiiiiiihhggggghhhgggggsssssaaaaappp",
"                                                                                         OOiiiugjiiahhggghhhhhggggsgssasaaaapppi",
"                                                                                         OOiiitpjiaahhhhhhhhhhhhggssssssaaaaaapp",
"                                                                                         OOiiu>tyaasjjhghhhhgggggssssaaaaaaapppi",
"                                                                                         OOiuuytaassjjhhhhhgggssgssasaaaapppippi",
"                                                                                         OOiiuuaasssjjhhhhhghgggssassaaaapapippi",
"                                                                                         OOiiiaassssjjjhhggggggggggggggggggggggg",
"                                                                                         OOiiaasssssjjjhgggggggggggggggggggggggg",
"                                                                                         OOiaassssssssssaaiiiiiiiiiiiiiiiiiiiiii",
"                                                                                         OOaassssssssssaaiiiiiiiiiiiiiiiiiiiiiii",
"                                                                                         OOassssssssssaaiiiiiiiiiiiiiiiiiiiiiiii",
"                                                                                         OOssssssssssaagjiiiiiiiiiiiiiugjiiiiiii",
"                                                                                         OOsssssssssaatpgiiiiiiiiiiiiitpgiiiiiii",
"                                                                                         OOssssssssaau>tyiiiiiiiiiiiiu>tyiiiiiii",
"                                                                                         OOsssssssaauuytuiiiiiiiiiiiuuytuiiiiiii",
"                                                                                         ,,ssssssaaiiuuuiiiiiiiiiiiiiuuuiiiiiiii",
"                                                                                         ,,sssssaaiiiiiiiiiiiiiiiiiiiiiiiiiiiiii",
"                                                                                         <<<<<<<<<<<<<<<<<<<<<<<<<<<<<<<<<<<<<<<",
"                                                                                         <<<<<<<<<<<<<<<<<<<<<<<<<<<<<<<<<<<<<<<"
};
