/* XPM */
static char *b56b16ad2dcb46baf2cc144995bf0743OQ8zVww5TznS92y7[] = {
/* columns rows colors chars-per-pixel */
"128 128 54 1 ",
"  c None",
". c #000001",
"X c #373701",
"o c #232323",
"O c #2F2F2F",
"+ c gray23",
"@ c #434301",
"# c #4F4F01",
"$ c #5F5F01",
"% c #6B6B01",
"& c #777701",
"* c #004343",
"= c #005B5B",
"- c #006F6F",
"; c #007373",
": c #007777",
"> c #007B7B",
", c #007F7F",
"< c #4B4B4B",
"1 c gray34",
"2 c #676767",
"3 c gray45",
"4 c gray50",
"5 c #878701",
"6 c #939301",
"7 c #9F9F01",
"8 c #AFAF01",
"9 c #BBBB01",
"0 c #C7C701",
"q c #D7D701",
"w c #E3E301",
"e c #EFEF01",
"r c #FFFF01",
"t c #FFFF57",
"y c #008787",
"u c #008F8F",
"i c #009B9B",
"p c #009F9F",
"a c #00A7A7",
"s c #23B3B3",
"d c #23B7B7",
"f c #4BC3C3",
"g c #77CBCB",
"h c gray56",
"j c #9B9B9B",
"k c gray67",
"l c #B7B7B7",
"z c #9FDFDF",
"x c #BBEBEB",
"c c #C3C3C3",
"v c LightGray",
"b c #DFDFDF",
"n c #DBF7F7",
"m c #EFEFEF",
/* pixels */
"                                   +++++++++++++++++++++++++++++++++++++++++++++++++++++++++++++++++++++++++++++++++++++++++++++",
"                                   +++++++++++++++++++++++++++++++++++++++++++++++++++++++++++++++++++++++++++++++++++++++++++++",
"                                   ++-------------------------------------------------------------------------------------------",
"                                   ++:::::::::::::::::::::::::::::::::::::::::::::::::::::::::::::::::::::::::::::::::::::::::::",
"                                   ++>>>>>>>>>>>>>>>>>>>>>>>>>>>>>>>>>>>>>>>>>>>>>>>>>>>>>>>>>>>>>>>>>>>>>>>>>>>>>>>>>>>>>>>>>>>",
"                                   ++yyyyyyyyyyy,sfyyyyyyyyyyyyy,sfyyyyyyyyyyyyy,sfyyyyyyyyyyyyyysfyyyyyyyyyyyyy,sfyyyyyyyyyyyyy",
"                                   ++yyyyyyyyyy,:uiyyyyyyyyyyyy,:uayyyyyyyyyyyy,:uayyyyyyyyyyyyy>uayyyyyyyyyyyy,:uayyyyyyyyyyyy,",
"                                   ++iiiiiiiiiu,:-,iiiiiiiiiiiu,:-,iiiiiiiiiiiu,:-,iiiiiiiiiiiiu>yyiiiiiiiiiiiu,:-,iiiiiiiiiiiu,",
"                                   ++aaaaaaaaau,,,uaaaaaaaaaaau,,,uiaaaaaaaaaau,,,uaaaaaaaaaaauuyyuaaaaaaaaaaau,,,uaaaaaaaaaaau,",
"                                   ++aaaaaaaaaiuuuiaaaaaaaaaaaiuuuiiaaaaaaaaaaiuuuiaaaaaaaaaaaiuuuiaaaaaaaaaaaiuuuiaaaaaaaaaaaiu",
"                                   ++sssssssssi-================================================================================",
"                                   ++sssssssssfi-===============================================================================",
"                                   ++sssssssssffu,,,,,,,,,,,,,,,,,,,,,;,;;;;;;;;;;;;;;;;;;;;;,,,,,,,,,,,,,,,,,,,,,,,,,,,,uuuuuuu",
"                                   ++sssssssssffaaiaaiiiuuuyyyyy,y,,,,>>>::;::;;;::;::::>>>>,>>,,,yy,yyuyuuuuiuuiiiaaiassssdssdd",
"                                   ++sssaznsssffaaaaiiiiiiuuyyyyyy,,,,>>>:>;:;;;;;;:::::>>>>,>,,,,,,yyyyyuuuuiuiiiiaaaaaassssddd",
"                                   ++sssudzsssffaiiiiuuuuuuyyyy,,,,,>>>:>:;;;;;:;::::>>>>>>,,,,,y,yyyyuuuuuuiiiiiaiaaassssssdddf",
"                                   ++ssa,uisssffaiiiiuuuyyyyy,,,>,,>>>::;:;;;;::;:::>>>>>,>,,,,yy,yyuuuuuuiuiiiiaaiassssdsddddff",
"                                   ++saaiuasssffaiiiiuiuuyyy,yy,,,,>>>:>;:;;;;;;:::::>>>>>>,,,,,,yyuyyuuuuuuiiiiaaaasassssddddfd",
"                                   ++ssaaassssffiiiuuuuuyyyy,y,,,>>>>>:;;;;;;;::::>:>>>>,,,,,,,yyyyuyuuuuiiiiiaiaaassasssdddddff",
"                                   ++sssssssssffiiuuuyyyyy,,,,,,>>>::;:;;;;::::::>>>>>,,,,,,yyyyyuuuuuuiiiiiiaaasssssddddddfffff",
"                                   ++sssssssssffiuuiuyyyy,yy,,,>>>::>::;;;;;;:::::>>>,>>,,,,y,yyuyyuuuiuuiiiiaaaasassssddddfdfff",
"                                   ++sssssssssffuuuuuyyyyyy,,,>>>>>>;;;;;;;::::::>>>>,>,,,,,yyyyyyuuuuiuiiiiiaaassssssdddddfffff",
"                                   ++sssssssssffiuyuyyyy,,,>,>>>:>;;;;;;::::::>>>>>,,,,,,y,yyyyuuuuuiiiiiiaaaasasssdddddfdffffgg",
"                                   ++sssssssssffiuyyyy,y,,,>>>>::;::;;;;:;:::::>>>,>>,,,yy,yyuyuuuuiuuiiiaaaaasassssdddffdffffgg",
"                                   ++sssssssssffuuyyy,yy,,,>>>>>>;:;;;;;::::::>>>>>>,,,,,,yyuyyuuuuuuiiiaiiaassasssddddddfffffgg",
"                                   ++sssssssssffuyyyy,y,,,,>>>>;;;;;;:;::::>>>>>,,,,,,y,yyyyuyuuuuiiiiiaaasaasssdddddddffffgfggg",
"                                   ++sssssssssffyyy,,,,,,>>>::;::;;;::;::::>>>>,>>,,,yy,yyuuuuuuiuiiiiaaaaassssssdddffffffgggggz",
"                                   ++sssssssssffyy,yy>,,>>>>:>::;;;;;;:::::>>>>>>,,,,y,yyuyyuuuiuuiiiiaiaasssdssddddfdfffffgggzg",
"                                   ++sssssssssffyyyy,>,,>>>>:;;;;;:;::::>:>>>>,,,,,y,yyyyuyuuuuiuiiiiaaaaasssdsdddddffffffggggzg",
"                                   ++sssssssssffy,,,,>>>>:>;:;;;;::;:::>>>>>,>,,,,yy,yyyuuuuuiiiiiiaaaaassssssdddfdffffgggggzzzz",
"                                   ++sssaznsssffy,,,,>>>::;::;;;;:;:::::>>>,>>,,,,y,yyuyuuuuiuuiiiaaiassssdssdddffdffffggggzggzz",
"                                   ++sssudzsssffy,,,,>>>>>;:;;;;;::::>:>>>>,>,,,,,yyyyuyuuuuiuiiiiaaaaaassssddddddfffffggggggzzz",
"                                   ++ssa,uisssff,,,>>>>>;;;;;;::::::>>>>>,,,,,,yyyyyyuuuuuuiiiiiaiaaassssssdddfdffffgfggggzzzzzx",
"                                   ++saaiuasssff,,>>>::;::;;;::;::::>>>>,>>,,,yy,yyuyuuuuiuiiiiaaiassssdsddddffdfffgggggzgzzzzxx",
"                                   ++ssaaassssff,,>>>:>::;;;;;;:::::>>>>,>,,,,,,yyyyyuuuuiuiiiiaaaasassssddddfdfffffgggzggzzzzxz",
"                                   ++sssssssssff>>>>>:;;;;;:;::::>>>>>>,,,,,y,yyyyuuuuuuiiiiiaiaaassasssdddddffffgfggggzgzzzzzxx",
"                                   ++sssssssssff>>::;:;;;;::;:::>>>>>,>,,,,yy,yyuuuuuuiuiiiiaaasssssddddddffffffgggggzzzzzzxxxxx",
"                                   ++sssssssssff>::>::;;;;:;:::::>>>>>>,,,,,,yyuyyuuuuuuiiiiiiaasassssdddffdffffggggzggzzzxxzxxx",
"                                   ++sssssssssff>>>;;;;;;;::::>:>>>>,,,,,,,yyyyuyuuuuiiiiiiaaaaasssssddddddfffffggggzgzzzzzzxxxx",
"                                   ++sssssssssff>;;;;;;::::::>>>>>,,,,,,yyyyyuuuuuuiiiiiiaaaaassssdddddfdffffggggggzzzzzxzxxxxxx",
"                                   ++sssssssssff;::;;;;:;::::>>>>,>>,,,,y,yyuyyuuuiuuiiiaaiasssadssdddffdfffgggggzgzzzzxxzxxxxzz",
"                                   ++sssssssssff;:;;;;;::::::>>>>,>,,,,,yyyyyyuuuuiuiiiiaaaaaassdsddddddfffffggggggzzzzzzxxxxzxz",
"                                   ++sssssssssff;;;;:;::::>>>>>>,,,,,y,yyyyuuuuuiiiiiiaiaaassssssdddddffffgfggggzzzzzzzxxxxxzzxz",
"                                   ++sssssssssgg;;;::;::::>>>>,>,,,,yy,yyuyuuuuiuuiiiaaiassssdsddddffffffgggggzzzzzzxxxxxxxzzzzz",
"                                   ++sssssssssgg;;;;;:::::>>>>>>,,,,,,yyuyyuuuuuuiiiiaaaasassssddddddfffffgggzggzzzzxzxxxxzxzgzg",
"                                   ++sssssssssgg;;;::::>:>>>>,,,,,,,yyyyuyuuuuiiiiiaiaaassasssdddddffffffggggzgzzzzzxxxxxzzxzgzg",
"                                   ++sssaznsssgg::::::>>>>>,>,,,,yyyyyuuuuuuiuiiiiaaisssssddddddffffffgggggzzzzzzxzxxxxxzzzzzzgg",
"                                   ++sssudzssszz:;:::::>>>,>>,,,,y,yyuyyuuuiuuiiiiaaaasassssddddfdfffffgggzggzzzxxzxxxxxxzzzgggg",
"                                   ++ssa,uissszz::::::>>>>,>,,,,,yyyyyyuuuuiuiiiiiaaassssssdddddffffffggggggzzzzzzxxxzzzzzggggff",
"                                   ++saaiuasssxx:::>>>>>,,,,,,yyyyyyuuuuuiiiiiiaaaasassddddddfdffffgggggzzzzzzxzxxxxxzzzzgzggfgg",
"                                   ++ssaaassssxx:::>>>>,>>,,,yy,yyuyuuuuiuuiiiaaaaasassssdddffdffffggggzggzzzxxzxxxxxxxzzggggggf",
"                                   ++sssssssssxx:::>>>>>>,,,,,,yyyyyuuuuuuiiiaiiaassasssddddddfffffggggggzzzzxzxxxxzzzzzggggffff",
"                                   ++sssssssssxx>:>>>>,,,,,y,yyyyuuuuuuiiiiiaaasaasssdddddfdffffgfggggzzzzzxzxxxxxzzzggzggfgffff",
"                                   ++sssssssssxx>>>>,>,,,,yy,yyuuuuuuiuiiiiaaaaassssssdddffdfffgggggzgzzzzxxzxxxxxxxzzzggfggffff",
"                                   ++sssssssssxx>>>,>>,,,,y,yyuyy134hjjjjjjjjjjjjjjjjddddfdfffffgggzggzzzzxzxxxxzzzzzggggfgffffd",
"                                   ++sssssssssxx>>>,>,,,,,yyyyuy:O122222222222222222jddddffffgfggggzgzzzzzxxxxxzzzggzggffffffddd",
"                                   ++sssssssssxx>,,,,,,yyyyyyuuu:O122222222222222222jdffffffgggggzzzzzzxxxxxxxzzzzgzggfggfffddfd",
"                                   ++sssssssssxx,>>,,,yy,yyuyuuu:O12<4222222222<4222jffdffffggggzggzzzxxzxxxxxxzgzggggfgffffffdd",
"                                   ++sssssssssxx,>,,,5qeeew9uuuu:O121<2222222211<222jddfffffggggzgzzzzzzxxxzzzzzgzgggfffffdfdsdd",
"                                   ++sssssssssxx,,,,:58errr9uuuu:O122222222222222222jffffggggggzzzzzxzxxxxxzzzzgzggfgffffddfdsds",
"                                   ++sssssssssxx,,,:=$60er05uuiu:O122222222222222222jfffgggggzgzzzzxxzxxxxxxzzzggggfgffffdddddss",
"                                   ++sssssssssxx,,:=*@$0wr9&uuuu:O122222222222222222jffffggggggzzzzzzxxxxzzzzgggggfffffffdsddsss",
"                                   ++sssaznsssxx,::=**X0wr9uuiii:O122222222222222222jfgfggggzzzzzzzxxxxxzzzggzggfgffffddddsdsssa",
"                                   ++sssudzsssxx,:;===X0we8iiiii:O122222222222222222jgggggzzzzzzxxxxxxxxxxzzzgggggffffffdddsssss",
"                                   ++ssa,uisssxx,:;;;yX0we9uuiii:O122222222222222222kggggzggzzzzxzxxxzzzzzzggggffffffddddsdssasa",
"                                   ++saaiuassszz,:;;yuX0we9uiiii:O122222222222222222kggggzgzzzzzxxxxxzzzggzggffffffdddsddsssaaaa",
"                                   ++ssaaasssszz,:;yuuX0we8iiiaa;O12222@57780wr22222kgggzzzzzxzxxxxxxzxzzzggfggffffdfdsddsssaaaa",
"                                   ++ssssssssass,:yuuuX0we8iiaaa;O12221@&780wrt22233lgzgzzzzxxzxxxxzzzzzggggfgfffffdddssssasaaaa",
"                                   ++sssssssaiaa,:yuuiX0we8iaiia;O1221<@$<...7t22234lgggzzzzzzxxxxzzzgggggffffffdfdsddsssaaaaaai",
"                                   ++ssssssaiiaa,:uuuuX0we8aaasa;O1221<@$<OO.7r22244czzzzzzzxxxxxzzxzgzggfggfffddfdsddsssaaaaiai",
"                                   ++ssssssaiiaa,:uuiuX0ww8aaaas;O1221+@$1OO.7r2234hczzzzxxxxxxxzzzzzggggggffffdddddsssssaaaaiai",
"                                   ++ssssssaiiaa,:uiuiX0qq8iaass;O1221+@$2OO.7w223hjvzzzzxzxxxxzxzgzggggfffffdfdsddsssaaaaaaiiii",
"                                   ++ssssssaiuaa,:uiuiX0007aaass;O1221O@$4<<O7w234jkvzzzzxxxxxzzxzgzggfgffffddfdsdsssaaaaaiaiiii",
"                                   ++ssssssaiuaa,:iiiiX9997assss;O122<O@$h42<7023hklvzxxxxxxxzzzzzzggfggffffdfdddsssssaaaaaaiiiu",
"                                   ++ssssssaiuaa,:uiiaX7887sssds;O122<o@$$%&56824hklvxxzxxxxxxzzzggggfgfffffddddsssasaaaaiiiiiii",
"                                   ++ssssssaiuaa,:iiiaX6777assss;O122<o@@@@@@@@24jklvzzxxxzzzzzggggffffffddddsssssaaaaaiiiiuuuuu",
"                                   ++ssssssaiuaa,:iiaaX6666ssssd;O122<oooO++<1234jklvxxxxxzzzzgzggfggfffddddddsssssaaaiaaiiiuuuu",
"                                   ++ssssssaiuaa,:iaaaX6666dsddd;O122<<<<1122233hjklbxxxxxxzzzggggggffffffddddssssaaaaiaiiiiiuuu",
"                                   ++sssaznaiuaa,:iaa%$5555&sddd;O12222222222234hjllmxxxzzzzgggggfffffdfdddssssaaaaaiiiiiiuuuuyy",
"                                   ++sssudzaiuaa,:ia;@$&&&&$dddd;O12222222222344hklcmxxzzzggzggfgffffddfsddssssaaaaiaaiiiuuuyyyy",
"                                   ++ssa,uiaiuaa,:i;=@#$%%$@ddff;O1222222222334hjlccmxxxxzzzgggggffffdfddddssssaaaaaaiiiiiiuuyyy",
"                                   ++saaiuaaiuaa,:;==*@@@@@>dffd;O122222222334hjkllcmzzzzzggggffffffddddssssasaaaaiiiiuuuuuuyyyy",
"                                   ++ssaaasaiuaa,:;==***=uuddddf;O12222222334hjklkklbzzggzggffffffdddsddsssaaaaaiaiiiiuuuyyyyy,,",
"                                   ++ssssssaiuaa,:;;===;uddfdfff;O1222222334hjklkjjkvxzgzggfggffffdfdsddssssaaaiaaiiiiuiuuyyy,yy",
"                                   ++ssssssaiuaa,:,,;->uddffdfff;O12<422334hjkljvhhjczzggggfgfffffdddssssssaaaaiaiiiuuuuuyyyy,y,",
"                                   ++ssssssaiuaa,:>::,udddddffff;O121<2334hjklk3244hcgggggfffffdfdsddsssaaaaaiiiiiiuuuyyyyy,,,,,",
"                                   ++ssssssaiuaa,,>:,uddddffffgf;O1222334hjklkjh4444czggfgffffddfdsddsssaaaaiaaiuiuuiuyyyy,yy,,,",
"                                   ++ssssssaiuaa,,>,iddffffffggg;OOOOOOOOOOOOOOOOOO2cgggggffffdddddsssssaaaaaaiiiuuuuuyyyyyy,,,>",
"                                   ++ssssssaiiaa,,uidddfdfffffgg;;;;;;;;;;;;;;;;yypggggfffffffdsddsssaaaaaaiiiiiuiuyuyyyy,,,>,>>",
"                                   ++ssssssaiiss,uiddddffffffggggzgzzzzzxxxxxzzxzggggffffffddddsdsssaaaaaiaiiiiuuiuyyyy,y,,,>>>>",
"                                   ++sssssssaissiiddfdffffgggggzzzzzzxzxxxxxzzzzzzggfggffffdfdddsssssaaaaaaiiiuuuuuyyy,yy,,,>>>>",
"                                   ++ssssssssiggaddffdffffggggzggzzzxxzxxxxxxzzzggggfgfffffdddddssasaaaaiiiiiiiuuuyyyy,y,,,,>>>>",
"                                   ++sssssssssggdddddfffffggggggzzzzzzxxxzzzzzggggffffffddddsssssaaaaaiiiiuuuuuuyyyy,,,,,,>>>:::",
"                                   ++sssssssssxxdddffffgfggggzzzzzxzxxxxxzzzzgzggfggfffdddsddssssaaaaiaaiiiuuuuyyyy,yy>,,>>>>:>:",
"                                   ++sssaznsssxxffffffgggggzgzzzzxxzxxxxxxxzzggggggffffffddddssssaaaaiaiiiiiuuuyyyyyy,>,,>>>>:::",
"                                   ++sssudzsssxxfdfffffgggzggzzzzxzxxxxzzzzzggggfffffdfdddssssaaaaaaiiiiiuuuuyyyyy,,,,>>>>:>::::",
"                                   ++ssa,uisssxxffffffggggzgzzzzzxxxxxzzzggzggfgffffddfsddsssaaaaaiaiiiiuuuyyyyy,y,,,,>>>::>::;:",
"                                   ++saaiuasssxxfffgggggzzzzzzxxxxxxxxxxzzzggfggffffdfddddssssaaaaaaiuiiiiuuyyyyyy,,,,>>>>>::;::",
"                                   ++ssaaassssxxfffggggzggzzzxxzxxxzzzzzzggggfgffffddddssssasaaaaiiiiuuuuuuyyyy,,,,,>>>>>::::;:;",
"                                   ++sssssssssxxfffggggggzzzzzzxxxxzzzggzggffffffdddsddsssaaaaaiiiiiiuuuyyyyy,,,>,,>>>:::::;;;;;",
"                                   ++sssssssssxxggggggzzzzzxzxxxxxxzxzgzggfggfffddfdsddssssaaaiaaiiiiuiuyyyy,yy,,,,>>>:>::;::;;;",
"                                   ++sssssssssxxggggzgzzzzxxzxxxxzzzzzggggfgffffffddssssssaaaaiaiiiuuuuuyyyy,y,,,>>>>>::::::;;;;",
"                                   ++sssssssssxxggggggzzzzxzxxxxzxzggggggfffffdfdsddsssaaaaaiiiiiiuiuyyyyyy,,,,,>>>::::::;;;;;::",
"                                   ++sssssssssxxgggzzzzzzzxxxxxzzxzgzggfgffffddfdsdssssaaaaiaaiuiuuiuyyyy,y,,,,>>>::>::;:;;;::::",
"                                   ++sssssssssxxgzzzzzzxxxxxxxzzzzzzgggggffffdddddsssssaaaaaaiiiuuuuuyyyyyy,,,>>>>>>:::::;;;;::>",
"                                   ++sssssssssxxzggzzzzxzxxxxxxzgzggggfffffffdsddsssasaaaaiiiiiuiuyuyyyy,,,>,,>>:>::::;;;;;::::;",
"                                   ++sssssssssxxzgzzzzzxxxxxzzzzgzggffffffddddsdsssaaaaaiaiiiiuuiuyyyy,,,,,>>>>::>::;;;;;;::::;;",
"                                   ++sssssssssxxzzzzxzxxxxxzzzzgzggfggffffdfdddsssssaaaiaaiiiuuuuuyyy,yy,,,>>>>:>::;::;;;;::>;;>",
"                                   ++sssssssssxxzzzxxzxxxxxxzzzggggfgfffffdddddssasaaaaiaiiiiiuuuyyyy,y,,,,>>>>::::;:;;;:::>;;>>",
"                                   ++sssssssssxxzzzzzxxxzzzzzgggggfffffddddsssssaaaaaiiiiiuuuuuyyyy,,,,,,>>>::::::;;;;;::::;;>>>",
"                                   ++sssaznssfxxzzzxxxxxzzzzgzggfgffffdddsddssssaaaaiaaiiiuuuuyyyy,yy>,,>>>::>::;:;;;;;::>;;>>,,",
"                                   ++sssudnsffxxxxxxxxxxxxzzggggggffffffddddssssaaaaiaiiiiiiuuyyyyyy,>,,>>>>>:::::;;;-::>;;>>>,,",
"                                   ++ssa,uiffgnnxzxxxxzzzzzggggfffffffdddssssaaaaaaiiiiiuuuuuyyyy,,,,>>>>:>::::;;;;--:::;;>>,>,,",
"                                   ++saaiuffggnnxxxxxzzzggzggfgffffdddsddsssaaaaaiaiiiiuuuyyyyy,y,,,,>>>::>::;;;;;;-::>;;>>>,,,y",
"                                   ++ssaaffgggnnxxxxxzxzzzggfggffffdfdsddssssaaaaaaiuiiiiuuyyy,yy,,,,>>>>>::;::;;;-:::;;>>>,,,,y",
"                                   ++sssffggggnnnxxzzzzzzzzzzzzzzzzzzzzzzzzzzzzzzzzzzzzzgggggggffffffggggggggggggfdssdfggggggggg",
"                                   ++ssffgggggnnnxzzzzzzzzzzzzzzzzzzzzzzzzzzzzzzzzzzzzzzgggggggffffffggggggggggggfdssdfggggggggg",
"                                   ++sffggggggggggffsssssssssssssssssssssssssssssssssssssaaiiuuuuuuuuuuuiiaassssssaiasssssssssss",
"                                   ++ffggggggggggffsssssssssssssssssssssssssssssssssssssaaiiuuuuuuuuuuuiiaassssssaiassssssssssss",
"                                   ++fggggggggggffsssssssssssssssssssssssssssssssssssssaaiiuuuuuuuuuuuiiaassssssaiasssssssssssss",
"                                   ++ggggggggggffznsssssssssssssaznsssssssssssssaznsssaaiiuuuuyy,sfuuiiaassssssaiznsssssssssssss",
"                                   ++gggggggggffudzsssssssssssssudzsssssssssssssudzssaaiiuuuuuy,:iauiiaassssssaiudzsssssssssssss",
"                                   ++ggggggggffa,uissssssssssssa,uissssssssssssa,uisaaiiuuuuuuu,:-,iiaassssssaia,uissssssssssssa",
"                                   ++gggggggffaaiuasssssssssssaaiuasssssssssssaaiuaaaiiuuuuuuuu,,,uiaassssssaiaaiuasssssssssssaa",
"                                   <<ggggggffssaaasssssssssssssaaasssssssssssssaaaaaiiuuuuuuuuuuuuiaassssssaiaaaaasssssssssssssa",
"                                   <<gggggffsssssssssssssssssssssssssssssssssssssaaiiuuuuuuuuuuuiiaassssssaiaassssssssssssssssss",
"                                   111111111111111111111111111111111111111111111111111111111111111111111111111111111111111111111",
"                                   111111111111111111111111111111111111111111111111111111111111111111111111111111111111111111111"
};
