/* XPM */
static char *d870e736d80945419230cfbc9dac91f2C40JKbOJpYgE61Yt[] = {
/* columns rows colors chars-per-pixel */
"128 128 21 1 ",
"  c None",
". c gray23",
"X c #005B5B",
"o c #006F6F",
"O c #007373",
"+ c #007777",
"@ c #007B7B",
"# c #007F7F",
"$ c #4B4B4B",
"% c gray34",
"& c #008787",
"* c #008F8F",
"= c #009B9B",
"- c #00A7A7",
"; c #23B3B3",
": c #23B7B7",
"> c #4BC3C3",
", c #77CBCB",
"< c #9FDFDF",
"1 c #BBEBEB",
"2 c #DBF7F7",
/* pixels */
"                                                                                                               .................",
"                                                                                                               .................",
"                                                                                                               ..ooooooooooooooo",
"                                                                                                               ..+++++++++++++++",
"                                                                                                               ..@@@@@@@@@@@@@@@",
"                                                                                                               ..&&&&&&&&&&&#;>&",
"                                                                                                               ..&&&&&&&&&&#+*=&",
"                                                                                                               ..=========*#+o#=",
"                                                                                                               ..---------*###*-",
"                                                                                                               ..---------=***=-",
"                                                                                                               ..;;;;;;;;;=oXXXX",
"                                                                                                               ..;;;;;;;;;>=oXXX",
"                                                                                                               ..;;;;;;;;;>>*###",
"                                                                                                               ..;;;;;;;;;>>--=-",
"                                                                                                               ..;;;-<2;;;>>----",
"                                                                                                               ..;;;*:<;;;>>-===",
"                                                                                                               ..;;-#*=;;;>>-===",
"                                                                                                               ..;--=*-;;;>>-===",
"                                                                                                               ..;;---;;;;>>===*",
"                                                                                                               ..;;;;;;;;;>>==**",
"                                                                                                               ..;;;;;;;;;>>=**=",
"                                                                                                               ..;;;;;;;;;>>****",
"                                                                                                               ..;;;;;;;;;>>=*&*",
"                                                                                                               ..;;;;;;;;;>>=*&&",
"                                                                                                               ..;;;;;;;;;>>**&&",
"                                                                                                               ..;;;;;;;;;>>*&&&",
"                                                                                                               ..;;;;;;;;;>>&&&#",
"                                                                                                               ..;;;;;;;;;>>&&#&",
"                                                                                                               ..;;;;;;;;;>>&&&&",
"                                                                                                               ..;;;;;;;;;>>&###",
"                                                                                                               ..;;;-<2;;;>>&###",
"                                                                                                               ..;;;*:<;;;>>&###",
"                                                                                                               ..;;-#*=;;;>>###@",
"                                                                                                               ..;--=*-;;;>>##@@",
"                                                                                                               ..;;---;;;;>>##@@",
"                                                                                                               ..;;;;;;;;;>>@@@@",
"                                                                                                               ..;;;;;;;;;>>@@++",
"                                                                                                               ..;;;;;;;;;>>@++@",
"                                                                                                               ..;;;;;;;;;>>@@@O",
"                                                                                                               ..;;;;;;;;;>>@OOO",
"                                                                                                               ..;;;;;;;;;>>O++O",
"                                                                                                               ..;;;;;;;;;>>O+OO",
"                                                                                                               ..;;;;;;;;;>>OOOO",
"                                                                                                               ..;;;;;;;;;,,OOO+",
"                                                                                                               ..;;;;;;;;;,,OOOO",
"                                                                                                               ..;;;;;;;;;,,OOO+",
"                                                                                                               ..;;;-<2;;;,,++++",
"                                                                                                               ..;;;*:<;;;<<+O++",
"                                                                                                               ..;;-#*=;;;<<++++",
"                                                                                                               ..;--=*-;;;11+++@",
"                                                                                                               ..;;---;;;;11+++@",
"                                                                                                               ..;;;;;;;;;11+++@",
"                                                                                                               ..;;;;;;;;;11@+@@",
"                                                                                                               ..;;;;;;;;;11@@@@",
"                                                                                                               ..;;;;;;;;;11@@@#",
"                                                                                                               ..;;;;;;;;;11@@@#",
"                                                                                                               ..;;;;;;;;;11@###",
"                                                                                                               ..;;;;;;;;;11#@@#",
"                                                                                                               ..;;;;;;;;;11#@##",
"                                                                                                               ..;;;;;;;;;11####",
"                                                                                                               ..;;;;;;;;;11###+",
"                                                                                                               ..;;;;;;;;;11##+X",
"                                                                                                               ..;;;-<2;;;11#++X",
"                                                                                                               ..;;;*:<;;;11#+OX",
"                                                                                                               ..;;-#*=;;;11#+OO",
"                                                                                                               ..;--=*-;;;<<#+OO",
"                                                                                                               ..;;---;;;;<<#+O&",
"                                                                                                               ..;;;;;;;;-;;#+&*",
"                                                                                                               ..;;;;;;;-=--#+&*",
"                                                                                                               ..;;;;;;-==--#+**",
"                                                                                                               ..;;;;;;-==--#+**",
"                                                                                                               ..;;;;;;-==--#+*=",
"                                                                                                               ..;;;;;;-=*--#+*=",
"                                                                                                               ..;;;;;;-=*--#+==",
"                                                                                                               ..;;;;;;-=*--#+*=",
"                                                                                                               ..;;;;;;-=*--#+==",
"                                                                                                               ..;;;;;;-=*--#+==",
"                                                                                                               ..;;;;;;-=*--#+=-",
"                                                                                                               ..;;;-<2-=*--#+=-",
"                                                                                                               ..;;;*:<-=*--#+=-",
"                                                                                                               ..;;-#*=-=*--#+=O",
"                                                                                                               ..;--=*--=*--#+OX",
"                                                                                                               ..;;---;-=*--#+OX",
"                                                                                                               ..;;;;;;-=*--#+OO",
"                                                                                                               ..;;;;;;-=*--#+##",
"                                                                                                               ..;;;;;;-=*--#+@+",
"                                                                                                               ..;;;;;;-=*--##@+",
"                                                                                                               ..;;;;;;-=*--##@#",
"                                                                                                               ..;;;;;;-==--##*=",
"                                                                                                               ..;;;;;;-==;;#*=:",
"                                                                                                               ..;;;;;;;-=;;==::",
"                                                                                                               ..;;;;;;;;=,,-::>",
"                                                                                                               ..;;;;;;;;;,,::::",
"                                                                                                               ..;;;;;;;;;11:::>",
"                                                                                                               ..;;;-<2;;;11>>>>",
"                                                                                                               ..;;;*:<;;;11>:>>",
"                                                                                                               ..;;-#*=;;;11>>>>",
"                                                                                                               ..;--=*-;;;11>>>,",
"                                                                                                               ..;;---;;;;11>>>,",
"                                                                                                               ..;;;;;;;;;11>>>,",
"                                                                                                               ..;;;;;;;;;11,,,,",
"                                                                                                               ..;;;;;;;;;11,,,,",
"                                                                                                               ..;;;;;;;;;11,,,,",
"                                                                                                               ..;;;;;;;;;11,,,<",
"                                                                                                               ..;;;;;;;;;11,<<<",
"                                                                                                               ..;;;;;;;;;11<,,<",
"                                                                                                               ..;;;;;;;;;11<,<<",
"                                                                                                               ..;;;;;;;;;11<<<<",
"                                                                                                               ..;;;;;;;;;11<<<1",
"                                                                                                               ..;;;;;;;;;11<<<<",
"                                                                                                               ..;;;-<2;;>11<<<1",
"                                                                                                               ..;;;*:2;>>111111",
"                                                                                                               ..;;-#*=>>,221<11",
"                                                                                                               ..;--=*>>,,221111",
"                                                                                                               ..;;-->>,,,221111",
"                                                                                                               ..;;;>>,,,,22211<",
"                                                                                                               ..;;>>,,,,,2221<<",
"                                                                                                               ..;>>,,,,,,,,,,>>",
"                                                                                                               ..>>,,,,,,,,,,>>;",
"                                                                                                               ..>,,,,,,,,,,>>;;",
"                                                                                                               ..,,,,,,,,,,>><2;",
"                                                                                                               ..,,,,,,,,,>>*:<;",
"                                                                                                               ..,,,,,,,,>>-#*=;",
"                                                                                                               ..,,,,,,,>>--=*-;",
"                                                                                                               $$,,,,,,>>;;---;;",
"                                                                                                               $$,,,,,>>;;;;;;;;",
"                                                                                                               %%%%%%%%%%%%%%%%%",
"                                                                                                               %%%%%%%%%%%%%%%%%"
};
