/* XPM */
static char *a2d000f70abe422f86a7b1ef3e0d45f1JcQTGGawFqgL1ZnB[] = {
/* columns rows colors chars-per-pixel */
"128 128 54 1 ",
"  c None",
". c #000001",
"X c #373701",
"o c #232323",
"O c #2F2F2F",
"+ c gray23",
"@ c #434301",
"# c #4F4F01",
"$ c #5F5F01",
"% c #6B6B01",
"& c #777701",
"* c #004343",
"= c #005B5B",
"- c #006F6F",
"; c #007373",
": c #007777",
"> c #007B7B",
", c #007F7F",
"< c #4B4B4B",
"1 c gray34",
"2 c #676767",
"3 c gray45",
"4 c gray50",
"5 c #878701",
"6 c #939301",
"7 c #9F9F01",
"8 c #AFAF01",
"9 c #BBBB01",
"0 c #C7C701",
"q c #D7D701",
"w c #E3E301",
"e c #EFEF01",
"r c #FFFF01",
"t c #FFFF57",
"y c #008787",
"u c #008F8F",
"i c #009B9B",
"p c #009F9F",
"a c #00A7A7",
"s c #23B3B3",
"d c #23B7B7",
"f c #4BC3C3",
"g c #77CBCB",
"h c gray56",
"j c #9B9B9B",
"k c gray67",
"l c #B7B7B7",
"z c #9FDFDF",
"x c #BBEBEB",
"c c #C3C3C3",
"v c LightGray",
"b c #DFDFDF",
"n c #DBF7F7",
"m c #EFEFEF",
/* pixels */
"                                                      ++++++++++++++++++++++++++++++++++++++++++++++++++++++++++++++++++++++++++",
"                                                      ++++++++++++++++++++++++++++++++++++++++++++++++++++++++++++++++++++++++++",
"                                                      ++------------------------------------------------------------------------",
"                                                      ++::::::::::::::::::::::::::::::::::::::::::::::::::::::::::::::::::::::::",
"                                                      ++>>>>>>>>>>>>>>>>>>>>>>>>>>>>>>>>>>>>>>>>>>>>>>>>>>>>>>>>>>>>>>>>>>>>>>>>",
"                                                      ++yyyyyyyyyyy,sfyyyyyyyyyyyyy,sfyyyyyyyyyyyyy,sfyyyyyyyyyyyyyysfyyyyyyyyyy",
"                                                      ++yyyyyyyyyy,:uiyyyyyyyyyyyy,:uayyyyyyyyyyyy,:uayyyyyyyyyyyyy>uayyyyyyyyyy",
"                                                      ++iiiiiiiiiu,:-,iiiiiiiiiiiu,:-,iiiiiiiiiiiu,:-,iiiiiiiiiiiiu>yyiiiiiiiiii",
"                                                      ++aaaaaaaaau,,,uaaaaaaaaaaau,,,uiaaaaaaaaaau,,,uaaaaaaaaaaauuyyuaaaaaaaaaa",
"                                                      ++aaaaaaaaaiuuuiaaaaaaaaaaaiuuuiiaaaaaaaaaaiuuuiaaaaaaaaaaaiuuuiaaaaaaaaaa",
"                                                      ++sssssssssi-=============================================================",
"                                                      ++sssssssssfi-============================================================",
"                                                      ++sssssssssffu,,,,,,,,,,,,,,,,,,,,,;,;;;;;;;;;;;;;;;;;;;;;,,,,,,,,,,,,,,,,",
"                                                      ++sssssssssffaaiaaiiiuuuyyyyy,y,,,,>>>::;::;;;::;::::>>>>,>>,,,yy,yyuyuuuu",
"                                                      ++sssaznsssffaaaaiiiiiiuuyyyyyy,,,,>>>:>;:;;;;;;:::::>>>>,>,,,,,,yyyyyuuuu",
"                                                      ++sssudzsssffaiiiiuuuuuuyyyy,,,,,>>>:>:;;;;;:;::::>>>>>>,,,,,y,yyyyuuuuuui",
"                                                      ++ssa,uisssffaiiiiuuuyyyyy,,,>,,>>>::;:;;;;::;:::>>>>>,>,,,,yy,yyuuuuuuiui",
"                                                      ++saaiuasssffaiiiiuiuuyyy,yy,,,,>>>:>;:;;;;;;:::::>>>>>>,,,,,,yyuyyuuuuuui",
"                                                      ++ssaaassssffiiiuuuuuyyyy,y,,,>>>>>:;;;;;;;::::>:>>>>,,,,,,,yyyyuyuuuuiiii",
"                                                      ++sssssssssffiiuuuyyyyy,,,,,,>>>::;:;;;;::::::>>>>>,,,,,,yyyyyuuuuuuiiiiii",
"                                                      ++sssssssssffiuuiuyyyy,yy,,,>>>::>::;;;;;;:::::>>>,>>,,,,y,yyuyyuuuiuuiiii",
"                                                      ++sssssssssffuuuuuyyyyyy,,,>>>>>>;;;;;;;::::::>>>>,>,,,,,yyyyyyuuuuiuiiiii",
"                                                      ++sssssssssffiuyuyyyy,,,>,>>>:>;;;;;;::::::>>>>>,,,,,,y,yyyyuuuuuiiiiiiaaa",
"                                                      ++sssssssssffiuyyyy,y,,,>>>>::;::;;;;:;:::::>>>,>>,,,yy,yyuyuuuuiuuiiiaaaa",
"                                                      ++sssssssssffuuyyy,yy,,,>>>>>>;:;;;;;::::::>>>>>>,,,,,,yyuyyuuuuuuiiiaiiaa",
"                                                      ++sssssssssffuyyyy,y,,,,>>>>;;;;;;:;::::>>>>>,,,,,,y,yyyyuyuuuuiiiiiaaasaa",
"                                                      ++sssssssssffyyy,,,,,,>>>::;::;;;::;::::>>>>,>>,,,yy,yyuuuuuuiuiiiiaaaaass",
"                                                      ++sssssssssffyy,yy>,,>>>>:>::;;;;;;:::::>>>>>>,,,,y,yyuyyuuuiuuiiiiaiaasss",
"                                                      ++sssssssssffyyyy,>,,>>>>:;;;;;:;::::>:>>>>,,,,,y,yyyyuyuuuuiuiiiiaaaaasss",
"                                                      ++sssssssssffy,,,,>>>>:>;:;;;;::;:::>>>>>,>,,,,yy,yyyuuuuuiiiiiiaaaaasssss",
"                                                      ++sssaznsssffy,,,,>>>::;::;;;;:;:::::>>>,>>,,,,y,yyuyuuuuiuuiiiaaiassssdss",
"                                                      ++sssudzsssffy,,,,>>>>>;:;;;;;::::>:>>>>,>,,,,,yyyyuyuuuuiuiiiiaaaaaassssd",
"                                                      ++ssa,uisssff,,,>>>>>;;;;;;::::::>>>>>,,,,,,yyyyyyuuuuuuiiiiiaiaaassssssdd",
"                                                      ++saaiuasssff,,>>>::;::;;;::;::::>>>>,>>,,,yy,yyuyuuuuiuiiiiaaiassssdsdddd",
"                                                      ++ssaaassssff,,>>>:>::;;;;;;:::::>>>>,>,,,,,,yyyyyuuuuiuiiiiaaaasassssdddd",
"                                                      ++sssssssssff>>>>>:;;;;;:;::::>>>>>>,,,,,y,yyyyuuuuuuiiiiiaiaaassasssddddd",
"                                                      ++sssssssssff>>::;:;;;;::;:::>>>>>,>,,,,yy,yyuuuuuuiuiiiiaaasssssddddddfff",
"                                                      ++sssssssssff>::>::;;;;:;:::::>>>>>>,,,,,,yyuyyuuuuuuiiiiiiaasassssdddffdf",
"                                                      ++sssssssssff>>>;;;;;;;::::>:>>>>,,,,,,,yyyyuyuuuuiiiiiiaaaaasssssddddddff",
"                                                      ++sssssssssff>;;;;;;::::::>>>>>,,,,,,yyyyyuuuuuuiiiiiiaaaaassssdddddfdffff",
"                                                      ++sssssssssff;::;;;;:;::::>>>>,>>,,,,y,yyuyyuuuiuuiiiaaiasssadssdddffdfffg",
"                                                      ++sssssssssff;:;;;;;::::::>>>>,>,,,,,yyyyyyuuuuiuiiiiaaaaaassdsddddddfffff",
"                                                      ++sssssssssff;;;;:;::::>>>>>>,,,,,y,yyyyuuuuuiiiiiiaiaaassssssdddddffffgfg",
"                                                      ++sssssssssgg;;;::;::::>>>>,>,,,,yy,yyuyuuuuiuuiiiaaiassssdsddddffffffgggg",
"                                                      ++sssssssssgg;;;;;:::::>>>>>>,,,,,,yyuyyuuuuuuiiiiaaaasassssddddddfffffggg",
"                                                      ++sssssssssgg;;;::::>:>>>>,,,,,,,yyyyuyuuuuiiiiiaiaaassasssdddddffffffgggg",
"                                                      ++sssaznsssgg::::::>>>>>,>,,,,yyyyyuuuuuuiuiiiiaaisssssddddddffffffgggggzz",
"                                                      ++sssudzssszz:;:::::>>>,>>,,,,y,yyuyyuuuiuuiiiiaaaasassssddddfdfffffgggzgg",
"                                                      ++ssa,uissszz::::::>>>>,>,,,,,yyyyyyuuuuiuiiiiiaaassssssdddddffffffggggggz",
"                                                      ++saaiuasssxx:::>>>>>,,,,,,yyyyyyuuuuuiiiiiiaaaasassddddddfdffffgggggzzzzz",
"                                                      ++ssaaassssxx:::>>>>,>>,,,yy,yyuyuuuuiuuiiiaaaaasassssdddffdffffggggzggzzz",
"                                                      ++sssssssssxx:::>>>>>>,,,,,,yyyyyuuuuuuiiiaiiaassasssddddddfffffggggggzzzz",
"                                                      ++sssssssssxx>:>>>>,,,,,y,yyyyuuuuuuiiiiiaaasaasssdddddfdffffgfggggzzzzzxz",
"                                                      ++sssssssssxx>>>>,>,,,,yy,yyuuuuuuiuiiiiaaaaassssssdddffdfffgggggzgzzzzxxz",
"                                                      ++sssssssssxx>>>,>>,,,,y,yyuyy134hjjjjjjjjjjjjjjjjddddfdfffffgggzggzzzzxzx",
"                                                      ++sssssssssxx>>>,>,,,,,yyyyuy:O122222222222222222jddddffffgfggggzgzzzzzxxx",
"                                                      ++sssssssssxx>,,,,,,yyyyyyuuu:O122222222222222222jdffffffgggggzzzzzzxxxxxx",
"                                                      ++sssssssssxx,>>,,,yy,yyuyuuu:O12<4222222222<4222jffdffffggggzggzzzxxzxxxx",
"                                                      ++sssssssssxx,>,,,5qeeew9uuuu:O121<2222222211<222jddfffffggggzgzzzzzzxxxzz",
"                                                      ++sssssssssxx,,,,:58errr9uuuu:O122222222222222222jffffggggggzzzzzxzxxxxxzz",
"                                                      ++sssssssssxx,,,:=$60er05uuiu:O122222222222222222jfffgggggzgzzzzxxzxxxxxxz",
"                                                      ++sssssssssxx,,:=*@$0wr9&uuuu:O122222222222222222jffffggggggzzzzzzxxxxzzzz",
"                                                      ++sssaznsssxx,::=**X0wr9uuiii:O122222222222222222jfgfggggzzzzzzzxxxxxzzzgg",
"                                                      ++sssudzsssxx,:;===X0we8iiiii:O122222222222222222jgggggzzzzzzxxxxxxxxxxzzz",
"                                                      ++ssa,uisssxx,:;;;yX0we9uuiii:O122222222222222222kggggzggzzzzxzxxxzzzzzzgg",
"                                                      ++saaiuassszz,:;;yuX0we9uiiii:O122222222222222222kggggzgzzzzzxxxxxzzzggzgg",
"                                                      ++ssaaasssszz,:;yuuX0we8iiiaa;O12222@57780wr22222kgggzzzzzxzxxxxxxzxzzzggf",
"                                                      ++ssssssssass,:yuuuX0we8iiaaa;O12221@&780wrt22233lgzgzzzzxxzxxxxzzzzzggggf",
"                                                      ++sssssssaiaa,:yuuiX0we8iaiia;O1221<@$<...7t22234lgggzzzzzzxxxxzzzgggggfff",
"                                                      ++ssssssaiiaa,:uuuuX0we8aaasa;O1221<@$<OO.7r22244czzzzzzzxxxxxzzxzgzggfggf",
"                                                      ++ssssssaiiaa,:uuiuX0ww8aaaas;O1221+@$1OO.7r2234hczzzzxxxxxxxzzzzzggggggff",
"                                                      ++ssssssaiiaa,:uiuiX0qq8iaass;O1221+@$2OO.7w223hjvzzzzxzxxxxzxzgzggggfffff",
"                                                      ++ssssssaiuaa,:uiuiX0007aaass;O1221O@$4<<O7w234jkvzzzzxxxxxzzxzgzggfgffffd",
"                                                      ++ssssssaiuaa,:iiiiX9997assss;O122<O@$h42<7023hklvzxxxxxxxzzzzzzggfggffffd",
"                                                      ++ssssssaiuaa,:uiiaX7887sssds;O122<o@$$%&56824hklvxxzxxxxxxzzzggggfgfffffd",
"                                                      ++ssssssaiuaa,:iiiaX6777assss;O122<o@@@@@@@@24jklvzzxxxzzzzzggggffffffdddd",
"                                                      ++ssssssaiuaa,:iiaaX6666ssssd;O122<oooO++<1234jklvxxxxxzzzzgzggfggfffddddd",
"                                                      ++ssssssaiuaa,:iaaaX6666dsddd;O122<<<<1122233hjklbxxxxxxzzzggggggffffffddd",
"                                                      ++sssaznaiuaa,:iaa%$5555&sddd;O12222222222234hjllmxxxzzzzgggggfffffdfdddss",
"                                                      ++sssudzaiuaa,:ia;@$&&&&$dddd;O12222222222344hklcmxxzzzggzggfgffffddfsddss",
"                                                      ++ssa,uiaiuaa,:i;=@#$%%$@ddff;O1222222222334hjlccmxxxxzzzgggggffffdfddddss",
"                                                      ++saaiuaaiuaa,:;==*@@@@@>dffd;O122222222334hjkllcmzzzzzggggffffffddddssssa",
"                                                      ++ssaaasaiuaa,:;==***=uuddddf;O12222222334hjklkklbzzggzggffffffdddsddsssaa",
"                                                      ++ssssssaiuaa,:;;===;uddfdfff;O1222222334hjklkjjkvxzgzggfggffffdfdsddssssa",
"                                                      ++ssssssaiuaa,:,,;->uddffdfff;O12<422334hjkljvhhjczzggggfgfffffdddssssssaa",
"                                                      ++ssssssaiuaa,:>::,udddddffff;O121<2334hjklk3244hcgggggfffffdfdsddsssaaaaa",
"                                                      ++ssssssaiuaa,,>:,uddddffffgf;O1222334hjklkjh4444czggfgffffddfdsddsssaaaai",
"                                                      ++ssssssaiuaa,,>,iddffffffggg;OOOOOOOOOOOOOOOOOO2cgggggffffdddddsssssaaaaa",
"                                                      ++ssssssaiiaa,,uidddfdfffffgg;;;;;;;;;;;;;;;;yypggggfffffffdsddsssaaaaaaii",
"                                                      ++ssssssaiiss,uiddddffffffggggzgzzzzzxxxxxzzxzggggffffffddddsdsssaaaaaiaii",
"                                                      ++sssssssaissiiddfdffffgggggzzzzzzxzxxxxxzzzzzzggfggffffdfdddsssssaaaaaaii",
"                                                      ++ssssssssiggaddffdffffggggzggzzzxxzxxxxxxzzzggggfgfffffdddddssasaaaaiiiii",
"                                                      ++sssssssssggdddddfffffggggggzzzzzzxxxzzzzzggggffffffddddsssssaaaaaiiiiuuu",
"                                                      ++sssssssssxxdddffffgfggggzzzzzxzxxxxxzzzzgzggfggfffdddsddssssaaaaiaaiiiuu",
"                                                      ++sssaznsssxxffffffgggggzgzzzzxxzxxxxxxxzzggggggffffffddddssssaaaaiaiiiiiu",
"                                                      ++sssudzsssxxfdfffffgggzggzzzzxzxxxxzzzzzggggfffffdfdddssssaaaaaaiiiiiuuuu",
"                                                      ++ssa,uisssxxffffffggggzgzzzzzxxxxxzzzggzggfgffffddfsddsssaaaaaiaiiiiuuuyy",
"                                                      ++saaiuasssxxfffgggggzzzzzzxxxxxxxxxxzzzggfggffffdfddddssssaaaaaaiuiiiiuuy",
"                                                      ++ssaaassssxxfffggggzggzzzxxzxxxzzzzzzggggfgffffddddssssasaaaaiiiiuuuuuuyy",
"                                                      ++sssssssssxxfffggggggzzzzzzxxxxzzzggzggffffffdddsddsssaaaaaiiiiiiuuuyyyyy",
"                                                      ++sssssssssxxggggggzzzzzxzxxxxxxzxzgzggfggfffddfdsddssssaaaiaaiiiiuiuyyyy,",
"                                                      ++sssssssssxxggggzgzzzzxxzxxxxzzzzzggggfgffffffddssssssaaaaiaiiiuuuuuyyyy,",
"                                                      ++sssssssssxxggggggzzzzxzxxxxzxzggggggfffffdfdsddsssaaaaaiiiiiiuiuyyyyyy,,",
"                                                      ++sssssssssxxgggzzzzzzzxxxxxzzxzgzggfgffffddfdsdssssaaaaiaaiuiuuiuyyyy,y,,",
"                                                      ++sssssssssxxgzzzzzzxxxxxxxzzzzzzgggggffffdddddsssssaaaaaaiiiuuuuuyyyyyy,,",
"                                                      ++sssssssssxxzggzzzzxzxxxxxxzgzggggfffffffdsddsssasaaaaiiiiiuiuyuyyyy,,,>,",
"                                                      ++sssssssssxxzgzzzzzxxxxxzzzzgzggffffffddddsdsssaaaaaiaiiiiuuiuyyyy,,,,,>>",
"                                                      ++sssssssssxxzzzzxzxxxxxzzzzgzggfggffffdfdddsssssaaaiaaiiiuuuuuyyy,yy,,,>>",
"                                                      ++sssssssssxxzzzxxzxxxxxxzzzggggfgfffffdddddssasaaaaiaiiiiiuuuyyyy,y,,,,>>",
"                                                      ++sssssssssxxzzzzzxxxzzzzzgggggfffffddddsssssaaaaaiiiiiuuuuuyyyy,,,,,,>>>:",
"                                                      ++sssaznssfxxzzzxxxxxzzzzgzggfgffffdddsddssssaaaaiaaiiiuuuuyyyy,yy>,,>>>::",
"                                                      ++sssudnsffxxxxxxxxxxxxzzggggggffffffddddssssaaaaiaiiiiiiuuyyyyyy,>,,>>>>>",
"                                                      ++ssa,uiffgnnxzxxxxzzzzzggggfffffffdddssssaaaaaaiiiiiuuuuuyyyy,,,,>>>>:>::",
"                                                      ++saaiuffggnnxxxxxzzzggzggfgffffdddsddsssaaaaaiaiiiiuuuyyyyy,y,,,,>>>::>::",
"                                                      ++ssaaffgggnnxxxxxzxzzzggfggffffdfdsddssssaaaaaaiuiiiiuuyyy,yy,,,,>>>>>::;",
"                                                      ++sssffggggnnnxxzzzzzzzzzzzzzzzzzzzzzzzzzzzzzzzzzzzzzgggggggffffffgggggggg",
"                                                      ++ssffgggggnnnxzzzzzzzzzzzzzzzzzzzzzzzzzzzzzzzzzzzzzzgggggggffffffgggggggg",
"                                                      ++sffggggggggggffsssssssssssssssssssssssssssssssssssssaaiiuuuuuuuuuuuiiaas",
"                                                      ++ffggggggggggffsssssssssssssssssssssssssssssssssssssaaiiuuuuuuuuuuuiiaass",
"                                                      ++fggggggggggffsssssssssssssssssssssssssssssssssssssaaiiuuuuuuuuuuuiiaasss",
"                                                      ++ggggggggggffznsssssssssssssaznsssssssssssssaznsssaaiiuuuuyy,sfuuiiaassss",
"                                                      ++gggggggggffudzsssssssssssssudzsssssssssssssudzssaaiiuuuuuy,:iauiiaasssss",
"                                                      ++ggggggggffa,uissssssssssssa,uissssssssssssa,uisaaiiuuuuuuu,:-,iiaassssss",
"                                                      ++gggggggffaaiuasssssssssssaaiuasssssssssssaaiuaaaiiuuuuuuuu,,,uiaassssssa",
"                                                      <<ggggggffssaaasssssssssssssaaasssssssssssssaaaaaiiuuuuuuuuuuuuiaassssssai",
"                                                      <<gggggffsssssssssssssssssssssssssssssssssssssaaiiuuuuuuuuuuuiiaassssssaia",
"                                                      11111111111111111111111111111111111111111111111111111111111111111111111111",
"                                                      11111111111111111111111111111111111111111111111111111111111111111111111111"
};
