/* XPM */
static char *ced719dc2fa649c0f4fddd30cecc6b29ec7WSzK8SeYOBT7q[] = {
/* columns rows colors chars-per-pixel */
"128 128 54 1 ",
"  c None",
". c #000001",
"X c #373701",
"o c #232323",
"O c #2F2F2F",
"+ c gray23",
"@ c #434301",
"# c #4F4F01",
"$ c #5F5F01",
"% c #6B6B01",
"& c #777701",
"* c #004343",
"= c #005B5B",
"- c #006F6F",
"; c #007373",
": c #007777",
"> c #007B7B",
", c #007F7F",
"< c #4B4B4B",
"1 c gray34",
"2 c #676767",
"3 c gray45",
"4 c gray50",
"5 c #878701",
"6 c #939301",
"7 c #9F9F01",
"8 c #AFAF01",
"9 c #BBBB01",
"0 c #C7C701",
"q c #D7D701",
"w c #E3E301",
"e c #EFEF01",
"r c #FFFF01",
"t c #FFFF57",
"y c #008787",
"u c #008F8F",
"i c #009B9B",
"p c #009F9F",
"a c #00A7A7",
"s c #23B3B3",
"d c #23B7B7",
"f c #4BC3C3",
"g c #77CBCB",
"h c gray56",
"j c #9B9B9B",
"k c gray67",
"l c #B7B7B7",
"z c #9FDFDF",
"x c #BBEBEB",
"c c #C3C3C3",
"v c LightGray",
"b c #DFDFDF",
"n c #DBF7F7",
"m c #EFEFEF",
/* pixels */
"        ++++++++++++++++++++++++++++++++++++++++++++++++++++++++++++++++++++++++++++++++++++++++++++++++++++++++++++++++++++++++",
"        ++++++++++++++++++++++++++++++++++++++++++++++++++++++++++++++++++++++++++++++++++++++++++++++++++++++++++++++++++++++++",
"        ++----------------------------------------------------------------------------------------------------------------------",
"        ++::::::::::::::::::::::::::::::::::::::::::::::::::::::::::::::::::::::::::::::::::::::::::::::::::::::::::::::::::::::",
"        ++>>>>>>>>>>>>>>>>>>>>>>>>>>>>>>>>>>>>>>>>>>>>>>>>>>>>>>>>>>>>>>>>>>>>>>>>>>>>>>>>>>>>>>>>>>>>>>>>>>>>>>>>>>>>>>>>>>>>>>",
"        ++yyyyyyyyyyy,sfyyyyyyyyyyyyy,sfyyyyyyyyyyyyy,sfyyyyyyyyyyyyyysfyyyyyyyyyyyyy,sfyyyyyyyyyyyyy,sfyyyyyyyyyyyyy,sfyyyyyyyy",
"        ++yyyyyyyyyy,:uiyyyyyyyyyyyy,:uayyyyyyyyyyyy,:uayyyyyyyyyyyyy>uayyyyyyyyyyyy,:uayyyyyyyyyyyy,:uayyyyyyyyyyyy,:uayyyyyyyy",
"        ++iiiiiiiiiu,:-,iiiiiiiiiiiu,:-,iiiiiiiiiiiu,:-,iiiiiiiiiiiiu>yyiiiiiiiiiiiu,:-,iiiiiiiiiiiu,:-,iiiiiiiiiiiu,:-,iiiiiiii",
"        ++aaaaaaaaau,,,uaaaaaaaaaaau,,,uiaaaaaaaaaau,,,uaaaaaaaaaaauuyyuaaaaaaaaaaau,,,uaaaaaaaaaaau,,,uaaaaaaaaaaau,,,uaaaaaaaa",
"        ++aaaaaaaaaiuuuiaaaaaaaaaaaiuuuiiaaaaaaaaaaiuuuiaaaaaaaaaaaiuuuiaaaaaaaaaaaiuuuiaaaaaaaaaaaiuuuiaaaaaaaaaaaiuuuiaaaaaaaa",
"        ++sssssssssi-======================================================================================================;ssss",
"        ++sssssssssfi-=====================================================================================================;ssss",
"        ++sssssssssffu,,,,,,,,,,,,,,,,,,,,,;,;;;;;;;;;;;;;;;;;;;;;,,,,,,,,,,,,,,,,,,,,,,,,,,,,uuuuuuuuuiiiiiisssssssssssfs=;ssss",
"        ++sssssssssffaaiaaiiiuuuyyyyy,y,,,,>>>::;::;;;::;::::>>>>,>>,,,yy,yyuyuuuuiuuiiiaaiassssdssdddffdffffggggzggzzzxxz=;ssss",
"        ++sssaznsssffaaaaiiiiiiuuyyyyyy,,,,>>>:>;:;;;;;;:::::>>>>,>,,,,,,yyyyyuuuuiuiiiiaaaaaassssddddddfffffggggzgzzzzzzz=;sssa",
"        ++sssudzsssffaiiiiuuuuuuyyyy,,,,,>>>:>:;;;;;:;::::>>>>>>,,,,,y,yyyyuuuuuuiiiiiaiaaassssssdddfdffffggggggzzzzzxzxxz=;sssu",
"        ++ssa,uisssffaiiiiuuuyyyyy,,,>,,>>>::;:;;;;::;:::>>>>>,>,,,,yy,yyuuuuuuiuiiiiaaiassssdsddddffdfffgggggzgzzzzxxzxxz=;ssa,",
"        ++saaiuasssffaiiiiuiuuyyy,yy,,,,>>>:>;:;;;;;;:::::>>>>>>,,,,,,yyuyyuuuuuuiiiiaaaasassssddddfdfffffggggggzzzzzzxxxz=;saai",
"        ++ssaaassssffiiiuuuuuyyyy,y,,,>>>>>:;;;;;;;::::>:>>>>,,,,,,,yyyyuyuuuuiiiiiaiaaassasssdddddffffgfggggzzzzzzzxxxxxf=;ssaa",
"        ++sssssssssffiiuuuyyyyy,,,,,,>>>::;:;;;;::::::>>>>>,,,,,,yyyyyuuuuuuiiiiiiaaasssssddddddffffffgggggzzzzzzxxxxxxxxf=;ssss",
"        ++sssssssssffiuuiuyyyy,yy,,,>>>::>::;;;;;;:::::>>>,>>,,,,y,yyuyyuuuiuuiiiiaaaasassssddddfdffffggggzggzzzzxzxxxzzzf=;ssss",
"        ++sssssssssffuuuuuyyyyyy,,,>>>>>>;;;;;;;::::::>>>>,>,,,,,yyyyyyuuuuiuiiiiiaaassssssdddddffffffggggzgzzzzzxxxxxzzzf=;ssss",
"        ++sssssssssffiuyuyyyy,,,>,>>>:>;;;;;;::::::>>>>>,,,,,,y,yyyyuuuuuiiiiiiaaaasasssdddddfdffffggggggzzzzzxzxxxxxxzxzd=;ssss",
"        ++sssssssssffiuyyyy,y,,,>>>>::;::;;;;:;:::::>>>,>>,,,yy,yyuyuuuuiuuiiiaaaaasassssdddffdffffggggzgzzzzxxzxxxxzzzzzi=;ssss",
"        ++sssssssssffuuyyy,yy,,,>>>>>>;:;;;;;::::::>>>>>>,,,,,,yyuyyuuuuuuiiiaiiaassasssddddddfffffggggggzzzzzzxxxxzzzgggi=;ssss",
"        ++sssssssssffuyyyy,y,,,,>>>>;;;;;;:;::::>>>>>,,,,,,y,yyyyuyuuuuiiiiiaaasaasssdddddddffffgfggggzzzzzzzxxxxxzzxzgzgi=>ssss",
"        ++sssssssssffyyy,,,,,,>>>::;::;;;::;::::>>>>,>>,,,yy,yyuuuuuuiuiiiiaaaaassssssdddffffffgggggzgzzzzxxxxxxxzzzzzgggi=>ssss",
"        ++sssssssssffyy,yy>,,>>>>:>::;;;;;;:::::>>>>>>,,,,y,yyuyyuuuiuuiiiiaiaasssdssddddfdfffffgggzggzzzzxzxxxxzxzgzggggu=;ssss",
"        ++sssssssssffyyyy,>,,>>>>:;;;;;:;::::>:>>>>,,,,,y,yyyyuyuuuuiuiiiiaaaaasssdsdddddffffffggggzgzzzzzxxxxxzzxzgzggfgu=;ssss",
"        ++sssssssssffy,,,,>>>>:>;:;;;;::;:::>>>>>,>,,,,yy,yyyuuuuuiiiiiiaaaaassssssdddfdffffgggggzzzzzzxxxxxxxzzzzzzggfggu=;ssss",
"        ++sssaznsssffy,,,,>>>::;::;;;;:;:::::>>>,>>,,,,y,yyuyuuuuiuuiiiaaiassssdssdddffdffffggggzggzzzxxzxxxxxxzzzggggfgfu=;sssa",
"        ++sssudzsssffy,,,,>>>>>;:;;;;;::::>:>>>>,>,,,,,yyyyuyuuuuiuiiiiaaaaaassssddddddfffffggggggzzzzzzxxxzzzzzggggfffffu=-sss:",
"        ++ssa,uisssff,,,>>>>>;;;;;;::::::>>>>>,,,,,,yyyyyyuuuuuuiiiiiaiaaassssssdddfdffffgfggggzzzzzxzxxxxxzzzzgzggfggfffy=-ssa-",
"        ++saaiuasssff,,>>>::;::;;;::;::::>>>>,>>,,,yy,yyuyuuuuiuiiiiaaiassssdsddddffdfffgggggzgzzzzxxzxxxxxxzzzggggggffffu=-saai",
"        ++ssaaassssff,,>>>:>::;;;;;;:::::>>>>,>,,,,,,yyyyyuuuuiuiiiiaaaasassssddddfdfffffgggzggzzzzxzxxxxzzzzgggggfffffdfy=-ssaa",
"        ++sssssssssff>>>>>:;;;;;:;::::>>>>>>,,,,,y,yyyyuuuuuuiiiiiaiaaassasssdddddffffgfggggzgzzzzzxxxxxzzzggzggfgffffddfy=-ssss",
"        ++sssssssssff>>::;:;;;;::;:::>>>>>,>,,,,yy,yyuuuuuuiuiiiiaaasssssddddddffffffgggggzzzzzzxxxxxxxxxxzzzgggggffffdfdy=-ssss",
"        ++sssssssssff>::>::;;;;:;:::::>>>>>>,,,,,,yyuyyuuuuuuiiiiiiaasassssdddffdffffggggzggzzzxxzxxxzzzzzzggggffffffddddy=-ssss",
"        ++sssssssssff>>>;;;;;;;::::>:>>>>,,,,,,,yyyyuyuuuuiiiiiiaaaaasssssddddddfffffggggzgzzzzzzxxxxzzzggzggffffffdddsddy=-ssss",
"        ++sssssssssff>;;;;;;::::::>>>>>,,,,,,yyyyyuuuuuuiiiiiiaaaaassssdddddfdffffggggggzzzzzxzxxxxxxzxzgzggfggffffdfdsddy=-ssss",
"        ++sssssssssff;::;;;;:;::::>>>>,>>,,,,y,yyuyyuuuiuuiiiaaiasssadssdddffdfffgggggzgzzzzxxzxxxxzzzzzggggfgfffffdddsssy=-ssss",
"        ++sssssssssff;:;;;;;::::::>>>>,>,,,,,yyyyyyuuuuiuiiiiaaaaaassdsddddddfffffggggggzzzzzzxxxxzxzggggggfffffdfdsddsss,=-ssss",
"        ++sssssssssff;;;;:;::::>>>>>>,,,,,y,yyyyuuuuuiiiiiiaiaaassssssdddddffffgfggggzzzzzzzxxxxxzzxzgzggfgffffddfdsddsss,=-ssss",
"        ++sssssssssgg;;;::;::::>>>>,>,,,,yy,yyuyuuuuiuuiiiaaiassssdsddddffffffgggggzzzzzzxxxxxxxzzzzzzgggggffffdddddsssss,=-ssss",
"        ++sssssssssgg;;;;;:::::>>>>>>,,,,,,yyuyyuuuuuuiiiiaaaasassssddddddfffffgggzggzzzzxzxxxxzxzgzggggfffffffdsddsssaaa,=-ssss",
"        ++sssssssssgg;;;::::>:>>>>,,,,,,,yyyyuyuuuuiiiiiaiaaassasssdddddffffffggggzgzzzzzxxxxxzzxzgzggffffffddddsdsssaaaa,=-ssss",
"        ++sssaznsssgg::::::>>>>>,>,,,,yyyyyuuuuuuiuiiiiaaisssssddddddffffffgggggzzzzzzxzxxxxxzzzzzzggfggffffdfdddsssssaaa,=-sssa",
"        ++sssudzssszz:;:::::>>>,>>,,,,y,yyuyyuuuiuuiiiiaaaasassssddddfdfffffgggzggzzzxxzxxxxxxzzzggggfgfffffdddddssasaaaa,==ssi-",
"        ++ssa,uissszz::::::>>>>,>,,,,,yyyyyyuuuuiuiiiiiaaassssssdddddffffffggggggzzzzzzxxxzzzzzggggffffffddddsssssaaaaaii,==ssu-",
"        ++saaiuasssxx:::>>>>>,,,,,,yyyyyyuuuuuiiiiiiaaaasassddddddfdffffgggggzzzzzzxzxxxxxzzzzgzggfggfffdddsddssssaaaaiaa,==sauu",
"        ++ssaaassssxx:::>>>>,>>,,,yy,yyuyuuuuiuuiiiaaaaasassssdddffdffffggggzggzzzxxzxxxxxxxzzggggggffffffddddssssaaaaiai,==ssaa",
"        ++sssssssssxx:::>>>>>>,,,,,,yyyyyuuuuuuiiiaiiaassasssddddddfffffggggggzzzzxzxxxxzzzzzggggfffffdfdddssssaaaaaaiiii,==ssss",
"        ++sssssssssxx>:>>>>,,,,,y,yyyyuuuuuuiiiiiaaasaasssdddddfdffffgfggggzzzzzxzxxxxxzzzggzggfgffffddfsddsssaaaaaiaiiii;==ssss",
"        ++sssssssssxx>>>>,>,,,,yy,yyuuuuuuiuiiiiaaaaassssssdddffdfffgggggzgzzzzxxzxxxxxxxzzzggfggffffdfddddssssaaaaaaiuii,==sssa",
"        ++sssssssssxx>>>,>>,,,,y,yyuyy134hjjjjjjjjjjjjjjjjddddfdfffffgggzggzzzzxzxxxxzzzzzggggfgffffddddssssasaaaaiiiiuuu;==ssaa",
"        ++sssssssssxx>>>,>,,,,,yyyyuy:O122222222222222222jddddffffgfggggzgzzzzzxxxxxzzzggzggffffffdddsddsssaaaaaiiiiiiuuu-==saai",
"        ++sssssssssxx>,,,,,,yyyyyyuuu:O122222222222222222jdffffffgggggzzzzzzxxxxxxxzzzzgzggfggfffddfdsddssssaaaiaaiiiiuiu-==aaii",
"        ++sssssssssxx,>>,,,yy,yyuyuuu:O12<4222222222<4222jffdffffggggzggzzzxxzxxxxxxzgzggggfgffffffddssssssaaaaiaiiiuuuuu-==aiiu",
"        ++sssssssssxx,>,,,5qeeew9uuuu:O121<2222222211<222jddfffffggggzgzzzzzzxxxzzzzzgzgggfffffdfdsddsssaaaaaiiiiiiuiuyyy-==iiuu",
"        ++sssssssssxx,,,,:58errr9uuuu:O122222222222222222jffffggggggzzzzzxzxxxxxzzzzgzggfgffffddfdsdssssaaaaiaaiuiuuiuyyy-==iuuu",
"        ++sssssssssxx,,,:=$60er05uuiu:O122222222222222222jfffgggggzgzzzzxxzxxxxxxzzzggggfgffffdddddsssssaaaaaaiiiuuuuuyyy-==uuuu",
"        ++sssssssssxx,,:=*@$0wr9&uuuu:O122222222222222222jffffggggggzzzzzzxxxxzzzzgggggfffffffdsddsssasaaaaiiiiiuiuyuyyyy-==uuuu",
"        ++sssaznsssxx,::=**X0wr9uuiii:O122222222222222222jfgfggggzzzzzzzxxxxxzzzggzggfgffffddddsdsssaaaaaiaiiiiuuiuyyyy,,-==uyy,",
"        ++sssudzsssxx,:;===X0we8iiiii:O122222222222222222jgggggzzzzzzxxxxxxxxxxzzzgggggffffffdddsssssaaaiaaiiiuuuuuyyy,yy-==uy,-",
"        ++ssa,uisssxx,:;;;yX0we9uuiii:O122222222222222222kggggzggzzzzxzxxxzzzzzzggggffffffddddsdssasaaaaiaiiiiiuuuyyyy,y,-==uu,-",
"        ++saaiuassszz,:;;yuX0we9uiiii:O122222222222222222kggggzgzzzzzxxxxxzzzggzggffffffdddsddsssaaaaaiiiiiuuuuuyyyy,,,,,-==uu,,",
"        ++ssaaasssszz,:;yuuX0we8iiiaa;O12222@57780wr22222kgggzzzzzxzxxxxxxzxzzzggfggffffdfdsddsssaaaaiaaiiiuuuuyyyy,yy>,,-==uuuu",
"        ++ssssssssass,:yuuuX0we8iiaaa;O12221@&780wrt22233lgzgzzzzxxzxxxxzzzzzggggfgfffffdddssssasaaaaiaiiiiiiuuyyyyyy,>,,-==uuuu",
"        ++sssssssaiaa,:yuuiX0we8iaiia;O1221<@$<...7t22234lgggzzzzzzxxxxzzzgggggffffffdfdsddsssaaaaaaiiiiiuuuuuyyyy,,,,>>>-==uuuu",
"        ++ssssssaiiaa,:uuuuX0we8aaasa;O1221<@$<OO.7r22244czzzzzzzxxxxxzzxzgzggfggfffddfdsddsssaaaaiaiiiiuuuyyyyy,y,,,,>>>-==uuui",
"        ++ssssssaiiaa,:uuiuX0ww8aaaas;O1221+@$1OO.7r2234hczzzzxxxxxxxzzzzzggggggffffdddddsssssaaaaiaiuiiiiuuyyy,yy,,,,>>>-==uuii",
"        ++ssssssaiiaa,:uiuiX0qq8iaass;O1221+@$2OO.7w223hjvzzzzxzxxxxzxzgzggggfffffdfdsddsssaaaaaaiiiiiuuuuuyyyy,y,,,>>>>>-==uiia",
"        ++ssssssaiuaa,:uiuiX0007aaass;O1221O@$4<<O7w234jkvzzzzxxxxxzzxzgzggfgffffddfdsdsssaaaaaiaiiiiuuuyyyyy,,,>>,>>>:::-==iiaa",
"        ++ssssssaiuaa,:iiiiX9997assss;O122<O@$h42<7023hklvzxxxxxxxzzzzzzggfggffffdfdddsssssaaaaaaiiiuuuuyyyy,yy,,,>>>>:>:-==iaas",
"        ++ssssssaiuaa,:uiiaX7887sssds;O122<o@$$%&56824hklvxxzxxxxxxzzzggggfgfffffddddsssasaaaaiiiiiiiuyuyyyy,y,,,>>>>>:::-==aass",
"        ++ssssssaiuaa,:iiiaX6777assss;O122<o@@@@@@@@24jklvzzxxxzzzzzggggffffffddddsssssaaaaaiiiiuuuuuuyyyyy,,,,,>>>:>::::-==asss",
"        ++ssssssaiuaa,:iiaaX6666ssssd;O122<oooO++<1234jklvxxxxxzzzzgzggfggfffddddddsssssaaaiaaiiiuuuuyyyy,y,,,,>>>::>::;:-==ssss",
"        ++ssssssaiuaa,:iaaaX6666dsddd;O122<<<<1122233hjklbxxxxxxzzzggggggffffffddddssssaaaaiaiiiiiuuuyyyy,y,,,>>>>>>::;::-==sssa",
"        ++sssaznaiuaa,:iaa%$5555&sddd;O12222222222234hjllmxxxzzzzgggggfffffdfdddssssaaaaaiiiiiiuuuuyyyyy,,,,>,>>:>::::;:;-==ssaa",
"        ++sssudzaiuaa,:ia;@$&&&&$dddd;O12222222222344hklcmxxzzzggzggfgffffddfsddssssaaaaiaaiiiuuuyyyyy,y,,,,>>>::>::;;;;;-==sapu",
"        ++ssa,uiaiuaa,:i;=@#$%%$@ddff;O1222222222334hjlccmxxxxzzzgggggffffdfddddssssaaaaaaiiiiiiuuyyyyyy,,,,>>>:>::;::;;;-==apa,",
"        ++saaiuaaiuaa,:;==*@@@@@>dffd;O122222222334hjkllcmzzzzzggggffffffddddssssasaaaaiiiiuuuuuuyyyy,,,,,>>>:>::::;:;;;:-==ppai",
"        ++ssaaasaiuaa,:;==***=uuddddf;O12222222334hjklkklbzzggzggffffffdddsddsssaaaaaiaiiiiuuuyyyyy,,,>,,>>>::>:::;;;;;::-==paaa",
"        ++ssssssaiuaa,:;;===;uddfdfff;O1222222334hjklkjjkvxzgzggfggffffdfdsddssssaaaiaaiiiiuiuuyyy,yy,,,,>>>:>::;:;;;;;::-==asss",
"        ++ssssssaiuaa,:,,;->uddffdfff;O12<422334hjkljvhhjczzggggfgfffffdddssssssaaaaiaiiiuuuuuyyyy,y,,,>>>>>::::;:;;;;::>-==ssss",
"        ++ssssssaiuaa,:>::,udddddffff;O121<2334hjklk3244hcgggggfffffdfdsddsssaaaaaiiiiiiuuuyyyyy,,,,,,>>>::::::;;;;;::::;-==ssss",
"        ++ssssssaiuaa,,>:,uddddffffgf;O1222334hjklkjh4444czggfgffffddfdsddsssaaaaiaaiuiuuiuyyyy,yy,,,>>>::>::;:;;;;:::>;;-==ssss",
"        ++ssssssaiuaa,,>,iddffffffggg;OOOOOOOOOOOOOOOOOO2cgggggffffdddddsssssaaaaaaiiiuuuuuyyyyyy,,,>>>>>>:::::;;;;::>;;>-==ssss",
"        ++ssssssaiiaa,,uidddfdfffffgg;;;;;;;;;;;;;;;;yypggggfffffffdsddsssaaaaaaiiiiiuiuyuyyyy,,,>,>>>:>::::;;;;;::::;;>>-==ssss",
"        ++ssssssaiiss,uiddddffffffggggzgzzzzzxxxxxzzxzggggffffffddddsdsssaaaaaiaiiiiuuiuyyyy,y,,,>>>>::>::;;;;;:::::;;>>>-==ssss",
"        ++sssssssaissiiddfdffffgggggzzzzzzxzxxxxxzzzzzzggfggffffdfdddsssssaaaaaaiiiuuuuuyyy,yy,,,>>>>>>::;::;;;;::>;;>>,,-==ssss",
"        ++ssssssssiggaddffdffffggggzggzzzxxzxxxxxxzzzggggfgfffffdddddssasaaaaiiiiiiiuuuyyyy,y,,,,>>>>::::;:;;;;:::;;>>>,,-==ssss",
"        ++sssssssssggdddddfffffggggggzzzzzzxxxzzzzzggggffffffddddsssssaaaaaiiiiuuuuuuyyyy,,,,,,>>>:::::;;;;;;::::;;>>>,,,-==ssss",
"        ++sssssssssxxdddffffgfggggzzzzzxzxxxxxzzzzgzggfggfffdddsddssssaaaaiaaiiiuuuuyyyy,yy>,,>>>>:>::;::;;;;::>;;>>,,,,y-==ssss",
"        ++sssaznsssxxffffffgggggzgzzzzxxzxxxxxxxzzggggggffffffddddssssaaaaiaiiiiiuuuyyyyyy,>,,>>>>::::::;;;;::>;;>>>,,,,y-==sssa",
"        ++sssudzsssxxfdfffffgggzggzzzzxzxxxxzzzzzggggfffffdfdddssssaaaaaaiiiiiuuuuyyyyy,,,,>>>>:>::::;;;;;::::;;>>>>,,,,y-==sssu",
"        ++ssa,uisssxxffffffggggzgzzzzzxxxxxzzzggzggfgffffddfsddsssaaaaaiaiiiiuuuyyyyy,y,,,,>>>::>::;:;;;;::::;;>>,,>,yyyy-==ssa,",
"        ++saaiuasssxxfffgggggzzzzzzxxxxxxxxxxzzzggfggffffdfddddssssaaaaaaiuiiiiuuyyyyyy,,,,>>>>>::;::;;;;::>;;>>>,,>yy,yy-==saai",
"        ++ssaaassssxxfffggggzggzzzxxzxxxzzzzzzggggfgffffddddssssasaaaaiiiiuuuuuuyyyy,,,,,>>>>>::::;:;;;;:::;;>>>,,,,,,yyy-==ssaa",
"        ++sssssssssxxfffggggggzzzzzzxxxxzzzggzggffffffdddsddsssaaaaaiiiiiiuuuyyyyy,,,>,,>>>:::::;;;;;;::::;;>>,,,,y,yyyyu;==ssss",
"        ++sssssssssxxggggggzzzzzxzxxxxxxzxzgzggfggfffddfdsddssssaaaiaaiiiiuiuyyyy,yy,,,,>>>:>::;::;;;;::>;;>>>,,,yy,yyyuu;==ssss",
"        ++sssssssssxxggggzgzzzzxxzxxxxzzzzzggggfgffffffddssssssaaaaiaiiiuuuuuyyyy,y,,,>>>>>::::::;;;;::>;;>>>>,,,y,yyyyui;==ssss",
"        ++sssssssssxxggggggzzzzxzxxxxzxzggggggfffffdfdsddsssaaaaaiiiiiiuiuyyyyyy,,,,,>>>::::::;;;;;::::;;>>>,>,,,yyyyuyui;==ssss",
"        ++sssssssssxxgggzzzzzzzxxxxxzzxzgzggfgffffddfdsdssssaaaaiaaiuiuuiuyyyy,y,,,,>>>::>::;:;;;::::>;;>>>,,,yyyyyyuuuuu,==ssss",
"        ++sssssssssxxgzzzzzzxxxxxxxzzzzzzgggggffffdddddsssssaaaaaaiiiuuuuuyyyyyy,,,>>>>>>:::::;;;;::>;;>>>,,,yy,yyyyuiuui;==ssss",
"        ++sssssssssxxzggzzzzxzxxxxxxzgzggggfffffffdsddsssasaaaaiiiiiuiuyuyyyy,,,>,,>>:>::::;;;;;::::;;>>>,,,,,,yyyyyuuuii,==ssss",
"        ++sssssssssxxzgzzzzzxxxxxzzzzgzggffffffddddsdsssaaaaaiaiiiiuuiuyyyy,,,,,>>>>::>::;;;;;;::::;;>>>,,,y,yyyyuuuuuiii,==ssss",
"        ++sssssssssxxzzzzxzxxxxxzzzzgzggfggffffdfdddsssssaaaiaaiiiuuuuuyyy,yy,,,>>>>:>::;::;;;;::>;;>>,,,,yy,yyyuuiuiiiia,==ssss",
"        ++sssssssssxxzzzxxzxxxxxxzzzggggfgfffffdddddssasaaaaiaiiiiiuuuyyyy,y,,,,>>>>::::;:;;;:::>;;>>>,,>,,,yyyyyuuuiiiia,==ssss",
"        ++sssssssssxxzzzzzxxxzzzzzgggggfffffddddsssssaaaaaiiiiiuuuuuyyyy,,,,,,>>>::::::;;;;;::::;;>>>,,,,,yyyyuuuuuuiiiia,==ssss",
"        ++sssaznssfxxzzzxxxxxzzzzgzggfgffffdddsddssssaaaaiaaiiiuuuuyyyy,yy>,,>>>::>::;:;;;;;::>;;>>,,,,yyyyyyuuiiiiiiaaaa,==sssa",
"        ++sssudnsffxxxxxxxxxxxxzzggggggffffffddddssssaaaaiaiiiiiiuuyyyyyy,>,,>>>>>:::::;;;-::>;;>>>,,,,y,yyyyyuuuiiiaaiaa,==sssu",
"        ++ssa,uiffgnnxzxxxxzzzzzggggfffffffdddssssaaaaaaiiiiiuuuuuyyyy,,,,>>>>:>::::;;;;--:::;;>>,>,,,,yyyyyuuuuiiiiiiaaa,==ssai",
"        ++saaiuffggnnxxxxxzzzggzggfgffffdddsddsssaaaaaiaiiiiuuuyyyyy,y,,,,>>>::>::;;;;;;-::>;;>>>,,,y,yyyyuuuiiiiiaiaaaas,==saai",
"        ++ssaaffgggnnxxxxxzxzzzggfggffffdfdsddssssaaaaaaiuiiiiuuyyy,yy,,,,>>>>>::;::;;;-:::;;>>>,,,,y,yyyyuuuuiiiaaiaaassu==ssaa",
"        ++sssffggggnnnxxzzzzzzzzzzzzzzzzzzzzzzzzzzzzzzzzzzzzzgggggggffffffggggggggggggfdssdfggggggggggggggggggggggggggggdd>=ssss",
"        ++ssffgggggnnnxzzzzzzzzzzzzzzzzzzzzzzzzzzzzzzzzzzzzzzgggggggffffffggggggggggggfdssdfggggggggggggggggggggggggggggddi>ssss",
"        ++sffggggggggggffsssssssssssssssssssssssssssssssssssssaaiiuuuuuuuuuuuiiaassssssaiassssssssssssssssssssssssssssssssssssss",
"        ++ffggggggggggffsssssssssssssssssssssssssssssssssssssaaiiuuuuuuuuuuuiiaassssssaiasssssssssssssssssssssssssssssssssssssss",
"        ++fggggggggggffsssssssssssssssssssssssssssssssssssssaaiiuuuuuuuuuuuiiaassssssaiassssssssssssssssssssssssssssssssssssssss",
"        ++ggggggggggffznsssssssssssssaznsssssssssssssaznsssaaiiuuuuyy,sfuuiiaassssssaiznsssssssssssssaznsssssssssssssaznssssssss",
"        ++gggggggggffudzsssssssssssssudzsssssssssssssudzssaaiiuuuuuy,:iauiiaassssssaiudzsssssssssssssudzsssssssssssssudzssssssss",
"        ++ggggggggffa,uissssssssssssa,uissssssssssssa,uisaaiiuuuuuuu,:-,iiaassssssaia,uissssssssssssa,uissssssssssssa,uissssssss",
"        ++gggggggffaaiuasssssssssssaaiuasssssssssssaaiuaaaiiuuuuuuuu,,,uiaassssssaiaaiuasssssssssssaaiuasssssssssssaaiuassssssss",
"        <<ggggggffssaaasssssssssssssaaasssssssssssssaaaaaiiuuuuuuuuuuuuiaassssssaiaaaaasssssssssssssaaasssssssssssssaaasssssssss",
"        <<gggggffsssssssssssssssssssssssssssssssssssssaaiiuuuuuuuuuuuiiaassssssaiaasssssssssssssssssssssssssssssssssssssssssssss",
"        111111111111111111111111111111111111111111111111111111111111111111111111111111111111111111111111111111111111111111111111",
"        111111111111111111111111111111111111111111111111111111111111111111111111111111111111111111111111111111111111111111111111"
};
