/* XPM */
static char *_dfb56180f4742908c9c0ef00a65c623[] = {
/* columns rows colors chars-per-pixel */
"128 128 25 1 ",
"  c #232323",
". c #2F2F2F",
"X c gray23",
"o c #4B4B4B",
"O c gray34",
"+ c #676767",
"@ c gray45",
"# c gray50",
"$ c #830001",
"% c #8F0001",
"& c #9B0001",
"* c #A70001",
"= c #B30001",
"- c #BF0001",
"; c #CB0001",
": c #D70001",
"> c #E30001",
", c gray56",
"< c #9B9B9B",
"1 c gray67",
"2 c #B7B7B7",
"3 c #C3C3C3",
"4 c LightGray",
"5 c #DFDFDF",
"6 c #EFEFEF",
/* pixels */
"                                                                                                                                ",
"                                                                                                                                ",
"  ............................................................................................................................. ",
"  ............................................................................................................................. ",
"  ...+++++++++++++++++++++++++++++++++++++++++++++++++++++++++++++++++++++++++++++++++++++++++++++++++++++++++++++++++++++++++. ",
"  ...++++++++++++++++++++++++++++++++++++++@@@@@@@@@###############################@@@@@@@@@@@@@@@@@@@++++++++++++++++++++++++. ",
"  ...+<,<,,,,,#,##@#@@@@@+@+++++OOOOOOOooooooOOOOOOO++++++++@@@@@@@######,,,,,,,,<<<<<1<1221222333233333434444555556566566666+. ",
"  ...+,,,,,,,#######@@@@@@@+++++O+OOoOOoooooooOoOOOOO+O@+@+@@@@@#@#####,#,,,,<<,<<11<1<11222122233333334444444555555566666666+. ",
"  ...+,,,,#,11<##@###@@##,#@OOOOOOO+@@+ooooooOoOOO+OO+O+@@@@+@@#######,,,,,,,<<<<<<<11111112222233334344444544555555566666555+. ",
"  ...+,,,,,<234<#@@@@@+#,<<#+++OOO+##,#+ooooOOOOOOOO++++@@+@@@@####,##,,,,,,,<<<<<<<<1111112222222333343345555455666666666555+. ",
"  ...+,,,,@#<131#@@@@@+#,,<#+++OOO@@##,+oooooOOOOOOO++++++@@@@@@@##,#,#,#<<<,<<<111<11111222222333334344444555455666666566565+. ",
"  ...+,,,#O+#<21@@@@@+O+#,,@O+OOOoO+@@@+OoOoOOOOO+O+++++@@@@@@##@##,###,,<<<<,<<<11111112222222333333444444555555566666555555+. ",
"  ...+#,,,OO+@,@@@@@@+OO+@@OOOOOOooO+++OoOOOOOOO+++++++@@@@@@@#######,,,,,<<<<<<111112122222322333333444444455522236666665555+. ",
"  ...+,,,##OO+##@@@@+@+OO++OOOOOOoooOOOooOOOOOO+++++@++@@@@@@@######,,,,,,,,<<<<<<<1222212233333334444444555552<2343666665545+. ",
"  ...+,,,#######@@+@@@@+OO+O+OOooOoooooooooOOOOOOO#@++OOoooooooooooooooooooooooooooooooooooooooOO++#,444455553##<132665655555+. ",
"  ...+######@@#@@@@@+@++O+OOOOOoOoooooooOOOOO+O+++#1#+OOooooooooooooooooooooooooooooooooooooooOO++#,155545556<O+#<22655555554+. ",
"  ...+######@@@@@@@+++++++OOOOOOOOooooooOOOOOOO+++#12,@@@@@@@@@@@@@+++++++++++@@@@@@@@@@@@@@@@@@#,<1445554455<OO+@,1655555555+. ",
"  ...+######@@@@@@@@+++O+++OOOOOOOoooOooOOOOOOO++++<12,@@@@@@@@@@@@@#####,,,,,,,,<<<<<11111111,#,<144455555563#OO#15556555454+. ",
"  ...+,##@@@@@@@++++++OOOOOOOOooooooOOOOOOO+++++++@@<21#@########,,,<<<<<<<<11111112222222333331<<144444555555322266555554544+. ",
"  ...+,##@#@@@@@+@+++++OOOOOOOooooooOOOOOOO++++++++@#121#@######,,,,,,,<<<<<<<11222222333233341<<1444545556565666646555555544+. ",
"  ...+#####@@@@@@+++++O+OOOoOOoooooooOOOOOOO++@@@+@@@,12<#######,,,,<,,<<1<<<<1122212223333331,<14445555555666666566655555553+. ",
"  ...+##@###@@@@@@@O+OOOOOooooooooooooOOOOOO+++@@@++@@<21<##,,,,,,,<<<<<<<<1111111222233333331<144444555555566666555555544444+. ",
"  ...+#@@@@@@@@+++++++OOOOOOOooooooOOOOOOO+++++@++@@@##<21<##,,,,,,,<<<<<<<111111222222223331<1355555556666666666555555544444+. ",
"  ...+##@@@@@@@+++++++OOOOOOOooooooOOOOOOOO++++++@@@@@@#121<,##,<<<<<<<111<11121122222323331<<1444555455666666565565545544433+. ",
"  ...+#@@@@@++++==+O++OOOOoOOooOOOoOOO+O+O++++++@@@@@#@##12<,#,,<<<<,<<11111112222222333331<<14445455555666665655555544444443@. ",
"  ...+@@@@@++++====OOOOOOoooooooOOOOOOO++++++@@@@@@@#####<12<,,,<<<<<<<1111111222222233331<<144454455655556666665551554444433+. ",
"  ...+#@@@@+@+======OOOOOooooooOOOOOOO++++++++@@@@@@@#####<11<,,,,<<<<<<<<1222212333333341<144445555555665666666551<555433434+. ",
"  ...+#@@+@@+======**OooOooooooooo,##OOOO@@@@@@@@#######,,,<11,<<,<<<<<1<1112222223333331<144444555555566666556551<#454434434+. ",
"  ...+#@@@++======****oooooooooOoO<,oO+++++@@@+@@#,,,###,,,,<1<,<<<<<<111111122222323341<<145544555311366666555531##444444333@. ",
"  ...+@@@@+=====******&oooooooOOOO1<ooO+++@++@@@#,<1<,##,,,<,<1<<<<<<<11111122222322331<<1445555451<2343666655541<+#444344433+. ",
"  ...+@@@+======******&&ooooooOOOO2<oooO++++@@@+@#,<1,###,#<<,<1<1111111122222222333311<1444455552+#<13165555651<#+#444333333+. ",
"  ...+@++=====*******&&&&oooOOOOO+2<oooOO@@@@@@+O+#,<,#,,,,<<<<11<11111111222222233331<1444444455,O+#<216565551<#++#444333333+. ",
"  ...+++======******&&&&&&oOOOOOOO2<OoooO@@@@@@+OO+@,##,,,,,<,<<1<11<1121222233233331<13444554555,OO+@,16665531##@+#443433323@. ",
"  ...+@@=====******&&&&&&&oOoOOOOO2<+OoooO@@##@@+OO+###,,,,<,<<<<1<1<122221223333331<<14444555555<,OO+16566651<#<#+#433333222+. ",
"  ...+@@@@OOOOOOOoooooooooOooOO+OO2<++OoooO@#####@@@##,,,,<<<<<<<<1<111112222333341<<1444445555554<,,,3555551<#1<#+#443343333+. ",
"  ...++++++++OOOOOOOooooooOOOOOOO+2<+++OoooO#######,,,,,,,,<<<<<<<<1<11122222222331<143555455566654466665551<#13<#+#443333333+. ",
"  ...+++++++OOOOOOOoooooooOOOOOOO+2<+++OoooO@#@####,,#<<<,<<<<11<1<1<1222222332331<144445555555666666565651<#134<#+#443333233@. ",
"  ...++++O+O+OOOoOOOooooooOOO++OO+2<+++@OoooO@###,#,,,,<<<<,<<11111<1<12222233331<1444445455555656665655531##144<#+#333332222+. ",
"  ...+++---===****&&&&&&**OOO+++++2<@@@@@OoooO####,,,,,<<<<<<<11112111<122223331<<144445445565555666666551<#1444<#+#333332222+. ",
"  ...+++--====***&&&&&&&&*OOO+++++2<@@@@@@Oooo@###,,,,,,,<<<<<<<1122211<1333331,<134445555555566666666651<#15544<#+#332232222+. ",
"  ...++OO====***&&&&&&&**OOOOO+O@@2<@@@###@OooO@,#,,,,<<<<<<<11<111122111333331<144444455555556666655641<#135544<#+#3323222221. ",
"  ...++OOO==****&&&&&&**OOO+O++++@2<@@@@##@#OooO@,,,,,<<<<<<<11111112221<12331<143445455555655666665551<##144444<#+#3333222222. ",
"  ...+++OOO=***&&&&&&&*OOOOO+++++@2<@@@@#####OooO,,<,,<<<<<<<111111222211<131<1433455554556666665665531<#1444444<#+#3333321222. ",
"  ...+++OOOO**&&&&&&&*OOOOOOO+++++2<@@@@@@###@OoO+<<<<,<<11111112222222311<<<<144444555555666666555541<#15444433<#+#3222222211. ",
"  ...+OOOOOoo*&&&&&&*OOO+++O++++@@2<@@@#######+OoO#<<<<<<1111<<<<22222223111<144444553113656566666551<#154444433<#+#3222222211. ",
"  ...+OOOOOooo&&&&&*OOOOO+++++++@@2<@@@#######@OooO#,<<<<<1<<<121<2223233311133444553<23436566666651<#1344444343<#+#2222211211. ",
"  ...+OOOOOoooo*&&*OOOOOO+O++@+@@@2<#@@#######,@Ooo+<<<1<1<<@#<12<223333333444444452+#<1316666666631##1555334333<#+#2222211111. ",
"  ...+OOoooooooO**OOOOOOOOO+@@@@+@2<######,,,,,,@OoO#<<<111#O+#<1<22333343344444445,O+#<21666655541<#14444444333<#+#2222111111. ",
"  ...+OOOOooooOOOoOOO+O+O++++@+@@@2<######,,,,,,,@Oo+#<<<11#OO+@,<22223333433355555,OO+@,166666551<#154444444333<#+#22122211<<. ",
"  ...+OOOOoooooOOOOOOO++++++++@@@@2<#@###,,,#<<<,<+OO+#<111,#OO+<123323343444445555<,OO+166656541<#1344443434333<#+#22222211<<. ",
"  ...+OoOOOoOOO+++++++++++++++@@@@2<@###,#,,,,<<<<,+O+#11111<###12233333334444454554<,,,35655551<##1444443333333<@+#2221111111. ",
"  ...+oooooo@@@@@@@@###@@@@@@+@@@@2<#####,,,,,<,<<<@+O+#1211222222233333344444545556555566666631<#15444443333333<@+#2221111111. ",
"  ...+OoooXo++++++++++#@++@@@+@@@@2<#####,,,,<,,<<1<@OO+<22212233333334443444555555556666666651<#155444333433222<@+#111111<<1<. ",
"  ...+ooooXo++#+++++#+#@+@++@@@@#@2<#,#,#,,,,<<<<<1<1@O+#<122223333333444444445555555666665651<#1455544443433322<@+#111111<<<<. ",
"  ...+ooooXo+O+++++O++#@+++@@@@@@@2<##,,,,,,,<<<<<<<11@++#12222232343344454545555565666665551<#13444444433333332<@+#211111<1<<. ",
"  ...+oooXXo++++++++++#@@@@@@@@##@2<#,,,,,<,,<<<<1<<111#++#222232333433434555545566666666651<##15444444433333332<@+#221<<<<<<<O ",
"  ...+oooXXO++++++++++#@@@@@@@@###1<#,##,<<<<,<<1111111,#++#22333333334444555555566666655531<#144444433333322322<@+#211111<<<<O ",
"  ...+oooXXO++++++++++#@@@@##@@###1<##,,,<<<<<<<11111112#++#<223333334444444555555566666541<#1544444433333322222<@+#11111<<<,<O ",
"  ...+oooXXO+O======O+#@+@@#######1<,,,,,,,,<<<<<1<122122#++#23333343445531136656656666661<#13544444343333322222<@+#11<111<<<@O ",
"  ...+oooXXOO========O#@@@@#######1<,,,,,,,<<11<<<11222121#++#33334444453<234355666666661<##15554334333322222221,@+#1<<<<<<<<,O ",
"  ...+oooXXO%*==-;:;==#@@@@@#@####1<#<<<,<<<<<<11111112222<#++<434444452+#<13155666665531<#144544444343333222221,@+#11<<<<<<<,O ",
"  ...+OoOXXO%&==-:>:==,@@@@#@###,#1<,,<<<<,<<<<<11111122222,++#<3433455,O+#<216666666551<#1344444443333333222122,@+#1<11<<,<<,O ",
"  ...+OOOXoO$%**=;:;==,@@@#######,1<,,<<<<<<<1<1111122222231#++#3444445,OO+@,1666656651<##3544443433333233322212,@+#<<<<<,,,,@O ",
"  ...+OOOXoO$%&**=====,@@@@######,1<,,,,<<<<<<<11112222222331#++3444445<,OO+16666655551###1444443333332222222211,@+#1<<<<<<<,,O ",
"  ...+ooOooO$$%&&&&&&&,@#@####,,#,1<,<<<<<<<11<11122222322311<<144444444<,,,355666666551,#,144443333333222222211,@O#1<<,<<<<,#O ",
"  ...+oOOooO$$%%&&&&&&,#######,,,,1<,<<<<<<<1111112123333331<<14444455555556666666665541<,,,14334333232222211111,@O#<<<<<,<,,,O ",
"  ...+OOOooOX$$%%%%%%O,#@##,#,,,,,1<,<<<<<<<111111222233331<<1444444455555556666656555551<,,<3433432322222111111,@O#<<<<,,,,,@O ",
"  ...+OOOooOoX$$$$%%O#<#@##,####,<1<<,<<1111111222222223331<<1445554555656566666555555544<,,,1333333332222121111,@O#<<<<,,,,#,O ",
"  ...+O++ooOOoXXXXoO@#<######,,,,<1<<<<<111111112222222231<<134445554456666666665555555544<,,,1333333322122221<<,@O@<,,<,,,,,#O ",
"  ...+OO+ooO+OOOOO+@<#<#####,,,,,,1<<<<<<1<12212223232331<<14444455555566666655556555454441<,,,13322322221121111,@O@<,<,,,,,##O ",
"  ...+OO+ooO@O@@@@#+#,<@#####,,,,<1<<<1<1<11222212233331<<1344444445555555666565555545444441,,,<3322222221111111,@O@<<<,,,,#,@O ",
"  ...+O+OooO########,,<@#,,,,,,,<<1<<<<1111111122223331<<13344445455565655666666555555444443<,,,<322222211111<1<,@O@,<<<#,,,##O ",
"  ...+O++ooOOOOOOOOOOO+@#,,,,,,,<<1<<<<<111111222222231<<133444555555566666656665545555333433<,,,<2222111111<<<<,@O@,,,,,,,###O ",
"  ...+O++oooooooooooooO+,,,#<<<,<<1<<1<111112222223321<<14444444555555566666555555544444443341<,,,<2211111111<<<,@O@,,,,,,,###O ",
"  ...+O++OOOOOOOOOOOO+@,#,,,,<<<<<1<11111112222222331<<134455111365666666666555555543<<<2233331<,,,1222211<1<1<<,@O@,,,######@O ",
"  ...++++@@@@@@@@@@@@@##,,,,,<,<<<1<1111211222232231<<1344451<2343566666656556554553<<121233332<<,,<21221<1<<<<<,@O@,,,,######O ",
"  ...+++++@@@@@@@######,,,,,<,,<<11<<<1222212233331<<1443442+#<13156666655555555444<@#<12<333222<,,,<1111111<<<<,@O+,,,#######O ",
"  ...+@@@@@@@###@###,#,#,,,,<<<<<1<<111121222233331<<144444,O+#<2155566666632555544#O+#<1<3333221<,,,<111111<<,<,@o+####,##@@@O ",
"  ...++@@@@@@@#######,,,,,,,<<<<<<<<11111122222321<<1444545,OO+@,1565666662<+,55554#OO+@,<22322221<,,,11<<<<<<<,#+o+,,,#,##@#@O ",
"  ...++@+@@@@@#@##,#,,,,,<,<<<<<1<<<1111122222321<<13343455<,OO+1666666552<#O+,4544,#OO+<123222221<<,,,1<<<<<<<,#+o+,,#######@O ",
"  ...+++@@@@@#@@##,#,##,<<<<,<<111<<112222222331<<1344444554<,,,356666652<<#OO+<4442<###12333222211<1,,,<<<<<<<,#+o+,,####@###O ",
"  ...+@@@@@@@#####,#,,,,<<<<<<<111<,11222222221<<133444444455555556666632<##OOO#<4344433333332212221<1,,#<<<,,,,#+o+#####@@@@@O ",
"  ...+@@@@@@@######,,,,,,,,<<<<<1<<,21222333231<<14344445555565665665542<#23#OO+#13333333222222211211<1,,#<<<<,,#Oo+######@@@@O ",
"  ...+@@@@#@#####,#,,,,<<,<<11<1<1<,2212223331<<14444444555555566666562<<2543#OO+#3333333222222211111,<1,,#<<<,,#OoO###@#@@@@@O ",
"  ...++@@#######,,,,,,,<<<<<<<1111<,122222331<<14444454455555556666662<<255552+OO+#33323322222221111<1,11<,#<<<##OoO##@#@@@@@+O ",
"  ...+@@@####,##,,,,,,,<<<<<<<<111<,12222221<<13433455554556666666652<<#2555532+OO+<332222222111111<<<<,11<,,,,,#OoO#####@@@@+O ",
"  ...+@@@@@##,#,#,#<<<,<<<111<1111<,2222231<<14344444555455666666652<<#25544444<+OO+333322221111111<<<<<,11<,,,,#OoO#####@@+@@O ",
"  ...+@@##@##,###,,<<<<,<<<1111111<,2222231<<13444444555555566666642<#2555444443#OOO#33322122221<<1<1<<<,,21<####OoO#@@##@@@++O ",
"  ...+@@#######,,,,,<<<<<<11111212<,223221<<13344444445555555666542<#254554443343#OOO#3322222211<1<<<<<,<,<2<,###OoO#@@@@@@@++O ",
"  ...+@@######,,,,,,,,<<<<<<<12222<,23331<<14444444555555566666552<<2544444444333<+OO+,222211111111<<<<<<<,<1<###OoO#@@@@@@@++O ",
"  ...+#####,,,#,,,<<<<<<1<11111212<,2331<<13444444455555555666662<<#25554444433333#+OO+,22221111111<,,<<<<,,11,#@OOO@@@@@++++@O ",
"  ...+######,,,,,,,<<<<<<<11111122<,221<<13444455545556565666662<<#2455554433343322#+OO+<111111<<<<<<<,,,<,,,21,#+OO@@@@++@+++O ",
"  ...+##,,#,,,,,<,<<<<<1<<11111122<,221<<1333551113645566666662<<#255545544443433232#+OO+111111<<<<@###,,,,,,<21,#+O@@+@@@++++O ",
"  ...+@#######,<<<<,<1111111122222<,31<<1334451<234355666666642<#2555444444433333332<+OOO#11<11<<<@#,<,#,,,,,,121,++#@+@@@@@OOO ",
"  ...+#####,,,<<<<<<<<111111122222<,1<<1333442+#<1315555566642<#255554444444433333332#+OOO#<<<<<<#+@@,<#,,####,21<#+@@@+++++++O ",
"  ...+####,,,,,,,<<<<<<<1122222233<,<<<434344,O+#<21656566652<<#2544544443333333222222#OOO+#11<<<#O+@@,#,######,2<#@@@@@++++++O ",
"  ...+####,,<<,,,<<1<<<<1122212223<,<,3444444,OO+@,156666652<<#255454444433333332222222#+OO#11<<,#OO+@##,#,###@#,,#@@++++++O+OO ",
"  ...+,,,,,<121,<<<<<1111111222233<,,33444444<,OO+165566662<<#25555444443433323222222221#+OO#1<<<#@OO++#,#,##@@@#,,@++++++OOOOO ",
"  ...+#,,,@#<12<<<<<<1111112222222<,<334335554<,,,35666662<<#255555553343333222222221111<+OOO#<<<,#@@@@,########@@@++@+++++OOOO ",
"  ...+,##@O+#<1<<111<1112112222232<<3434444455545566666642<#25455554444433333332222111111#+OoO<<<<,,,,,,,######@@++@@@+++OO++OO ",
"  ...+,#,@OO+@,<<1111111222222233333334444454555556666642<##255545454443333333322122211<<1#Ooo+,<,,,,#,#####@#@#@@@+@@@++OOOOOO ",
"  ...+,,,#@OO+#<<111111122222223333333444454455655556652<<#2555444444434333233322222211<<<<@ooo@,,,,,######@@@@@@@@+++++++OOOOO ",
"  ...+,,,,#@@@<<<<<<12222123333333444444445555555665662<<#2555554443444333322222221111111<<#OooO#,,,########@@@@@@@+++++++OOOOO ",
"  ...+,,,<<,<<<<<1<11122222233333334444444555555566662<<#25554544444333333322222222111111<<,@OooO########@@@@@@@++++++OOOOOOOoO ",
"  ...+,,,<<<<<<<1111111222223233434444554455566556662<<#25554544444333333322222111111<<1<<<<<@oooO+,#,,###@@@@@+@+++++OOOOOOOoO ",
"  ...+,,,<<<<<<<1111112222232233433344555545566666642<##25555544444343323322222111111<<<<<<<,,OooO++#######@@+@+@+++++O+OOOOOoO ",
"  ...+<<<<<<1111111222222223333333444445555556666662<##255455553334333322222221211111<1<<<<<<,@OoOO+#######@@+@@##@+OOOOOOooooO ",
"  ...+<<<<<<111111112222222333333444444445555565662<<#2555544444443343333222212221<<<<<<<,,,,,,OoOO+###@@@@@@@@##,#@++OOOOOOooO ",
"  ...+<,<<<,<<,11212222<,,133344355111365556565666<<###,,,,,,,,,,,,,,,,,########################@+O+###@@@@@@@+@@#,#+OOOOOOOooO ",
"  ...+,<<<,<121,222212<,<1<13344451<23435555666665<###,<<<<<<<<<,,,,,,,,,,,,,,,,,,,,,,,,,,,,,,,,#,++@##@@@@@@+O+@@#@OOOOOoOOOoO ",
"  ...+<<<,@#<12<111221@#,<1,334442+#<131555556665555555544444443333332222222111111111<<<<<<<#,#,#,##@@@@@@@++OoO+@+OOOOOooooooO ",
"  ...+<<<,O+#<1<11222,O+#,<,33343,O+#<2166656666666555555444443333333322222221111111<<<<,,,,,,,##,####@@@@+@@OOooOOOOOOOOoooooO ",
"  ...+<<1,OO+@,122222,OO+@,#43444,OO+@,15666666666655455554334343322322222111111<<<<<<<<,,,,,,,#######@@+@@@@+OOOOOOOOoOooooooO ",
"  ...+<<1<#OO+#2222221,OO+#334444<,OO+165656666556555554544344343323222221111111<<<<<<<<,,,,#,#####@#@@@@@+@+@O+OOOOOoOoooooooO ",
"  ...+<<11<,,,122222221,,,13344444<,,,355556666555555544444443333333322221111<11<<<<<<<,,,,,######@@@@@@@++++++++OOOOOOOooooooO ",
"  ...+<<<<1122212233333334443444555555556666666555555554443444333333322122211<<<<<<<,,,,,,,#,#####@@@@@@@@+++O+++OOOOOOOoooooOO ",
"  ...+<11<111122223333333344444445555555666655656554454444333333322222221121111<<<<<<<,,,,,#,##@@#@@@@@++++++OOOOOOOooOooooooOO ",
"  ...+<111111122222323343443445455555655666656555554544444333333322222221111111<<,<<<<,,,,#,,##@#@@@@@+@+++++OOOOOOOoooooooooOO ",
"  ...+++++++++++++++++++++++++++++++++++++++++++++++++++++++++++++++++++++++++++++++++++++++++++++++++++++++++++++++++++++++++O ",
"  ...oooooooooooooooooooooooooooooooooooooooooooooooooooooooooooooooooooooooooooooooooooooooooooooooooooooooooooooooooooooooooo ",
"  ............................................................................................................................  ",
"  ...                                                                                                                           ",
"  ...                                                                                                                           ",
"  ..                                                                                                                            ",
"  ..                                                                                                                            ",
"  ..                                                                                                                            ",
"                                                                                                                                ",
"                                                                                                                                "
};
