/* XPM */
static char *_80a1873fd8a44e6e9e939292ccb9f41[] = {
/* columns rows colors chars-per-pixel */
"128 128 48 1 ",
"  c #000011",
". c #010011",
"X c gray12",
"o c #2B230F",
"O c #373701",
"+ c #3B2F17",
"@ c #232323",
"# c #2F2F2F",
"$ c gray23",
"% c #43331B",
"& c #4B3B1B",
"* c #573F1F",
"= c #4F4F01",
"- c #6B6B01",
"; c #5F4323",
": c #6F4B27",
"> c #774F2B",
", c #4B4B4B",
"< c gray34",
"1 c #676767",
"2 c gray45",
"3 c gray50",
"4 c #83532F",
"5 c #8B5B33",
"6 c #935F37",
"7 c #9F633B",
"8 c #A3673F",
"9 c #AB6B43",
"0 c #B77347",
"q c #BF7B4B",
"w c #CB7F4F",
"e c #D38353",
"r c #DF8B57",
"t c #EB8F5B",
"y c #F3975F",
"u c #FF9F63",
"i c #FFA773",
"p c blue",
"a c #007FCF",
"s c None",
"d c gray56",
"f c #9B9B9B",
"g c #B7B7B7",
"h c #FFB383",
"j c #FFBF9F",
"k c #FFCFB3",
"l c LightGray",
"z c #EFEFEF",
/* pixels */
"ssssssssssssssssssssssssssssssssssssssssssssssssssssssssssssssssssssssssssssssssssssssssssssssssssssssssssssssssssssssssssssssss",
"ssssssssssssssssssssssssssssssssssssssssssssssssssssssssssssssssssssssssssssssssssssssssssssssssssssssssssssssssssssssssssssssss",
"ssssssssssssssssssssssssssssssssssssssssssssssssssssssssssssssssssssssssssssssssssssssssssssssssssssssssssssssssssssssssssssssss",
"ssssssssssssssssssssssssssssssssssssssssssssssssssssssssssssssssssssssssssssssssssssssssssssssssssssssssssssssssssssssssssssssss",
"ssssssssssssssssssssssssssssssssssssssssssssssssssssssssssssssssssssssssssssssssssssssssssssssssssssssssssssssssssssssssssssssss",
"ssssssssssssssssssssssssssssssssssssssssssssssssssssssssssssssssssssssssssssssssssssssssssssssssssssssssssssssssssssssssssssssss",
"ssssssssssssssssssssssssssssssssssssssssssssssssssssssssssssssssssssssssssssssssssssssssssssssssssssssssssssssssssssssssssssssss",
"ssssssssssssssssssssssssssssssssssssssssssssssssssssssssssssssssssssssssssssssssssssssssssssssssssssssssssssssssssssssssssssssss",
"ssssssssssssssssssssssssssssssssssssssssssssssssssssssssssssssssssssssssssssssssssssssssssssssssssssssssssssssssssssssssssssssss",
"ssssssssssssssssssssssssssssssssssssssssssssssssssssssssssssssssssssssssssssssssssssssssssssssssssssssssssssssssssssssssssssssss",
"ssssssssssssssssssssssssssssssssssssssssssssssssssssssssssssssssssssssssssssssssssssssssssssssssssssssssssssssssssssssssssssssss",
"ssssssssssssssssssssssssssssssssssssssssssssssssssssssssssssssssssssssssssssssssssssssssssssssssssssssssssssssssssssssssssssssss",
"ssssssssssssssssssssssssssssssssssssssssssssssssssssssssssssssssssssssssssssssssssssssssssssssssssssssssssssssssssssssssssssssss",
"ssssssssssssssssssssssssssssssssssssssssssssssssssssssssssssssssssssssssssssssssssssssssssssssssssssssssssssssssssssssssssssssss",
"ssssssssssssssssssssssssssssssssssssssssssssssssssssssssssssssssssssssssssssssssssssssssssssssssssssssssssssssssssssssssssssssss",
"ssssssssssssssssssssssssssssssssssssssssssssssssssssssssssssssssssssssssssssssssssssssssssssssssssssssssssssssssssssssssssssssss",
"ssssssssssssssssssssssssssssssssssssssssssssssssssssssssssssssssssssssssssssssssssssssssssssssssssssssssssssssssssssssssssssssss",
"ssssssssssssssssssssssssssssssssssssssssssssssssssssssssssssssssssssssssssssssssssssssssssssssssssssssssssssssssssssssssssssssss",
"ssssssssssssssssssssssssssssssssssssssssssssssssssssssssssssssssssssssssssssssssssssssssssssssssssssssssssssssssssssssssssssssss",
"ssssssssssssssssssssssssssssssssssssssssssssssssssssssssssssssssssssssssssssssssssssssssssssssssssssssssssssssssssssssssssssssss",
"ssssssssssssssssssssssssssssssssssssssssssssssssssssssssssssssssssssssssssssssssssssssssssssssssssssssssssssssssssssssssssssssss",
"ssssssssssssssssssssssssssssssssssssssssssssssssssssssssssssssssssssssssssssssssssssssssssssssssssssssssssssssssssssssssssssssss",
"ssssssssssssssssssssssssssssssssssssssssssssssssssssssssssssssssssssssssssssssssssssssssssssssssssssssssssssssssssssssssssssssss",
"ssssssssssssssssssssssssssssssssssssssssssssssssssssssssssssssssssssssssssssssssssssssssssssssssssssssssssssssssssssssssssssssss",
"ssssssssssssssssssssssssssssssssssssssssssssssssssssssssssssssssssssssssssssssssssssssssssssssssssssssssssssssssssssssssssssssss",
"ssssssssssssssssssssssssssssssssssssssssssssssssssssssssssssssssssssssssssssssssssssssssssssssssssssssssssssssssssssssssssssssss",
"ssssssssssssssssssssssssssssssssssssssssssssssssssssssssssssssssssssssssssssssssssssssssssssssssssssssssssssssssssssssssssssssss",
"ssssssssssssssssssssssssssssssssssssssssssssssssssssssssssssssssssssssssssssssssssssssssssssssssssssssssssssssssssssssssssssssss",
"ssssssssssssssssssssssssssssssssssssssssssssssssssssssssssssssssssssssssssssssssssssssssssssssssssssssssssssssssssssssssssssssss",
"ssssssssssssssssssssssssssssssssssssssssssssssssssssssssssssssssssssssssssssssssssssssssssssssssssssssssssssssssssssssssssssssss",
"ssssssssssssssssssssssssssssssssssssssssssssssssssssssssssssssssssssssssssssssssssssssssssssssssssssssssssssssssssssssssssssssss",
"ssssssssssssssssssssssssssssssssssssssssssssssssssssssssssssssssssssssssssssssssssssssssssssssssssssssssssssssssssssssssssssssss",
"ssssssssssssssssssssssssssssssssssssssssssssssssssssssssssssssssssssssssssssssssssssssssssssssssssssssssssssssssssssssssssssssss",
"ssssssssssssssssssssssssssssssssssssssssssssssssssssssssssssssssssssssssssssssssssssssssssssssssssssssssssssssssssssssssssssssss",
"ssssssssssssssssssssssssssssssssssssssssssssssssssssssssssssssssssssssssssssssssssssssssssssssssssssssssssssssssssssssssssssssss",
"ssssssssssssssssssssssssssssssssssssssssssssssssssssssssssssssssssssssssssssssssssssssssssssssssssssssssssssssssssssssssssssssss",
"sssssssssssssssssssssssssssssssssssssssssssssssssssssssssssss$$$$$$$$sssssssssssssssssssssssssssssssssssssssssssssssssssssssssss",
"sssssssssssssssssssssssssssssssssssssssssssssssssssssssssss$$,$$$$$$,$$sssssssssssssssssssssssssssssssssssssssssssssssssssssssss",
"ssssssssssssssssssssssssssssssssssssssssssssssssssssssssss$,,,$#@@#$,,,$ssssssssssssssssssssssssssssssssssssssssssssssssssssssss",
"sssssssssssssssssssssssssssssssssssssssssssssssssssssssss$,,,$#@@@@#$,,,$sssssssssssssssssssssssssssssssssssssssssssssssssssssss",
"sssssssssssssssssssssssssssssssssssssssssssssssssssssssss$,,,$#@@@@#$,,,$sssssssssssssssssssssssssssssssssssssssssssssssssssssss",
"sssssssssssssssssssssssssssssssssssssssssssssssssssssssss<,,$#@@@@@@#$,,<sssssssssssssssssssssssssssssssssssssssssssssssssssssss",
"sssssssssssssssssssssssssssssssssssssssssssssssssssssssss$,,$#@@@@@@#$,,$sssssssssssssssssssssssssssssssssssssssssssssssssssssss",
"sssssssssssssssssssssssssssssssssssssssssssssssssssssssss$,<$#@@@@@@#$<,$sssssssssssssssssssssssssssssssssssssssssssssssssssssss",
"ssssssssssssssssssssssssssssssssssssssssssssssssssssssss$$,<$#$,,,,$#$<,$$ssssssssssssssssssssssssssssssssssssssssssssssssssssss",
"ssssssssssssssssssssssssssssssssssssssssssssssssssssssss$$$<<<111111<<<$$$ssssssssssssssssssssssssssssssssssssssssssssssssssssss",
"ssssssssssssssssssssssssssssssssssssssssssssssssssssssss$$<112333333211<$$ssssssssssssssssssssssssssssssssssssssssssssssssssssss",
"sssssssssssssssssssssssssssssssssssssssssssssssssssssss$#  oO=--oo--=O   #$sssssssssssssssssssssssssssssssssssssssssssssssssssss",
"ssssssssssssssssssssssssssssssssssssssssssssssssssssss$@  o+&ap+oo+pa&+o  @$ssssssssssssssssssssssssssssssssssssssssssssssssssss",
"ssssssssssssssssssssssssssssssssssssssssssssssssssssss    +55**4e7>;*55+    ssssssssssssssssssssssssssssssssssssssssssssssssssss",
"ssssssssssssssssssssssssssssssssssssssssssssssssssssss    *0thu4r7>uht0;    ssssssssssssssssssssssssssssssssssssssssssssssssssss",
"ssssssssssssssssssssssssssssssssssssssssssssssssssssss    %qtuw,,45eutq%    ssssssssssssssssssssssssssssssssssssssssssssssssssss",
"sssssssssssssssssssssssssssssssssssssssssssssssssssssss    :etw,,@&ete4    sssssssssssssssssssssssssssssssssssssssssssssssssssss",
"sssssssssssssssssssssssssssssssssssssssssssssssssssssssss  :76fzzf@575&  sssssssssssssssssssssssssssssssssssssssssssssssssssssss",
"sssssssssssssssssssssssssssssssssssssssssssssssssssssss7qw  :<f  f$7>:  qrrsssssssssssssssssssssssssssssssssssssssssssssssssssss",
"sssssssssssssssssssssssssssssssssssssssssssssssssssrrr77qw  &<1  1<:>&  qqqqrwrsssssssssssssssssssssssssssssssssssssssssssssssss",
"sssssssssssssssssssssssssssssssssssssssssssssssssswrqwe88q;  #<$$<#&&  %q8886qtwssssssssssssssssssssssssssssssssssssssssssssssss",
"sssssssssssssssssssssssssssssssssssssssssssssssswr877*5>>7q  ##@@##e7  87>85*7ttr7ssssssssssssssssssssssssssssssssssssssssssssss",
"ssssssssssssssssssssssssssssssssssssssssssssssswqqe7&oo:*477   ##  8e7 :**8oo&7qqq7sssssssssssssssssssssssssssssssssssssssssssss",
"sssssssssssssssssssssssssssssssssssssssssssss;>60reyyyyrr84444 #%>rkktw%5qryyurur9>:;sssssssssssssssssssssssssssssssssssssssssss",
"sssssssssssssssssssssssssssssssssssssssssssss;>6rwqqwyrw8499hyt5qikww7whq4qrrwq79w7;:sssssssssssssssssssssssssssssssssssssssssss",
"ssssssssssssssssssssssssssssssssssssssssssss*&*>77680er847eeye5&tiyikturr640008755:;%*ssssssssssssssssssssssssssssssssssssssssss",
"ssssssssssssssssssssssssssssssssssssssssssss*&*>:>4567r;6qeehtw5&&09w7wur6;97654>::&&*ssssssssssssssssssssssssssssssssssssssssss",
"ssssssssssssssssssssssssssssssssssssssssssss*&*;:>4567q;4699he6&9iyykturr4;77654>:;&&*ssssssssssssssssssssssssssssssssssssssssss",
"ssssssssssssssssssssssssssssssssssssssssssss***;:>>>>47&&566rhq&&&89w7ww7;*44>>>>:;%%*ssssssssssssssssssssssssssssssssssssssssss",
"sssssssssssssssssssssssssssssssssssssssssssss+;;;;;;;;4&+;77re0:*7wijrw04+&4;;;;;;;%+sssssssssssssssssssssssssssssssssssssssssss",
"ssssssssssssssssssssssssssssssssssssssssssssss+&&&&&&&&4&+;;5q0:*&49q90:&&4>444>>;&+ssssssssssssssssssssssssssssssssssssssssssss",
"sssssssssssssssssssssssssssssssssssssssssssssss+++ooooooo+&&&;;%%%%%**&&%ooooooo+++sssssssssssssssssssssssssssssssssssssssssssss",
"sssssssssssssssssssssssssssssssssssssssssssssssss4%&&+;;+&>>59978&q7>9>:;o*%+oo+ssssssssssssssssssssssssssssssssssssssssssssssss",
"sssssssssssssssssssssssssssssssssssssssssssssssss4;57;::*:>>9qq+7;q9>8>00&74>oosssssssssssssssssssssssssssssssssssssssssssssssss",
"sssssssssssssssssssssssssssssssssssssssssssssssss>>87>05>6:>9qq75>q9:6>87>74;o+sssssssssssssssssssssssssssssssssssssssssssssssss",
"sssssssssssssssssssssssssssssssssssssssssssssssss>>95>8>>4:>89974>q9:4;>6*4;+o+sssssssssssssssssssssssssssssssssssssssssssssssss",
"ssssssssssssssssssssssssssssssssssssssssssssssssss>05>>>>>:>5::+:;q9:>*>>*;*o+ssssssssssssssssssssssssssssssssssssssssssssssssss",
"ssssssssssssssssssssssssssssssssssssssssssssssssss>wq8555*:*4;;*:&95;***;;;+;ossssssssssssssssssssssssssssssssssssssssssssssssss",
"ssssssssssssssssssssssssssssssssssssssssssssssssss>8wq854;*%*444&*55:;>>*:>o;ossssssssssssssssssssssssssssssssssssssssssssssssss",
"sssssssssssssssssssssssssssssssssssssssssssssssssss:6wq98>;*%%%ooo;5>;;>%:>oo+ssssssssssssssssssssssssssssssssssssssssssssssssss",
"sssssssssssssssssssssssssssssssssssssssssssssssssss*:565>*+****+++>>>**%%%oo+sssssssssssssssssssssssssssssssssssssssssssssssssss",
"sssssssssssssssssssssssssssssssssssssssssssssssssss           ffff           sssssssssssssssssssssssssssssssssssssssssssssssssss",
"sssssssssssssssssssssssssssssssssssssssssssssssssss           lgf2           sssssssssssssssssssssssssssssssssssssssssssssssssss",
"sssssssssssssssssssssssssssssssssssssssssssssssssss           gff1           sssssssssssssssssssssssssssssssssssssssssssssssssss",
"sssssssssssssssssssssssssssssssssssssssssssssssssssw05>>47776>>**>>9q008:44+osssssssssssssssssssssssssssssssssssssssssssssssssss",
"ssssssssssssssssssssssssssssssssssssssssssssssssssww05>5999986>*%>>90086:;4+oossssssssssssssssssssssssssssssssssssssssssssssssss",
"ssssssssssssssssssssssssssssssssssssssssssssssssswtyyyytq0qq06>*%>599978:::;++ssssssssssssssssssssssssssssssssssssssssssssssssss",
"ssssssssssssssssssssssssssssssssssssssssssssssssswyyyyyrq0qq06>*%>5999784>5;&++sssssssssssssssssssssssssssssssssssssssssssssssss",
"sssssssssssssssssssssssssssssssssssssssssssssssswtyyyytq0qqq06>*%>599978656;&++sssssssssssssssssssssssssssssssssssssssssssssssss",
"sssssssssssssssssssssssssssssssssssssssssssssssswtyyyytq0qqq06>%%>599998657;&++ossssssssssssssssssssssssssssssssssssssssssssssss",
"ssssssssssssssssssssssssssssssssssssssssssssssswtyyyyyrq0qqq06*+o*599998867:&++ossssssssssssssssssssssssssssssssssssssssssssssss",
"ssssssssssssssssssssssssssssssssssssssssssssssswtyyyytq0qqqq8>+oo%609998865:&++ossssssssssssssssssssssssssssssssssssssssssssssss",
"ssssssssssssssssssssssssssssssssssssssssssssssswtyyyyrq0qqq8>*oo%%%60098886:&++oosssssssssssssssssssssssssssssssssssssssssssssss",
"ssssssssssssssssssssssssssssssssssssssssssssssswtyyyyq0qqq8>;oo%%%%%60009765>*;%osssssssssssssssssssssssssssssssssssssssssssssss",
"sssssssssssssssssssssssssssssssssssssssssssssss6655>>>>>>>>;oo%%&%%%%%%%%%%%%%%oosssssssssssssssssssssssssssssssssssssssssssssss",
"sssssssssssssssssssssssssssssssssssssssssssssssqqqqqq8854:;%o%%&*%%;>58800ww4:&%osssssssssssssssssssssssssssssssssssssssssssssss",
"sssssssssssssssssssssssssssssssssssssssssssssss00qqtyw8995:;%%+o++*;:9wrrthu7:%+osssssssssssssssssssssssssssssssssssssssssssssss",
"ssssssssssssssssssssssssssssssssssssssssssssss0000ryuw80q8>;%%oss%*;79wrtuhu4*+++sssssssssssssssssssssssssssssssssssssssssssssss",
"ssssssssssssssssssssssssssssssssssssssssssssss999qyuuw80q84;%oosss*;79qrtuhh4%+oo%ssssssssssssssssssssssssssssssssssssssssssssss",
"ssssssssssssssssssssssssssssssssssssssssssssss99qtuiuw80q84;%oosss&;69qrtihh4%ooo%ssssssssssssssssssssssssssssssssssssssssssssss",
"sssssssssssssssssssssssssssssssssssssssssssss99qruiiu889084;%osssss*5699tihh66*oo%ssssssssssssssssssssssssssssssssssssssssssssss",
"sssssssssssssssssssssssssssssssssssssssssssss9qwtiiir78798>*%osssss***59tihh866*o&:sssssssssssssssssssssssssssssssssssssssssssss",
"sssssssssssssssssssssssssssssssssssssssssssss8wryiir955776>*osssssss*>8wtuihw886:;:sssssssssssssssssssssssssssssssssssssssssssss",
"sssssssssssssssssssssssssssssssssssssssssssss0ryihuw5:>575;%osssssss>8wqquihh88884:sssssssssssssssssssssssssssssssssssssssssssss",
"ssssssssssssssssssssssssssssssssssssssssssss80ruihu8*:>>4:%%osssssss8qq0quihh066884sssssssssssssssssssssssssssssssssssssssssssss",
"ssssssssssssssssssssssssssssssssssssssssssss0wruihu5*;:>;&++ssssssss699>ruihhe54688*ssssssssssssssssssssssssssssssssssssssssssss",
"ssssssssssssssssssssssssssssssssssssssssssss0wruihi5**5*&&+%ssssssss:5>>ruuihe54448*ssssssssssssssssssssssssssssssssssssssssssss",
"sssssssssssssssssssssssssssssssssssssssssss78wruihi;;>5*+++%ssssssss:;*8rtuiht*>:>5*ssssssssssssssssssssssssssssssssssssssssssss",
"sssssssssssssssssssssssssssssssssssssssssss77wruihe*;47*+++%ssssssss&%>ertyiyt**;::+ssssssssssssssssssssssssssssssssssssssssssss",
"sssssssssssssssssssssssssssssssssssssssssss77qrtui7*:>47*%+ssssssssss589eerrye4%***+ssssssssssssssssssssssssssssssssssssssssssss",
"ssssssssssssssssssssssssssssssssssssssssss>4>9wttt4;>444:*%ssssssssss4680e0wye6o%%%ossssssssssssssssssssssssssssssssssssssssssss",
"ssssssssssssssssssssssssssssssssssssssssss>:>59008**>44:;*sssssssssss:>68668qq5ooo%%ssssssssssssssssssssssssssssssssssssssssssss",
"ssssssssssssssssssssssssssssssssssssssssss*;:>4687**;;***%ssssssssssss::4444464&%&**ssssssssssssssssssssssssssssssssssssssssssss",
"ssssssssssssssssssssssssssssssssssssssssss&&*:>>>>*;*%+%*%ssssssssssss&&&&::57q7:@@sssssssssssssssssssssssssssssssssssssssssssss",
"sssssssssssssssssssssssssssssssssssssssssss@++&>75%&&+o%%ssssssssssssss@@#$@@     @sssssssssssssssssssssssssssssssssssssssssssss",
"sssssssssssssssssssssssssssssssssssssssssss@@@@@@@@@@@@osssssssssssssss@##$$@     @sssssssssssssssssssssssssssssssssssssssssssss",
"sssssssssssssssssssssssssssssssssssssssssss$$$@....@$#@ssssssssssssssss@##$,@     @sssssssssssssssssssssssssssssssssssssssssssss",
"sssssssssssssssssssssssssssssssssssssssssss<,$@....@,#@sssssssssssssssss@#$$@     @sssssssssssssssssssssssssssssssssssssssssssss",
"sssssssssssssssssssssssssssssssssssssssssss<,$@....@,##sssssssssssssssss@#$#@    @@sssssssssssssssssssssssssssssssssssssssssssss",
"sssssssssssssssssssssssssssssssssssssssssss,,$@... @$#ssssssssssssssssss@##$$    @ssssssssssssssssssssssssssssssssssssssssssssss",
"sssssssssssssssssssssssssssssssssssssssssss$$$@....@##sssssssssssssssssss@#$,     ssssssssssssssssssssssssssssssssssssssssssssss",
"ssssssssssssssssssssssssssssssssssssssssssss$$@....@@#sssssssssssssssssss@#$$@     sssssssssssssssssssssssssssssssssssssssssssss",
"sssssssssssssssssssssssssssssssssssssssssssss,#X...@#sssssssssssssssssssss@#$@     @ssssssssssssssssssssssssssssssssssssssssssss",
"ssssssssssssssssssssssssssssssssssssssssssss,$@....@#sssssssssssssssssssss@#,#@@@   ssssssssssssssssssssssssssssssssssssssssssss",
"ssssssssssssssssssssssssssssssssssssssssssss@$@@..@@#ssssssssssssssssssssss@,2<@    ssssssssssssssssssssssssssssssssssssssssssss",
"sssssssssssssssssssssssssssssssssssssssssss@$#@...@$##ssssssssssssssssssss@$,,@     @sssssssssssssssssssssssssssssssssssssssssss",
"ssssssssssssssssssssssssssssssssssssssssss$#$@....@#@#ssssssssssssssssssss$<<,@@X    @ssssssssssssssssssssssssssssssssssssssssss",
"sssssssssssssssssssssssssssssssssssssssss@@$@.....#..#ssssssssssssssssssss$<$<2,$@@ @@@sssssssssssssssssssssssssssssssssssssssss",
"ssssssssssssssssssssssssssssssssssssssss@@#@@X.......#ssssssssssssssssssss@# ,1<#@    @ ssssssssssssssssssssssssssssssssssssssss",
"ssssssssssssssssssssssssssssssssssssssss@...X@@@....ssssssssssssssssssssss@  @,1d1<$  @ ssssssssssssssssssssssssssssssssssssssss",
"ssssssssssssssssssssssssssssssssssssssss@..........sssssssssssssssssssssssss  @$<$$@@@@ ssssssssssssssssssssssssssssssssssssssss",
"sssssssssssssssssssssssssssssssssssssssss.........sssssssssssssssssssssssssss @$<@@@@@@ ssssssssssssssssssssssssssssssssssssssss"
};
