/* XPM */
static char *b5ed106421864d62c1cf213c9f90f942[] = {
/* columns rows colors chars-per-pixel */
"128 128 47 1 ",
"  c #000011",
". c #010011",
"X c gray12",
"o c #2B230F",
"O c #373701",
"+ c #3B2F17",
"@ c #232323",
"# c #2F2F2F",
"$ c gray23",
"% c #43331B",
"& c #4B3B1B",
"* c #573F1F",
"= c #434301",
"- c #4F4F01",
"; c #6B6B01",
": c #5F4323",
"> c #6F4B27",
", c #774F2B",
"< c #4B4B4B",
"1 c gray34",
"2 c #5B5B5B",
"3 c #676767",
"4 c gray45",
"5 c gray50",
"6 c #83532F",
"7 c #8B5B33",
"8 c #935F37",
"9 c #9F633B",
"0 c #A3673F",
"q c #AB6B43",
"w c #B77347",
"e c #BF7B4B",
"r c #CB7F4F",
"t c #D38353",
"y c #DF8B57",
"u c #EB8F5B",
"i c #F3975F",
"p c #FF9F63",
"a c #FFA773",
"s c blue",
"d c #007FCF",
"f c None",
"g c #9B9B9B",
"h c #B7B7B7",
"j c #FFB383",
"k c #FFBB93",
"l c LightGray",
/* pixels */
"ffffffffffffffffffffffffffffffffffffffffffffffffffffffffffffffffffffffffffffffffffffffffffffffffffffffffffffffffffffffffffffffff",
"ffffffffffffffffffffffffffffffffffffffffffffffffffffffffffffffffffffffffffffffffffffffffffffffffffffffffffffffffffffffffffffffff",
"ffffffffffffffffffffffffffffffffffffffffffffffffffffffffffffffffffffffffffffffffffffffffffffffffffffffffffffffffffffffffffffffff",
"ffffffffffffffffffffffffffffffffffffffffffffffffffffffffffffffffffffffffffffffffffffffffffffffffffffffffffffffffffffffffffffffff",
"ffffffffffffffffffffffffffffffffffffffffffffffffffffffffffffffffffffffffffffffffffffffffffffffffffffffffffffffffffffffffffffffff",
"ffffffffffffffffffffffffffffffffffffffffffffffffffffffffffffffffffffffffffffffffffffffffffffffffffffffffffffffffffffffffffffffff",
"ffffffffffffffffffffffffffffffffffffffffffffffffffffffffffffffffffffffffffffffffffffffffffffffffffffffffffffffffffffffffffffffff",
"ffffffffffffffffffffffffffffffffffffffffffffffffffffffffffffffffffffffffffffffffffffffffffffffffffffffffffffffffffffffffffffffff",
"ffffffffffffffffffffffffffffffffffffffffffffffffffffffffffffffffffffffffffffffffffffffffffffffffffffffffffffffffffffffffffffffff",
"ffffffffffffffffffffffffffffffffffffffffffffffffffffffffffffffffffffffffffffffffffffffffffffffffffffffffffffffffffffffffffffffff",
"ffffffffffffffffffffffffffffffffffffffffffffffffffffffffffffffffffffffffffffffffffffffffffffffffffffffffffffffffffffffffffffffff",
"ffffffffffffffffffffffffffffffffffffffffffffffffffffffffffffffffffffffffffffffffffffffffffffffffffffffffffffffffffffffffffffffff",
"ffffffffffffffffffffffffffffffffffffffffffffffffffffffffffffffffffffffffffffffffffffffffffffffffffffffffffffffffffffffffffffffff",
"ffffffffffffffffffffffffffffffffffffffffffffffffffffffffffffffffffffffffffffffffffffffffffffffffffffffffffffffffffffffffffffffff",
"ffffffffffffffffffffffffffffffffffffffffffffffffffffffffffffffffffffffffffffffffffffffffffffffffffffffffffffffffffffffffffffffff",
"ffffffffffffffffffffffffffffffffffffffffffffffffffffffffffffffffffffffffffffffffffffffffffffffffffffffffffffffffffffffffffffffff",
"ffffffffffffffffffffffffffffffffffffffffffffffffffffffffffffffffffffffffffffffffffffffffffffffffffffffffffffffffffffffffffffffff",
"ffffffffffffffffffffffffffffffffffffffffffffffffffffffffffffffffffffffffffffffffffffffffffffffffffffffffffffffffffffffffffffffff",
"ffffffffffffffffffffffffffffffffffffffffffffffffffffffffffffffffffffffffffffffffffffffffffffffffffffffffffffffffffffffffffffffff",
"ffffffffffffffffffffffffffffffffffffffffffffffffffffffffffffffffffffffffffffffffffffffffffffffffffffffffffffffffffffffffffffffff",
"ffffffffffffffffffffffffffffffffffffffffffffffffffffffffffffffffffffffffffffffffffffffffffffffffffffffffffffffffffffffffffffffff",
"ffffffffffffffffffffffffffffffffffffffffffffffffffffffffffffffffffffffffffffffffffffffffffffffffffffffffffffffffffffffffffffffff",
"ffffffffffffffffffffffffffffffffffffffffffffffffffffffffffffffffffffffffffffffffffffffffffffffffffffffffffffffffffffffffffffffff",
"ffffffffffffffffffffffffffffffffffffffffffffffffffffffffffffffffffffffffffffffffffffffffffffffffffffffffffffffffffffffffffffffff",
"ffffffffffffffffffffffffffffffffffffffffffffffffffffffffffffffffffffffffffffffffffffffffffffffffffffffffffffffffffffffffffffffff",
"ffffffffffffffffffffffffffffffffffffffffffffffffffffffffffffffffffffffffffffffffffffffffffffffffffffffffffffffffffffffffffffffff",
"ffffffffffffffffffffffffffffffffffffffffffffffffffffffffffffffffffffffffffffffffffffffffffffffffffffffffffffffffffffffffffffffff",
"ffffffffffffffffffffffffffffffffffffffffffffffffffffffffffffffffffffffffffffffffffffffffffffffffffffffffffffffffffffffffffffffff",
"ffffffffffffffffffffffffffffffffffffffffffffffffffffffffffffffffffffffffffffffffffffffffffffffffffffffffffffffffffffffffffffffff",
"ffffffffffffffffffffffffffffffffffffffffffffffffffffffffffffffffffffffffffffffffffffffffffffffffffffffffffffffffffffffffffffffff",
"ffffffffffffffffffffffffffffffffffffffffffffffffffffffffffffffffffffffffffffffffffffffffffffffffffffffffffffffffffffffffffffffff",
"ffffffffffffffffffffffffffffffffffffffffffffffffffffffffffffffffffffffffffffffffffffffffffffffffffffffffffffffffffffffffffffffff",
"fffffffffffffffffffffffffffffffffffffffffffffffffffffffffff$$$$$$$$fffffffffffffffffffffffffffffffffffffffffffffffffffffffffffff",
"fffffffffffffffffffffffffffffffffffffffffffffffffffffffff$$<<$@@$<<$$fffffffffffffffffffffffffffffffffffffffffffffffffffffffffff",
"ffffffffffffffffffffffffffffffffffffffffffffffffffffffff$$<$#@@@@#$<$$ffffffffffffffffffffffffffffffffffffffffffffffffffffffffff",
"fffffffffffffffffffffffffffffffffffffffffffffffffffffff$$<$#@@@@@@#$<$$fffffffffffffffffffffffffffffffffffffffffffffffffffffffff",
"fffffffffffffffffffffffffffffffffffffffffffffffffffffff$$<$#@@@@@@#$<$$fffffffffffffffffffffffffffffffffffffffffffffffffffffffff",
"fffffffffffffffffffffffffffffffffffffffffffffffffffffff1<1$#@@@@@@#$1<1fffffffffffffffffffffffffffffffffffffffffffffffffffffffff",
"fffffffffffffffffffffffffffffffffffffffffffffffffffffff$<1$#$<<<<$#$1<$fffffffffffffffffffffffffffffffffffffffffffffffffffffffff",
"fffffffffffffffffffffffffffffffffffffffffffffffffffffff$<111333333112<$fffffffffffffffffffffffffffffffffffffffffffffffffffffffff",
"ffffffffffffffffffffffffffffffffffffffffffffffffffffff$<13345q55554331<$ffffffffffffffffffffffffffffffffffffffffffffffffffffffff",
"ffffffffffffffffffffffffffffffffffffffffffffffffffffff<1$            $1<ffffffffffffffffffffffffffffffffffffffffffffffffffffffff",
"ffffffffffffffffffffffffffffffffffffffffffffffffffffff2$O=++$#++++++=O$1ffffffffffffffffffffffffffffffffffffffffffffffffffffffff",
"fffffffffffffffffffffffffffffffffffffffffffffffffffff$# =-O-;;::;;-O-= #$fffffffffffffffffffffffffffffffffffffffffffffffffffffff",
"ffffffffffffffffffffffffffffffffffffffffffffffffffff$@  7;&ds+77+sd&;7  @$ffffffffffffffffffffffffffffffffffffffffffffffffffffff",
"ffffffffffffffffffffffffffffffffffffffffffffffffffff    t9996iaat,900t    ffffffffffffffffffffffffffffffffffffffffffffffffffffff",
"ffffffffffffffffffffffffffffffffffffffffffffffffffff    7epkkekkekkue7    ffffffffffffffffffffffffffffffffffffffffffffffffffffff",
"fffffffffffffffffffffffffffffffffffffffffffffffffffff    9uay7**7yau0    fffffffffffffffffffffffffffffffffffffffffffffffffffffff",
"fffffffffffffffffffffffffffffffffffffffffffffffffffffff  8taipttpiat7  fffffffffffffffffffffffffffffffffffffffffffffffffffffffff",
"fffffffffffffffffffffffffffffffffffffffffffffffffffffffff,tae*77*eat,fffffffffffffffffffffffffffffffffffffffffffffffffffffffffff",
"fffffffffffffffffffffffffffffffffffffffffffffffffffffffff:raapkkpaae>fffffffffffffffffffffffffffffffffffffffffffffffffffffffffff",
"ffffffffffffffffffffffffffffffffffffffffffffffffffffffff +quay00yauq+ ffffffffffffffffffffffffffffffffffffffffffffffffffffffffff",
"ffffffffffffffffffffffffffffffffffffffffffffffffffffffff  +0ijjjji0+  ffffffffffffffffffffffffffffffffffffffffffffffffffffffffff",
"ffffffffffffffffffffffffffffffffffffffffffffffffffffff00   +,,,,,,+   007fffffffffffffffffffffffffffffffffffffffffffffffffffffff",
"ffffffffffffffffffffffffffffffffffffffffffffffffffff0yr0    o*88:o    >wwqqfffffffffffffffffffffffffffffffffffffffffffffffffffff",
"fffffffffffffffffffffffffffffffffffffffffffffffff8yiiyr9+  2$    $2  +>tytwqqfffffffffffffffffffffffffffffffffffffffffffffffffff",
"fffffffffffffffffffffffffffffffffffffffffffffffryyppppye9& $2 %& 2$ =>qyuuutqqqfffffffffffffffffffffffffffffffffffffffffffffffff",
"ffffffffffffffffffffffffffffffffffffffffffffffypppppppppt9>& &88& &>0etuiiuuywq77fffffffffffffffffffffffffffffffffffffffffffffff",
"fffffffffffffffffffffffffffffffffffffffffffffyppppiiiipuyr0>>8008rrruuiitiiuyrewq7,fffffffffffffffffffffffffffffffffffffffffffff",
"ffffffffffffffffffffffffffffffffffffffffffffypppiruyuupyyyree9y>rpiiiipptuuyyteew7,fffffffffffffffffffffffffffffffffffffffffffff",
"ffffffffffffffffffffffffffffffffffffffffffffpiiiuryyeyityrtyyrueepupppppwtttrwwewq,fffffffffffffffffffffffffffffffffffffffffffff",
"fffffffffffffffffffffffffffffffffffffffffffqpuuuuqywtyityttyyrueeyyyytupetttw90etw,fffffffffffffffffffffffffffffffffffffffffffff",
"fffffffffffffffffffffffffffffffffffffffffffqpierr800wwwyytrwtwt>tttwttyywww9970wtw76ffffffffffffffffffffffffffffffffffffffffffff",
"fffffffffffffffffffffffffffffffffffffffffffrppiqq8670eyiiit7w9teetw7tiiiyeq,7>90wq76ffffffffffffffffffffffffffffffffffffffffffff",
"ffffffffffffffffffffffffffffffffffffffffffftppuu76:79w>tttt7w8teet07tttt>wq,7:>8q8,6ffffffffffffffffffffffffffffffffffffffffffff",
"fffffffffffffffffffffffffffffffffffffffffffrptrrt,:6:,&&&&,:qqw>et9:,%&&&,::>%+886:,ffffffffffffffffffffffffffffffffffffffffffff",
"ffffffffffffffffffffffffffffffffffffffffffrppt96,6+:66,qw,q,q9w99e9,q,wq,666:oo:>:,6ffffffffffffffffffffffffffffffffffffffffffff",
"ffffffffffffffffffffffffffffffffffffffffffrppur8>&:o69,w9,0,q0q90e8,q,9w,96:&o&+:>>6ffffffffffffffffffffffffffffffffffffffffffff",
"ffffffffffffffffffffffffffffffffffffffffffppppy8>%>o:9,w7,8>q9e+9e8>8,7w,9:&o+++:,66,fffffffffffffffffffffffffffffffffffffffffff",
"fffffffffffffffffffffffffffffffffffffffffrrrrwq*:+:o:,:8,:,>9qe9707>6:,8:6:ooo+:&:>67fffffffffffffffffffffffffffffffffffffffffff",
"fffffffffffffffffffffffffffffffffffffffffeupuee*+*+oo:*8,*,,q9q9,77>,*,8*:ooooo*++&>6fffffffffffffffffffffffffffffffffffffffffff",
"ffffffffffffffffffffffffffffffffffffffff9wuury8*++oooo+***:>,9>+,,8>****+oo+oo*++:>>>fffffffffffffffffffffffffffffffffffffffffff",
"ffffffffffffffffffffffffffffffffffffffff9eueye*%&oooo&:,,6:%*6:*>&&86>:*&&%oo%+:7qrq8>>fffffffffffffffffffffffffffffffffffffffff",
"ffffffffffffffffffffffffffffffffffffffff9eueq6&oooooooo*>6:o%*6*&o+&6:*&%+oo%%:7qrurq8>fffffffffffffffffffffffffffffffffffffffff",
"ffffffffffffffffffffffffffffffffffffffff9euay6::+ofo    o+%%o%%ooooooo     oo%+6ruur787fffffffffffffffffffffffffffffffffffffffff",
"ffffffffffffffffffffffffffffffffffffffff9eeupy6:&+of          gggg         ooo%679q,978fffffffffffffffffffffffffffffffffffffffff",
"ffffffffffffffffffffffffffffffffffffffff9eeuppy::&&f          lhg4         ooo+:tuakpq8fffffffffffffffffffffffffffffffffffffffff",
"fffffffffffffffffffffffffffffffffffffffffeet966*+::f&%+o      hgg3      o+:%oootkkkkap7fffffffffffffffffffffffffffffffffffffffff",
"fffffffffffffffffffffffffffffffffffffffffee96pku6+:%%&&&&&&&&&%oo&>::&:>68,%+ooaktkikj9fffffffffffffffffffffffffffffffffffffffff",
"fffffffffffffffffffffffffffffffffffffffff9e6kkkkt>:&&&&*:>>>>>&oo>>::**>>>>>%ooatktipp9fffffffffffffffffffffffffffffffffffffffff",
"ffffffffffffffffffffffffffffffffffffffffffepkyykk6:,>>,,698888&oo6q98qqqq97,*:oyttkeeu,fffffffffffffffffffffffffffffffffffffffff",
"ffffffffffffffffffffffffffffffffffffffffff9kkyy7y6:,>>>,,68qqq&oo6eyyyytrrw7,:%oqtt90,ffffffffffffffffffffffffffffffffffffffffff",
"fffffffffffffffffffffffffffffffffffffffffffaaaayue6,>>>>>,,60q&oo7eyuuuuttw97:ffff007fffffffffffffffffffffffffffffffffffffffffff",
"fffffffffffffffffffffffffffffffffffffffffffaaatqqqq,,,,>>>,,,7&oo6eyiiupuyrw7:ffffffffffffffffffffffffffffffffffffffffffffffffff",
"ffffffffffffffffffffffffffffffffffffffffffffytqqqq7776,,>>>>,>&oo>eyiiiiputw7:ffffffffffffffffffffffffffffffffffffffffffffffffff",
"fffffffffffffffffffffffffffffffffffffffffffffytqq777776,,>>>>:&oo&9rttttttyw7:ffffffffffffffffffffffffffffffffffffffffffffffffff",
"fffffffffffffffffffffffffffffffffffffffffffffffff999997,,>>>::+o+++++&,,,,889:ffffffffffffffffffffffffffffffffffffffffffffffffff",
"fffffffffffffffffffffffffffffffffffffffffffffffff99999976,::&&+o+:,9eter9q,+::ffffffffffffffffffffffffffffffffffffffffffffffffff",
"fffffffffffffffffffffffffffffffffffffffffffffffff:&::**&&&&&*+oo*,etyyyeww0,+:ffffffffffffffffffffffffffffffffffffffffffffffffff",
"ffffffffffffffffffffffffffffffffffffffffffffffffff77777776::*%oo*9etuiiewwwq,fffffffffffffffffffffffffffffffffffffffffffffffffff",
"ffffffffffffffffffffffffffffffffffffffffffffffffff88888996>>::+o,qtyiipewwww8fffffffffffffffffffffffffffffffffffffffffffffffffff",
"ffffffffffffffffffffffffffffffffffffffffffffffffff898889e6>>::%+,etpipprwrr97fffffffffffffffffffffffffffffffffffffffffffffffffff",
"ffffffffffffffffffffffffffffffffffffffffffffffffff8qwwwwt6,,::*&9rrppppteeer7fffffffffffffffffffffffffffffffffffffffffffffffffff",
"ffffffffffffffffffffffffffffffffffffffffffffffffff89wrrry6,,::*>reyippaurrrrwfffffffffffffffffffffffffffffffffffffffffffffffffff",
"ffffffffffffffffffffffffffffffffffffffffffffffffff89errry6,,::*99tppppauyttrqfffffffffffffffffffffffffffffffffffffffffffffffffff",
"ffffffffffffffffffffffffffffffffffffffffffffffffff8qerrry6,,::*>wyipppauuytr7fffffffffffffffffffffffffffffffffffffffffffffffffff",
"fffffffffffffffffffffffffffffffffffffffffffffffffff9eytru,,,>**>eyppaaapiuyt9fffffffffffffffffffffffffffffffffffffffffffffffffff",
"fffffffffffffffffffffffffffffffffffffffffffffffffffqeyrrt6,,::*7rypppaappiyur7ffffffffffffffffffffffffffffffffffffffffffffffffff",
"fffffffffffffffffffffffffffffffffffffffffffffffffff9ryyrr,,,::*qrupppaappiyureffffffffffffffffffffffffffffffffffffffffffffffffff",
"fffffffffffffffffffffffffffffffffffffffffffffffffffqtyyw86,,::>erypaaaappiyureffffffffffffffffffffffffffffffffffffffffffffffffff",
"fffffffffffffffffffffffffffffffffffffffffffffffffff9uyee86,,:*>rrryiaaappiutr9ffffffffffffffffffffffffffffffffffffffffffffffffff",
"ffffffffffffffffffffffffffffffffffffffffffffffffff8qtuuw8,,,:%>9trryupaapureq6ffffffffffffffffffffffffffffffffffffffffffffffffff",
"ffffffffffffffffffffffffffffffffffffffffffffffffff,tteeuq,,::%*7teqwweeeeee97*ffffffffffffffffffffffffffffffffffffffffffffffffff",
"fffffffffffffffffffffffffffffffffffffffffffffffffff9teeee6,:*%+&9e979qwwwwq7>*ffffffffffffffffffffffffffffffffffffffffffffffffff",
"fffffffffffffffffffffffffffffffffffffffffffffffffff,9wwww*::*%+o,9>678q9q8,,&%ffffffffffffffffffffffffffffffffffffffffffffffffff",
"ffffffffffffffffffffffffffffffffffffffffffffffffff6qwwqw,>:>*%+o&,:::::&&&&%++ffffffffffffffffffffffffffffffffffffffffffffffffff",
"ffffffffffffffffffffffffffffffffffffffffffffffffff6q9,,>::>6&&&+o&++&*&+oooo+%ffffffffffffffffffffffffffffffffffffffffffffffffff",
"fffffffffffffffffffffffffffffffffffffffffffffffffff&&*>>:67%+&+o o+++&:oXXXo%fffffffffffffffffffffffffffffffffffffffffffffffffff",
"fffffffffffffffffffffffffffffffffffffffffffffffffff+:&++&&&%++oo  %oo++oXXo+@fffffffffffffffffffffffffffffffffffffffffffffffffff",
"ffffffffffffffffffffffffffffffffffffffffffffffffffff+**:+++oooo    oo++ooo  @fffffffffffffffffffffffffffffffffffffffffffffffffff",
"fffffffffffffffffffffffffffffffffffffffffffffffffffff                      @ffffffffffffffffffffffffffffffffffffffffffffffffffff",
"fffffffffffffffffffffffffffffffffffffffffffffffffffff @           @        @ffffffffffffffffffffffffffffffffffffffffffffffffffff",
"fffffffffffffffffffffffffffffffffffffffffffffffffffff @$                  @fffffffffffffffffffffffffffffffffffffffffffffffffffff",
"ffffffffffffffffffffffffffffffffffffffffffffffffffffff @$    @            @fffffffffffffffffffffffffffffffffffffffffffffffffffff",
"ffffffffffffffffffffffffffffffffffffffffffffffffffffff @         f@        fffffffffffffffffffffffffffffffffffffffffffffffffffff",
"ffffffffffffffffffffffffffffffffffffffffffffffffffffff @#$    @  f @      @ ffffffffffffffffffffffffffffffffffffffffffffffffffff",
"ffffffffffffffffffffffffffffffffffffffffffffffffffffff        @          @@ ffffffffffffffffffffffffffffffffffffffffffffffffffff",
"ffffffffffffffffffffffffffffffffffffffffffffffffffffff @##   @@ f        @# ffffffffffffffffffffffffffffffffffffffffffffffffffff",
"fffffffffffffffffffffffffffffffffffffffffffffffffffffff  #      f    ##@ @#@ffffffffffffffffffffffffffffffffffffffffffffffffffff",
"fffffffffffffffffffffffffffffffffffffffffffffffffffffff @@    @ f  @     @#@ffffffffffffffffffffffffffffffffffffffffffffffffffff",
"fffffffffffffffffffffffffffffffffffffffffffffffffffffff@@  @    f  @     #@ ffffffffffffffffffffffffffffffffffffffffffffffffffff",
"fffffffffffffffffffffffffffffffffffffffffffffffffffffff          f @X   @@ fffffffffffffffffffffffffffffffffffffffffffffffffffff",
"ffffffffffffffffffffffffffffffffffffffffffffffffffffff  @@#$#    ff @@@@@ ffffffffffffffffffffffffffffffffffffffffffffffffffffff",
"ffffffffffffffffffffffffffffffffffffffffffffffffffffff @@##      fff     fffffffffffffffffffffffffffffffffffffffffffffffffffffff",
"ffffffffffffffffffffffffffffffffffffffffffffffffffffff@@@@#$$#    ffffffffffffffffffffffffffffffffffffffffffffffffffffffffffffff",
"ffffffffffffffffffffffffffffffffffffffffffffffffffffff @@@#$$$    ffffffffffffffffffffffffffffffffffffffffffffffffffffffffffffff",
"ffffffffffffffffffffffffffffffffffffffffffffffffffffff            ffffffffffffffffffffffffffffffffffffffffffffffffffffffffffffff",
"ffffffffffffffffffffffffffffffffffffffffffffffffffffff            ffffffffffffffffffffffffffffffffffffffffffffffffffffffffffffff"
};
