/* XPM */
static char *_2c35ce4d6e148d0cdfd74ca9c383b75[] = {
/* columns rows colors chars-per-pixel */
"128 128 47 1 ",
"  c #000011",
". c #010011",
"X c gray12",
"o c #2B230F",
"O c #373701",
"+ c #3B2F17",
"@ c #232323",
"# c #2F2F2F",
"$ c gray23",
"% c #43331B",
"& c #4B3B1B",
"* c #573F1F",
"= c #434301",
"- c #4F4F01",
"; c #6B6B01",
": c #5F4323",
"> c #6F4B27",
", c #774F2B",
"< c #4B4B4B",
"1 c gray34",
"2 c #5B5B5B",
"3 c #676767",
"4 c gray45",
"5 c gray50",
"6 c #83532F",
"7 c #8B5B33",
"8 c #935F37",
"9 c #9F633B",
"0 c #A3673F",
"q c #AB6B43",
"w c #B77347",
"e c #BF7B4B",
"r c #CB7F4F",
"t c #D38353",
"y c #DF8B57",
"u c #EB8F5B",
"i c #F3975F",
"p c #FF9F63",
"a c #FFA773",
"s c blue",
"d c #007FCF",
"f c None",
"g c #9B9B9B",
"h c #B7B7B7",
"j c #FFB383",
"k c #FFBB93",
"l c LightGray",
/* pixels */
"ffffffffffffffffffffffffffffffffffffffffffffffffffffffffffffffffffffffffffffffffffffffffffffffffffffffffffffffffffffffffffffffff",
"ffffffffffffffffffffffffffffffffffffffffffffffffffffffffffffffffffffffffffffffffffffffffffffffffffffffffffffffffffffffffffffffff",
"ffffffffffffffffffffffffffffffffffffffffffffffffffffffffffffffffffffffffffffffffffffffffffffffffffffffffffffffffffffffffffffffff",
"ffffffffffffffffffffffffffffffffffffffffffffffffffffffffffffffffffffffffffffffffffffffffffffffffffffffffffffffffffffffffffffffff",
"ffffffffffffffffffffffffffffffffffffffffffffffffffffffffffffffffffffffffffffffffffffffffffffffffffffffffffffffffffffffffffffffff",
"ffffffffffffffffffffffffffffffffffffffffffffffffffffffffffffffffffffffffffffffffffffffffffffffffffffffffffffffffffffffffffffffff",
"ffffffffffffffffffffffffffffffffffffffffffffffffffffffffffffffffffffffffffffffffffffffffffffffffffffffffffffffffffffffffffffffff",
"ffffffffffffffffffffffffffffffffffffffffffffffffffffffffffffffffffffffffffffffffffffffffffffffffffffffffffffffffffffffffffffffff",
"ffffffffffffffffffffffffffffffffffffffffffffffffffffffffffffffffffffffffffffffffffffffffffffffffffffffffffffffffffffffffffffffff",
"ffffffffffffffffffffffffffffffffffffffffffffffffffffffffffffffffffffffffffffffffffffffffffffffffffffffffffffffffffffffffffffffff",
"ffffffffffffffffffffffffffffffffffffffffffffffffffffffffffffffffffffffffffffffffffffffffffffffffffffffffffffffffffffffffffffffff",
"ffffffffffffffffffffffffffffffffffffffffffffffffffffffffffffffffffffffffffffffffffffffffffffffffffffffffffffffffffffffffffffffff",
"ffffffffffffffffffffffffffffffffffffffffffffffffffffffffffffffffffffffffffffffffffffffffffffffffffffffffffffffffffffffffffffffff",
"ffffffffffffffffffffffffffffffffffffffffffffffffffffffffffffffffffffffffffffffffffffffffffffffffffffffffffffffffffffffffffffffff",
"ffffffffffffffffffffffffffffffffffffffffffffffffffffffffffffffffffffffffffffffffffffffffffffffffffffffffffffffffffffffffffffffff",
"ffffffffffffffffffffffffffffffffffffffffffffffffffffffffffffffffffffffffffffffffffffffffffffffffffffffffffffffffffffffffffffffff",
"ffffffffffffffffffffffffffffffffffffffffffffffffffffffffffffffffffffffffffffffffffffffffffffffffffffffffffffffffffffffffffffffff",
"ffffffffffffffffffffffffffffffffffffffffffffffffffffffffffffffffffffffffffffffffffffffffffffffffffffffffffffffffffffffffffffffff",
"ffffffffffffffffffffffffffffffffffffffffffffffffffffffffffffffffffffffffffffffffffffffffffffffffffffffffffffffffffffffffffffffff",
"ffffffffffffffffffffffffffffffffffffffffffffffffffffffffffffffffffffffffffffffffffffffffffffffffffffffffffffffffffffffffffffffff",
"ffffffffffffffffffffffffffffffffffffffffffffffffffffffffffffffffffffffffffffffffffffffffffffffffffffffffffffffffffffffffffffffff",
"ffffffffffffffffffffffffffffffffffffffffffffffffffffffffffffffffffffffffffffffffffffffffffffffffffffffffffffffffffffffffffffffff",
"ffffffffffffffffffffffffffffffffffffffffffffffffffffffffffffffffffffffffffffffffffffffffffffffffffffffffffffffffffffffffffffffff",
"ffffffffffffffffffffffffffffffffffffffffffffffffffffffffffffffffffffffffffffffffffffffffffffffffffffffffffffffffffffffffffffffff",
"ffffffffffffffffffffffffffffffffffffffffffffffffffffffffffffffffffffffffffffffffffffffffffffffffffffffffffffffffffffffffffffffff",
"ffffffffffffffffffffffffffffffffffffffffffffffffffffffffffffffffffffffffffffffffffffffffffffffffffffffffffffffffffffffffffffffff",
"ffffffffffffffffffffffffffffffffffffffffffffffffffffffffffffffffffffffffffffffffffffffffffffffffffffffffffffffffffffffffffffffff",
"ffffffffffffffffffffffffffffffffffffffffffffffffffffffffffffffffffffffffffffffffffffffffffffffffffffffffffffffffffffffffffffffff",
"ffffffffffffffffffffffffffffffffffffffffffffffffffffffffffffffffffffffffffffffffffffffffffffffffffffffffffffffffffffffffffffffff",
"ffffffffffffffffffffffffffffffffffffffffffffffffffffffffffffffffffffffffffffffffffffffffffffffffffffffffffffffffffffffffffffffff",
"ffffffffffffffffffffffffffffffffffffffffffffffffffffffffffffffffffffffffffffffffffffffffffffffffffffffffffffffffffffffffffffffff",
"ffffffffffffffffffffffffffffffffffffffffffffffffffffffffffffffffffffffffffffffffffffffffffffffffffffffffffffffffffffffffffffffff",
"ffffffffffffffffffffffffffffffffffffffffffffffffffffffffffff$$$$$$$$ffffffffffffffffffffffffffffffffffffffffffffffffffffffffffff",
"ffffffffffffffffffffffffffffffffffffffffffffffffffffffffff$$<<$@@$<<$$ffffffffffffffffffffffffffffffffffffffffffffffffffffffffff",
"fffffffffffffffffffffffffffffffffffffffffffffffffffffffff$$<$#@@@@#$<$$fffffffffffffffffffffffffffffffffffffffffffffffffffffffff",
"ffffffffffffffffffffffffffffffffffffffffffffffffffffffff$$<$#@@@@@@#$<$$ffffffffffffffffffffffffffffffffffffffffffffffffffffffff",
"ffffffffffffffffffffffffffffffffffffffffffffffffffffffff$$<$#@@@@@@#$<$$ffffffffffffffffffffffffffffffffffffffffffffffffffffffff",
"ffffffffffffffffffffffffffffffffffffffffffffffffffffffff1<1$#@@@@@@#$1<1ffffffffffffffffffffffffffffffffffffffffffffffffffffffff",
"ffffffffffffffffffffffffffffffffffffffffffffffffffffffff$<1$#$<<<<$#$1<$ffffffffffffffffffffffffffffffffffffffffffffffffffffffff",
"ffffffffffffffffffffffffffffffffffffffffffffffffffffffff$<111333333111<$ffffffffffffffffffffffffffffffffffffffffffffffffffffffff",
"fffffffffffffffffffffffffffffffffffffffffffffffffffffff$<1335q555554331<$fffffffffffffffffffffffffffffffffffffffffffffffffffffff",
"fffffffffffffffffffffffffffffffffffffffffffffffffffffff<1$            $1<fffffffffffffffffffffffffffffffffffffffffffffffffffffff",
"fffffffffffffffffffffffffffffffffffffffffffffffffffffff1$O=+##+++++++=O$1fffffffffffffffffffffffffffffffffffffffffffffffffffffff",
"ffffffffffffffffffffffffffffffffffffffffffffffffffffff$# =-O-;;:>;;-O-= #$ffffffffffffffffffffffffffffffffffffffffffffffffffffff",
"fffffffffffffffffffffffffffffffffffffffffffffffffffff$@  7;&ds+77+sd&;7  @$fffffffffffffffffffffffffffffffffffffffffffffffffffff",
"fffffffffffffffffffffffffffffffffffffffffffffffffffff    t0986iaar6800r    fffffffffffffffffffffffffffffffffffffffffffffffffffff",
"fffffffffffffffffffffffffffffffffffffffffffffffffffff    7epkkekkekkue7    fffffffffffffffffffffffffffffffffffffffffffffffffffff",
"ffffffffffffffffffffffffffffffffffffffffffffffffffffff    0uay7**7yau0    ffffffffffffffffffffffffffffffffffffffffffffffffffffff",
"ffffffffffffffffffffffffffffffffffffffffffffffffffffffff  8taipttpiat7  ffffffffffffffffffffffffffffffffffffffffffffffffffffffff",
"ffffffffffffffffffffffffffffffffffffffffffffffffffffffffff,tae*77*eat,ffffffffffffffffffffffffffffffffffffffffffffffffffffffffff",
"ffffffffffffffffffffffffffffffffffffffffffffffffffffffffff:raapkkpaar:ffffffffffffffffffffffffffffffffffffffffffffffffffffffffff",
"fffffffffffffffffffffffffffffffffffffffffffffffffffffffff +quay00yauq+ fffffffffffffffffffffffffffffffffffffffffffffffffffffffff",
"fffffffffffffffffffffffffffffffffffffffffffffffffffffffff  +0ijjjji0+  fffffffffffffffffffffffffffffffffffffffffffffffffffffffff",
"ffffffffffffffffffffffffffffffffffffffffffffffffffffff700   +,,,,,6+   00fffffffffffffffffffffffffffffffffffffffffffffffffffffff",
"ffffffffffffffffffffffffffffffffffffffffffffffffffffqqww>    o*88*o    0ry0fffffffffffffffffffffffffffffffffffffffffffffffffffff",
"ffffffffffffffffffffffffffffffffffffffffffffffffffqqwtyt>+  2$    $2  +0ryiiy8ffffffffffffffffffffffffffffffffffffffffffffffffff",
"ffffffffffffffffffffffffffffffffffffffffffffffffqqqruuuyq>& $2 &% 2$ &9eyppppyyrffffffffffffffffffffffffffffffffffffffffffffffff",
"ffffffffffffffffffffffffffffffffffffffffffffff77qwyuuiiute9>& &88& &>9tpppppppppyfffffffffffffffffffffffffffffffffffffffffffffff",
"ffffffffffffffffffffffffffffffffffffffffffff,7qweryuiitiiuurrr8008>>0ryupiiiippppyffffffffffffffffffffffffffffffffffffffffffffff",
"ffffffffffffffffffffffffffffffffffffffffffff,7weetyyuutppiiiiit>y9eeryyypuuyuripppyfffffffffffffffffffffffffffffffffffffffffffff",
"ffffffffffffffffffffffffffffffffffffffffffff,qeewwrrttepppppiieeuryytrytiyeyyruiiipfffffffffffffffffffffffffffffffffffffffffffff",
"ffffffffffffffffffffffffffffffffffffffffffff6wre00wrttepuyyyyyeeuryyttytiytwyquuuupqffffffffffffffffffffffffffffffffffffffffffff",
"fffffffffffffffffffffffffffffffffffffffffff67wrw0700wwwyytrwttt>twtwrtyywww008rreipqffffffffffffffffffffffffffffffffffffffffffff",
"fffffffffffffffffffffffffffffffffffffffffff67qw08,7,0eyiiit7wteet9w7tiiiye0768qqipptffffffffffffffffffffffffffffffffffffffffffff",
"fffffffffffffffffffffffffffffffffffffffffff6,808>*7,0w>tttt70teet8w7tttt>w07:67uupptffffffffffffffffffffffffffffffffffffffffffff",
"fffffffffffffffffffffffffffffffffffffffffff6:688%&>::,&&&&,:9te>w0q:,&&&&,:6:,rrrtptffffffffffffffffffffffffffffffffffffffffffff",
"fffffffffffffffffffffffffffffffffffffffffff6,:>:oo:666,qw,q,9e99w0q,q,wq,66:%6669tpirfffffffffffffffffffffffffffffffffffffffffff",
"fffffffffffffffffffffffffffffffffffffffffff6>>:+&o&:69,w9,0,8e09q0q,0,9w,96o*&>8rupprfffffffffffffffffffffffffffffffffffffffffff",
"ffffffffffffffffffffffffffffffffffffffffff666,:+++o&:9,w7,8>8e9+e0q>8,7w,9:o>%>8ypppifffffffffffffffffffffffffffffffffffffffffff",
"ffffffffffffffffffffffffffffffffffffffffff66>:&*+ooo:6*8,:6>7079e00>6:,8*6:o*%**qwrrrrffffffffffffffffffffffffffffffffffffffffff",
"ffffffffffffffffffffffffffffffffffffffffff6>&++*ooooo:*8,*,>7769q00>,*,8*:oo+*+*eeupueffffffffffffffffffffffffffffffffffffffffff",
"ffffffffffffffffffffffffffffffffffffffffff>>>:++*oo%oo+****>8,>+>9,>****+oooo+%*8yruue9fffffffffffffffffffffffffffffffffffffffff",
"ffffffffffffffffffffffffffffffffffffffff>>8qrq7:+%oo%&&*:>68&&>*:6*%:6,,*&oooo&%*eyeue9fffffffffffffffffffffffffffffffffffffffff",
"ffffffffffffffffffffffffffffffffffffffff>80rurq7*%%oo%%&*:6&+o&*6*%o:6>*oooooooo&6qeue9fffffffffffffffffffffffffffffffffffffffff",
"ffffffffffffffffffffffffffffffffffffffff787ruur6%%oo     ooooooo%%o%%+o    ofo+::6yaue9fffffffffffffffffffffffffffffffffffffffff",
"ffffffffffffffffffffffffffffffffffffffff87060076%ooo         gggg          fo+&:6ypuee9fffffffffffffffffffffffffffffffffffffffff",
"ffffffffffffffffffffffffffffffffffffffff80pkaut*+ooo         4ghl          f&&::yppuee9fffffffffffffffffffffffffffffffffffffffff",
"ffffffffffffffffffffffffffffffffffffffff7pakkkktooo%*+o      3ggh      o+%&f::+*669teeffffffffffffffffffffffffffffffffffffffffff",
"ffffffffffffffffffffffffffffffffffffffff9jkiktkaoo%%,86>:&::>&oo%&&&&&&&&&%%:+6ukp69eeffffffffffffffffffffffffffffffffffffffffff",
"ffffffffffffffffffffffffffffffffffffffff9ppitktaoo%>>>>>**::>>oo&>>>>>:*&&&&:>tkkkk6e9ffffffffffffffffffffffffffffffffffffffffff",
"ffffffffffffffffffffffffffffffffffffffff6yeekttyo:*,79qqqq8006oo&888886,,>>,:6kkyykpefffffffffffffffffffffffffffffffffffffffffff",
"fffffffffffffffffffffffffffffffffffffffff609tt0o&:,8wrrtyyyye6oo&qqq86,,>>>,:6y7yykk9fffffffffffffffffffffffffffffffffffffffffff",
"ffffffffffffffffffffffffffffffffffffffffff600ffff:79wttuuuuye7oo&q966,>>>>>,6euyaaaaffffffffffffffffffffffffffffffffffffffffffff",
"fffffffffffffffffffffffffffffffffffffffffffffffff:7wryuiiiiye6oo&76,,>>>,,,,qqqqtaaaffffffffffffffffffffffffffffffffffffffffffff",
"fffffffffffffffffffffffffffffffffffffffffffffffff:7wtuiiiiiye>oo&>,>>>>,,6777qqqqtyfffffffffffffffffffffffffffffffffffffffffffff",
"fffffffffffffffffffffffffffffffffffffffffffffffff:7wytttttte0&oo&:>>>>,,677777qqtyffffffffffffffffffffffffffffffffffffffffffffff",
"fffffffffffffffffffffffffffffffffffffffffffffffff:888,,,6&+++++o+*:>>>,6799999ffffffffffffffffffffffffffffffffffffffffffffffffff",
"fffffffffffffffffffffffffffffffffffffffffffffffff::+600eete96*+o+&&::,67999999ffffffffffffffffffffffffffffffffffffffffffffffffff",
"fffffffffffffffffffffffffffffffffffffffffffffffff:+60wweyyyte6*oo+*&&&&&***:**ffffffffffffffffffffffffffffffffffffffffffffffffff",
"ffffffffffffffffffffffffffffffffffffffffffffffffff69wwweiiute9*oo%*::67777777fffffffffffffffffffffffffffffffffffffffffffffffffff",
"ffffffffffffffffffffffffffffffffffffffffffffffffff8wwwwepiiytq,o+::>>69988888fffffffffffffffffffffffffffffffffffffffffffffffffff",
"ffffffffffffffffffffffffffffffffffffffffffffffffff70rrwrppiite6+%::>>6e988808fffffffffffffffffffffffffffffffffffffffffffffffffff",
"ffffffffffffffffffffffffffffffffffffffffffffffffff7reeetpppitr9&*::,,6twwww08fffffffffffffffffffffffffffffffffffffffffffffffffff",
"ffffffffffffffffffffffffffffffffffffffffffffffffffwrrrruappiyer>*::,,6yrrrw08fffffffffffffffffffffffffffffffffffffffffffffffffff",
"ffffffffffffffffffffffffffffffffffffffffffffffffff0rttyuapppit99*::,,6yrrre08fffffffffffffffffffffffffffffffffffffffffffffffffff",
"ffffffffffffffffffffffffffffffffffffffffffffffffff7rtyuiapppiyw>*::,,6yrrre08fffffffffffffffffffffffffffffffffffffffffffffffffff",
"ffffffffffffffffffffffffffffffffffffffffffffffffff9tyuipaaappye>*::,,6yrrye0ffffffffffffffffffffffffffffffffffffffffffffffffffff",
"fffffffffffffffffffffffffffffffffffffffffffffffff7ruyippaapppyr8*::,,6trrye0ffffffffffffffffffffffffffffffffffffffffffffffffffff",
"ffffffffffffffffffffffffffffffffffffffffffffffffferuyippaapppur0*::,,6eryyr0ffffffffffffffffffffffffffffffffffffffffffffffffffff",
"ffffffffffffffffffffffffffffffffffffffffffffffffferuyippaaaapyre>::,,68wyyt0ffffffffffffffffffffffffffffffffffffffffffffffffffff",
"fffffffffffffffffffffffffffffffffffffffffffffffff0rtuippaaaiyrrr>*:,,68eeyu0ffffffffffffffffffffffffffffffffffffffffffffffffffff",
"fffffffffffffffffffffffffffffffffffffffffffffffff60erupaapuyrrt9>%:,,,8wuut08fffffffffffffffffffffffffffffffffffffffffffffffffff",
"fffffffffffffffffffffffffffffffffffffffffffffffff*70eeeeeewwqet7*%::,60ueett6fffffffffffffffffffffffffffffffffffffffffffffffffff",
"fffffffffffffffffffffffffffffffffffffffffffffffff*>70wwwwq979e9&+%*:,6eeeet9ffffffffffffffffffffffffffffffffffffffffffffffffffff",
"fffffffffffffffffffffffffffffffffffffffffffffffff%&>68000876>9,o+%*:::wwww96ffffffffffffffffffffffffffffffffffffffffffffffffffff",
"fffffffffffffffffffffffffffffffffffffffffffffffff++%&&&&:::::,&o+%*>::6w0ww06fffffffffffffffffffffffffffffffffffffffffffffffffff",
"fffffffffffffffffffffffffffffffffffffffffffffffff%+oooo%&*&++&o+&&&6>::>66906fffffffffffffffffffffffffffffffffffffffffffffffffff",
"ffffffffffffffffffffffffffffffffffffffffffffffffff%oXXXo*&+++o o+&+%76:>:*&&ffffffffffffffffffffffffffffffffffffffffffffffffffff",
"ffffffffffffffffffffffffffffffffffffffffffffffffff@+oXXo%+oo%  oo++%&&&++&*%ffffffffffffffffffffffffffffffffffffffffffffffffffff",
"ffffffffffffffffffffffffffffffffffffffffffffffffff@  ooo++oo    oooo+++***%fffffffffffffffffffffffffffffffffffffffffffffffffffff",
"fffffffffffffffffffffffffffffffffffffffffffffffffff@                      ffffffffffffffffffffffffffffffffffffffffffffffffffffff",
"fffffffffffffffffffffffffffffffffffffffffffffffffff@        @           @ ffffffffffffffffffffffffffffffffffffffffffffffffffffff",
"ffffffffffffffffffffffffffffffffffffffffffffffffffff@                  $@ ffffffffffffffffffffffffffffffffffffffffffffffffffffff",
"ffffffffffffffffffffffffffffffffffffffffffffffffffff@            @    $@ fffffffffffffffffffffffffffffffffffffffffffffffffffffff",
"ffffffffffffffffffffffffffffffffffffffffffffffffffff        @f         @ fffffffffffffffffffffffffffffffffffffffffffffffffffffff",
"fffffffffffffffffffffffffffffffffffffffffffffffffff @      @ f  @    $#@ fffffffffffffffffffffffffffffffffffffffffffffffffffffff",
"fffffffffffffffffffffffffffffffffffffffffffffffffff @@          @        fffffffffffffffffffffffffffffffffffffffffffffffffffffff",
"fffffffffffffffffffffffffffffffffffffffffffffffffff #@        f @@   ##@ fffffffffffffffffffffffffffffffffffffffffffffffffffffff",
"fffffffffffffffffffffffffffffffffffffffffffffffffff@#@ @##    f      #  ffffffffffffffffffffffffffffffffffffffffffffffffffffffff",
"fffffffffffffffffffffffffffffffffffffffffffffffffff@#@     @  f @    @@ ffffffffffffffffffffffffffffffffffffffffffffffffffffffff",
"fffffffffffffffffffffffffffffffffffffffffffffffffff @#     @  f    @  @@ffffffffffffffffffffffffffffffffffffffffffffffffffffffff",
"ffffffffffffffffffffffffffffffffffffffffffffffffffff @X   X@ f          ffffffffffffffffffffffffffffffffffffffffffffffffffffffff",
"fffffffffffffffffffffffffffffffffffffffffffffffffffff @@@@@ ff    #$#@@  fffffffffffffffffffffffffffffffffffffffffffffffffffffff",
"ffffffffffffffffffffffffffffffffffffffffffffffffffffff     fff      ##@@ fffffffffffffffffffffffffffffffffffffffffffffffffffffff",
"fffffffffffffffffffffffffffffffffffffffffffffffffffffffffffff    #$$#@@@@fffffffffffffffffffffffffffffffffffffffffffffffffffffff",
"fffffffffffffffffffffffffffffffffffffffffffffffffffffffffffff    $$$#@@@ fffffffffffffffffffffffffffffffffffffffffffffffffffffff",
"fffffffffffffffffffffffffffffffffffffffffffffffffffffffffffff            fffffffffffffffffffffffffffffffffffffffffffffffffffffff",
"fffffffffffffffffffffffffffffffffffffffffffffffffffffffffffff            fffffffffffffffffffffffffffffffffffffffffffffffffffffff"
};
