/* XPM */
static char *_422f47929ba4c71b41258d1f4c8109aTZbxRLA0WHtTBCOn[] = {
/* columns rows colors chars-per-pixel */
"128 128 16 1 ",
"  c #434301",
". c #5F5F01",
"X c #6B6B01",
"o c #777701",
"O c #878701",
"+ c #939301",
"@ c #9F9F01",
"# c #AFAF01",
"$ c #BBBB01",
"% c #C7C701",
"& c #D7D701",
"* c #E3E301",
"= c #EFEF01",
"- c #FFFF01",
"; c #FFFF57",
": c #980088",
/* pixels */
"::::::::::::::::::::::::::::::::::::::::::::::::::::::::::::::::::::::::::::::::::::::::::::::::::::::::::::::::::::::::::::::::",
"::::::::::::::::::::::::::::::::::::::::::::::::::::::::::::::::::::::::::::::::::::::::::::::::::::::::::::::::::::::::::::::::",
"::::::::::::::::::::::::::::::::::::::::::::::::::::::::::::::::::::::::::::::::::::::::::::::::::::::::::::::::::::::::::::::::",
"::::::::::::::::::::::::::::::::::::::::::::::::::::::::::::::::::::::::::::::::::::::::::::::::::::::::::::::::::::::::::::::::",
"::::::::::::::::::::::::::::::::::::::::::::::::::::::::::::::::::::::::::::::::::::::::::::::::::::::::::::::::::::::::::::::::",
"::::::::::::::::::::::::::::::::::::::::::::::::::::::::::::::::::::::::::::::::::::::::::::::::::::::::::::::::::::::::::::::::",
"::::::::::::::::::::::::::::::::::::::::::::::::::::::::::::::::::::::::::::::::::::::::::::::::::::::::::::::::::::::::::::::::",
"::::::::::::::::::::::::::::::::::::::::::::::::::::::::::::::::::::::::::::::::::::::::::::::::::::::::::::::::::::::::::::::::",
"::::::::::::::::::::::::::::::::::::::::::::::::::::::::::::::::::::::::::::::::::::::::::::::::::::::::::::::::::::::::::::::::",
"::::::::::::::::::::::::::::::::::::::::::::::::::::::::::::::::::::::::::::::::::::::::::::::::::::::::::::::::::::::::::::::::",
"::::::::::::::::::::::::::::::::::::::::::::::::::::::::::::::::::::::::::::::::::::::::::::::::::::::::::::::::::::::::::::::::",
"::::::::::::::::::::::::::::::::::::::::::::::::::::::::::::::::::::::::::::::::::::::::::::::::::::::::::::::::::::::::::::::::",
"::::::::::::::::::::::::::::::::::::::::::::::::::::::::::::::::::::::::::::::::::::::::::::::::::::::::::::::::::::::::::::::::",
"::::::::::::::::::::::::::::::::::::::::::::::::::::::::::::::::::::::::::::::::::::::::::::::::::::::::::::::::::::::::::::::::",
"::::::::::::::::::::::::::::::::::::::::::::::::::::::::::::::::::::::::::::::::::::::::::::::::::::::::::::::::::::::::::::::::",
"::::::::::::::::::::::::::::::::::::::::::::::::::::::::::::::::::::::::::::::::::::::::::::::::::::::::::::::::::::::::::::::::",
"::::::::::::::::::::::::::::::::::::::::::::::::::::::::::::::::::::::::::::::::::::::::::::::::::::::::::::::::::::::::::::::::",
"::::::::::::::::::::::::::::::::::::::::::::::::::::::::::::::::::::::::::::::::::::::::::::::::::::::::::::::::::::::::::::::::",
"::::::::::::::::::::::::::::::::::::::::::::::::::::::::::::::::::::::::::::::::::::::::::::::::::::::::::::::::::::::::::::::::",
"::::::::::::::::::::::::::::::::::::::::::::::::::::::::::::::::::::::::::::::::::::::::::::::::::::::::::::::::::::::::::::::::",
"::::::::::::::::::::::::::::::::::::::::::::::::::::::::::::::::::::::::::::::::::::::::::::::::::::::::::::::::::::::::::::::::",
"::::::::::::::::::::::::::::::::::::::::::::::::::::::::::::::::::::::::::::::::::::::::::::::::::::::::::::::::::::::::::::::::",
"::::::::::::::::::::::::::::::::::::::::::::::::::::::::::::::::::::::::::::::::::::::::::::::::::::::::::::::::::::::::::::::::",
"::::::::::::::::::::::::::::::::::::::::::::::::::::::::::::::::::::::::::::::::::::::::::::::::::::::::::::::::::::::::::::::::",
"::::::::::::::::::::::::::::::::::::::::::::::::::::::::::::::::::::::::::::::::::::::::::::::::::::::::::::::::::::::::::::::::",
"::::::::::::::::::::::::::::::::::::::::::::::::::::::::::::::::::::::::::::::::::::::::::::::::::::::::::::::::::::::::::::::::",
"::::::::::::::::::::::::::::::::::::::::::::::::::::::::::::::::::::::::::::::::::::::::::::::::::::::::::::::::::::::::::::::::",
"::::::::::::::::::::::::::::::::::::::::::::::::::::::::::::::::::::::::::::::::::::::::::::::::::::::::::::::::::::::::::::::::",
"::::::::::::::::::::::::::::::::::::::::::::::::::::::::::::::::::::::::::::::::::::::::::::::::::::::::::::::::::::::::::::::::",
"::::::::::::::::::::::::::::::::::::::::::::::::::::::::::::::::::::::::::::::::::::::::::::::::::::::::::::::::::::::::::::::::",
"::::::::::::::::::::::::::::::::::::::::::::::::::::::::::::::::::::::::::::::::::::::::::::::::::::::::::::::::::::::::::::::::",
"::::::::::::::::::::::::::::::::::::::::::::::::::::::::::::::::::::::::::::::::::::::::::::::::::::::::::::::::::::::::::::::::",
"::::::::::::::::::::::::::::::::::::::::::::::::::::::::::::::::::::::::::::::::::::::::::::::::::::::::::::::::::::::::::::::::",
"::::::::::::::::::::::::::::::::::::::::::::::::::::::::::::::::::::::::::::::::::::::::::::::::::::::::::::::::::::::::::::::::",
"::::::::::::::::::::::::::::::::::::::::::::::::::::::::::::::::::::::::::::::::::::::::::::::::::::::::::::::::::::::::::::::::",
"::::::::::::::::::::::::::::::::::::::::::::::::::::::::::::::::::::::::::::::::::::::::::::::::::::::::::::::::::::::::::::::::",
"::::::::::::::::::::::::::::::::::::::::::::::::::::::::::::::::::::::::::::::::::::::::::::::::::::::::::::::::::::::::::::::::",
"::::::::::::::::::::::::::::::::::::::::::::::::::::::::::::::::::::::::::::::::::::::::::::::::::::::::::::::::::::::::::::::::",
"::::::::::::::::::::::::::::::::::::::::::::::::::::::::::::::::::::::::::::::::::::::::::::::::::::::::::::::::::::::::::::::::",
"::::::::::::::::::::::::::::::::::::::::::::::::::::::::::::::::::::::::::::::::::::::::::::::::::::::::::::::::::::::::::::::::",
"::::::::::::::::::::::::::::::::::::::::::::::::::::::::::::::::::::::::::::::::::::::::::::::::::::::::::::::::::::::::::::::::",
"::::::::::::::::::::::::::::::::::::::::::::::::::::::::::::::::::::::::::::::::::::::::::::::::::::::::::::::::::::::::::::::::",
"::::::::::::::::::::::::::::::::::::::::::::::::::::::::::::::::::::::::::::::::::::::::::::::::::::::::::::::::::::::::::::::::",
"::::::::::::::::::::::::::::::::::::::::::::::::::::::::::::::::::::::::::::::::::::::::::::::::::::::::::::::::::::::::::::::::",
"::::::::::::::::::::::::::::::::::::::::::::::::::::::::::::::::::::::::::::::::::::::::::::::::::::::::::::::::::::::::::::::::",
":::::::::::::::      ::::            :::        :::              :::        :::            ::      ::            :::::::::::::::",
"::::::::::::::: ---- :::: ---=  **&% :: o##@#+@o :: OO++OOooOOoX :: .ooXXoo. :: OOOOO++++o    @#$$ :: =*--  -;-- :::::::::::::::",
"::::::::::::::: ---- :::: -=-*  *&%& : O#@#@@@++o   OOOOOOOoooXX : .oooXXooo.   OOOO++++++o   #$$% :: =**-  -;;- :::::::::::::::",
"::::::::::::::: ---- :::: ===*  &%%%  O#@@@@@++++o  OOOOoOOOooXX  .XXXoooOOOo.  OOO+++++@@@o  $$%% :: =*==  ;;-- :::::::::::::::",
"::::::::::::::: ---- :::: -***  %%%%  ####+++++++O  OOOoooooXXoo  ooXXXoooOOOO  OO+++++@@@#@  $%%& :: =*-=  ;;-- :::::::::::::::",
"::::::::::::::: ---- :::: =***  &%%$  @#@@    ++OO      oooo      ooXX    oOO+  O+++    ####  %$%% :: =---  ---- :::::::::::::::",
"::::::::::::::: ---- :::: ***&  %%$$  @@@@ :: +OOO :::: Oooo :::: Xooo :: OOOO  ++++ :: @@#$  %%%& :: ==--  -=== :::::::::::::::",
"::::::::::::::: ---- :::: **&&  $$$#  #@++ ::      :::: oXXo :::: Xooo :: OOOO  ++++ :: @#$$  &%&* :: ----  -=*= :::::::::::::::",
"::::::::::::::: ---- :::: **%&  $$#@  @@++ :::::::::::: XXXo :::: XooO :: OOOO  +++@ :: #$$%  %&** :: --;;  -*** :::::::::::::::",
"::::::::::::::: ---- :::: &%%%  $##@  @+++ :::::::::::: oXoX :::: oOOO :: OOO+  ++@@ :: $$%%  **** :: ;;;-  =*** :::::::::::::::",
"::::::::::::::: ---- :::: &%%$  ###@  ++++ :::::::::::: oooo :::: oooO :: OO++  ++@@ :: $$%&  **** :: ;---  ***& :::::::::::::::",
"::::::::::::::: --== :::: %%%$  @@@@  ++++ :::::::::::: oooX :::: OooO :: O+++  @+@@ :: %%%%  *=== :: --=-  **&% :::::::::::::::",
"::::::::::::::: --== :::: %%$$  @@+@  +++O :::::::::::: XXoo :::: OoOO :: ++++  @@@@ :: %%%*  *=== :: *===  *&%% :::::::::::::::",
"::::::::::::::: --** :::: $$$#  @@++  ++OO :::::::::::: oooo :::: OOOO :: ++++  @### :: %&&*  =--- :: *-*=  &&%$ :::::::::::::::",
"::::::::::::::: ==** :::: $$#@  @@++  +OOO :::::::::::: XoXo :::: OOOO :: +++@  @##$ :: %&**  =--- :: *=**  %&%% :::::::::::::::",
"::::::::::::::: **** :::: $##@  @+++  OOOO :::::::::::: oXXX :::: OOOO :: ++@@  @#$$ :: ****  =--- :: ****  %%%$ :::::::::::::::",
"::::::::::::::: ***& :::: ###@  ++++  OOOO :::::::::::: oXXo :::: O+OO :: ++@#  #$$$    ***#  ----    ***&  %$$$ :::::::::::::::",
"::::::::::::::: **&% :::: @@@@  ++++  OOOO :::::::::::: oooO :::: OOO+ :: @@@@  $$%%%%&***# : ----=-=****%  %$$# :::::::::::::::",
"::::::::::::::: *&%% :::: ##+@  +++O  +OOo :::::::::::: oooo :::: OO++ :: @@#@  $%%&%****% :: $---==***&%+  $$## :::::::::::::::",
"::::::::::::::: &%&% :::: @@@+  ++OO  OOOO :::::::::::: oooo :::: O+++ :: ####  %%%&&****% ::: $--****&&@ : $### :::::::::::::::",
"::::::::::::::: %%%% :::: @@++  +OOO  OooO :::::::::::: OOOo :::: ++++ :: @@#$  %%%&***===$ ::: $=****%@ :: #@@@ :::::::::::::::",
"::::::::::::::: %%%$ :::: ++++  OOOO  oooo :::::::::::: oOOO :::: ++++ :: @#$$  &%&*    =--$ ::: #**&%@ ::: #@#+ :::::::::::::::",
"::::::::::::::: %%$$ :::: ++O+  OoOO  Oooo :::::::::::: ooOO :::: +++@ :: #$$%  %&** :: ---- :::: *&&& :::: #@@@ :::::::::::::::",
"::::::::::::::: %$$# :::: +O++  OOOO  oOoo :::::::::::: oOOO :::: ++@@ :: $$%%  &*** :: ---- :::: *%%% :::: @@@+ :::::::::::::::",
"::::::::::::::: $$## :::: O+OO  oOOo  OoXX :::::::::::: OOOO :::: +@@@ :: $$%&  ***= :: ---- :::: %%$% :::: +@++ :::::::::::::::",
"::::::::::::::: $#@@ :::: ++OO  OOoO  oXXX :::::::::::: OOOO :::: @+#@ :: %%%%  ***= :: --=- :::: &%$$ :::: @+++ :::::::::::::::",
"::::::::::::::: ##@@ :::: +OOO  OooO  XoXo :::::::::::: OOOO :::: @@@@ :: %%%*  *=== :: -=== :::: %%$$ :::: ++++ :::::::::::::::",
"::::::::::::::: ##@@o :: oOOOO  oooo  Xooo :::::::::::: OOO+ :::: @### :: %&&*  *--- :: --** :::: %$$# :::: ++++ :::::::::::::::",
"::::::::::::::: O@@@+o  oOOOOX  OOOo  Xooo ::      :::: OO++ :::: @##$ :: %&**  =--- :: -=** :::: $$#@ :::: +++O :::::::::::::::",
":::::::::::::::: O@+++++OOOOX   OOoX  oXXo :: oOOO :::: O+++ :::: @#$$ :: ****  =--- :: =*** :::: $#@@ ::::      :::::::::::::::",
"::::::::::::::::: o++++OOOOX :: ooXX  oooo    oooo :::: ++++ :::: #$$$    ****  ---- :: =**& :::: #### ::::      :::::::::::::::",
":::::::::::::::::: o++OOOOX ::: ooXX  oXoXoXoOOOoo :::: ++++ :::: $$%%%%&***==  ---- :: ***% :::: @#@@ :::: OOOO :::::::::::::::",
"::::::::::::::::::: oOOOOX :::: XXoo  .oXXXoOoOoo. :::: +++@ :::: +%%&%****=-#  ---= :: *&%% :::: @@@@ :::: OOOO :::::::::::::::",
":::::::::::::::::::: XOOX ::::: Xooo   .XXoOoooo. ::::: +++@ ::::: +%&&**=*-$   ---- :: &&%% :::: @@++ :::: OOOO :::::::::::::::",
"::::::::::::::::::::: XX :::::: XXoo :: .oOOOoo. :::::: +@@@ :::::: +&***==# :  -=== :: %%%% :::: @@++ :::: OOOo :::::::::::::::",
"::::::::::::::::::::::  :::::::      :::        :::::::      :::::::        ::       ::      ::::      ::::      :::::::::::::::",
"::::::::::::::::::::::::::::::::::::::::::::::::::::::::::::::::::::::::::::::::::::::::::::::::::::::::::::::::::::::::::::::::",
"::::::::::::::::::::::::::::::::::::::::::::::::::::::::::::::::::::::::::::::::::::::::::::::::::::::::::::::::::::::::::::::::",
"::::::::::::::::::::::::::::::::::::::::::::::::::::::::::::::::::::::::::::::::::::::::::::::::::::::::::::::::::::::::::::::::",
"::::::::::::::::::::::::::::::::::::::::::::::::::::::::::::::::::::::::::::::::::::::::::::::::::::::::::::::::::::::::::::::::",
"::::::::::::::::::::::::::::::::::::::::::::::::::::::::::::::::::::::::::::::::::::::::::::::::::::::::::::::::::::::::::::::::",
"::::::::::::::::::::::::::::::::::::::::::::::::::::::::::::::::::::::::::::::::::::::::::::::::::::::::::::::::::::::::::::::::",
"::::::::::::::::::::::::::::::::::::::::::::::::::::::::::::::::::::::::::::::::::::::::::::::::::::::::::::::::::::::::::::::::",
"::::::::::::::::::::::::::::::::::::::::::::::::::::::::::::::::::::::::::::::::::::::::::::::::::::::::::::::::::::::::::::::::",
"::::::::::::::::::::::::::::::::::::::::::::::::::::::::::::::::::::::::::::::::::::::::::::::::::::::::::::::::::::::::::::::::",
"::::::::::::::::::::::::::::::::::::::::::::::::::::::::::::::::::::::::::::::::::::::::::::::::::::::::::::::::::::::::::::::::",
"::::::::::::::::::::::::::::::::::::::::::::::::::::::::::::::::::::::::::::::::::::::::::::::::::::::::::::::::::::::::::::::::",
"::::::::::::::::::::::::::::::::::::::::::::::::::::::::::::::::::::::::::::::::::::::::::::::::::::::::::::::::::::::::::::::::",
"::::::::::::::::::::::::::::::::::::::::::::::::::::::::::::::::::::::::::::::::::::::::::::::::::::::::::::::::::::::::::::::::",
"::::::::::::::::::::::::::::::::::::::::::::::::::::::::::::::::::::::::::::::::::::::::::::::::::::::::::::::::::::::::::::::::",
"::::::::::::::::::::::::::::::::::::::::::::::::::::::::::::::::::::::::::::::::::::::::::::::::::::::::::::::::::::::::::::::::",
"::::::::::::::::::::::::::::::::::::::::::::::::::::::::::::::::::::::::::::::::::::::::::::::::::::::::::::::::::::::::::::::::",
"::::::::::::::::::::::::::::::::::::::::::::::::::::::::::::::::::::::::::::::::::::::::::::::::::::::::::::::::::::::::::::::::",
"::::::::::::::::::::::::::::::::::::::::::::::::::::::::::::::::::::::::::::::::::::::::::::::::::::::::::::::::::::::::::::::::",
"::::::::::::::::::::::::::::::::::::::::::::::::::::::::::::::::::::::::::::::::::::::::::::::::::::::::::::::::::::::::::::::::",
"::::::::::::::::::::::::::::::::::::::::::::::::::::::::::::::::::::::::::::::::::::::::::::::::::::::::::::::::::::::::::::::::",
"::::::::::::::::::::::::::::::::::::::::::::::::::::::::::::::::::::::::::::::::::::::::::::::::::::::::::::::::::::::::::::::::",
"::::::::::::::::::::::::::::::::::::::::::::::::::::::::::::::::::::::::::::::::::::::::::::::::::::::::::::::::::::::::::::::::",
"::::::::::::::::::::::::::::::::::::::::::::::::::::::::::::::::::::::::::::::::::::::::::::::::::::::::::::::::::::::::::::::::",
"::::::::::::::::::::::::::::::::::::::::::::::::::::::::::::::::::::::::::::::::::::::::::::::::::::::::::::::::::::::::::::::::",
"::::::::::::::::::::::::::::::::::::::::::::::::::::::::::::::::::::::::::::::::::::::::::::::::::::::::::::::::::::::::::::::::",
"::::::::::::::::::::::::::::::::::::::::::::::::::::::::::::::::::::::::::::::::::::::::::::::::::::::::::::::::::::::::::::::::",
"::::::::::::::::::::::::::::::::::::::::::::::::::::::::::::::::::::::::::::::::::::::::::::::::::::::::::::::::::::::::::::::::",
"::::::::::::::::::::::::::::::::::::::::::::::::::::::::::::::::::::::::::::::::::::::::::::::::::::::::::::::::::::::::::::::::",
"::::::::::::::::::::::::::::::::::::::::::::::::::::::::::::::::::::::::::::::::::::::::::::::::::::::::::::::::::::::::::::::::",
"::::::::::::::::::::::::::::::::::::::::::::::::::::::::::::::::::::::::::::::::::::::::::::::::::::::::::::::::::::::::::::::::",
"::::::::::::::::::::::::::::::::::::::::::::::::::::::::::::::::::::::::::::::::::::::::::::::::::::::::::::::::::::::::::::::::",
"::::::::::::::::::::::::::::::::::::::::::::::::::::::::::::::::::::::::::::::::::::::::::::::::::::::::::::::::::::::::::::::::",
"::::::::::::::::::::::::::::::::::::::::::::::::::::::::::::::::::::::::::::::::::::::::::::::::::::::::::::::::::::::::::::::::",
"::::::::::::::::::::::::::::::::::::::::::::::::::::::::::::::::::::::::::::::::::::::::::::::::::::::::::::::::::::::::::::::::",
"::::::::::::::::::::::::::::::::::::::::::::::::::::::::::::::::::::::::::::::::::::::::::::::::::::::::::::::::::::::::::::::::",
"::::::::::::::::::::::::::::::::::::::::::::::::::::::::::::::::::::::::::::::::::::::::::::::::::::::::::::::::::::::::::::::::",
"::::::::::::::::::::::::::::::::::::::::::::::::::::::::::::::::::::::::::::::::::::::::::::::::::::::::::::::::::::::::::::::::",
"::::::::::::::::::::::::::::::::::::::::::::::::::::::::::::::::::::::::::::::::::::::::::::::::::::::::::::::::::::::::::::::::",
"::::::::::::::::::::::::::::::::::::::::::::::::::::::::::::::::::::::::::::::::::::::::::::::::::::::::::::::::::::::::::::::::",
"::::::::::::::::::::::::::::::::::::::::::::::::::::::::::::::::::::::::::::::::::::::::::::::::::::::::::::::::::::::::::::::::",
"::::::::::::::::::::::::::::::::::::::::::::::::::::::::::::::::::::::::::::::::::::::::::::::::::::::::::::::::::::::::::::::::",
"::::::::::::::::::::::::::::::::::::::::::::::::::::::::::::::::::::::::::::::::::::::::::::::::::::::::::::::::::::::::::::::::",
"::::::::::::::::::::::::::::::::::::::::::::::::::::::::::::::::::::::::::::::::::::::::::::::::::::::::::::::::::::::::::::::::",
"::::::::::::::::::::::::::::::::::::::::::::::::::::::::::::::::::::::::::::::::::::::::::::::::::::::::::::::::::::::::::::::::",
"::::::::::::::::::::::::::::::::::::::::::::::::::::::::::::::::::::::::::::::::::::::::::::::::::::::::::::::::::::::::::::::::",
"::::::::::::::::::::::::::::::::::::::::::::::::::::::::::::::::::::::::::::::::::::::::::::::::::::::::::::::::::::::::::::::::",
"::::::::::::::::::::::::::::::::::::::::::::::::::::::::::::::::::::::::::::::::::::::::::::::::::::::::::::::::::::::::::::::::"
};
