/* XPM */
static char *b7846c4ef5004824839818c771c65dd2[] = {
/* columns rows colors chars-per-pixel */
"128 128 25 1 ",
"  c black",
". c #000001",
"X c #00001F",
"o c #00003F",
"O c #000043",
"+ c #00004F",
"@ c #00005B",
"# c #00005F",
"$ c #000067",
"% c #000073",
"& c #00007F",
"* c #00008B",
"= c #00009B",
"- c #00009F",
"; c #0000A7",
": c #0000B3",
"> c #0000BF",
", c #0000CB",
"< c #0000D7",
"1 c #0000DF",
"2 c #0000E3",
"3 c #0000EF",
"4 c blue",
"5 c #0007FF",
"6 c #2323FF",
/* pixels */
"XX@@%%*********==&&===========****=*&&&=&&&&=&&@@$$$$@@++XoO%%%%%=%%%%%%%%%%%%%%@%%%Xooooo%%%%%%%%%%%%%%%%%%%%%oooo%%%%%%%%%%oo.",
"XX@@%%**===***==*&&;;;====*&&&&&&**=&$$*&&&&&&%@@$$$$@@++XoO%%%%%%%%%%%%%%%%%%%%&%%%Xoooo%%%%%*************%%%%%ooo%:::;**%%%oo.",
"XX******;;==***;%*&==&=*;*&;=*&&&=%%%%$%*&&*&&%$$@@++@@$+XX#&->>>>>>>>>>=>>-*&&&&&&$X..XX#=======;;;;;;======**%o..;:<:;;;;*$...",
"XX*****=***=*&**%%&=%**=:*&;=*&%&%%*$$$%%&&*&%%&$@$++@@$+XX#-1441>>&>&====-**&%&&%$$X..XX#==============;;:>>;*%o..;<<<;;;;*$...",
"XO;;**;;==;****%$$%&**=;;;&:;*&&%%$+$$$$$%&%%&&$$$+@@$$%+.X#-1441>*=%=*==**>>-%&$$$+o..XX#=::;;::;==:=:::,:,,>;%o..;:<:;=**&$...",
"XO;;**;**=*;*&**$&$=*=*==&*;;*&&%%%$&%$$&$&*&&$$$$&@@$$%+.X#->11:;==*=*=%*>-$$-=&$$+O..XX#=::;;::===>::::,,>>:;%o..;;:;;==*&$...",
"XO====;**=***&&*$*%:****;&*==&=**&%$%*@$*%&&&&&&%&&@@++$+.X#*-:::::=;&*%%*$$$%*$$$$+O..XX#=;;:;;:==:,>;;;,,;::;%o..====;;=*$+...",
"XO====;****=&&**&$%:==*&**==%=%&%%$@$$@&$%%&$$%%&&&@@++$+.X#*-:>>::=%=&**&%$%$$$$$&+O..XX#=;;;:::=:,:>>;=::=;;*%o..====;;**$+...",
"X+==;;;;*=>**&;%**&:;=%*&=**&&&&&%&*$&$**&*%@&%$&&&&$&$++.X#&-=>::==*%*%%&$$%$&+%#@+O..XX#=::;:;::>=,;;====:;=&$o..&&*==*%%$+...",
"X+==;;;;==*===;&***;***&=*%*&=&*%%%&@$@****=&&&%&$&$&$$++.X#&*&;:;==&&**%&&$$$%%&#@+O..XX#=:::;;>::;:,,;>:*=*;&$o..&&*$**%%%+...",
"X$**===***&&=*&&**;=&*&*&%$%&&%;@$@$&$+**;*&&$&&&&&&&&+$+.X+*=*=;=&=*=%$&$$*%$&@$#++O..XX#=::;;>:;:>,22>;;==***%o..**&&%%@%%+...",
"X$**=*=*&&&==&&&*=:*=&*&&%=%*&*%$@+@$+**=:*&&*&**&*=&&+$+.X#*=&&&*==*%*&%$$=@%%$#@++O..XX#=::::;>:;,22,::;=*=*=%o..**%&&*@%$+...",
"X$**=***%&&=&&*%=;;***&%&%%%**%=$+O+$$*=;;;&%***&%&&$&%$+.XO*==&===&=%*&%%$%&$&$##&+O..XX#=;;::;>:,:,2>>=;;:**%$o..*%%%&&+%$+...",
"X$*%;=*&==*=*==&&==*&*&%$%$*%%%%$@+@@*=&==&**;;=*%&&$%%$+.X#*==&===%*%%&%&%@$&=$##@+O..XX#=;::>::;;:;>>:=;*;**%$o..$$%%&%++++...",
"X$**;;****=&==;=**;&*&&&$&%$%@$$%@$@$*=**;&*;>>=;&@$$@@$+.X#*=&&&===&%&%&$$$@$%@@+++O..XX#=;;:::>:=>::>:;*;:=**%o..$@@%%%@@++...",
"X$**&%****==**;;*%&%&%&%%%$$$%%&$@$$*=;*%&**;;>;=*&$$@@$+.X#*=%&&%&&&%%&&&$$@&%$@+$+O..XX#=;:::>:>:,>::;;;=*;=*%o..O$@@++@@OO...",
"X+&&&&&&*&%**%>;;=&&@&$$$%@@%$+$$+$+*;;;=&*=;;;=**%%%$$%+.X#*&=&==&$$&&$%%$%+$&%#++@O..XX#=;;>>;;>,>,;::===*;;=*o...OOOOOOOO....",
"X+&&%&%***;;=&;;;;&&*=&$$&&$%%$%+$&%=;;;;&&*=;=*&%%%%$$%+.X#&&*&&&$$$=&&%%$$%$$&@++@O..XX#=;;>>;=;>,>>::=;=*;**%o...............",
"XO%%%*;&*;;>;;=&;=**%&$$$=&&%%$$%$$&;=&;=**%&&*&&;$*&@@%+.X#*;*&&&$%&&%%%&$@++$+++@+O..XX#=;;::=;>::>=:;=**&==%%o..X+-;;;;&+X...",
"XO%%%%*&*;:>>;:;==***%$%&&%%%&$@++$+;:;==***%$****$&&@@%+.X#=:*&-&$$%%&%&$&$&@+$++@+O..XX#=;;::=>;>:=====&**&*%%o..+-111>>;%+...",
"XO%%%%&*;;:::;;;;*;=*&$$%%&%&$&$&@+$;;;;*;=*&%&&=*%++%%$+.X+;;;&-&$$&&&%$@$%@&++++@+O..XX#=;;::===:;;**=::;===%%o..=14>>-;;&@...",
"XO%%%%&*=;;:;;;*;*=&&&$$&&&%$@$%@&++;;*;*=&&&&;*&*%++%%$+.X+==&*-%$$%$+$$@$$%+@+++@+O..XX#=;;==:=*=&;=;:>>,::;&%o..=141--;&&@...",
"XX%%&&=*&;;*:;*&==&%$%$$%$+$$@$$%+@+;*&==&%$%%;;&%+@@$$$+.X+*;&*$%%%&@@&$@$$++$&#@++O..XX#=;;:=::**=:&;>;>:>;**@o..*14>;&*&@@...",
"XX%%&&*=&=*==&***=;-&%%%&@@&$@$$++$&&***=;-&%***&$$@@$$$+.X+$&&$$&@$@%$$$+@$@++$$@++O..XX#=;====***==;=;;>=:;*%@o..*11>;&*&@@...",
".X@@%%%=;*==**&***==-%@$@%$$$+@$@++$*&***==-%**%%@@%%$$++.X+%%$&%$%&$$@@@++@$$%&#@@+O..XX#=;===;=====*:*;=;=;%$+o..*1,=;&&$+@...",
"..@@%%%%*=%%**==**=-&$%&$$@@@++@$$%&*==**=-&$%*%$@@%%$+++.X+%$$$&@$$$@@@++++@+%@@+++O..XX#=;===**==:=*=**&;%*$++o..*1==**$$+@...",
"XX++@@%%==%%%%**==&&&%$$$@@@++++@+%@%**==&&&%%=$$$%$$$++o.X+%&&$$@%$@O+@$++$++@+&+@+o..XX#=;;=***=*&:*&*&=*&$+++o..&>-&%&@@$@...",
"XXX+@@%%%%=%%%**=&&$%%%$@O+@$++$++@+%**=&&$%%**$$%%$++++X.X+#$$@@@+++O+@+++$+@$+++@+o..XX#=;;:=*:&&:%%&%&*%%@+++o..&-&&&&&@$@...",
"XXXoOO+$$$$$$$$$$$$$$$+++O+@+++$+@$+$$$$$$$$$$$$$$$$+++oX.Xo+oo++Oooooo@OoooooooooooX..XX#*::;=:=***:*&*&$%@@%++o..O%%*::*%+O...",
"XXXXXO++++++++++++++++ooooo@Oooooooo+++++++++++++++++oXX..XXoXXooXXXXXXXXXXXXXXXXXXXX..XX#*::;;:=%:&*&&*&$$%@=++o..XO$$@@++OX...",
"X.....................XXXXXXXXXXXXXX......................X............................XX#*::;::*&=*&%&&%%@++%@+o...............",
"X.............OOOOOOOOOOOO................................X............................XX#*;:;;:;&**%*:&%*%++%@+o...............",
"%%%%%%%**************===-*&@..XXXXXXXXXXXXXXXXXXXXXXXXXXXXXXXXXXXXXXXXXXXXXXXXXXXXXXXXXXX#*;;::::==*=&%%*&*%@%++o..O#&&&&&&&&&&.",
"********=;:::;>11>>-==****&&o.XXXXXXXXXXXXXXXXXXXXXXXXXXXXXXXXXXXXXXXXXXXXXXXXXXXXXXXXXXX#*;::::;=*&%&$%$%%&@+++o.O@&--->>--=**.",
";;======;::::;11>1>-=%%%&&%%O.XXXXX++++++++++++++++++++++++++++XXXXXXX+$$**=::::;=&&$oXXX#*;>:;:=&&*%&%$@%*%$@@+o.O&--->1<>>===.",
"===;;:>;;::===111>>*&%%%&&%%O.XXXX+@@%%**%*****===&%%%%++++OOOO+XXXXX++$$%$*;**==**&&@OXX#*;,>;:*==&*&&%%%%$$@@+o.O&->->11<>;;;.",
"=:::,:,=;:;===>>>>=-&=&%$$@$O.XXX@@%%*********==&&&&=&%@@$$$$@@++XXXX$$*%%$$*%%%%**%%@O..#*;>,=;;*=***&%%%%$$++@o.O=>->11411>;;.",
"::::,,>;;;=*==-;>----&&%$$@$O.XXX@@%***===***==*&&&&&&%@@$+++@@++XXXX$$*%%@%%%%$@%%%%@O..#*;>,=*;*=*>=*&%%&$$++@o.$=--,16661>;;.",
">;;;,,;:;;::::&****-&&&%$$$$O.XXX%*****;;==***;%*&&*&&%$$@++++@$+XXXX%%*%@@++%$%@@%$+%O..#&;,>;:*=*==**&%%%++@@@o.$=&-,16641>>>.",
">>;=::=:;;;=&*#&=***&&&%$$$$O.XXX%****=***=*&**%%&&*&%%%$@++++@$+XXXX%%=%@@++@@@+$%%%%O..#&;>:;:=*=*=*&&&%&+&@@@o.%=&->14411>>>.",
";;====:>::;**=&*:--=-&%#&&$$O.XXO%;**;;==;****%$$%&%%&&%$$+++$$%+..XX&&&%@@+@@+@$++$$@O..#&::;;;;*=&=*&*%&$@@&@+o.%-&>>,111>>;;.",
",,;>:*=>:;======*=*-&%$$&&$%O.XXO%;**;**=*;*&**$&$&*&&%$$$@@@$$%+..XX&&&&%$@@@+++++$$+O..#&;:;*;;&===**&%$$@@@@+o.%;&:->,,>==;;.",
"22>;;==:::;===-:>=&*&%@$@@@%O.XXO%===;**=***&&*$*%&&&&&&%%&@++@$+..XX$$%%%@@+@++@@%@@@O..#%;:=:=**===**&*%$+&+++o.%:->->>>;>>==.",
"2,::;=*:;===:====*-;&%$%@@@%O.XXO%===;****=&&**&$%%&$$%%&&*%@++@+..XX$$%%@@+@$$$$@@$%&O..#%;::==&&===**&%$$+++++o.%:---->-;>;-=.",
"2>>=;;::>->:>;=-*=-&&%@@$$@%O.XX+%=;;;;*=>**&;%**&*%@&%$&*-*$%+++..XXo$$$%%%%%&&&$$$&@o..#%;:===**&=*=&%$@@+++++o.%;-:>---;>;-=.",
">>:=;*;;*>>;=;***-&&=#$$&$@$O.XX+%=;;;;==*===;&****=&&&%*-:-*@+++..XXXoOOOOOOOOOOOOOOO...#%;:;=&**===%%%$@@+++++o.%;-:-:::>>;==.",
":>:;*;::=:=;;=**-==:&#@=$$+$O.XX$%====***&&=*&&**;*&&$&&&*-*&%@$+..XXXX..................#%;=;&%$=%&&%%$@$@++@$+o.%;-::::>,>>::.",
"::;;;=*>;::>=;**:--%%@@@+++%O.XX$%==*=*&&&==&&&*=:*&&*&**&*=&&@$+..XOOOOOOOOOOOOOOO......#%;;;&&&*&&$%&$@$$++$%+o.%;::--:>,>-;:.",
";::===*-;:::::==::=&%%$++++%O.XX$%;=***%&&=&&*%=;;;&%***&%&&%&%$+..@==:::::::::::-*&@..XX#*;==&&*&$%%&*%@$+@$%*+o.%=:-->>>,-;>>.",
">::=;=*=::::>=;=:;&%%#$+@@+%O.XX$%;;=*&==*=*==&&==&*=;;=*%&%%%%$+..=::>>11>>-==****&&o.XX#*;===*&***&%%@$$%@@$%+o.%=::::>,,,>>>.",
"=:;=**&=;:;;;=;===&=#%@++++$O.XX$%*;;****=&==;=**;&*;>>==&%$$@@$+.O=:>>11>1>-=%%%&&%%O.XX#*;=;===**%&%$%$@*@@@%+o.%=>>::>>>,:;;.",
"====&**===-;;:***%&%#@@++++%O.XX$%*&%****==**;;*%&*=;>>;=*&$$@@$+.O=>>>111>>*&%%%&&%%O.XX#*;:;=&***&&&%%&&%@@@@+o.%=>:>::>:,:;;.",
"**=::;======;=****%@#++@@+O%O.XX+%&&&&&*&%**%>;;=&*=;;;=**%%%$$%+.O=:;>>>>>=-&=&%$$@$O.XX#=::*;=:==&%$&$$@+$+@@@o.%=:>>>>:-,;==.",
"=;:>>,:*********&=&%#+@++OO%O.XX+%&%&%***;;=&;;;;&&*===*&%%%%$$%+.O=:;;-;>----&&%$$@$O.XX#=::;=::;**&&&$$$@@+@@@o.%=:>><1>:-,==.",
"&;>;>:>*&**%%&&*&%%&$@$++@@$+XXXO%%%*;&*;;>;;=&;=**%&&*&&;$*&@@%+.O=:;*&****-&&&%$$$$O.XX#=;;===;=&*%%$%$@$@@$$+o.%&>><141>:;;;.",
";=;;>=:***%$$%&%%&&$$$+@@$$%+.XXO%%%%*&*;:>>;:;==***%$****$@%%@%+.O=:;&#&=***&&&%$$$$O.XX#=:;**===**$$%%%%%@@@$+o.%&>><1414,:;;.",
"*:*;=;=*&**$&$&*&&$$$$&@@$$%+.XXO%%%%&*;;:::;;;;*;=*&%&&=*%++$%$+.O*>;*&*:--=-&%#&&$$O.XX#=:==**=*&*$%%$%%$@@@+@o.%&>>><1<>>,==.",
"*=**&;%*&&*$*%&&&&&&%&&@@++$+.XXO%%%%&*=;;:;;;*;*=&&&&;*&*@++$%$+.O=;::==*=*-&%$$&&$%O.XX#=:;**=&*%&%$&%%$$+@@+@o.%&;>>;>;>>>==.",
"*&*&=*&&&**&$%%&$$%%&&&@@++$+.XXX%%&&=*&;;*:;*&==&%$%%;;&%@@@$$@+.O=;>:-:>=&*&%@$@@@%O.XX#=:;==&***%*%&%$%$+$+++o.%&;>-->::;;;;.",
"%&%&*%%*&;%**&*%@&%$&&&&$&$++.XXX%%&&*=&=*==&***=;-&%***&$@@@$$@+.O=;>====*-;&%$%@@@%O.XX#=:;==&*%**%%%*%$%@++++o.%&;>>>--:;;;;.",
"&&&%&$&$=;&****=&&&%&$&$&$$++.XXX@@%%%=;*==**&***==-%**%%@@%%$$++.O=;===-*=-&&%@@$$@%O.XX#=:;:=&**%*&%$$&%$$@+++o.%&;->>>;--===.",
"&$&&&&&&*&&**;*&&$&&&&&&&&+$+.XX.@@%%%%*=%%**==**=-&$%*%$@@%%$@++.O==*****-&&=#$%&$@$O.XX#=:;:&**%==&$%&$$&$@+++o.%&;--->;;====.",
"&*&**&*=&&&*=:*&&*&**&*=&&+$+.XXX++@@%%==%%%%**==&&&%%=%$$%$$@++o.O=**&**-==:&#%=%$+$O.XX#=:;;==%&%%&&$%*$%$@+%+o.%&;->>->-;;=*.",
"%***&%&&&*%=;;;&%***&%&&$&%$+.XXXX+@@%%%%=%%%**=&&$%%%**%%%$@+++X.O=*&&**:--%%@@%@++%O.XX#=:;===*&%&*&$$%%=*%+++o.%&;--->->-=**.",
"-&&%&--&-=&&==&**;;=*%&&$%%$+.XXXXoOO+$$$$$$$$$$$$$$$$$$$$@@+++oX.O=&**==::=&%%$@+++%O.XX#=:;==*%&=%=&%$*&$%%@++o.%&;-->-->==&&.",
"&--**%**-;=**;&*;>>=;&@$$@@$+.XXXXXXO++++++++++++++++++++++++oXX..O=&&*;=:;&%%#$+@@+%O.XX#=:==*%*=&**&$%%&*$$+++o.%&;---;-;==&&.",
"*&-$$-$**;;*%&**;;>;=*&$$@@$+.XXXXXXX.............................O==*=;===&=#%@++++$O.XX#=:==**%%&$&$%$$&$@@+++o.%&;--->--=*&&.",
"%&&%$%%*%>;;=&*=;;;=**%%%$$%+.XXXXXXoooooooooooooooooooooooooo....O**==***%&%#@@++++%O.XX#=:==**%&$&$&*$$&$$@+++o.$&;=---=;**&&.",
"%***%*$@#;;;;&&*=;=*&%%%%$$%+.XXXXXo@&-&&&&&&&&&$$$$$@@@###@##OXXXO**&&****%@#++@@+O%O.XX#=:*=***%&$$&$$%$&$++++o.$$;----;;****.",
"*-*%$$$$&=&;=**%&&*&&;$*&@@%+.XXXXo@&>>>----:,,,:--&---&&&&&&$+OXXO**&&**&=&%#+@++OO%O.XX#=:*=&%%%#&&*%$$&$$%$$+o.@$=*>-;==****.",
"%$****$&;:;==***%$****$&&@@%+.XXXXo@&->-&--;-:::-*--*&&%&**&&%+OXXO**%&&*&$&%#+++@OO$O.XX#=:*=%$%&*$&%$$$%*$$@@+o.@$*-=&*=***&&.",
"&%&&=*%+;;;;*;=*&%&&=*%++%%$+..XXXo@&--&%-*------*->**%%&**&&%+OXXO**&&&&&@$##++++OO@O.XX#=:*=%%*%$@$$$$$$%$+@@+o.O$*********&&.",
"&&;*&*%+;;*;*=&&&&;*&*%++%%$+..XXXo@-&--**&;&---*-**&**%&&&&%$+OXXO**&&%%@$$@++$++OO@O.XX#=:*=***%@+@%$$$$$$@@++o.O$**&&&&%&&&&.",
"%%;;&%+@;*&==&%$%%;;&%+@@$$$+.oXXXo@--&*&%-*$*******&$%%%&&&$O+OXXO*&-&&%$%@@+++&++O@O.XX#=:**=*%%$+$&$+$$++@@@@o.O$**&&%&%%%&&.",
"%***&$$@&***=;-&%***&$$@@$$$+..XXXo@&-*--*&**--*-&*&$$$#%%%$+O$OXXO*&-=**%&@++++%+++$O.XX#=:&&=&%$&$&*$%++$+$$++o.O$*&**&%*%*&&.",
"%**%%@@%*&***==-%**%%@@%%$$++..XXXo@&-**&--**%**-&$$#$+$#%*$+O+OXXO*&==&&&&$#++@++++%O.XX#=:&&=%%$&%*$+@o++$$$$+o.O%%***%%%%%%&.",
"$%*%$@@%*==**=-&$%*%$@@%%$+++..XXXo@--&$**-$$-$**$&$&++$#$&%+O+O.XO&-*-&=&$#&+%$+@$@%O.XX#=:*&&%$$*&&&+++@#%&@$+o..$%==**=-&$%*.",
"%%=$$$%$%**==&&&%%=$$$%$$$++o..XXXo@--$%%&&**%%*%#$&$@O##$%&$+$OXXO&=**&&&@##@+@++$+@O.XX#=:=&&%@$&++$oo+$%&&@$+o..@@**==&&&%%=.",
"%**$$%%$%**=&&$%%**$$%%$++++X..XXXo@&-&$%***%*$@#&#$+O#O#$%#o+$OXXO*%==&@&&&#$@@+@O+@O.XX#*:=&&%@$#++++++$&&&%@+o..O@**=&&$%%**.",
"$$$$$$$$$$$$$$$$$$$$$$$$+++oX..XXXo@$&-%*-*%$*$$&-&#+####+++o+$+XXO====&%&=%#$+%++O@$O.XX#*:&&%%##@$+++#@+$&@@++o..OO$$$$$$$$$$.",
"OOOOOOOOOOOOOOOOOOOOOOOOOoXX...XXXo@$$$$$$$$$$$$$$$$$$$$$$$$$$+OXXO&=&&&%&#@+@*@+OO@%O.XX#*:$%$#o#+oooo+++@%@#++o..XXOOOOOOOOOO.",
"...............................XXXXoOOOOOOOOOOOOOOOOOOOOOOOOOOOX.XO**=&%$&&@+@++OOO+%O.XX#*:$$$ooooooooooo@$%+++o..XX...........",
"XXXXXXXXXXXXXXXXXXXXXXXXXXXXXXXXXXXXX............................XO*%=&=%@$@##$+OOO@@O.XX#&;$@ooooooooooooo@@o++o..XXo&-&$$oXXX.",
"XXXXXX@$*********************************%%%$$@..................XO**&&&%&##@$++O+O@@O.XX+&*$++ooooooooooooooo++O..XXo->-&$#oXX.",
"XXXo*=:>>,,,,,,<<<,,,,,,>::::::::;;;;;;====***$$oXXXXXXXXXXXXXXXXXO**&&%%&@@@+@+OO++$O.XXO#%$OOO@oooooooo++oo+$+O..XX$---&%#+XX.",
"XXo*:,<<<<<<<<<<<<<<<<<<,,,,>::::;;;;;;====&*%$$@oXXXXXoooooooXXXXO***%&&&@@$$@O+O+++o.XX.O@%%%$@$$$$$$$$$$$$$+O...XX$&&&&##oXX.",
"XXo=,<2232,<<2,>:>>:;::;;;;;;::====;;;;==&&&%$@@oo.XX++&&&&&&$+XXXO#*%$%$&@+@%+O+O+++O.XXXX.OOOOOOOOOOOOOOOOOOO....XXo++###$oXX.",
"XXo=,22232<,,,>::>>;;;:;====;:;====;;;;=&=&&*$$@oo.Xo+&--&&&&$$oXXO#*%%@#$++++OOOOO+@O.XXXX........................XXXo+++ooXXX.",
"XXo=,2222<,,>>:;;:;;:;=*;;;;;;=*==;==*-&&&**&%@@oo.Xo+->>-==**%o.XXo#@###+##OOO+O++++..XXXXXXXXXXXXXXXXXXXXXXXXXXXXXXXXXXXXXXXX.",
"XXo=,3223<,>>;>:;=:::;=;::::;;::::;==&*&;&=*&%$@oo.Xo+->>--**&#o.XXo@#+++OOO@+OO+++$O..XXXXXX@@%%&*****************&&%%%@@XXXXX.",
"XXo:,222<<,<>>;::=:;===::>>:;;;=&*=***&&=*&%%$%@oo.Xo+&-=;==*&#o.XXo@@@++++@$@@O+@$@X..XXXX&,,,,<<<<<<<<<<<<<<<<<<<::;;;;;*%+XX.",
"XXo:,232,>,:2>;==;;:===:>,,>::;**==&*&*=%&&$$@$$oo.Xo+&==;=-*%#o.XXXooo@@$%%%%@@@@+XX..XXXX,>::>:>1>1>1>1>>,<,:::::>>;>;;;;*+XX.",
"XXo:,<2,<<>,>;;;==;;===:>,,>:;====&*&=**&%%$$@$+oo.Xo@&-;;*=*$#o.XXXX..................XXX#,>:::>,,,1,;>=>=;,;;;;;=;>;:::==&+...",
"XXo:,<,<,>>2>>;;;:;:;==;:>>:::;==-&*=&&=&&%$$@$+oo.Xo@*-;;*&*$#o.XXXX..................XXX#>>::>1,1,>=,>::>*>=&*;**=:>;::=&&+...",
"XXo:,<<,,;:>>:;;;==;:===;:::;===:==&**&**%%$@$%+oo.Xo@&-=-&$&@+o.XX$>>:;=;;=**=&%%$&&$OXXX#,>>>1111>;>>;>*>***;&**&*=;:;*#&&+...",
"XXo:,<>:<>,>::;;:==;;=:=;:;:>->:>;=*&*&*%*%$$@%+oo.Xo@%**&*&&@+o.XX>::;==;;==*&%%%*$@@OOXX#<:><1,11>,;,>>=*=*%&*&*&*;;;**%#&+...",
"XXo:,<:,>,:::;;=:===;;;-;;:;*>>;=;-**&=&&%&%$%*+oo.Xo+$&*&&&%@+o.XX,>;;;;==***&%*%$$%@O+.X#<::>1>>>1>>;=->;%;*%%*&&&***$$#&%+...",
"XXo:,>;:,:>:>;;;;;====*;;;::=:=;;===*&&&***$@@%+oo.Xo++$$$@@@++o.XX,>>>--==**&&%%$$%$@O+.X#<:1:;><;>>=>1>--*%%&*&&&&$%-%$%&%+...",
"XXo:,::;:;,:>::::;===*&*-=;>;::>=;==&*%&&&&$@@@+oo.Xo$$+++++++@O.XX::>>-**==&*%%$%%@@@O+.X#<:1:1:>;>==141>-&%*&%%&---%*%%&#@+...",
"XXo:,:,:,,:::::::==***&&*=--;:::::=&**&%&&&$$%$+oo.XXO##&&&&#@O..XX==;-&&*=&&&%&$$%$@@O+.X#<:;;:<;>=>1>1>-*-&%=*%-*%=*%*#%%@+...",
"XXo:,==:::::>:::::=**&&&*=-=::::>==&*&%%%$$$%%%Ooo.XXXoooooooo...XX**&&$$&******&@@@@+O+.X#<=::1>><:>>=>*=%&=%**%*$%%=&%&%@++...",
"XXo:,:=>:,>><2<,,:=*&&&&***=;:;;;==*&&&%%%%$$%$Ooo.XXXX..........XX$%%%$$$&****&&$$$#+OO.X#<::=;>->1>>>%*%==*&%$*&%&@&#&*@@++...",
"XXo:,:;:::>>253<>:=*&*&%&&*===-;;:=&&&&%$$$@@$+Ooo.XXXXXXXXXXXXXXXXOOOOOo##%&&&%#OOOOOOX.X#<:;;>=:1>-1;=>;*%%&&&%%&*$*%#%@@++...",
"XXo:,:;>>>><<<<2>,;*&&*&%&*=====;=*&%&%%$%$@@@+Ooo.XXXXXXXXXXXXXXXX......................X#<:=;=>>=:1>**=*%&*=*%%;*$%%%@*@#++...",
"XXo:,:=:,>><<,<<>,:=****&&********&&&%$$@@++@@+Ooo.XX@*****==============****=*&&&&$$$OXXX#<:;;>=-*;->=:*&-&%**&%&&*&%@@#@O++...",
"XXo:,:=:>>>>,,<<,,:;=****&&%%**&&&%$$$$@++++@@+Ooo.XX*>>>>::::;;;====*&&&&&&**=&$$@$$$OXXX#<:;===&&--;:**&&&%$$%$$&%@%@@%oO++...",
"XXo:,;;:>,><,,,<,:;;==*&=&%%$$@$%$$@@@+++++++@+Ooo.XX*:>>:::;;==&==;:;;=*&&&=%%%%$@@$+OX.X#<:>=>=*;-->%&&-&&$&&%%&&*%@@@$O#O+...",
"XXo:,:;:::>>>,<<>:;;=*=**%$$@@$%@@@+@+@++++OO@+Ooo.XX*>:=<:<:==%**;>,>;=*&%&%%*$$$$$@+OX.X#<:==;;>;>>-&:&%&%$%&%%$%%%%@$$OOO+...",
"XXo:,:=:,>:>>,>>:;=;==*&*$$@$@@@@@++@@@@+$@@$++Ooo.XX*>:>;<<;;&**=:,<,:;*&&%%$+$$$@@+oOX.X#<::>=&>*>-&&$%&&&$$&$@%&%&$@@@#+O+...",
"XXo>,==:::::>,;;===;==*&*&%$$@@+$@@$++@+@@@@@+OOoo.XX*><;::>::=*=*;>,>;;*&&%%%$&%$$@+ooX.X#<:::;>*=-&&%$$*&$$%$@@#%&%$++#+O++...",
"XXo>,::;;;::::=**==;=**&**&%$$@$@++@$@+@+@+@+@+Ooo.XX=>:<;><>;:****;:;==&=**&%$%*@@@+ooX.X#<:;;;=>&=&==;$$&$$$@$$#%@@++#+O$o+...",
"XXo>,::;;;;==;==;**===*&*&%&%@$$+++$%@+++O@@+++Ooo.XX=:;:;,<<>:==*&**==%=%&%%$@$$@+@+ooX.X#<:;>=;&==&=&&$%&$&$$$@+@@+++@O+#O+...",
"XXo>,:>::;;;:=**:***;===*&$*$++$@+@%$+@+@+$++++Ooo.XX=:;;=>,>>:;=%*&=**&&&&&%&*$&$++OooX.X#<:;;::=&=----&$$$$&%@@+@o+O++OOoO+...",
"XXo>::=::;;;=*&&*****==**&*$$++$%%%%@$@@@+O@@++Ooo.XX=;:=;:>>;;***&=*%*&=&*%%%&@$@@+OooX.X#<:>;*:==->>---&%%$%@#&$O+++++oO@Oo...",
"XXo>::>:;*=*&&**&*&*&==*&&&$%@@+$%&%@$@$@$@+@@+ooo.XX*;=;=;=:;=&*&*&%$%&&%;@$@$&$+@++OoX.X#<:=>;***=>>---&%%%$%@@o@+@#++OOOO+...",
"XXo>::;===***&%&&&%&****%&*&$@@+$%&&$@%+@@@+++oOoo.XX*;==;=;;=*=&*&&%=%*&*%$@+@$++@OoOoX.X#<:*:=>%*=----*%%$@$&@@+#@@@#+OO+++...",
"XXo>;==*=**&&&=&%%%%%%&*%*&$$$$@@%%&$$$$+@@$$+Oooo.XX*;;;=;*;=***&%&%%%**%=$+O+$$$$+oooX.X#<;**---&=%--&&%%$o%#@@#$%@@$++#O+o...",
"XXo>;==****&&&&%$@@$%&&*&&$$@$$@@$%%@%$@++@$$@+ooo.XX*;=;=*=***&*&%$%$*%%%%$@+@@@@++OooX.X#<;*--*-&&*=%*%%@@$$$#+&@@@$$+##O++...",
"XXo;;==**=*&&%&%$++@$$*$$%$++++@@$$$%$$@@@@@@+Oooo.XX%;=*==*=*&*&&&$&%$%@$$%@$@$$$+@OOoX.X#,;:-%-*&**&&&@&$$%o@+@+@@$$%###o++...",
"XXo;;=*****%&&%$+OO+$$%$$$@++++@@$+$$$@+@@@@++Oooo.XX&;*=***=*%&%&%%%$$$%%&$@$$$@$#++OoX.X#,;:&&-&--*-%%$@####++++@%@@$@o#Oo+...",
"XXo===*&&&&%&&%@OOOO@@%$$@@$$@@$$$@$@@$@@+@+++oooo.XX&;=*=*&*&&@&$$$%@@%$+$$+$+@@++o+ooX.X#==%&*&**&&&&%#+%@@#+@@++++@o+oooo+...",
"XXo===**&*&%%$&$++O+@$%$$@@$$@@$$+++@+@+++++OOoooo.XX&=***=*&*$@$&&%%@%%%$$$@$@$+++ooooX.X#==;%&*%%&&$&%#$$@@+$@@++@@@#O#O+o+...",
"XXo==*%*%&&**$$$@@@$$$$$$@@@@@@@@@@@@@@@++++Oooooo.XX&*==*&&&*&$$%%$$@%$@@$@%+@+OoooooOXXX#==&&%%&&&%$&$$@$@+@@++++++#OooOoo@XX.",
"XXo==****&&**$$$$$$$$$$$$@@@@@@@@@@@@@@@+++ooooooo.XX&=**&&&$&$%$@$$$@@@@@@@$@++ooOOOooXXX#==*&&%&&%%$$$$@@@@@@+@+++##oooooo@XX.",
"ooo$$$$$$$$$$$$$$$$$$$$$$$$$$$$$$$$$$$$$$$$$$$$$$$ooo$$$$$$$$$$$$$$$$$$$$$$$$$$$$@@@@@+ooo#%%%%%%%%%%####@###########o#ooooo%XX.",
"ooo%%%%%%%%%%%%%%%%%%%%%%%%%%%%%%%%%%%%%%%%%%%%%%$ooo$%%%%%%%%%%%%%%%%%%%%%%%%%%%%%%%@+ooo$$$%%%%%%%%%@@@#@@#@@@%#@%@$$$$$$$%XX.",
"@@@@@@@@@@@@@@@@@@@@@@@@@@@@@@@@@@@@@@@@@@@@@@@@@@+++@@@@@@@@@@@@@@@@@@@@@@@@@@@@@@@@@@@@@@@@@@@@@@@@@@@@@@@@@@@@@@@@@@@@@@@@@@.",
"++++++++++++++++++++++++++++++++++++++++++++++++++++++@@@@@@@@@@@@@@@@@@@@@@@@@@@@@@@@@@@@@@@@@@@@@@@@@@@@@@@@@@@@@@@@@@@@@@@@@."
};
