/* XPM */
static char *_4e01804badc4560d4abc9b92a65e8b4[] = {
/* columns rows colors chars-per-pixel */
"128 128 63 1 ",
"  c #070001",
". c #130001",
"X c #1F0001",
"o c #2B0001",
"O c #370001",
"+ c #373701",
"@ c #3F3301",
"# c #232323",
"$ c #2F2F2F",
"% c gray20",
"& c #373737",
"* c gray23",
"= c #430001",
"- c #4B0001",
"; c #570001",
": c #630001",
"> c #770001",
", c #4B3B1B",
"< c #573F1F",
"1 c #434301",
"2 c #4F4F01",
"3 c #5F5F01",
"4 c #6B6B01",
"5 c #777701",
"6 c #5F4323",
"7 c #6F4B27",
"8 c #774F2B",
"9 c #430043",
"0 c #5B005B",
"q c #6F0073",
"w c #434343",
"e c #4B4B4B",
"r c gray34",
"t c #676767",
"y c gray45",
"u c gray50",
"i c #830001",
"p c #9B0001",
"a c #9F0001",
"s c #9F4F01",
"d c #B75701",
"f c #83532F",
"g c #CF6301",
"h c #E76F01",
"j c #FF7B01",
"k c #878701",
"l c #939301",
"z c #9F9F01",
"x c #AFAF01",
"c c #BBBB01",
"v c #FF8B23",
"b c #C7C701",
"n c #FFFF01",
"m c #870087",
"M c #9F009F",
"N c gray56",
"B c #9B9B9B",
"V c gray67",
"C c #B7B7B7",
"Z c #C3C3C3",
"A c LightGray",
"S c #DFDFDF",
"D c #EFEFEF",
/* pixels */
"$$$$$$$$$$$$$$$$$$$$$$$$$$$$$$$$$$$$$$$$$$$$$$$$$$$$$$$$$$$$$$$$$$$$$$$$$$$$$$$$$$$$$$$$$$$$$$$$$$$$$$$$$$$$$$$$$$$$$$$$$$$$$$$*",
"******************************************************************************************************$$$$$$********************",
"rr**rreeeeeeeeeerreeeeeeeeeeeerree**eeeeeeeeeeeeeerrrrrrrrrrrreeeeeeeeeeeeeewwweeeeeeeeeeeeeeeeeewwww**&&&&**eeerrrreeeeeeeeee**",
"rr**rreeeeeeeeeerreeeeeeeeeeeerree**eeeeeeeeeeeeeerrrrrrrrrrrreeeeeeeeeeeeeeeeeerrrrrrrrrrrrrrrreeeeee**$$**eerrrrrrreeeeeeeee**",
":-;=:=::-:-:--:-;:=:=:=;:eeeeerrei:-;:-:-:-:--:-;=:=::;-:--:=;;:;;-:-;;;;*eeeeerei:-;:-:==========-=-=-=-=====-==-=---;=:-:-;=:=",
">:i::i::i:ii::>:i::i:>:i:-#eeertppi>>i:ii:ii::>:i::i::i:i>:::::i;i:i:i::=o**eereppi>>i:ii:ii::>:i::i::i:i>>:i::::::ii:i:>:>:i::i",
":=cc:-:::;::;=:=::O:-O;;=O#$eertp::;;:=::;::;=:=:O:-:::::;=:;;;:=:=::;-:=o$*err*p::;;:=::;::;=:=:O:-:::::;:=;;=:;;;::=:O:=:=cc:-",
";cnxlO:;;:;:==;=;:;:O:O:Oo#$eertpi:=:;=:;:;:==;=;O;O:;:;:==:O-:;=:;:;:-:=o$*eer*pi:=:;=:;:;:==;=;O;O:;:;:=;O:;=:O-:;;=;O;=;lxnc=",
"5bbx51rNCCCCCCCCCCCCCCCCCCCCCCCCCCCCCCCCCCCCCCCCCCCCCCCCCCCCCCCCCCCCCCCCCCCCCCCCCCCCCCCCCCCCCCCCCCCCCCCCCCCCCCCCCCCCCCCCBt15xbb5",
"5xcz5+uBBBBBBBBBBBBBBBBBBBBBBBBBBBBBBBBBBBBBBBBBBBBBBBBBBBBBBBBBBBBBBBBBBBBBBBBBBBBBBBBBBBBBBBBBBBBBBBBBBBBBBBBBBBBBBBBBBu+5zcx5",
"35kk4+yyyyyyuuuuuuuuuuuuuuuuuuuuuuuuuuuuuuuuuuuuuuuuuuuuuuuuuuuuuuuuuuuuuuuuuuuuuuuuuuuuuuuuuuuuuuuuuuuuuuuuuuuuuuuuyyyyyy+4kk53",
"323321rrtyyyyyyyyyyyyyyyyyyyyyyyyyyyyyyyyyyyyyyyyyyyyyyyyyyyyyyyyyyyyyyyyyyyyyyyyyyyyyyyyyyyyyyyyyyyyyyyyyyyyyyyyyyyyyyytr123323",
"X21+2Xrtyyyyyuuuuuuuuuuuuuuuuuuuuuuuuuuuuuuuuuuuuuuuuuuuuuuuuuuuuuuuuuuuuuuuuuuuuuuuuuuuuuuuuuuuuuuuuuuuuuuuuuuuuuuytttrrr 2+12 ",
"XX33XotuuuyyyyuuBBBBBBBBBBBBBBBBBBBBBBBBBBBBBBBBBBBBBBBBBBBBBBBBBBBBBBBBBBBBBBBBBBBBBBBBBBBBBBBBBBBBBBBBBBBBBBBBuuytttuurr..33 o",
"=oXX==yyZZ:i:;;ooruur=;:::::------------------------------------------------------------------------::::::=ruurooooo-uZZutoo oo;",
"O====OryBZii>:;;oorr=;::::::------------------------------------------------------------------------:::::::=rroooooo:-ZByt;=oo=;",
"-:==:OrtuB:aButtroooorZZZZZZZZZZCCCCCCCCCCCCCCCCCCCCCCCCCCCCCCCCCCCCCCCCCCCCCCCCCCCCCCCCCCCCCCCCZZZZZZZZZZroooorttuBa:Buyt=-;o=;",
";::=;;tttu:aBBuytroorZZZZZZZZZZZCCCCCCCCCCCCCCZZZZZAAAAAAAAAAAAAAAAAAAAAAAAAAAAZZZZZZCCCCCCCCCCCZZZZZZZZZZZroortyuBBaiuuty==;o=;",
"======uyty;iVCVuyuNVVVVVCCZZyeqqeNCCCCCCCCCCCCCCCCCZZZZAAASSSSSSSSSSSSSSSAAAZZCCCCCCCCCCCCCCCCNeqqeyZCCCCCVVVNuyuVCVi:yttuoXXooo",
"oooooouuyy=:VACVuuNNVVVVCCZye0qq0eNCCCCCCCCCCCCCCCCCCCCCZZZAAAAAAAAAAAAAAAZCCCCCCCCCCCCCCCCCCNe0qq0eyZCCVVVVNNuuVCAV:=ttuuoOoooO",
"######Buuy==NCACVNBBBVVVVVBe000000eNVCCCCCCCCCCCCCCCCCCCCCCZZZZZZZZZZZZZZZCCCCCCCCCCCCCCCCCVNe0qmmq0eBVVVVVBBBNVCACN==yuuB#####$",
"&&&&##BBuuo=uVZACVBBBBBVVVB00000000eNVZCCCCCCCCCCCCCCCCCCCCCCCCCCCCCCCCCCCCCCCCCCCCCCCCCCZVNe0qmmmq00BVVVBBBBBVCAZVu=ouuBB##$$$$",
"rew**#VBNuoouBZZACVBBBBBBBB000000000eyNVZCCCCCCCCCCCCCCCr0yCCr*0000000hhhhjCCCCCCCCCCCCZVNye0qmmmqq00BBBBBBBBVCAZZBuoouNBV#*rrrr",
"rr***#VVNNootNVZZACVBBBBBBBe0000000000eNNBZCCCCCCCCCCCCC000yr000000000dddghjCCCCCCCCCZBNNe00qmmqqq00eBBBBBBBVCAZZVNtooNNVV#*rrrr",
":=:=:=VVBNootuBCZZZZCBBBBBBBe00000000000etNBCCCCCCCCCCCC0000000000qmq0ddddghvCCCCCCCBNte00qmmqqq009eBBBBBBBCZZZZCButooNBVV-:--:-",
"::i:>:VVBBootyNVCZZZCVBBBBBBye000000000000etNBCCCCCCCCCCr000000000mtm0dddddghvCCCCBNte00qqqqqq00999yBBBBBBVCZZZCVNytooBBVVii::>:",
":O:-O=CCVVooyyuBVCZZCVVt00eyyye00000000000000etNBCCCCCCCyr00000000qmq0dddNCCCCCBNte000qqqqq000999eyyye00tVVCZZCVBuyyooVVCC::;=:=",
":;:O:OCCVVoouyuNBVCCVVtq00qeyyye0000000000000000etNCCCCCVy000000000000ddNCCCCNte000qqqqq00009999eyyyeq00qtVVCCVBNuyuooVVCC;:==;=",
";O:=O=CCVV--NyyuBBVVVt00000qryyye00000000qmqq00000etNBCCCN000000000000NNCCBNte00000000000999999eyyyrq0000qtVVVBBuyyN--VVCC=:;==;",
":;;O;OCCVV--NuyuNBVVuq000000qryyyee000000qmmqq000000eNCCCV000000000000NCCCNe00000000009999990eeyyyrq0000qmMuVVBNuyuN--VVCC::;:;=",
":O:O:OCCVV--NNyuuNBBtqq0000009eettee*99999qq000000000eCCCC000000000000CCCCe0000000099999999*eettee900000mMMtBBNuuyNN--VVCC=:==:=",
";O;O;OCCVV--NNuuuNBuqqqq00000999eeee**9999qq000000000rCCCC000000000000CCCCr000099999999999**eeee9990000qmMMquBNuuuNN--VVCC::;=;=",
"O=;O:;CCVV--BNNuuuNuqqqqq000009999eeee*99999999999999rCCCC000000000000CCCCr99999999999999*eeee999900000mMMmquNuuuNNB--VVCC::;:=:",
":;;O-;CCVV--BNNuuuNuqqqqqq00009999999e**999999999999rNCCCC000000000000CCCCNr999999999999**e99999990000qMMmq0uNuuuNNB--VVCC;:=;=;",
"O;;o:OCCCC--BNNNuuuNrqqqqqq000099999999999999999999yCCCCBy000000000000yBCCCCy999999999999999999990000qmMmq0rNuuuNNNB--CCCC=:;;;:",
";:;;:=CCCC--BBNNuuuutrqqqqqq0000999999999999999999yNCCCCy00000000000000yCCCCNy9999999999999999990000qmmmqqrtuuuuNNBB--CCCC::;:O;",
";=:=;=CCCC--VBNNuuuuutrqqqqqq00009999900999999999y99yCCC0000000000000000CCCy99y99999999900999990000qmmmqqrtuuuuuNNBV--CCCC=:=:-:",
"O=:=:=CCCC--VBNNNuuuuutrqqqqq0000099900099999999y9999yCCr00000000000000rCCy9999y999999990009990000qqmmqqrtuuuuuNNNBV--CCCC;:;;-:",
"======CCCC--VBBNNuuuuuttrrqqqq000000000q09999999999999yCCr000000000000rCCy99999999999990q00000000qqmqqrrttuuuuuNNBBV--CCCC=;=;==",
"ooooooCCCC--VVBNuy***ettttrrqq000000000q099999999999999yCC000000000000CCy999999999999990q000000qqqqqrrtttte***yuNBVV--CCCCooo=oo",
"$$$$##CCCC--VVBNte9999*ettuurr000000000qq099999999999999tt000000000000tt999999999999990qq00000qqqqrruutte*9999etNBVV--CCCC######",
"$&&&##CCCC--VVBNe99999999eyuNNrr0000000qq0999999999999999900000000000099999999999999990qq00qqqqqrrNNuye99999999eNBVV--CCCC##***$",
"reee*#CCCC--VVVB999999999999eruuNNttrr00q009999999999999900000000000000999999999999990qq00rrttNNuure999999999999BVVV--CCCC#*eeee",
"rrrr*#CCCC--VVVB999999999999990etyttrr000q00999999999999900000000000000999999999999900q000rrttyte099999999999999BVVV--CCCC#*eeee",
"rrri:-CCCC--VVVB09999999999999000000000q0000099999999999000000000000000099999999999000000qqmmmm00099999999999990BVVV--CCCC=;:*ee",
"rrppi>CCCC--VVVB0999999999999990000000000000009999999999000000000000000099999999990000000qmmmmm00999999999999990BVVV--CCCC:i:-*e",
"rrp::;CCCC;;VVBB099999999999999000000000000000009999999000000000000000000999999900000000qqmmmmq00999999999999990BBVV;;CCCC;;=O$*",
"rrpi:=CCCC;;VVBBe0999999999999990000000000000000009999000000000000000000009999000000000qqmmmmmq0999999999999990eBBVV;;CCCCO:Oo$$",
"**ii;=CCCC;;VVBBy099999999999999000000000000000000000000644kkkkkkkkkk44600000000000000qqmmmmmq00999999999999990yBBVV;;CCCC;-Oo#$",
"**ii:;CCCC;;VVBBBy99999999999999900000000000000000000000727888ffff8887270000000000000qqmmmmmq00999999999999999yBBBVV;:CCCCO:Oo#$",
"eei::=CCCC;;CCBBBBye99999999999999000000000000000000000072q0q0q00q0q0q27000000000000qqmmmmmq0099999999999999eyBBBBCC::CCCCO;Oo#$",
"eei::;CCCC;;CCBBBByyre*99999999999900000000000000000000073q000qMMq000q370000000000qqqmmmmqq00999999999999*eryyBBBBCC:>CCCCO:Oo#$",
"eei::;ZZZZ::ZZyq0q*ettrrew***wweeerrrr00000000000000000062q00qMmmMq00q2600000000qqqmmmqq00rrrreeeww***werrtte*q0qyZZ>iZZZZ;=Oo#$",
"eei::=ZZZZ::Zuqqq00009*eeww***wweeerrr00000000000000000073q0qMm99mMq0q370000000qqmmmqq0000rrreeeww***wwee*90000qmquZiiAZZZ;=Oo#$",
"rri:;=AAAA::Arqq000009999999999999990000000000000000000062qqMm9==9mMqq260000qqqqmmq0000000099999999999999990000qmmrAiiAAAAO;Oo#$",
"rrii:;AAAA::A0qq000000999999999999999000000000000000000063qMm9=::=9mMq3600qqqqqq0000000000999999999999999900000qmm0AiiAAAA;-Oo#$",
"eeii:=ZZZZ::Z0qq000000999999999999999900000000000000000062Mm9=::::=9mM26000000000000000099999999999999999900000qmmqZiiAAAZ=-Oo#$",
"eeii:=ZZZZ::Z0q0000000099999999999999900000000000000000063Mq=;::::;=qM3600000000000000999999999999999999900000qqmmqZi>ZZZZXoOo#$",
"ee:-==ZZZZ;;Z0q0000000099999999999999990000000000000000062mMq=;::;=qMm2600000000000099999999999999999999900000qmmmqZ>:ZZZZOXXo#$",
"ee*===ZZZZ;;Z0q00000000999999999999999990000000000000000639mMq=;;=qMm93600000000099999999999999999999999900000qmmmqZ::ZZZZOoX##$",
"eee$##CCCC;;Ct00000000009999999999999er*00000000000000006209mMq==qMm90260000000099999999*re999999999999900000qqmmqtC::CCCC#####$",
"eeee*#CCCC;;Cu000000000099999999999ete*9900000$**000000076009mMqqMm900670000000**$0000099*ete9999999999900000qmmmquC::CCCC##$$$$",
"rrrrr#CCCC--CCt000000000099999999etr999999000$ee*00000006<0009qMMq9000<60000000*ee$000099999rte9999999900000qqmmqtCC:-CCCC##errr",
"rrrrr#CCCC--CCBt00000000009999etyr9999999990$rre00000000%16000999900061%00000000err$0009999999ryte999900000qqmqqtBCC:-CCCC##errr",
"::-;=:CCCC--CCVBtt000000000etyyr99999999999ette0000000000%,<60099006<,%0000000000ette00999999999ryyte000000qqqttBVCC--CCCC==-:=;",
">>:i:>CCCC--CCVVBBtt000etyyyyr999999999999eyte0000000000000$,624426,$0000000000000etye999999999999ryyyyteqqqttBBVVCC--CCCC-=::::",
"-:=:O:VVVV==VVVVCCVBBBBBBByr9999999999999eyye0000000000000000@1111@0000000000000000eyye9999999999999ryBBBBBBBVCCVVVV==VVVV=;=:;;",
"o:=;O;VVVV==VVVVVVVBBBBBtr*0099999999999eyye0000000000000000000000000000000000000000eyye99999999999000rtBBBBBVVVVVVV==VVVV===:O-",
"=;;-;=VVVVOOVVVVBBBBByr*000009999999999eyye000000000000000000000000000000000000000000eyye9999999999000000ryBBBBBVVVVOOVVVV=O:;;O",
"O;=-O;BBBBOOBBBBBBByr*0000000099999999eyye00000000000000000000000000000000000000000000eyye99999999000000000ryBBBBBBBOOBBBB===:O-",
"O:=;;:NNNNooNNNNNNy*00000000000999999eyye00000000r00*y00000000000000000000y*00r00000000eyye999999000000000000yuNNNNNooNNNN=O=:O-",
"O;==;;NNNNooNNNNuy*00000000000009999eyye000000000r*0yr00000000000000000000ry0*r000000000eyye999900000000000000yuuNNNooNNNN===-;O",
"O;:=;-NNNNOONNNNy*00000000000000099eyye000000000rByyr0000000000000000000000ryyBr000000000eyye990000000000000000yuuNNOONNNN===;O-",
"O;;=;-BBNNOONNNNy00000000000000000eyye000000000rBByr000000000000000000000000ryBBr000000000eyye00000000000000000yBBBBOOBBBB=O:-;O",
"o;:=;-BBBB==BNBNy0000000000000000eyye0000000000BBBr00000000000000000000000000rBBB0000000000eyye0000000000000000yBBBB==BBBB=;=;O-",
"O;;=;-BBBB==BBBBy*00000000000000eyye0000000000rBr*0000000000000000000000000000*rBr0000000000eyye000000000000000yBBBB==BBBB=O=:O-",
"-;:=;-VVVV==VVVVBy0000000000000eyyr0000000000rBr00000000000000000000000000000000rBr0000000000ryye0000000000000yBVVVV==VVVV===-;O",
"-;:=;-VVVV==VVVVBy*00000000000eyyr0000000000rBr0000000000000000000000000000000000rBr0000000000ryye000000000000yBVVVV==VVVV==::;=",
"oO-XooCCCC==CCCCCCy*000000000eyyr0000000000rBr000000000000000000000000000000000000rBr0000000000ryye0000000000yCCCCCC==CCCC======",
"OOOoooCCCC==CCCCCCCy*0000000eyye00000000000yB00000000000000000000000000000000000000By00000000000eyye00000000yCCCCCCC==CCCCoooooo",
"$$$$$#CCCC--CCCCCCCCy*00000eyye00000000000eBr00000000000000000000000000000000000000rBe00000000000eyye000000yCCCCCCCC--CCCC######",
"****$#CCCC--CCCCCCCCCCy00eyuuu000000000000BB0000000000000000000000000000000000000000BB000000000000uuuye00yCCCCCCCCCC--CCCC##$$$$",
"rree$#ZZZC--CCCCCCCCCCCCBBBBBB00000000000yCBe0000000000000yy00000000yy0000000000000eBCy00000000000BBBBBBCCCCCCCCCCCC--CCCC#*ee**",
"eeee$$ZZZZ--ZZZCCCCCCCCCCCCBBB0000000000yBCBue00000000000ryr00000000ryr00000000000euBCBy0000000000BBBCCCCCCCCCCCCCCC--CCCC#*rre*",
"ee*i:-ZZZZ;;ZZZZCCCCCCCCCCCCBBt00000000yCCCBNNye000000000yr0000000000ry000000000eyNNBCCCy00000000tBBCCCCCCCCCCCCZZZZ;;ZZZZ;;;*ee",
"eeppi>AAZZ;;ZZZZZZZCCCCCCCCCBBBt00000tBBCCCCNtte00000000000000000000000000000000ettNCCCCBBt00000tBBBCCCCCCCCCCCCZZZZ;;ZZZZ::=oee",
"e*p::;SAAA;;ZZZZZZZZZZCCCCCCBggVCCCCCCCCCCCCNdd*00000000000000000000000000000000*ddNCCCCCCCCCCCCVggBCCCCCCZZZZZZZZZZ;;ZZZZ::=o*e",
"r*pi:=SSSA;;AZZZZZZZZZZCCCCBdddgVCCCCCCCCCNdghh8*000000000000000000000000000000*8hhgdNCCCCCCCCCVgdddBCCCCCZZZZZZZZZZ;;ZZZZ::=o$*",
"e*ii;=DDDS::SAAAAAZZZZZZZZBdssddgghhhjjjjhhhhddd8*0000*ryy000000000000yyr*0000*8dddhhhhjjjjhhhggddssdBZZZZZZZZAAAAAA::AAAA;:=o$*",
"e*ii:;DDDS::AAAAAAZZZZZZZZdsVVssddgghhjjhhgdddddd8*00ryyCe000000000000eCyyr00*8ddddddghhjjhhggddssVVsdZZZZZZZZAAAAAA::AAAA;:=o#*",
"e*i::=AAAA::AAZZZZZZZZCCCCCCCBBsssdghhhhhhgdddNVCCCCCCCCe00000000000000eCCCCCCCCVNdddghhhhhhgdsssBBCCCCCCCZZZZZZZZZZ::ZZZZ;:=o#*",
"e*i::;ZZZZ::ZZZZZZZZZZZCCCCCCCCBtsdhhhggggggsNVCCCCCCCCe0000000000000000eCCCCCCCCVNsgggggghhhdstBCCCCCCCCCZZZZZZZZZZ::ZZZZ;:=o#*",
"**i::;ZZZZ;;ZZZZZZZZZCZCCCCBggggghhhggdddddddddNCCCCCCe000000000000000000eCCCCCCNdddddddddgghhhgggggBCCCCCCCCCCCZZZZ;;ZZZZ;:=o#*",
"**i::=ZZZZ;;ZZZZZZZZCCCCCCBgddddddhggdddssssddddCCCCBe00000000000000000000eBCCCCddddssssdddgghddddddgBCCCCCCCCCCZZZZ;;ZZZZ;;=o#*",
"r*i:;=CCCC--CZZZZZCCCCCCCCddssssssggddsNNNNNNsddCCBue0000000000000000000000euBCCddsNNNNNNsddggssssssddCCCCCCCCCCCCCC--CCCC;;=o#*",
"e*ii:;CCCC--CZCCCCCCCCZCCCdssVVVVVggdsNNCCCVNsdNCuue000000000000000000000000euuCNdsNVCCCNNsdggVVVVVssdCCCCCCCCCCCCCC--CCCC-:=o#*",
"**i::=CCCC--CCCCCCCCCCCCCCdssVCCCCggdVVCCCCCCCCBur0000000000000000000000000000ruBCCCCCCCCVVdggCCCCVssdCCCCCCCCCCCCCC--CCCC-:=o#*",
"**i::=CCCC--CCCCCCCCCCCCCCVsVCCCCCggdVCCCCCCCCue00000000000000000000000000000000euCCCCCCCCVdggCCCCCVsVCCCCCCCCCCCCCC--CCCC;:=o#*",
"e*::==CCCC--CCCCCCCCCCCCCCCCCCCCCCdddVCCCCCBur000000000000000000000000000000000000ruBCCCCCVdddCCCCCCCCCCCCCCCCCCCCCC--CCCC===o#*",
"e*$=ooCCCC--CCCCCCCCCCCCCCCCCCCCCCVddsCCCue000000000000000000000000000000000000000000euCCCsddVCCCCCCCCCCCCCCCCCCCCCC--CCCCooo##*",
"****$#CCCC--BCCCCCCCCCCCCCCCCCCCCCVVdsCCe00000000000000000tu00000000ut00000000000000000eCCsdVVCCCCCCCCCCCCCCCCCCCCCB--CCCC####$*",
"****$#CCCC--BCCCCCCCCCCCCCCCCCCCCCCVVVCCe0000000000000000tCt00000000tCt0000000000000000eCCVVVCCCCCCCCCCCCCCCCCCCCCCB--CCCC#$***e",
"ee**$#CCCC--tuCCCCCCCCCCCCCCCCCCCCCCCCCCue0000000000000tBCC0000000000CCBt0000000000000euCCCCCCCCCCCCCCCCCCCCCCCCCCut--CCCC#*rrrr",
"ee**$#CCCC---tNCCCCCCCCCCCCCCCCCCCCCCCCCBur00000000000tBCCt0000000000tCCBt00000000000ruBCCCCCCCCCCCCCCCCCCCCCCCCCNt---CCCC#*rrrr",
":-:--=BCCC-----NCCCCCCCCCCCCCCCCCCCCCCCCCCBuee0000000tBCCC000000000000CCCBt0000000eeuBCCCCCCCCCCCCCCCCCCCCCCCCCCt----rCCCB=::=;;",
":ii::=uCCCu------tNCCCCCCCCCCCCCCCCCCCCCCCCCuurr00etBCCCCt000000000000tCCCCBte00rruuCCCCCCCCCCCCCCCCCCCCCCCCCut-----ruCCCu=:>:i:",
";::;=OuBCCBNt-------tNCCCCCCCCCCCCCCCCCCCCCCCCCCCCCCCCCCN00000000000000NCCCCCCCCCCCCCCCCCCCCCCCCCCCCCCCCCCNt------rtNCCCBu=-O=;-",
":;:====uCCBCNNu--------tNCCCCCCCCCCCCCCCCCCCCCCCCCCCCCCCu00000000000000uCCCCCCCCCCCCCCCCCCCCCCCCCCCCCCCNt-------ruNCCCCCu=-O:O:-",
":=:;==OrBCCCCCCNNut-------tNCCCCCCCCCCCCCCCCCCCCCCCCCCCCN00000000000000NCCCCCCCCCCCCCCCCCCCCCCCCCCCCNt-------tuNCCCCCCCBrO-=O==-",
";::;:;=OuBCCCCCCCCCNNt-------tNCCCCCCCCCCCCCCCCCCCCCCCCCCt000000000000tCCCCCCCCCCCCCCCCCCCCCCCCCCNt-------tNNCCCCCCCCCBr=-;O;O:;",
":=:==:=;OruBCCCCCCCCCCVNu-------tNCCCCCCCCCCCCCCCCCCCCCCCCt0000000000tCCCCCCCCCCCCCCCCCCCCCCCCNt-------uNVCCCCCCCCCCBurO-O:O:O;-",
";::;=;==OOOryBCCCCCCCCCCCVNNt-------tNCCCCCCCCCCCCCCCCCCCCCt00000000tCCCCCCCCCCCCCCCCCCCCCNt-------tNNVCCCCCCCCCCCByrO=-;O;O;O:-",
":=:==:=;O=OOOrruBCCCCCCCCCCCCBNt-------tNCCCCCCCCCCCCCCCCCCCt000000tCCCCCCCCCCCCCCCCCCCNt-------tNBCCCCCCCCCCCCBurr==O:O:O:O:;=;",
";::;=;=:O;O==OOorruBCCCCCCCCCCCCBNt-------tNCCCCCCCCCCCCCCCCCt0000tCCCCCCCCCCCCCCCCCNt-------tNBCCCCCCCCCCCCBNrX==-=:O;:;O;O;;=:",
";::;:=:=;O;=;==O=OoorrBCCCCCCCCCCCCBNut-------tNCCCCCCCCCCCCCCttttCCCCCCCCCCCCCCNt-------tuNBCCCCCCCCCCCCBNrXX=-;:=:=;O:O=;O:O;=",
":;:=;=;=:O;=:;;O;===oorruBCCCCCCCCCCCCCBNt--------tNCCCCCCCCCCCCCCCCCCCCCCCCNt--------tNBCCCCCCCCCCCCCBurrXX=:;:=;=;=:O;:;;O-::=",
":=:;;;:=:;O;=O;o;:====-oorrNBCCCCCCCCCCCCCBNt--------tNCCCCCCCCCCCCCCCCCCNt--------tNBCCCCCCCCCCCCCBNr=XX=;-=:=:;;;:=:;;O;;o::=:",
";::;:O;:=:=::;:O;;==:;=;==oorruuBCCCCCCCCCCCCBBNt-------tNCCCCCCCCCCCCNt-------tNBBCCCCCCCCCCCCBuur#XX==-;=:;;::;:O;:=:O;:;;:;:=",
":=:=:-:==:=:==:-;:==:=-;;=====oorruNBCCCCCCCCCCCCBNt---------tNBBNt---------tNBCCCCCCCCCCCCByrr$####==-=;:=:=:=:=:-:==:O;=:=;:==",
":;:;;;::=;=:;-:-;:=-:==;;=;==-o-Xooo##*uBCCCCCCCCCCCBNtt----------------ttNBCCCCCCCCCCCBuyrrOo######ii:=:=;-;:;:;;;::=;;O=:=:::=",
"=============O-oO-XoooXXoooXOXoXOXXo#####ruuBCCCCCCCCCCNBut----------tuBNCCCCCCCCCCBNurroXOXXo###$$$--=======================--:",
"ooooooooooooooooooooOoOoooOXOo=OOoX##$****$=rruBCCCCCCCCCCCNu------uNCCCCCCCCCCCBurrOXOo=OOoXo#$$$$$*=oooooooooooooooooooooooooo",
"#####################################$*er**$$##ruBBCCCCCCCCCCCCCCCCCCCCCCCCCCBBrr##############$*wee**$$$######################$",
"$$$$$$$$$$$$$$$$$$$$$$$$$$$$$$$$$$$$$$eerree*$$$$&$ruuBCCCCCCCCCCCCCCCCCCBuurr$$$$$$$$$$&&&&&&&&*weeee**$$$$$$$$$$##########$$$$",
"**ew**ew******wwwwwwwwwweeew***wwwwwwwerrrrrreee**$$$$$$ruBBCCCCCCCCBBttr$$$$$$*********wweeww**wwrreee***ereeeeeeeew****weeeeee",
"**eewerewwwwwweeeeeeeeeerrrewweeeeeeeerrrrrrrrrrree**$$$$$$ruuBBCBuutte$$$$$$*****ww****wweeww**wwrreeee**rreeeeeeeeww**wweeeeee",
"rrrrrrrrrrrrrrrrrrrrrrrrrrrrrrrrrrrrrrrrrrrrrrrrrrrree*$$$$$$$$$$$$$$$$$$$**errrrrrrrrrrrrrrrrrrrrrrrrrrrrrrrrrrrrrrrrrrrrrrrrrr",
"rrrrrrrrrrrrrrrrrrrrrrrrrrrrrrrrrrrrrrrrrrrrrrrrrrrrrrree*$$$$$$$$$$$$$**eerrrrrrrrrrrrrrrrrrrrrrrrrrrrrrrrrrrrrrrrrrrrrrrrrrrrr"
};
