/* XPM */
static char *_3695ae85a8449b6b031d0796e35174d[] = {
/* columns rows colors chars-per-pixel */
"128 128 41 1 ",
"  c #000001",
". c #010001",
"X c #070001",
"o c #0B0001",
"O c #1B0701",
"+ c #00001F",
"@ c gray12",
"# c #230B01",
"$ c #00003F",
"% c #232323",
"& c #2F2F2F",
"* c gray20",
"= c #373737",
"- c gray23",
"; c #000043",
": c #00004F",
"> c #00005B",
", c #00005F",
"< c #000067",
"1 c #000073",
"2 c #00007F",
"3 c #434343",
"4 c #4B4B4B",
"5 c gray34",
"6 c #676767",
"7 c gray45",
"8 c gray50",
"9 c #00008B",
"0 c #00009B",
"q c #00009F",
"w c #0000A7",
"e c #0000AB",
"r c #0000B3",
"t c #0000BF",
"y c #0000CB",
"u c #0000D7",
"i c #0000DF",
"p c #0000E3",
"a c #0000EF",
"s c blue",
"d c #0007FF",
/* pixels */
"$++>>1199999999900220000000000099990922202222022>><<<<>>::+$;11111011111111111111>111+$$$$$111111111111111111111$$$$1111111111$$",
"$++>>119900099900922www000092222229902<<92222221>><<<<>>::+$;111111111111111111112111+$$$$11111999999999999911111$$$1rrrw99111$$",
"+++999999ww00999w19200209w92w0922201111<19229221<<>>::>><:++,2qtttttttttt0ttq9222222<+  ++,0000000wwwwww000000991$  wrurwwww9<  ",
"+++9999909990929911201990r92w09212119<<<112292112<><::>><:++,qissitt2t20000q9921221<<+  ++,00000000000000wwrttw91$  wuuuwwww9<  ",
"++;ww99ww00w99991<<12990www2rw92211<:<<<<<121122<<<:>><<1: +,qissit901090099ttq12<<<:$  ++,0rrwwrrw00r0rrryryytw1$  wrurw0992<  ",
"++;ww99w9909w9299<2<09090029ww922111<21<<2<2922<<<<2>><<1: +,qtiirw00909019tq<<q02<<:;  ++,0rrwwrr000trrrryyttrw1$  wwrww0092<  ",
"++;0000w990999229<91r9999w2900209921<19><91222222122>>::<: +,9qrrrrr0w29119<<<19<<<<:;  ++,0wwrwwr00rytwwwyywrrw1$  0000ww09<:  ",
"++;0000w9999022992<1r00929900101211<><<>2<112<<11222>>::<: +,9qrttrr01029921<1<<<<<2:;  ++,0wwwrrr0ryrttw0rr0ww91$  0000ww99<:  ",
"++:00wwww90t992w1992rw019209922222129<2<99291>21<2222<2<:: +,2q0trr00919112<<1<2:1,>:;  ++,0rrwrwrrt0yww0000rw02<$  22900911<:  ",
"++:00wwww009000w2999w9992091920291112><>9999022212<2<2<<:: +,292wrw002299122<<<112,>:;  ++,0rrrwwtrrwryywtr909w2<$  229<99111:  ",
"++<9900099922092299w0292921<1221w><><2<:99w922<22222222:<: +:9090w020901<2<<91<2><,::;  ++,0rrwwtrwrtypptww009991$  992211>11:  ",
"++<9909092220022290r9029221019291<>:><:990r922929929022:<: +,9022290091921<<0>11<,>::;  ++,0rrrrwtrwyppyrrw090901$  991229>1<:  ",
"++<990999122022910ww9992121119910<:;:<<90www219992122<21<: +;90020002019211<12<2<,,2:;  ++,0wwrrwtryryptt0wwr991<$  911122:1<:  ",
"++<91w0920090900220092921<1<91111<>:>>90200299ww09122<11<: +,900200019112121><20<,,>:;  ++,0wrrtrrwwrwttr0w9w991<$  <<1121::::  ",
"++<99ww99990200w099w29222<21<1><<1><><9099w29wtt0w2><<>><: +,9w9222<1221112<>::<:::>:;  ++,0wwrrrtr0trrtrw9wr0991$  <>>111>>::  ",
"++<992199990099ww9121212111<<<112<><<90w91299wwtw092<<>><: +,0r92q2<<11212<2<2>:<::>:;  ++,0wr00trw0ywwwwww09w091$  ;<>>::>>;;  ",
"++:222222921991tww022>2<<<1>>1<:<<:<:9www0290www099111<<1: +:www2q2<<2221<><1>2::::>:;  +$>92000ww000wqw2q009ww09$   ;;;;;;;;   ",
"++:22121999ww02wwww22902<<22<11<1:<210wwww2290w0921111<<1: +:0029q1<<1<:<<><<1:>:::>:;  +$>9q000w9990wwww2w09w991$              ",
"++;1119w29wwtww02w09912<<<0>2<><<::<229990wq219992<<>><<<: +:9w29<1112>>2<><<::<2,>::;  +$>9q0qq0w00wwqrrw9920011$  +:qwwww2:+  ",
"++;1111929wrttwrw009991<122<<<:><>::<9299900q19911>>11<<:: +:<22<<2><>1<<<:><>::<<>::;  +$>9q0920tq09w9r0ww992911$  :qiiittw1:  ",
"++;111129wwrrrwwww9w092<<11>>>::><<12900990q2<191<>>11<::: +:11<21<12<<>>>::><<12,>>:;  +$>9q22110q9ww9w0w0w00011$  0isttqww2>  ",
"++;1111290wwrwww9w90222<<22>>::::>:1>19900222110<<<1<<<::$ +:1<<<2><<<>>>::::>:1>>:::;  +$>902111029w9rww0w0rrw21$  0isiqqw22>  ",
"+++1122092ww9rw920021<1<<1<:><::<::>:199022<1199<<11<::::+ +:122<<>1<>;:><::<::>:2:>:$  +$>292<12r99w9rr09090w9w>$  9istw292>>  ",
"+++1122902090029990wq21112>:>:::<:><:<<<<<<<<<<<<<<<<:::$+ +:,<<>>>:::;:>:::<:><:::>:$  +$>292222991ww9099922292>$  9iitw292>>  ",
"+ +>>1110w90099299900q1><>1$>;$$$$$$$:::::::::::::::::$++  +$:$$::;$$$$$>;$$$$$$$$$$$+  +$>122222222222222222222:$  9iy0w22<:>  ",
"+  >>111190119900990q2<$$$$++++++++++                      ++$++$$++++++++++++++++++++  ++$,,,,,,,,,,,,,,,,,,,,,$+  9i0099<<:>  ",
"+++::>>11001111990022:$                                                                  ++$$;;;;;;;;;;;;;;;;$$++   2tq212>><>  ",
"++++:>>1111011199022,+                                     +                                               X        2q22222><>  ",
"++++$;;:<<<<<<<<<<<<,+  @%%%%%%%%%%%%%%%%%%%%%%%%%%%%%%&-44-&%%%%%%%%%%%%%%%%%%%%%%%%&-44-&%%%%%%%%%%%%%%           ;119rr91:;  ",
"++++++;::::::::::::;;+  %--------------------------------44----------------------------44---------------&           +;<<>>::;+  ",
"++                      %-333333333333333333333333333333344333333333333333333333333333444433333333333333&                       ",
";;;;;;;;;;;;;;;;;;;     %-444444444444444444444444444444444444444444444444444444444444444444444444444444&                       ",
"99999999999999000q92>   %-444444444444444444444444444444444444444444444444444444444444444444444444444444&    ;:<<11<><<<11<><<22",
"999999wtiittq00999922$  %-4444----------------------------------------------------------------------4444&   ;>2qqqttrrrrrttqq099",
"www000ruipitq09112211;  %-4444%    X&&&%@XXXXXXXXX&&%%%XXXXXXXXX&&%%%XXXXXXXXX&&%%%XXXXXXX&&%%%oX  %5444&   ;2qqrtiutttttyytt000",
"0000wwryiiytw91112211;  %-4444%     =-&%%ooooooooo=-&%%ooooooooo=-&%%ooooooooo=-&%%ooooooo=-&%%o   *5444&   ;2qtttaaspppyuiuttww",
"r0rrryryyytrq0921<<><;  %-4444%     -3=&%         -3=&%         -3=&%         -3=&%       -3=&%    *5444&   ;0rttisssspuyuaiitww",
"trrrryytrtrqqq221<<><;  %-4444&     -4-&%         -4-&%         -4-&%         -4-&%       -4-&%    *5444&   <0rtyyasiiiuyuisittw",
"ytwwwyywwwwwq9921<<<<;  %-4444&     -4-&%         -4-&%         -4-&%         -4-&%       -4-&%    35444&   <0rtyyiaiiiiuiiyittt",
"rttw0rr0209992221<<<<;  %-4444&     -4-&%         -4-&%         -4-&%         -4-&%       -4-&%    35444&   10rtttyiiiiiiiiisytt",
"yww0000r9rqq0q21,22<<;  %-4444&     -4-&%         -4-&%         -4-&%         -4-&%       -4-&%    35444&   1qrttrtyuuuiiiiityww",
"ryywtr900909q21<<22<1;  %-4444&     -4-&%         -4-&%         -4-&%         -4-&%       -4-&%    35444&   1wtrtttyuuydiyyyrrww",
"ypptww00rt02921><>>>1;  %-4444&     -4-&%         -4-&%         -4-&%         -4-&%       -4-&%    45444&   1rqrtttytiuuuyyirt00",
"ppyrrw09009qw21<1>>>1;  %-4444&     -4-&%         -4-&%         -4-&%         -4-&%       -4-&%    45444&   1rrrttttyuutyywwtqq0",
"yptt0wwrq90q221>><<>1;  %-4444&     -4-&%         -4-&%         -4-&%         -4-&%       -4-&%    46444&   1wqrtttrryyyrrtrtwq0",
"wttr0w9w99q220,<<2<><;  %-4444&     -4-&%         -4-&%         -4-&%         -4-&%       -4-&%    46444&   1wqrrtrertttwrsttw00",
"rrtrw9wr9q00r2,>0<<:<;  %-4444&     -4-&%         -4-&%         -4-&%         -4-&%       -4-&%    46444& o 1wqrtrrrrttrwwryttrr",
"trrwww099rqq11>>>:::1;  %-4444&     -4-&%         -4-&%         -4-&%         -4-&%       -4-&%    46444& @ 1wrrqrtrrrtqrrrytqrr",
"ywrr00090rr0211<::::1;  %-4444&     -4-&%         -4-&%         -4-&%         -4-&%       -4-&%    46444&X- 10rtqtytttttrrryqttt",
"ttrr0w090rw211,<:>>:1;  %-4444&     -4-&%         -4-&%         -4-&%         -4-&%       -4-&%    46444& & 10rrtrtttytrrtyyyttt",
"t0rw099200020,1>::::<;  %-4444&     -4-&%         -4-&%         -4-&%         -4-&%       -4-&%    46444& @ 10ttqrrrrqtqrtttyrww",
"0000029999121,>>::::1;  %-4444&     -4-&%         -4-&%         -4-&%         -4-&%       -4-&%    46444& @ 10truurtqyrrtytqurww",
"w990rrw09991>,::>>:;1;  %-4444&     -4-&%         -4-&%         -4-&%         -4-&%       -4-&%    46444& o 10rttttqqrwttqyqyr00",
"w0wrttyr92021,:>::;;1;  %-4444&     -4-&%         -4-&%         -4-&%         -4-&%       -4-&%    46444& X 10rtutytrttuyyyrqy00",
"r2wtwtrt92112<>:::>><:+ %-4444&     -4-&%         -4-&%         -4-&%         -4-&%       -4-&%    46444& @ 12ttuiuytytuyuyrywww",
"0w0wwt0r1122<<<:>><<1:  %-4444&     -4-&%         -4-&%         -4-&%         -4-&%       -4-&%    46444& - 12ttttiyyywwuuytywww",
"09r9w0w0922<<<<:>><<1:  %-4444&     -4-&%         -4-&%         -4-&%         -4-&%       -4-&%    46444& & 12tuttyyyyttuyttty00",
"090992w12222211<>>::<:  %-4444&     -4-&%         -4-&%         -4-&%         -4-&%       -4-&%    46444& @ 12wuuttyytttytrutt00",
"r92920922<<11211<>::<:  %-4444&     -4-&%         -4-&%         -4-&%         -4-&%       -4-&%    46444& @ 12wuyqtytrrtqttytwww",
"112129111>21<2221<<<::  %-4444&     -4-&%         -4-&%         -4-&%         -4-&%       -4-&%    46444& X 12wuty0ttr0rtqtuytww",
"022212<2022212<1<<<<::  %-4444&     -4-&%         -4-&%         -4-&%         -4-&%       -4-&%    46444& o 12wutyertr00rttytw00",
"22<2222222<22222111:<:  %-4444&     -4-&%         -4-&%         -4-&%         -4-&%       -4-&%    46444& X 12wyyerrrt09eret0000",
"22929929229299290<1:<:  %-4444&     -4-&%         -4-&%         -4-&%         -4-&%       -4-&%    46444& o 12qyterre9t9weeqww09",
"21999212219992122<11<:  %-4444&     -4-&%         -4-&%         -4-&%         -4-&%       -4-&%    46444& X 12wyteewwq99eeetq099",
"qq2212qq99ww09122<11<:  %-4444&     -4-&%         -4-&%         -4-&%         -4-&%       -4-&%    46444& o 12wttee0wt29wwwt0022",
"92qq99199wtt0w2><<>><:  %-4444555554444555554     -4-&%         -4-&%         -4-&%       -4-&%    46444& X 12wtrqt0t909qwqw0022",
"<92q<<q<9wwtw092<<>><: +%-444444444444444444-     -4-&%         -4-&%         -4-&%       -4-&%    46444& X 12wtrq09wqqwqtqq0922",
"11221<110www099111<<1: +%-444445444444444544-     -4-&%         -4-&%         -4-&%       -4-&%    46444& X <2wrqq99q090wq0q9922",
"<199919<90w0921111<<1: +%-444458544444445754-     -4-&%         -4-&%         -4-&%       -4-&%    46444& o <<wrqq09092229ww9999",
"19q91<<<122922w<92>>1: +%-4444-4-4444444-4-4-     -4-&%         -4-&%         -4-&%       -4-&%    46444& X ><wrwq0292991w009999",
"91<9999<91<9999<22>>1: +%-4444-&-4444444-&-4-     -4-&%         -4-&%         -4-&%       -4-&%    46444& X ><wrq092999909q19922",
"9212209192122091::11<:  %-44444-444444444-44-     -4-&%         -4-&%         -4-&%       -4-&%    46444& X ;<wr09110w2919999912",
"222w9291222w9291::11<:  %-444444444444444444-     -4-&%         -4-&%         -4-&%       -4-&%    46444& o ;<ww0012q020922211<2",
"<11ww21:<11ww21:>><<<:  %-444444444444444444-     -4-&%         -4-&%         -4-&%       -4-&%    46444& X ;<9w00022q90121<<122",
"219992<<219992<<>><<<:  %-444444444444444444-     -4-&%         -4-&%         -4-&%       -4-&%    46444& X ;<9w092192q9w21<2922",
"q19911>>q19911>>11<<::  %-44444-&&-444444444-     -4-&%         -4-&%         -4-&%       -4-&%    46444& X ;11w000119q2922<<112",
"2<191<>>2<191<>>11<:::  %-444445& 6444444544-     -4-&%         -4-&%         -4-&%       -4-&%    46444& X  <10w092229099222<19",
"2110<<<12110<<<1<<<::$  %-444446& 7444445754-     -4-&%         -4-&%         -4-&%       -4-&%    46444& X  >>9qww2221900222110",
"1199<<111199<<11<::::+  %-444446& 644444-4-4-     -4-&%         -4-&%         -4-&%       -4-&%    46444&XX  ;>99222<119222q1199",
"<<<<<<<<<<<<<<<<<:::$+  %-444445& 644444-&-4-     -4-&%         -4-&%         -4-&%       -4-&%    46444& X  ;;<<<<<<<<<<<<<<<<<",
";;;;;;;;;;;;;;;;;;$++   %-444445&%5444444-44-     -4-&%         -4-&%         -4-&%       -4-&%    46444& X     ;;;;;;;;;;;;;;;;",
"                        %-444445555444444444-     -4-&%         -4-&%         -4-&%       -4-&%    46444& X  +                  ",
"++++++++++++++          %-444444444444444444-     -4-&%         -4-&%         -4-&%       -4-&%    46444& X  +$2tppputwww991$+++",
"+++++++><999292211>     %-444444444444444444-     -4-&%         -4-&%         -4-&%       -4-&%    46444& X  +$tpurrtt00qtq9,$++",
"++++$90rttyyyyrrww1:$   %-444444444444444444-     -4-&%         -4-&%         -4-&%       -4-&%    46444&XX  +<trrwwqw00qqw9,:++",
"+++$9ryuuuuuuuytwq1<:;  %-444445444444444544-     -4-&%         -4-&%         -4-&%       -4-&%    46444& X  +<9w22222222221,$++",
"+++$0yuppapyiiyr001>$$  %-444457544444445754-     -4-&%         -4-&%         -4-&%       -4-&%    46444& X  +$:9911111111,,<$++",
"+++$0yppaapuuiytw91>$$  %-4444-4-4444444-4-4-     -4-&%         -4-&%         -4-&%       -4-&%    46444& X  ++$:::::::::::$$+++",
"+++$0yppapuyuytrq11>$$  %-4444-&-4566544-&-4-     -4-&%         -4-&%         -4-&%       -4-&%    46444& o ++++++++++++++++++++",
"+++$0yappauyyuyrq91>$$  %-4444---------------     -4-&%         -4-&%         -4-&%       -4-&%    46444& X :>9wwrrrttrrtw911+++",
"+++$rypppuuyiyte001>$$  %-4444%     %%%%%         -4-&%         -4-&%         -4-&%       -4-&%    46444& X 1eyyytttrrwwwww91:++",
"+++$rypapytyyiew92><$$  %-4444&     &-&%%         -4-&%         -4-&%         -4-&%       -4-&%    46444& X 9yyytiuyttwtwwww9:++",
"+++$ryupyuutyyre92>:$$  %-4444&     -4-&%         -4-&%         -4-&%         -4-&%       -4-&%    46444& o 9yytiiytrtwrrr002:  ",
"+++$ryuyuyttiyeq91>>$$  %-4444&     -4-&%         -4-&%         -4-&%         -4-&%       -4-&%    46444& X 9yttrrwtwwtwrr092:  ",
"+++$ryuuyywryyq0291:>$  %-4444&     -4-&%         -4-&%         -4-&%         -4-&%       -4-&%    46444& X 9utrq000qwrrw9292:  ",
"+++$ryutrutytyew92>:>$  %-4444&     -4-&%         -4-&%         -4-&%         -4-&%       -4-&%    46444& X 9urq0q990wrw99922:  ",
"+++$ryurytyrtrew21<<$$  %-4444&     -4-&%         -4-&%         -4-&%         -4-&%       -4-&%    46444& o wurq0999909922221:  ",
"+++$rytwryrtrww022<>$$  %-4444&     -4-&%         -4-&%         -4-&%         -4-&%       -4-&%    46444& X qurw0900091q12121:  ",
"+++$ryrrwrwyew0q22<>$$  %-4444&     -4-&%         -4-&%         -4-&%         -4-&%       -4-&%    46444&   qurw00ewee19112<>:  ",
"+++$rywwryyrrweq21<>$$  %-4444&     -4-&%         -4-&%         -4-&%         -4-&%       -4-&%    46444&X@ 9urrrrrq9e919,11<:  ",
"+++$ry00wrrrr00091<>$$  %-4444&     -4-&%         -4-&%         -4-&%         -4-&%       -4-&%    46444& @ 1urr0re99002121<::  ",
"+++$ryw0tryttywq1<<;$$  %-4444&     -4-&%         -4-&%         -4-&%         -4-&%       -4-&%    46444& @ 0urwwwr9q22,29<>::  ",
"+++$ryrwrrrtty0021<>$$  %-4444&     -4-&%         -4-&%         -4-&%         -4-&%       -4-&%    46444& @ 9urwwtt0q991,1>>::  ",
"+++$ryrwttttyye021<>$$  %-4444&     -4-&%         -4-&%         -4-&%         -4-&%       -4-&%    46444& X 1urwweq09211><>:::  ",
"+++$ryrwwyttyye921<;$$  %-4444&     -4-&%         -4-&%         -4-&%         -4-&%       -4-&%    46444& o qurw0e00091>>,:;::  ",
"+++$ryr0wttttt0221<>$$  %-4444&     -4-&%         -4-&%         -4-&%         -4-&%       -4-&%    46444&   2urtqrrw911>>:$;::  ",
"+++$rywwrtytyt922<<;$$  %-4444&     -4-&%         -4-&%         -4-&%         -4-&%       -4-&%    46444& @ 2urqqtt099>>>;;:;:  ",
"+++$ryrwrrrttt9112<;$$  %-4444&     -4-&%         -4-&%         -4-&%         -4-&%       -4-&%    46444& @ 2urrtt02111><:;;;:  ",
"+++$ryw0wytrtr02<22;$$  %-4444&     -4-&%         -4-&%         -4-&%         -4-&%       -4-&%    46444& @ 2urretq022<>>>::;:  ",
"+++$ty0wwrrrrre11<<;$$  %-4444&     -4-&%         -4-&%         -4-&%         -4-&%       -4-&%    46444& @ 2ureewtq92<::::;::  ",
"+++$tywwwwwrre9912>;$$  %-4444&     -4-&%         -4-&%         -4-&%         -4-&%       -4-&%    46444&XX 2urere0q11<:,:;<$:  ",
"+++$tyrrwwww0q0911<;$$  %=4444&     -4-&%         -4-&%         -4-&%         -4-&%       -4-&%    46444&#X 2urwwre21<<:>;:,;:  ",
"+++$tyrtrrwwwr09<<>;$$  %-4444&     -4-&%         -4-&%         -4-&%         -4-&%       -4-&%    46444&Oo <urtere2<<<::;;$;:  ",
"+++$trr0rrww9w91<<>;$$  %-4444&     -4-&%         -4-&%         -4-&%         -4-&%       -4-&%    46444& o 1uretqq1:,,::$;>;$  ",
"+++$trrtrw90201<1<>$$$  %-4444&     -4-&%         -4-&%         -4-&%         -4-&%       -4-&%    46444& o 1urqrr91,,,::;;;;:  ",
"+++$trrw00w029911:;;$$  %-4444&     -4-&%         -4-&%         -4-&%         -4-&%       -4-&%    46444& o 1uwqqeqq,,>,:;;:::  ",
"+++$tw0090q09291<:;$$$  %-4444&     -4-&%         -4-&%         -4-&%         -4-&%       -4-&%    46444& o 1uwqe99,,>><::,;:$  ",
"+++$tw0099q922<><:>$$$  %-4444&     -4-&%         -4-&%         -4-&%         -4-&%       -4-&%    46444&   >ywr9922>,<<:,,;::  ",
"+++$ww0099w00221>:>$$$  %-4444&     -4-&%         -4-&%         -4-&%         -4-&%       -4-&%    46444&   <ywr9q2>,<<1,,,$::  ",
"+++$ww0999029211>:;$$$  %-4444&     -4-&%         -4-&%         -4-&%         -4-&%       -4-&%    46444&   ,099929,1>>,>$,;$:  ",
"+++$000922022<<>>:$$$$  %-4444&     -4-&%         -4-&%         -4-&%         -4-&%       -4-&%    46444&   1091191:::>,:$$$$:  ",
"+++$000992922<><>>$$$$  %-4444&     -4-&%         -4-&%         -4-&%         -4-&%       -4-&%    46444&   <99921<:>>>,;,;:$,  ",
"+++$009191221,<<;$$$$$  %-4444&33344-4-&&&-4444444-4-&&&-4444444-4-&&&-4444444-4-&&&-44444-4-&&----46444&   <91<<9>::::,$$;$$,++",
"+++$0099992291,,$$$$$$  %-444456666654-&-56666666654-&-56666666654-&-56666666654-&-566666654-&-555555444&   >191<<>:::$$$$$$$,++",
"+++$112q211,,,1,$$$$$$  %-444444444444444444444444444444444444444444444444444444444444444444444444444444&   ,11<>>>:::$$$$$$$,++",
"$$$$11121,,1,11,,$$$$$  %-444444444444444444444444444444444444444444444444444444444444444444444444444444&   ,,,,>:::$$:$$$$$$>++",
">>>>>>>>>>>>>>>>>>>>>>  @&&&&&&&&&&&&&&&&&&&&&&&&&&&&&&&&&&&&&&&&&&&&&&&&&&&&&&&&&&&&&&&&&&&&&&&&&&&&&&&&   ,<<<<:<<::<::::<<>>>",
">>>>>>>>>>>>>>>>>>>>>>  @@@@@@@@@@@@@@@@@@@@@@@@@@@@@@@@@@@@@@@@@@@@@@@@@@@@@@@@@@@@@@@@@@@@@@@@@@@@@@@@@   >>>>>>>>>>>>>>>>>>>>"
};
